<svg width="183" height="91" viewBox="0 0 183 91" fill="none" xmlns="http://www.w3.org/2000/svg">
<path d="M4.49023 79.804C4.29051 73.6207 43.9722 67.3212 93.1219 65.7337C142.271 64.1461 182.277 67.8718 182.477 74.0551C182.676 80.2384 142.995 86.5379 93.8451 88.1254C44.6955 89.713 4.68995 85.9873 4.49023 79.804Z" fill="#263238" stroke="#263238" stroke-miterlimit="10"/>
<path d="M180.23 57.711C180.23 57.711 179.148 60.0539 178.374 60.8536C177.6 61.6534 163.64 65.1087 163.64 65.1087L118.397 75.0134L112.917 74.4239L93.7588 75.039C93.7588 75.039 89.9343 65.688 94.1074 56.4754C98.2805 47.2629 119.156 43.6588 125.057 45.5352C130.958 47.4115 144.779 53.4507 154.71 50.1492C164.64 46.8476 172.561 40.3624 175.872 41.2237C179.184 42.0849 180.763 47.4167 180.763 49.7185C180.763 52.0204 180.23 57.711 180.23 57.711Z" fill="#263238" stroke="#263238" stroke-miterlimit="10"/>
<path d="M82.9775 70.5224C83.3722 61.0125 89.7344 53.2917 97.1834 53.2712H105.263L105.12 56.6753C108.278 59.8077 110.195 64.8113 109.964 70.4507C109.733 76.09 107.401 81.109 103.976 84.2567L103.833 87.707H95.7582C88.3041 87.7223 82.5827 80.0324 82.9775 70.5224Z" fill="#263238" stroke="#263238" stroke-miterlimit="10"/>
<path d="M102.643 87.6313C95.2563 86.8131 90.1183 78.4709 91.1674 68.9985C92.2165 59.526 99.0555 52.5103 106.443 53.3284C113.83 54.1466 118.968 62.4888 117.919 71.9613C116.87 81.4338 110.031 88.4494 102.643 87.6313Z" fill="#878787" stroke="#263238" stroke-miterlimit="10"/>
<path d="M94.1075 76.3465C93.9793 75.9209 93.8614 75.4852 93.764 75.0391C93.6683 74.588 93.5863 74.1317 93.5179 73.6703C93.3791 72.6255 93.3311 71.5706 93.3744 70.5175C93.4543 68.3057 93.9427 66.1278 94.8149 64.0938L94.8406 64.0425C95.0251 63.617 95.2302 63.2017 95.4507 62.8018L95.4917 62.7249C95.7121 62.3302 95.9428 61.9457 96.1889 61.5766L96.2299 61.5151C98.4139 58.3006 101.618 56.2346 105.12 56.2295C108.119 56.2295 110.759 57.7213 112.676 60.1667C112.804 60.3257 112.927 60.4948 113.045 60.6794C113.163 60.8486 113.281 61.0229 113.394 61.1921C113.507 61.3664 113.614 61.5458 113.717 61.7047C113.819 61.8842 113.917 62.0636 114.009 62.2482V62.2789C114.101 62.4584 114.189 62.6378 114.276 62.8275V62.8685C114.358 63.0479 114.435 63.2325 114.512 63.417C114.512 63.417 114.512 63.4581 114.537 63.4837C114.609 63.6631 114.676 63.8425 114.742 64.0271L114.773 64.1143C114.835 64.2886 114.891 64.468 114.947 64.6526C114.947 64.6884 114.973 64.7243 114.983 64.7602C115.034 64.9345 115.081 65.114 115.132 65.2729C115.141 65.3196 115.153 65.3658 115.168 65.4113C115.209 65.5805 115.25 65.7548 115.286 65.924C115.286 65.9752 115.311 66.0316 115.322 66.0829C115.357 66.2521 115.388 66.4212 115.419 66.5956L115.45 66.7852C115.48 66.9442 115.501 67.1134 115.521 67.2979L115.552 67.5081C115.552 67.667 115.588 67.8311 115.604 67.9951C115.604 68.072 115.604 68.1489 115.604 68.2258C115.604 68.3848 115.604 68.5488 115.634 68.7077V68.9538C115.634 69.123 115.634 69.2973 115.634 69.4665C115.634 69.5434 115.634 69.6151 115.634 69.6869C115.634 69.933 115.634 70.1996 115.634 70.4354C115.634 70.6712 115.604 71.0352 115.573 71.3326C115.573 71.4044 115.573 71.4761 115.573 71.5479C115.547 71.8042 115.516 72.0606 115.48 72.3118V72.4297C115.383 73.0551 115.255 73.6652 115.101 74.265C114.428 77.0675 112.999 79.6316 110.969 81.6782L110.897 81.7448C110.661 81.9704 110.42 82.1806 110.169 82.3856L110.118 82.4215C108.391 83.8714 106.22 84.6856 103.966 84.7285C101.75 84.7162 99.6145 83.898 97.9576 82.4267C96.1353 80.7961 94.8022 78.691 94.1075 76.3465Z" fill="white" stroke="#263238" stroke-miterlimit="10"/>
<path d="M94.6507 70.9481C94.7151 69.3494 95.0335 67.7712 95.594 66.2726L100.034 69.0564C99.8316 69.6643 99.7159 70.2977 99.6902 70.9378C99.6902 71.0352 99.6902 71.1275 99.6902 71.2198L94.6456 72.0401C94.6353 71.6812 94.6353 71.3172 94.6507 70.9481Z" fill="#263238" stroke="#263238" stroke-miterlimit="10"/>
<path d="M102.505 65.847C102.029 66.1124 101.604 66.4595 101.249 66.8724L98.1216 62.0636C99.1499 60.9086 100.44 60.0172 101.885 59.4644L102.505 65.847Z" fill="#263238" stroke="#263238" stroke-miterlimit="10"/>
<path d="M100.326 74.0701C100.542 74.5089 100.822 74.9132 101.156 75.2698L98.5929 81.0167C97.303 79.9047 96.3005 78.4978 95.6707 76.9154L100.326 74.0701Z" fill="#263238" stroke="#263238" stroke-miterlimit="10"/>
<path d="M107.878 67.9489L112.405 64.8011C113.103 66.4534 113.47 68.2264 113.486 70.02L108.426 70.1636C108.381 69.3979 108.195 68.647 107.878 67.9489Z" fill="#263238" stroke="#263238" stroke-miterlimit="10"/>
<path d="M106.34 66.0316C105.973 65.7754 105.563 65.5878 105.13 65.4779L105.868 59.1208C107.484 59.4204 108.967 60.2139 110.113 61.3919L106.34 66.0316Z" fill="#263238" stroke="#263238" stroke-miterlimit="10"/>
<path d="M103.356 76.454C103.516 76.4746 103.676 76.4849 103.838 76.4848C104.295 76.4833 104.747 76.3945 105.171 76.2233L107.631 81.7242C106.403 82.4722 104.994 82.8726 103.556 82.8828C103.166 82.885 102.777 82.8558 102.392 82.7957L103.356 76.454Z" fill="#263238" stroke="#263238" stroke-miterlimit="10"/>
<path d="M107.914 73.3063L112.922 74.4239C112.438 76.1762 111.607 77.8133 110.477 79.2378L107.268 74.4956C107.527 74.1248 107.744 73.7258 107.914 73.3063Z" fill="#263238" stroke="#263238" stroke-miterlimit="10"/>
<path d="M158.744 60.9101C158.929 52.9432 161.912 46.4683 165.409 46.4529H173.468L172.796 75.3057H164.737C161.241 75.3211 158.559 68.8615 158.744 60.9101Z" fill="#263238" stroke="#263238" stroke-miterlimit="10"/>
<path d="M166.803 60.9101C166.618 68.8769 169.3 75.3211 172.796 75.3057C176.292 75.2903 179.276 68.8205 179.461 60.8486C179.645 52.8766 176.964 46.4376 173.468 46.4529C169.971 46.4683 166.988 52.9689 166.803 60.9101Z" fill="#878787" stroke="#263238" stroke-miterlimit="10"/>
<path d="M168.234 65.7855C168.172 65.4266 168.116 65.0626 168.07 64.6884C168.024 64.3141 167.988 63.9296 167.957 63.54C167.895 62.689 167.87 61.8072 167.89 60.8998C167.924 59.0859 168.155 57.281 168.577 55.5168V55.4758C168.664 55.1169 168.762 54.7683 168.864 54.4505V54.3838C168.972 54.0557 169.08 53.7327 169.198 53.4251V53.3739C170.223 50.6772 171.725 48.9496 173.371 48.9393C174.775 48.9393 176.021 50.1902 176.913 52.2408C176.975 52.3793 177.031 52.5177 177.087 52.6561C177.144 52.7997 177.2 52.9432 177.252 53.0919C177.303 53.2405 177.354 53.3892 177.4 53.5379C177.446 53.6866 177.492 53.8352 177.539 53.9942C177.586 54.1446 177.627 54.2983 177.662 54.4556V54.4915C177.703 54.6401 177.739 54.7939 177.774 54.9529C177.772 54.9699 177.772 54.9871 177.774 55.0041C177.81 55.1528 177.841 55.3066 177.872 55.4604C177.874 55.4843 177.874 55.5083 177.872 55.5322C177.903 55.6808 177.928 55.8346 177.959 55.9833V56.0756C177.959 56.2243 178.005 56.3729 178.026 56.5216V56.6344C178.026 56.7779 178.067 56.9215 178.082 57.065C178.085 57.1111 178.085 57.1574 178.082 57.2035C178.082 57.3419 178.113 57.4854 178.123 57.6238C178.123 57.6802 178.123 57.7315 178.123 57.7828L178.154 58.198V58.3723C178.154 58.5108 178.154 58.644 178.154 58.7825C178.154 58.9209 178.154 58.9106 178.154 58.9721C178.154 59.1106 178.154 59.2439 178.154 59.3823C178.154 59.5207 178.154 59.5156 178.154 59.5822C178.154 59.7258 178.154 59.8693 178.154 60.018C178.154 60.0795 178.154 60.141 178.154 60.2025C178.154 60.4076 178.154 60.6178 178.154 60.8229C178.154 61.0279 178.154 61.3355 178.154 61.5816C178.154 61.638 178.154 61.6995 178.154 61.761L178.108 62.3968C178.108 62.4326 178.108 62.4634 178.108 62.4993C178.062 63.0119 178 63.5246 177.928 64.0373C177.663 66.2087 176.997 68.3121 175.965 70.2405L175.934 70.302C175.821 70.4866 175.708 70.666 175.59 70.8147V70.8455C174.745 72.0605 173.75 72.7731 172.699 72.7782C171.648 72.7834 170.679 72.0707 169.885 70.8506C169.014 69.2841 168.453 67.5643 168.234 65.7855Z" fill="white" stroke="#263238" stroke-miterlimit="10"/>
<path d="M5.17519 65.0114C5.56995 55.5014 11.9321 47.7807 19.3811 47.7602H27.4607C34.9149 47.7602 40.6362 55.4502 40.2415 64.9447C39.8467 74.4393 33.4846 82.1908 26.0304 82.1908H17.9559C10.5018 82.2164 4.78044 74.5008 5.17519 65.0114Z" fill="#263238" stroke="#263238" stroke-miterlimit="10"/>
<path d="M156.16 5.66012C156.16 5.66012 159.749 6.71621 160.226 7.76718C160.703 8.81814 160.974 9.57176 160.974 9.57176L171.807 25.367C171.807 25.367 175.718 25.0696 176.933 28.3763C178.149 31.683 177.682 36.1996 177.682 36.1996C177.682 36.1996 180.543 43.2692 180.691 48.5343C180.793 51.6004 180.642 54.6697 180.24 57.711C180.24 57.711 180.994 48.0832 178.738 45.0738C176.482 42.0645 171.817 44.3253 170.023 49.7391C168.228 55.1528 166.075 65.2318 166.075 65.2318L118.397 75.0135C118.397 75.0135 120.807 62.3763 117.644 55.1528C114.481 47.9294 99.7466 48.3856 97.0346 61.474C94.3226 74.5623 95.23 76.9667 95.23 76.9667C95.23 76.9667 85.1511 79.0738 54.4629 78.6226C23.7748 78.1715 6.92862 74.5623 2.41205 73.3575C2.41205 73.3575 1.3867 67.79 1.05861 64.4833C0.859253 62.5803 1.17072 60.6585 1.96089 58.9158C1.96089 58.9158 2.26337 52.8971 3.01698 50.79C3.7706 48.683 6.02632 45.525 6.02632 45.525C6.02632 45.525 8.28206 40.2599 12.0399 36.9532C15.7977 33.6465 21.9702 30.3347 23.4774 29.5811C24.9847 28.8275 26.9328 28.3763 29.7935 26.4231C32.6542 24.4698 50.4026 12.13 55.9702 8.82327C61.5377 5.51658 73.57 3.85555 75.9641 3.4044C78.3582 2.95326 106.052 1 115.68 1C125.308 1 145.179 1.45114 156.16 5.66012Z" fill="#00C977" stroke="#263238" stroke-miterlimit="10"/>
<path opacity="0.15" d="M1.06395 64.4833C0.864594 62.5802 1.17606 60.6584 1.96623 58.9157C1.96623 58.9157 2.06364 56.9881 2.28409 54.9374C21.1091 60.4896 54.7861 60.8639 64.1781 60.0333C74.9697 59.0849 94.1127 56.4754 94.9381 53.3687C95.7635 50.2619 103.187 43.2128 108.267 41.3057C112.62 39.6754 163.123 32.6827 177.477 30.714C177.741 32.5285 177.798 34.3671 177.646 36.1944C177.646 36.1944 180.507 43.2641 180.656 48.5291C180.758 51.5952 180.607 54.6645 180.205 57.7058C180.205 57.7058 180.958 48.078 178.702 45.0686C176.447 42.0593 171.781 44.3202 169.987 49.7339C168.193 55.1476 166.075 65.2318 166.075 65.2318L118.398 75.0134C118.398 75.0134 120.807 62.3762 117.644 55.1528C114.481 47.9293 99.7469 48.3856 97.0349 61.4739C94.3229 74.5623 95.2303 76.9667 95.2303 76.9667C95.2303 76.9667 85.1513 79.0737 54.4632 78.6226C23.775 78.1714 6.92883 74.5623 2.41226 73.3575C2.41737 73.3575 1.36641 67.79 1.06395 64.4833Z" fill="black"/>
<path d="M123.216 10.4741C129.271 6.13691 134.495 5.47557 136.945 5.27563C139.278 9.46411 143.097 17.3899 143.861 25.6079C131.045 27.6073 116.746 29.8836 116.746 29.8836C116.746 29.8836 113.44 31.0832 112.235 29.8836C111.84 29.562 111.53 29.1483 111.333 28.6788C111.03 27.9252 116.295 15.4418 123.216 10.4741Z" fill="white" stroke="#263238" stroke-miterlimit="10"/>
<path d="M141.062 5.29095C144.517 5.47642 147.954 5.90988 151.347 6.588C154.807 7.34161 156.012 7.49029 156.612 8.09523C157.211 8.70018 163.081 16.0569 165.188 21.3066C165.102 21.6841 164.892 22.0221 164.592 22.2671C164.293 22.5122 163.92 22.6505 163.533 22.6601C163.02 22.6601 156.724 23.6136 148.881 24.8286C147.568 20.1582 144.933 11.9556 141.062 5.29095Z" fill="white" stroke="#263238" stroke-miterlimit="10"/>
<path d="M160.174 22.896C160.174 22.896 157.611 13.0169 152.433 7.14178" stroke="#263238" stroke-miterlimit="10"/>
<path d="M143.723 32.7083L148.004 31.9496C148.143 31.9912 148.273 32.06 148.385 32.152C148.498 32.2441 148.591 32.3576 148.659 32.4859C148.727 32.6142 148.769 32.7547 148.782 32.8994C148.796 33.0441 148.78 33.19 148.737 33.3287C148.419 34.3796 147.85 34.2617 147.85 34.2617L144.287 34.8359C144.053 34.8597 143.819 34.7958 143.629 34.6566C143.44 34.5173 143.309 34.3126 143.262 34.0823C143.077 33.221 142.836 33.1133 143.723 32.7083Z" stroke="#263238" stroke-miterlimit="10"/>
<path d="M165.363 28.9762L168.639 28.361C168.861 28.4369 169.044 28.5974 169.149 28.8076C169.253 29.0177 169.271 29.2607 169.198 29.4837C168.957 30.3347 168.521 30.2424 168.521 30.2424L165.799 30.709C165.614 30.7267 165.429 30.6727 165.283 30.5582C165.137 30.4437 165.041 30.2774 165.014 30.0938C164.866 29.3863 164.681 29.3094 165.363 28.9762Z" stroke="#263238" stroke-miterlimit="10"/>
<path d="M139.186 4.77835C139.186 4.77835 145.287 16.1236 146.363 25.5413" stroke="#263238" stroke-miterlimit="10"/>
<path d="M147.748 27.4895C147.748 27.4895 150.531 32.1957 150.639 33.8004C150.747 35.405 150.424 54.671 149.891 58.2032" stroke="#263238" stroke-miterlimit="10"/>
<path d="M117.459 17.0003C117.459 17.0003 119.602 23.2086 120.243 26.5256" stroke="#263238" stroke-miterlimit="10"/>
<path d="M118.316 34.231C118.316 34.231 120.674 42.044 120.776 47.9294C120.879 53.8148 120.992 64.8474 120.992 64.8474" stroke="#263238" stroke-miterlimit="10"/>
<path d="M165.517 23.4188C165.517 23.4188 170.546 28.0327 170.971 29.5195C171.397 31.0062 170.869 43.8741 170.869 43.8741" stroke="#263238" stroke-miterlimit="10"/>
<path d="M164.537 58.4185C164.537 58.4185 163.789 60.5615 162.184 61.0947C160.579 61.6278 121.617 69.123 121.617 69.123" stroke="#263238" stroke-miterlimit="10"/>
<path d="M51.6943 65.2113C51.6943 65.2113 21.8623 65.6214 10.7785 62.2019C10.7785 62.2019 11.8705 69.5894 13.9263 71.0967C15.9821 72.6039 30.8955 74.1368 38.1446 74.3777C46.3472 74.6546 51.0125 73.8343 51.0125 73.8343L51.6943 65.2113Z" fill="#263238" stroke="#263238" stroke-miterlimit="10"/>
<path d="M57.0312 46.5964L54.0219 52.7484C54.0219 52.7484 37.1911 53.1585 35.2737 53.2918C33.3564 53.4251 31.3057 54.3889 29.1218 53.2918C26.9378 52.1947 17.4894 50.9694 16.3923 50.9694C15.2952 50.9694 13.9315 51.9281 13.9315 51.9281C13.9315 51.9281 16.3923 45.7761 17.351 45.2225C18.0692 44.8586 18.8787 44.7141 19.6785 44.8072C20.0835 44.8174 40.062 43.3153 57.0312 46.5964Z" fill="#263238" stroke="#263238" stroke-miterlimit="10"/>
<path d="M88.7553 34.3078C88.7553 34.3078 95.9326 33.2056 98.6651 34.1694C101.398 35.1332 100.044 38.85 95.3636 42.29C90.6829 45.73 86.8277 49.0315 82.0343 49.5852C77.2408 50.1389 68.9357 51.9435 68.5255 50.4055C68.1154 48.8675 69.6278 43.3871 75.1338 39.3934C80.6398 35.3998 88.7553 34.3078 88.7553 34.3078Z" fill="white" stroke="#263238" stroke-miterlimit="10"/>
<path d="M31.2445 26.459L32.6184 26.8742L39.283 27.0639C42.7845 27.1664 47.4088 27.2946 52.5201 27.4279C59.5743 27.6176 67.5514 27.8124 74.7543 27.9406C85.7664 28.1713 94.9841 28.2892 96.3683 28.0841C99.1501 27.7263 101.764 26.5525 103.879 24.7108C105.472 23.2851 106.797 21.5852 107.79 19.6918C111.056 13.6577 119.423 6.2292 119.423 6.2292C106.211 4.69121 74.6928 5.26539 71.1144 5.40381C70.0043 5.46041 68.8994 5.59402 67.8077 5.80369C63.9884 6.48041 59.0053 7.98252 56.1138 9.94602C55.6012 10.2946 54.7758 10.8432 53.7402 11.5353C51.3204 13.1502 47.7318 15.5289 44.1277 17.918L37.8425 22.0757L31.2445 26.459Z" fill="white" stroke="#263238" stroke-miterlimit="10"/>
<path d="M56.1395 9.94598C55.6269 10.2946 54.8015 10.8431 53.7659 11.5352L74.7134 27.9405C85.7254 28.1712 94.9431 28.2891 96.3273 28.0841C99.1091 27.7263 101.723 26.5524 103.838 24.7107L67.8334 5.80365C64.0141 6.48037 59.031 7.98248 56.1395 9.94598Z" fill="#263238" stroke="#263238" stroke-miterlimit="10"/>
<path d="M37.868 22.0756L39.242 27.0639C42.7435 27.1664 47.3677 27.2945 52.479 27.4278L44.1533 17.9179L37.868 22.0756Z" fill="#263238" stroke="#263238" stroke-miterlimit="10"/>
<path d="M60.8916 42.4798C60.056 43.3308 59.246 44.2279 58.477 45.1815" stroke="#263238" stroke-miterlimit="10"/>
<path d="M81.188 30.3141C81.188 30.3141 70.7706 33.3901 62.3373 41.0801" stroke="#263238" stroke-miterlimit="10"/>
<path d="M14.4648 44.9353C13.3643 47.003 12.5666 49.2182 12.0963 51.5128" stroke="#263238" stroke-miterlimit="10"/>
<path d="M30.3984 30.8678C30.3984 30.8678 21.1705 34.4565 15.6388 42.9462" stroke="#263238" stroke-miterlimit="10"/>
<path d="M72.9291 67.8874C72.9291 69.4869 74.4671 70.7788 76.3691 70.7788C78.2711 70.7788 79.8091 69.4869 79.8091 67.8874C79.8091 66.2879 78.2711 64.9959 76.3691 64.9959C74.4671 64.9959 72.9291 66.2981 72.9291 67.8874Z" fill="white" stroke="#263238" stroke-miterlimit="10"/>
<path d="M1.66853 63.1913C1.96075 64.5704 2.88866 65.5393 3.74481 65.3548C4.60096 65.1702 5.05724 63.9142 4.77014 62.5351C4.48305 61.1561 3.55 60.1922 2.71948 60.3717C1.88897 60.5511 1.37631 61.8174 1.66853 63.1913Z" fill="white" stroke="#263238" stroke-miterlimit="10"/>
<path d="M119.91 28.3609C119.91 28.3609 122.765 23.547 124.57 23.2343C126.374 22.9216 134.049 22.6345 135.705 23.6906C137.361 24.7466 136.905 28.202 136.305 29.1043C135.705 30.0066 133.295 30.4577 131.178 30.3091C129.061 30.1604 122.001 30.7602 122.001 30.7602C122.001 30.7602 117.792 33.7696 116.285 33.4671C114.778 33.1646 112.825 29.8784 114.183 28.0482C115.542 26.218 117.649 26.7204 119.91 28.3609Z" fill="#263238" stroke="#263238" stroke-miterlimit="10"/>
<path d="M119.91 28.3763L114.942 29.4324" stroke="#263238" stroke-miterlimit="10"/>
<path d="M156.16 5.66012C156.16 5.66012 159.749 6.71621 160.226 7.76718C160.703 8.81814 160.974 9.57176 160.974 9.57176L171.807 25.367C171.807 25.367 175.718 25.0696 176.933 28.3763C178.149 31.683 177.682 36.1996 177.682 36.1996C177.682 36.1996 180.543 43.2692 180.691 48.5343C180.793 51.6004 180.642 54.6697 180.24 57.711C180.24 57.711 180.994 48.0832 178.738 45.0738C176.482 42.0645 171.817 44.3253 170.023 49.7391C168.228 55.1528 166.075 65.2318 166.075 65.2318L118.397 75.0135C118.397 75.0135 120.807 62.3763 117.644 55.1528C114.481 47.9294 99.7466 48.3856 97.0346 61.474C94.3226 74.5623 95.23 76.9667 95.23 76.9667C95.23 76.9667 85.1511 79.0738 54.4629 78.6226C23.7748 78.1715 6.92862 74.5623 2.41205 73.3575C2.41205 73.3575 1.38671 67.79 1.0586 64.4833C0.859253 62.5803 1.17071 60.6585 1.9609 58.9158C1.9609 58.9158 2.26337 52.8971 3.01699 50.79C3.7706 48.683 6.02633 45.525 6.02633 45.525C6.02633 45.525 8.28206 40.2599 12.0399 36.9532C15.7977 33.6465 21.9702 30.3347 23.4775 29.5811C24.9847 28.8275 26.9328 28.3763 29.7935 26.4231C32.6542 24.4698 50.4026 12.13 55.9702 8.82327C61.5377 5.51658 73.57 3.85555 75.9641 3.4044C78.3582 2.95326 106.052 1 115.68 1C125.308 1 145.179 1.45114 156.16 5.66012Z" stroke="#263238" stroke-miterlimit="10"/>
<path d="M17.4641 33.0673C17.4641 33.0673 20.4888 34.1695 19.6635 35.2718C18.8381 36.374 14.2959 39.2603 12.2349 42.8387C10.174 46.4171 9.75364 48.2063 8.79495 48.2063C7.83627 48.2063 5.7446 46.4222 6.03169 45.5251C6.31879 44.6279 7.83114 36.5073 17.4641 33.0673Z" fill="white" stroke="#263238" stroke-miterlimit="10"/>
<path d="M168.9 60.6588C168.927 59.2599 169.071 57.8656 169.331 56.4908L171.381 58.9721C171.28 59.5291 171.22 60.0929 171.202 60.6588C171.202 60.7459 171.202 60.828 171.202 60.91L168.89 61.6431C168.895 61.2996 168.895 60.9715 168.9 60.6588Z" fill="#263238" stroke="#263238" stroke-miterlimit="10"/>
<path d="M172.509 56.0961C172.271 56.367 172.075 56.673 171.93 57.0035L170.5 52.7125C170.877 51.8132 171.471 51.0208 172.227 50.4055L172.509 56.0961Z" fill="#263238" stroke="#263238" stroke-miterlimit="10"/>
<path d="M171.504 63.4273C171.595 63.7962 171.722 64.1552 171.884 64.4987L170.705 69.6254C170.058 68.4884 169.605 67.2512 169.367 65.965L171.504 63.4273Z" fill="#263238" stroke="#263238" stroke-miterlimit="10"/>
<path d="M174.965 57.9674L177.016 55.158C177.345 56.6881 177.517 58.2479 177.528 59.813L175.211 59.9412C175.193 59.2768 175.111 58.6158 174.965 57.9674Z" fill="#263238" stroke="#263238" stroke-miterlimit="10"/>
<path d="M174.278 56.2601C174.139 56.0459 173.949 55.8697 173.724 55.7474L174.063 50.0568C174.796 50.308 175.462 51.0258 176.011 52.0818L174.278 56.2601Z" fill="#263238" stroke="#263238" stroke-miterlimit="10"/>
<path d="M172.894 65.5496C172.965 65.5702 173.04 65.5806 173.114 65.5804C173.338 65.5736 173.554 65.4904 173.724 65.3445L174.862 70.2559C174.642 70.5511 174.361 70.7956 174.038 70.9725C173.716 71.1494 173.358 71.2547 172.991 71.2812C172.817 71.2775 172.645 71.2499 172.478 71.1992L172.894 65.5496Z" fill="#263238" stroke="#263238" stroke-miterlimit="10"/>
<path d="M174.98 62.7454L177.277 63.7348C177.078 65.2054 176.701 66.6463 176.154 68.0258L174.683 63.7963C174.807 63.4535 174.906 63.1023 174.98 62.7454Z" fill="#263238" stroke="#263238" stroke-miterlimit="10"/>
</svg>
