<svg width="308" height="237" viewBox="0 0 308 237" fill="none" xmlns="http://www.w3.org/2000/svg">
<path d="M299.227 91.1913C299.227 91.1913 292.493 49.4124 244.344 23.6077C196.196 -2.1969 173.901 23.4815 149.695 34.1942C125.488 44.9068 112.357 30.1613 71.9522 23.1981C31.5477 16.235 -3.46939 85.457 7.97852 139.524C19.4264 193.591 44.6792 212.842 99.8985 225.13C155.118 237.418 187.778 196.868 226.836 204.24C265.893 211.613 312.358 170.244 299.227 91.1913Z" fill="#00C977"/>
<path opacity="0.81" d="M299.227 91.1913C299.227 91.1913 292.493 49.4124 244.344 23.6077C196.196 -2.1969 173.901 23.4815 149.695 34.1942C125.488 44.9068 112.357 30.1613 71.9522 23.1981C31.5477 16.235 -3.46939 85.457 7.97852 139.524C19.4264 193.591 44.6792 212.842 99.8985 225.13C155.118 237.418 187.778 196.868 226.836 204.24C265.893 211.613 312.358 170.244 299.227 91.1913Z" fill="white"/>
<path d="M277.709 186.197C277.638 186.164 277.6 186.072 277.624 185.986C279.638 178.862 284.815 173.375 291.134 171.667C291.214 171.646 291.294 171.702 291.312 171.795C291.331 171.886 291.282 171.978 291.202 172C284.983 173.681 279.888 179.081 277.906 186.092C277.881 186.182 277.797 186.231 277.719 186.202L277.709 186.197Z" fill="#263238"/>
<path d="M282.67 181.627C281.274 180.294 279.064 182.504 279.098 182.582C278.941 182.893 278.791 183.209 278.648 183.531C278.955 183.204 279.968 183.019 281.3 183.362C282.631 183.647 284.04 182.84 282.67 181.627Z" fill="#263238"/>
<path d="M278.489 177.996C277.08 176.746 276.39 179.46 277.311 180.726C278.176 182 278.643 183.039 278.624 183.518C278.749 183.185 278.88 182.857 279.019 182.533C278.949 182.523 279.786 179.237 278.489 177.996Z" fill="#263238"/>
<path d="M284.461 179.315C283.277 177.734 280.796 179.457 280.819 179.536C280.622 179.807 280.43 180.085 280.244 180.368C280.591 180.113 281.611 180.138 282.87 180.741C284.137 181.289 285.635 180.777 284.461 179.315Z" fill="#263238"/>
<path d="M280.868 174.926C279.66 173.422 278.6 175.945 279.326 177.364C279.996 178.783 280.308 179.89 280.223 180.351C280.392 180.053 280.567 179.76 280.748 179.473C280.681 179.452 281.965 176.404 280.868 174.926Z" fill="#263238"/>
<path d="M286.553 177.391C285.614 175.606 282.926 176.817 282.939 176.897C282.707 177.125 282.479 177.359 282.256 177.601C282.633 177.419 283.632 177.645 284.784 178.485C285.95 179.273 287.498 179.06 286.553 177.391Z" fill="#263238"/>
<path d="M283.647 172.37C282.674 170.655 281.268 172.934 281.78 174.469C282.237 175.996 282.387 177.144 282.238 177.579C282.446 177.321 282.66 177.068 282.878 176.821C282.814 176.79 284.513 174.041 283.647 172.37Z" fill="#263238"/>
<path d="M288.898 175.895C288.229 173.954 285.4 174.633 285.402 174.714C285.141 174.893 284.883 175.08 284.629 175.274C285.026 175.169 285.977 175.585 286.991 176.635C288.026 177.637 289.587 177.723 288.898 175.895Z" fill="#263238"/>
<path d="M286.762 170.383C286.05 168.503 284.328 170.483 284.612 172.096C284.841 173.689 284.823 174.85 284.614 175.25C284.856 175.035 285.103 174.828 285.354 174.627C285.293 174.585 287.371 172.198 286.762 170.383Z" fill="#263238"/>
<path d="M291.448 174.868C291.071 172.823 288.16 172.952 288.154 173.032C287.869 173.159 287.586 173.294 287.306 173.437C287.714 173.41 288.594 174.002 289.444 175.233C290.32 176.419 291.859 176.804 291.448 174.868Z" fill="#263238"/>
<path d="M290.15 169.018C289.722 167.026 287.714 168.65 287.758 170.297C287.749 171.913 287.561 173.056 287.295 173.41C287.566 173.245 287.84 173.087 288.119 172.937C288.061 172.884 290.481 170.926 290.15 169.018Z" fill="#263238"/>
<path d="M289.806 172.257C289.765 172.229 291.961 170.524 293.392 170.255C294.791 169.943 295.324 171.081 295.094 171.748C294.871 172.422 293.889 172.593 293.057 172.536C292.239 172.404 289.818 172.208 289.806 172.257Z" fill="#263238"/>
<path d="M289.769 172.363C289.765 172.361 289.761 172.359 289.757 172.356C289.721 172.332 289.701 172.283 289.709 172.235C289.709 172.232 289.71 172.228 289.712 172.224C289.719 172.194 289.726 172.171 289.761 172.155C290.114 171.765 292.147 170.373 293.376 170.142C294.065 169.989 294.654 170.17 294.991 170.64C295.234 170.979 295.31 171.43 295.185 171.79C294.884 172.702 293.476 172.679 293.051 172.65C292.253 172.522 290.05 172.345 289.84 172.365C289.817 172.374 289.791 172.373 289.769 172.363ZM294.417 170.434C294.184 170.323 293.858 170.267 293.411 170.367C292.282 170.579 290.69 171.685 290.105 172.139C290.312 172.149 290.634 172.173 291.136 172.215C291.784 172.27 292.632 172.353 293.071 172.424C293.868 172.478 294.8 172.318 295.001 171.707C295.1 171.422 295.036 171.061 294.839 170.785C294.759 170.674 294.625 170.532 294.417 170.434Z" fill="#263238"/>
<path d="M277.816 186.059C277.746 186.096 277.662 186.065 277.624 185.986C274.472 179.435 274.512 171.323 277.728 164.816C277.768 164.734 277.859 164.705 277.93 164.752C278.001 164.799 278.026 164.903 277.985 164.985C274.82 171.389 274.781 179.373 277.883 185.82C277.923 185.903 277.897 186.007 277.826 186.053L277.816 186.059Z" fill="#263238"/>
<path d="M278.29 178.753C276.494 179.026 276.393 182.4 276.466 182.424C276.557 182.767 276.655 183.109 276.762 183.45C276.763 182.968 277.335 181.985 278.459 181.092C279.546 180.16 279.993 178.419 278.29 178.753Z" fill="#263238"/>
<path d="M273.141 179.818C271.387 180.159 272.641 182.589 274.071 182.672C275.469 182.807 276.447 183.119 276.738 183.461C276.611 183.129 276.493 182.795 276.381 182.457C276.327 182.509 274.811 179.566 273.141 179.818Z" fill="#263238"/>
<path d="M278.041 175.665C276.233 175.59 275.637 178.861 275.703 178.895C275.741 179.247 275.787 179.597 275.841 179.948C275.915 179.481 276.625 178.635 277.865 177.98C279.074 177.282 279.769 175.667 278.041 175.665Z" fill="#263238"/>
<path d="M272.811 175.716C271.033 175.714 271.914 178.328 273.308 178.68C274.665 179.078 275.58 179.568 275.815 179.954C275.741 179.608 275.674 179.261 275.615 178.912C275.556 178.955 274.495 175.794 272.811 175.716Z" fill="#263238"/>
<path d="M278.244 172.586C276.471 172.166 275.412 175.263 275.471 175.307C275.458 175.658 275.451 176.01 275.453 176.362C275.594 175.92 276.417 175.229 277.734 174.827C279.028 174.376 279.946 172.922 278.244 172.586Z" fill="#263238"/>
<path d="M273.079 171.627C271.327 171.283 271.818 174.022 273.141 174.634C274.421 175.286 275.252 175.941 275.427 176.364C275.404 176.012 275.389 175.659 275.381 175.306C275.318 175.34 274.729 172.031 273.079 171.627Z" fill="#263238"/>
<path d="M278.89 169.585C277.203 168.829 275.708 171.685 275.761 171.737C275.697 172.08 275.64 172.426 275.591 172.773C275.794 172.365 276.705 171.844 278.062 171.701C279.402 171.507 280.519 170.246 278.89 169.585Z" fill="#263238"/>
<path d="M273.937 167.64C272.26 166.963 272.344 169.767 273.561 170.624C274.729 171.515 275.454 172.32 275.565 172.769C275.593 172.418 275.63 172.068 275.673 171.719C275.605 171.742 275.504 168.36 273.937 167.64Z" fill="#263238"/>
<path d="M279.973 166.728C278.419 165.656 276.52 168.206 276.566 168.265C276.452 168.593 276.346 168.924 276.247 169.258C276.507 168.894 277.481 168.553 278.841 168.672C280.19 168.739 281.481 167.699 279.973 166.728Z" fill="#263238"/>
<path d="M275.376 163.846C273.821 162.852 273.485 165.656 274.56 166.739C275.58 167.847 276.177 168.783 276.222 169.249C276.301 168.908 276.388 168.568 276.482 168.23C276.409 168.243 276.812 164.865 275.376 163.846Z" fill="#263238"/>
<path d="M277.199 166.341C277.153 166.357 277.565 163.339 278.367 161.946C279.121 160.551 280.207 160.874 280.473 161.523C280.75 162.17 280.19 163.117 279.588 163.782C278.947 164.384 277.176 166.297 277.199 166.341Z" fill="#263238"/>
<path d="M277.24 166.444C277.236 166.446 277.232 166.448 277.228 166.45C277.188 166.464 277.143 166.447 277.118 166.408C277.116 166.406 277.115 166.402 277.114 166.398C277.099 166.371 277.089 166.35 277.103 166.309C277.095 165.745 277.595 163.08 278.285 161.883C278.656 161.196 279.172 160.82 279.7 160.855C280.08 160.881 280.419 161.124 280.562 161.474C280.937 162.349 279.963 163.525 279.656 163.864C279.031 164.451 277.42 166.194 277.289 166.386C277.28 166.412 277.262 166.432 277.24 166.444ZM279.179 161.2C278.95 161.322 278.693 161.559 278.451 162.006C277.818 163.105 277.436 165.204 277.327 166.008C277.474 165.839 277.708 165.584 278.077 165.187C278.552 164.677 279.182 164.016 279.526 163.693C280.102 163.056 280.635 162.159 280.385 161.573C280.271 161.295 279.998 161.104 279.689 161.083C279.563 161.075 279.383 161.091 279.179 161.2Z" fill="#263238"/>
<path d="M33.2189 186.2C33.2769 186.172 33.3076 186.097 33.2878 186.027C31.6415 180.204 27.4098 175.718 22.2442 174.322C22.1793 174.304 22.114 174.351 22.0988 174.426C22.0835 174.501 22.1239 174.577 22.189 174.594C27.2728 175.968 31.4374 180.383 33.0577 186.114C33.0784 186.187 33.1468 186.227 33.2103 186.203L33.2189 186.2Z" fill="#263238"/>
<path d="M29.1636 182.463C30.3047 181.374 32.1112 183.181 32.0834 183.245C32.2112 183.498 32.3338 183.757 32.4511 184.02C32.2002 183.753 31.3724 183.601 30.2836 183.882C29.1954 184.115 28.0434 183.455 29.1636 182.463Z" fill="#263238"/>
<path d="M32.5808 179.496C33.7331 178.474 34.2965 180.692 33.5442 181.727C32.8367 182.769 32.455 183.618 32.4703 184.009C32.3685 183.737 32.261 183.469 32.1479 183.205C32.2048 183.196 31.5211 180.51 32.5808 179.496Z" fill="#263238"/>
<path d="M27.6995 180.574C28.6668 179.282 30.6954 180.69 30.6766 180.755C30.8377 180.976 30.9943 181.203 31.1463 181.435C30.8626 181.226 30.0289 181.247 28.9996 181.74C27.9644 182.187 26.7397 181.769 27.6995 180.574Z" fill="#263238"/>
<path d="M30.636 176.986C31.6235 175.756 32.4903 177.819 31.897 178.979C31.3491 180.139 31.0938 181.043 31.1638 181.421C31.0257 181.177 30.8825 180.938 30.7343 180.703C30.7895 180.686 29.7393 178.194 30.636 176.986Z" fill="#263238"/>
<path d="M25.9894 179.001C26.7571 177.542 28.9538 178.532 28.9435 178.598C29.1333 178.784 29.3193 178.975 29.5014 179.172C29.1933 179.024 28.377 179.209 27.4354 179.895C26.482 180.539 25.2167 180.365 25.9894 179.001Z" fill="#263238"/>
<path d="M28.3642 174.897C29.1603 173.494 30.3092 175.357 29.8903 176.613C29.5169 177.86 29.3943 178.799 29.5164 179.155C29.3464 178.944 29.1717 178.737 28.9928 178.535C29.0457 178.51 27.6565 176.262 28.3642 174.897Z" fill="#263238"/>
<path d="M24.0723 177.778C24.619 176.192 26.932 176.747 26.9297 176.812C27.1435 176.959 27.3544 177.112 27.5619 177.271C27.2374 177.185 26.46 177.524 25.6311 178.383C24.785 179.202 23.5093 179.273 24.0723 177.778Z" fill="#263238"/>
<path d="M25.8179 173.272C26.4 171.736 27.8079 173.354 27.5758 174.673C27.3884 175.975 27.403 176.924 27.5743 177.251C27.3765 177.076 27.1747 176.906 26.9692 176.741C27.0195 176.707 25.3205 174.756 25.8179 173.272Z" fill="#263238"/>
<path d="M21.9875 176.938C22.2958 175.267 24.6752 175.372 24.6804 175.438C24.9138 175.542 25.1448 175.652 25.3733 175.769C25.0399 175.746 24.3207 176.23 23.6263 177.237C22.9101 178.207 21.6522 178.521 21.9875 176.938Z" fill="#263238"/>
<path d="M23.0485 172.157C23.3985 170.528 25.0404 171.856 25.0039 173.202C25.0113 174.523 25.1654 175.457 25.3825 175.747C25.1614 175.612 24.9368 175.483 24.709 175.36C24.7561 175.317 22.7786 173.716 23.0485 172.157Z" fill="#263238"/>
<path d="M23.3297 174.804C23.3639 174.782 21.5683 173.387 20.3987 173.168C19.2554 172.913 18.8191 173.843 19.0078 174.388C19.1898 174.939 19.9925 175.079 20.6726 175.033C21.3414 174.924 23.3199 174.764 23.3297 174.804Z" fill="#263238"/>
<path d="M23.3603 174.891L23.3699 174.885C23.3995 174.866 23.4156 174.825 23.4095 174.786L23.4069 174.778C23.4008 174.753 23.3957 174.734 23.3664 174.721C23.0779 174.402 21.4166 173.265 20.4116 173.076C19.8488 172.95 19.3668 173.098 19.0915 173.483C18.8932 173.76 18.831 174.129 18.9328 174.423C19.1789 175.168 20.3303 175.149 20.6773 175.126C21.3297 175.02 23.1307 174.876 23.3025 174.892C23.3214 174.9 23.3419 174.899 23.3603 174.891ZM19.5604 173.314C19.7509 173.224 20.0173 173.178 20.3833 173.259C21.3059 173.432 22.6078 174.336 23.0859 174.708C22.9164 174.716 22.6532 174.736 22.2424 174.77C21.7131 174.815 21.0198 174.883 20.6614 174.94C20.0098 174.985 19.248 174.854 19.0831 174.355C19.0024 174.122 19.0547 173.826 19.2159 173.601C19.2813 173.51 19.3907 173.394 19.5604 173.314Z" fill="#263238"/>
<path d="M33.1314 186.086C33.1883 186.117 33.2568 186.092 33.2878 186.027C35.8645 180.672 35.8321 174.041 33.2033 168.722C33.1704 168.655 33.0964 168.631 33.0383 168.67C32.9802 168.708 32.9599 168.793 32.9931 168.86C35.5802 174.095 35.612 180.621 33.0761 185.892C33.0437 185.959 33.0647 186.044 33.1232 186.082L33.1314 186.086Z" fill="#263238"/>
<path d="M32.7438 180.114C34.212 180.338 34.2941 183.095 34.2347 183.115C34.1606 183.396 34.0799 183.675 33.9928 183.954C33.9917 183.56 33.5244 182.757 32.6053 182.027C31.7169 181.265 31.352 179.841 32.7438 180.114Z" fill="#263238"/>
<path d="M36.9532 180.985C38.3863 181.263 37.3611 183.25 36.1924 183.318C35.0495 183.428 34.2506 183.684 34.0127 183.963C34.116 183.692 34.2131 183.418 34.3041 183.142C34.3481 183.185 35.588 180.779 36.9532 180.985Z" fill="#263238"/>
<path d="M32.9469 177.59C34.4254 177.529 34.9121 180.202 34.8581 180.231C34.827 180.518 34.7896 180.805 34.7458 181.091C34.6852 180.709 34.105 180.018 33.0915 179.483C32.1029 178.912 31.5349 177.592 32.9469 177.59Z" fill="#263238"/>
<path d="M37.2229 177.632C38.6756 177.63 37.9562 179.767 36.8161 180.054C35.7069 180.38 34.9586 180.78 34.7667 181.096C34.8275 180.813 34.882 180.529 34.9304 180.244C34.9785 180.28 35.846 177.695 37.2229 177.632Z" fill="#263238"/>
<path d="M32.7817 175.073C34.2303 174.73 35.0967 177.261 35.0481 177.297C35.0592 177.584 35.0641 177.872 35.0629 178.16C34.9472 177.799 34.2747 177.234 33.198 176.905C32.1405 176.537 31.3899 175.348 32.7817 175.073Z" fill="#263238"/>
<path d="M37.0035 174.289C38.4355 174.008 38.0347 176.247 36.9527 176.747C35.9065 177.281 35.2271 177.816 35.0842 178.161C35.1027 177.873 35.1152 177.585 35.1214 177.296C35.1733 177.324 35.655 174.62 37.0035 174.289Z" fill="#263238"/>
<path d="M32.2536 172.62C33.6327 172.002 34.8543 174.336 34.811 174.379C34.8634 174.66 34.9098 174.942 34.9502 175.226C34.784 174.893 34.0394 174.466 32.9302 174.35C31.8346 174.191 30.9217 173.161 32.2536 172.62Z" fill="#263238"/>
<path d="M36.3019 171.03C37.6734 170.477 37.6041 172.769 36.6092 173.469C35.6548 174.197 35.0623 174.855 34.9714 175.223C34.9481 174.936 34.9186 174.65 34.8831 174.364C34.9388 174.384 35.0213 171.619 36.3019 171.03Z" fill="#263238"/>
<path d="M31.3678 170.285C32.6385 169.409 34.191 171.492 34.153 171.541C34.2458 171.809 34.3329 172.08 34.4141 172.353C34.2017 172.056 33.405 171.777 32.2937 171.874C31.1905 171.928 30.1349 171.078 31.3678 170.285Z" fill="#263238"/>
<path d="M35.1254 167.928C36.3973 167.116 36.672 169.408 35.7927 170.293C34.9587 171.199 34.4707 171.965 34.4345 172.346C34.3697 172.067 34.2989 171.789 34.2219 171.513C34.2814 171.523 33.9518 168.761 35.1254 167.928Z" fill="#263238"/>
<path d="M33.6359 169.968C33.6735 169.982 33.3368 167.514 32.6804 166.375C32.0642 165.235 31.1767 165.499 30.9591 166.029C30.7329 166.559 31.1905 167.332 31.6828 167.876C32.2067 168.368 33.6546 169.932 33.6359 169.968Z" fill="#263238"/>
<path d="M33.602 170.053L33.6119 170.057C33.6446 170.069 33.6812 170.055 33.7016 170.023L33.7054 170.015C33.7171 169.993 33.7257 169.976 33.7136 169.943C33.7202 169.481 33.3116 167.302 32.7476 166.324C32.4442 165.762 32.0225 165.455 31.5908 165.484C31.2801 165.505 31.0035 165.703 30.8862 165.99C30.5802 166.705 31.3758 167.666 31.6269 167.943C32.1377 168.424 33.4551 169.848 33.5617 170.005C33.5695 170.026 33.584 170.043 33.602 170.053ZM32.0171 165.766C32.204 165.866 32.4146 166.06 32.6119 166.425C33.1296 167.323 33.4417 169.039 33.5312 169.696C33.411 169.558 33.2191 169.349 32.9177 169.025C32.5294 168.608 32.0144 168.068 31.7337 167.804C31.2623 167.283 30.8265 166.55 31.0315 166.071C31.1246 165.844 31.3476 165.687 31.6002 165.67C31.7027 165.663 31.8505 165.677 32.0171 165.766Z" fill="#263238"/>
<path d="M295.572 186.21H14.75" stroke="#263238" stroke-linecap="round" stroke-linejoin="round"/>
<path d="M227.153 15.6208H83.79C74.7396 15.6208 67.4028 24.0891 67.4028 34.5352V114.464C67.4028 124.91 74.7396 133.378 83.79 133.378H227.153C236.203 133.378 243.54 124.91 243.54 114.464V34.5352C243.54 24.0891 236.203 15.6208 227.153 15.6208Z" fill="white"/>
<path d="M227.207 18.3984H83.5771C75.6239 18.3984 69.1763 25.8458 69.1763 35.0255V63.9404H69.1744V86.0818H69.1763V113.879C69.1763 123.059 75.6239 130.506 83.5771 130.506H227.207C235.165 130.506 241.613 123.059 241.613 113.879V35.0255C241.613 25.8458 235.165 18.3984 227.207 18.3984Z" fill="#D6D6D6"/>
<path d="M174.374 61.7613H128.927V37.6802C128.927 37.2541 128.711 36.8668 128.376 36.6896L93.7307 18.4005H89.1921L127.039 38.3798V61.7613H69.1744V63.9405H92.4418C90.5824 85.6883 99.4664 98.428 107.34 105.309C114.136 111.249 121.177 113.89 124.065 114.793L115.423 130.504H117.659L133.137 102.366V102.384H160.751L156.308 130.504H158.227L168.745 63.9405H173.92L219.988 130.504H222.404L201.57 100.401L228.464 77.4572C228.709 77.2486 228.847 76.9214 228.847 76.5809C228.847 76.491 228.837 76.4003 228.817 76.3106L220.792 40.1424H241.612V37.9633H202.526C202.17 37.9633 201.844 38.1942 201.684 38.5612L198.124 46.6849L185.002 32.8016L189.801 18.4005H187.779L183.01 32.7122C182.87 33.1287 182.966 33.6038 183.252 33.9066L197.238 48.7048L185.045 76.5242L175.112 62.1709C174.933 61.9119 174.662 61.7613 174.374 61.7613ZM203.107 40.1424H218.843L226.831 76.1406L200.391 98.697L186.341 78.3957L203.107 40.1424ZM166.826 63.9405L161.095 100.205H134.326L154.275 63.9405H166.826ZM152.038 63.9405L125.129 112.858C122.906 112.204 115.477 109.688 108.48 103.572C97.5936 94.0582 92.8407 80.7253 94.3363 63.9405H152.038Z" fill="white"/>
<path d="M154.944 18.3984V21.6617L172.79 29.899V46.3736L155.34 37.6787V50.4923H138.292V31.2719L116.641 18.3984H154.944Z" fill="#C4C4C4"/>
<path d="M85.8501 109.946V126.29H97.6501V109.946H85.8501Z" fill="#C4C4C4"/>
<path d="M85.8501 95.4542V107.222H94.3461V95.4542H85.8501Z" fill="#C4C4C4"/>
<path d="M123.432 107.939L146.063 67.4918H98.6102C98.6102 67.4918 96.1767 96.4225 123.432 107.939Z" fill="#C4C4C4"/>
<path d="M85.8501 84.3403V91.9675H91.3568V84.3403H85.8501Z" fill="#C4C4C4"/>
<path d="M196.771 70.1757L205.739 84.8852L218.955 76.7133L217.539 47.2943L205.267 45.6599L201.019 57.1006L207.627 62.0038L205.267 66.9069L198.187 62.5486L196.771 70.1757Z" fill="#C4C4C4"/>
<path d="M170.147 117.311H195.645L201.46 130.506H169.609L170.147 117.311Z" fill="#C4C4C4"/>
<path d="M185.972 95.3446H171.041L170.297 113.651H194.034L185.972 95.3446Z" fill="#C4C4C4"/>
<path d="M171.152 92.5987H184.762L179.925 81.6149H171.598L171.152 92.5987Z" fill="#C4C4C4"/>
<path d="M93.9768 19.4467L94.5359 19.7451" stroke="#263238" stroke-width="2" stroke-linejoin="round"/>
<path d="M95.6666 20.3487L126.762 36.9465" stroke="#263238" stroke-width="2" stroke-linejoin="round"/>
<path d="M127.327 37.2483L127.887 37.5468V38.2578" stroke="#263238" stroke-width="2" stroke-linejoin="round"/>
<path d="M127.886 39.6561V61.3294" stroke="#263238" stroke-width="2" stroke-linejoin="round"/>
<path d="M127.887 62.0285V62.7395H127.271" stroke="#263238" stroke-width="2" stroke-linejoin="round"/>
<path d="M126.039 62.7395H94.6433" stroke="#263238" stroke-width="2" stroke-linejoin="round"/>
<path d="M94.0277 62.7395H93.4117C93.4117 62.7395 93.3634 62.9822 93.2944 63.4352" stroke="#263238" stroke-width="2" stroke-linejoin="round"/>
<path d="M93.113 64.825C92.4719 70.5683 91.8591 87.0585 103.442 100.163C111.482 109.259 121.227 112.732 124.571 113.708" stroke="#263238" stroke-width="2" stroke-linejoin="round"/>
<path d="M125.163 113.874C125.553 113.978 125.764 114.024 125.764 114.024L126.094 113.424" stroke="#263238" stroke-width="2" stroke-linejoin="round"/>
<path d="M126.767 112.2L153.353 63.8706" stroke="#263238" stroke-width="2" stroke-linejoin="round"/>
<path d="M153.689 63.2589L154.019 62.6586H154.635" stroke="#263238" stroke-width="2" stroke-linejoin="round"/>
<path d="M155.872 62.6586H172.564" stroke="#263238" stroke-width="2" stroke-linejoin="round"/>
<path d="M173.182 62.6586H173.798L174.183 63.2136" stroke="#263238" stroke-width="2" stroke-linejoin="round"/>
<path d="M174.936 64.2991L203.178 105.005" stroke="#263238" stroke-width="2" stroke-linejoin="round"/>
<path d="M203.554 105.548L203.939 106.103" stroke="#263238" stroke-width="2" stroke-linejoin="round"/>
<path d="M94.1022 65.099L89.2495 69.1707L84.8286 65.2206L84.8231 65.2163C82.8212 63.5717 81.5144 60.8719 81.5144 57.8189C81.5144 52.8107 85.0332 48.7514 89.3722 48.7514C93.7113 48.7514 97.2282 52.8107 97.2282 57.8189C97.2282 60.8251 96.0523 63.448 94.1022 65.099Z" fill="white" stroke="#263238" stroke-linecap="round" stroke-linejoin="round"/>
<path d="M82.475 57.7593C82.475 59.6933 83.0722 61.4676 84.0639 62.8505C85.332 64.6143 87.2453 65.7376 89.3872 65.7376C91.3613 65.7376 93.1401 64.7845 94.4009 63.2547C95.5787 61.8229 96.2995 59.8869 96.2995 57.7593C96.2995 53.3532 93.2064 49.7811 89.3872 49.7811C85.5698 49.7811 82.475 53.3532 82.475 57.7593Z" fill="#00C977" stroke="#263238" stroke-linejoin="round"/>
<path d="M149.837 88.7272L144.984 92.7989L140.563 88.8488L140.558 88.8445C138.556 87.2 137.249 84.5001 137.249 81.4471C137.249 76.4389 140.768 72.3796 145.107 72.3796C149.446 72.3796 152.963 76.4389 152.963 81.4471C152.963 84.4533 151.787 87.0762 149.837 88.7272Z" fill="white" stroke="#263238" stroke-linecap="round" stroke-linejoin="round"/>
<path d="M138.21 81.3876C138.21 83.3215 138.807 85.0958 139.799 86.4787C141.067 88.2424 142.98 89.3658 145.122 89.3658C147.096 89.3658 148.875 88.4127 150.136 86.883C151.314 85.4511 152.034 83.5151 152.034 81.3876C152.034 76.9814 148.941 73.4093 145.122 73.4093C141.305 73.4093 138.21 76.9814 138.21 81.3876Z" fill="#00C977" stroke="#263238" stroke-linejoin="round"/>
<path d="M207.837 95.3476L202.984 99.4194L198.563 95.4692L198.558 95.465C196.556 93.8204 195.249 91.1205 195.249 88.0675C195.249 83.0593 198.768 79 203.107 79C207.446 79 210.963 83.0593 210.963 88.0675C210.963 91.0737 209.787 93.6967 207.837 95.3476Z" fill="white" stroke="#263238" stroke-linecap="round" stroke-linejoin="round"/>
<path d="M196.21 88.008C196.21 89.9419 196.807 91.7163 197.799 93.0992C199.067 94.8629 200.98 95.9862 203.122 95.9862C205.096 95.9862 206.875 95.0331 208.136 93.5034C209.314 92.0715 210.034 90.1355 210.034 88.008C210.034 83.6019 206.941 80.0297 203.122 80.0297C199.305 80.0297 196.21 83.6019 196.21 88.008Z" fill="#00C977" stroke="#263238" stroke-linejoin="round"/>
<path d="M136.944 98.9068C136.95 99.3646 137.036 99.844 137.126 99.9514C137.217 100.059 139.846 100.933 140.187 101.025C140.529 101.117 141.309 101.182 141.309 101.182L148.035 102.994C147.975 103.13 147.823 103.476 147.797 103.552C147.765 103.647 148.013 103.652 148.193 103.535C148.374 103.417 148.554 103.134 148.554 103.134L152.477 104.108C152.477 104.108 153.234 103.856 153.529 103.313C153.824 102.771 154.119 101.564 154.185 100.358C154.251 99.1524 154.275 98.7857 154.275 98.7857C154.275 98.7857 154.285 98.5395 154.255 98.4484C154.224 98.3573 153.515 97.0463 153.204 96.8795C152.893 96.7127 152.745 96.7351 152.745 96.7351C152.745 96.7351 149.637 95.8768 149.476 95.8335L149.46 95.8295C149.425 95.7015 149.315 95.3143 149.242 95.2084C149.154 95.081 148.898 94.9706 148.888 95.0509C148.88 95.1226 148.935 95.6078 148.947 95.7107L142.013 93.8019C142.013 93.8019 141.062 93.4419 140.52 93.2959C139.978 93.1499 138.24 92.7853 138.021 92.8717C137.803 92.9581 137.736 93.1681 137.729 93.2283C137.721 93.2885 137.305 94.9806 137.188 95.592C137.071 96.2034 136.939 98.4491 136.944 98.9068Z" fill="#263238" stroke="#263238" stroke-linecap="round" stroke-linejoin="round"/>
<path d="M148.574 96.2541L148.807 96.0472L144.956 94.9889L144.543 95.645C144.543 95.645 148.06 96.3852 148.574 96.2541Z" fill="white"/>
<path d="M143.918 95.4975L144.191 94.8035L140.275 93.9351C140.275 93.9351 141.191 94.742 141.352 94.7853C141.513 94.8285 143.918 95.4975 143.918 95.4975Z" fill="white"/>
<path d="M138.563 99.4051C138.563 99.4051 138.381 98.8585 138.438 98.2308C138.495 97.6032 138.804 94.7624 138.912 94.5632C139.019 94.3641 139.403 94.1148 139.403 94.1148C139.403 94.1148 138.73 93.6847 138.404 93.6383C138.078 93.5919 137.86 93.8443 137.827 93.9393C137.795 94.0342 137.367 96.3246 137.343 97.0233C137.319 97.7219 137.275 98.9131 137.321 99.0497C137.366 99.1864 137.763 99.5006 137.926 99.5238C138.089 99.547 138.563 99.4051 138.563 99.4051Z" fill="white"/>
<path d="M139.479 100.046C139.479 100.046 140.369 99.8918 140.534 99.8949C140.7 99.898 143.274 100.55 143.274 100.55L143.32 101.351L140.618 100.56L139.479 100.046Z" fill="white"/>
<path d="M144.047 101.505L143.876 100.712C143.876 100.712 145.451 101.22 145.845 101.388C146.239 101.556 147.795 102.225 147.795 102.225L147.999 102.59L144.047 101.505Z" fill="white"/>
<path d="M146.317 101.266C146.317 101.266 147.022 98.0757 146.854 96.4128L150.185 96.8126C150.185 96.8126 150.666 96.9423 150.722 96.9987C150.777 97.0551 150.902 97.2133 150.902 97.2133C150.902 97.2133 151.416 98.762 151.262 99.8405C151.108 100.919 150.501 102.311 150.403 102.43C150.306 102.548 150.048 102.624 150.048 102.624L149.606 102.671L146.317 101.266Z" fill="white"/>
<path d="M151.617 96.9703C151.617 96.9703 152.854 97.6977 153.219 98.107C153.583 98.5162 153.714 98.8003 153.714 98.8003C153.714 98.8003 153.688 98.1711 153.512 97.9163C153.336 97.6615 153.117 97.416 152.904 97.2963C152.691 97.1766 151.617 96.9703 151.617 96.9703Z" fill="white"/>
<path d="M150.851 103.172C150.851 103.172 152.137 103.166 152.461 103.067C152.784 102.967 153.2 102.623 153.2 102.623C153.2 102.623 153.01 103.153 152.892 103.266C152.775 103.38 152.128 103.579 151.962 103.575C151.797 103.572 150.944 103.26 150.851 103.172Z" fill="white"/>
<path d="M194.944 105.527C194.95 105.985 195.036 106.464 195.126 106.572C195.217 106.679 197.846 107.554 198.187 107.645C198.529 107.737 199.309 107.802 199.309 107.802L206.035 109.615C205.975 109.751 205.823 110.097 205.797 110.173C205.765 110.268 206.013 110.272 206.193 110.155C206.374 110.038 206.554 109.754 206.554 109.754L210.477 110.729C210.477 110.729 211.234 110.476 211.529 109.934C211.824 109.391 212.119 108.185 212.185 106.979C212.251 105.773 212.275 105.406 212.275 105.406C212.275 105.406 212.285 105.16 212.255 105.069C212.224 104.978 211.515 103.667 211.204 103.5C210.893 103.333 210.745 103.356 210.745 103.356C210.745 103.356 207.637 102.497 207.476 102.454L207.46 102.45C207.425 102.322 207.315 101.935 207.242 101.829C207.154 101.701 206.898 101.591 206.888 101.671C206.88 101.743 206.935 102.228 206.947 102.331L200.013 100.422C200.013 100.422 199.062 100.062 198.52 99.9164C197.978 99.7704 196.24 99.4057 196.021 99.4921C195.803 99.5785 195.736 99.7885 195.729 99.8487C195.721 99.9089 195.305 101.601 195.188 102.212C195.071 102.824 194.939 105.069 194.944 105.527Z" fill="#263238" stroke="#263238" stroke-linecap="round" stroke-linejoin="round"/>
<path d="M206.574 102.875L206.807 102.668L202.956 101.609L202.543 102.265C202.543 102.265 206.06 103.006 206.574 102.875Z" fill="white"/>
<path d="M201.918 102.118L202.191 101.424L198.275 100.556C198.275 100.556 199.191 101.362 199.352 101.406C199.513 101.449 201.918 102.118 201.918 102.118Z" fill="white"/>
<path d="M196.563 106.025C196.563 106.025 196.381 105.479 196.438 104.851C196.495 104.224 196.804 101.383 196.912 101.184C197.019 100.985 197.403 100.735 197.403 100.735C197.403 100.735 196.73 100.305 196.404 100.259C196.078 100.212 195.86 100.465 195.827 100.56C195.795 100.655 195.367 102.945 195.343 103.644C195.319 104.342 195.275 105.533 195.321 105.67C195.366 105.807 195.763 106.121 195.926 106.144C196.089 106.167 196.563 106.025 196.563 106.025Z" fill="white"/>
<path d="M197.479 106.666C197.479 106.666 198.369 106.512 198.534 106.515C198.7 106.518 201.274 107.17 201.274 107.17L201.32 107.971L198.618 107.181L197.479 106.666Z" fill="white"/>
<path d="M202.047 108.126L201.876 107.333C201.876 107.333 203.451 107.84 203.845 108.009C204.239 108.177 205.795 108.845 205.795 108.845L205.999 109.211L202.047 108.126Z" fill="white"/>
<path d="M204.317 107.887C204.317 107.887 205.022 104.696 204.854 103.033L208.185 103.433C208.185 103.433 208.666 103.563 208.722 103.619C208.777 103.676 208.902 103.834 208.902 103.834C208.902 103.834 209.416 105.382 209.262 106.461C209.108 107.539 208.501 108.931 208.403 109.05C208.306 109.169 208.048 109.244 208.048 109.244L207.606 109.291L204.317 107.887Z" fill="white"/>
<path d="M209.617 103.591C209.617 103.591 210.854 104.318 211.219 104.727C211.583 105.137 211.714 105.421 211.714 105.421C211.714 105.421 211.688 104.792 211.512 104.537C211.336 104.282 211.117 104.036 210.904 103.917C210.691 103.797 209.617 103.591 209.617 103.591Z" fill="white"/>
<path d="M208.851 109.793C208.851 109.793 210.137 109.787 210.461 109.687C210.784 109.588 211.2 109.244 211.2 109.244C211.2 109.244 211.01 109.773 210.892 109.887C210.775 110 210.128 110.199 209.962 110.196C209.797 110.193 208.944 109.88 208.851 109.793Z" fill="white"/>
<path d="M79.9443 75.9068C79.95 76.3646 80.0359 76.8441 80.1263 76.9514C80.2168 77.0587 82.8461 77.9331 83.1873 78.025C83.5285 78.1169 84.3085 78.1819 84.3085 78.1819L91.0348 79.9942C90.9749 80.1303 90.823 80.4764 90.797 80.5523C90.7645 80.6473 91.0128 80.6519 91.1932 80.5346C91.3736 80.4173 91.5537 80.1341 91.5537 80.1341L95.4773 81.1082C95.4773 81.1082 96.2342 80.8559 96.5294 80.3133C96.8245 79.7706 97.1187 78.5641 97.1847 77.3583C97.2506 76.1524 97.2752 75.7857 97.2752 75.7857C97.2752 75.7857 97.2849 75.5395 97.2547 75.4484C97.2244 75.3573 96.5154 74.0463 96.2042 73.8795C95.893 73.7127 95.745 73.7351 95.745 73.7351C95.745 73.7351 92.6367 72.8768 92.4761 72.8336L92.4601 72.8295C92.425 72.7015 92.3154 72.3143 92.2423 72.2084C92.1543 72.081 91.8984 71.9706 91.8885 72.0509C91.8796 72.1226 91.9352 72.6078 91.9472 72.7107L85.0126 70.8019C85.0126 70.8019 84.0617 70.442 83.5198 70.2959C82.9779 70.15 81.2395 69.7853 81.0215 69.8717C80.8034 69.9581 80.736 70.1681 80.7286 70.2283C80.7211 70.2885 80.3048 71.9806 80.1878 72.592C80.0708 73.2034 79.9386 75.4491 79.9443 75.9068Z" fill="#263238" stroke="#263238" stroke-linecap="round" stroke-linejoin="round"/>
<path d="M91.574 73.2541L91.8069 73.0473L87.956 71.9889L87.5432 72.645C87.5432 72.645 91.0601 73.3852 91.574 73.2541Z" fill="white"/>
<path d="M86.9184 72.4975L87.1908 71.8035L83.2749 70.9351C83.2749 70.9351 84.1914 71.742 84.352 71.7853C84.5125 71.8285 86.9184 72.4975 86.9184 72.4975Z" fill="white"/>
<path d="M81.5625 76.4051C81.5625 76.4051 81.3812 75.8585 81.4379 75.2308C81.4947 74.6032 81.8041 71.7624 81.9117 71.5632C82.0192 71.3641 82.4026 71.1148 82.4026 71.1148C82.4026 71.1148 81.7299 70.6847 81.4038 70.6383C81.0777 70.5919 80.8599 70.8443 80.8274 70.9393C80.795 71.0342 80.3669 73.3246 80.3429 74.0233C80.3188 74.7219 80.2753 75.9131 80.3207 76.0497C80.366 76.1864 80.7627 76.5007 80.9257 76.5238C81.0888 76.547 81.5625 76.4051 81.5625 76.4051Z" fill="white"/>
<path d="M82.4788 77.046C82.4788 77.046 83.3688 76.8918 83.5343 76.8949C83.6998 76.898 86.2737 77.55 86.2737 77.55L86.32 78.3506L83.618 77.5604L82.4788 77.046Z" fill="white"/>
<path d="M87.0474 78.5051L86.8758 77.7123C86.8758 77.7123 88.4514 78.2197 88.8453 78.3881C89.2393 78.5565 90.7951 79.2245 90.7951 79.2245L90.9987 79.5905L87.0474 78.5051Z" fill="white"/>
<path d="M89.3166 78.2662C89.3166 78.2662 90.0217 75.0757 89.8538 73.4128L93.1847 73.8126C93.1847 73.8126 93.6664 73.9423 93.7216 73.9987C93.7769 74.0551 93.9025 74.2133 93.9025 74.2133C93.9025 74.2133 94.4163 75.762 94.2623 76.8405C94.1084 77.9189 93.501 79.3107 93.4034 79.4296C93.3058 79.5484 93.0476 79.624 93.0476 79.624L92.6063 79.671L89.3166 78.2662Z" fill="white"/>
<path d="M94.6169 73.9703C94.6169 73.9703 95.8543 74.6977 96.2185 75.107C96.5827 75.5162 96.7135 75.8003 96.7135 75.8003C96.7135 75.8003 96.6876 75.1711 96.5116 74.9163C96.3357 74.6615 96.1172 74.416 95.9039 74.2963C95.6906 74.1766 94.6169 73.9703 94.6169 73.9703Z" fill="white"/>
<path d="M93.8508 80.1723C93.8508 80.1723 95.1373 80.1664 95.4607 80.0668C95.784 79.9673 96.1998 79.6231 96.1998 79.6231C96.1998 79.6231 96.01 80.1526 95.8923 80.2661C95.7746 80.3796 95.1279 80.5786 94.9624 80.5755C94.7968 80.5724 93.9438 80.2596 93.8508 80.1723Z" fill="white"/>
<path d="M266.204 91.479H265.675C265.675 90.1321 265.48 88.7922 265.098 87.5008L265.627 87.3527C266.017 88.6931 266.211 90.083 266.204 91.479ZM263.923 84.713C262.712 82.5385 260.942 80.7265 258.797 79.4637C256.652 78.201 254.209 77.5331 251.719 77.529V77C254.303 77.0026 256.84 77.6954 259.066 79.0067C261.293 80.3181 263.128 82.2004 264.384 84.459L263.923 84.713Z" fill="#00C977"/>
<path d="M251.719 78.8515C248.371 78.8529 245.161 80.1839 242.794 82.5519C240.427 84.9198 239.097 88.1309 239.097 91.479C239.097 103.646 251.719 111.983 251.719 111.983C251.719 111.983 264.352 103.641 264.352 91.479C264.351 88.1295 263.019 84.9177 260.65 82.5497C258.281 80.1817 255.069 78.8515 251.719 78.8515ZM251.719 97.425C250.554 97.424 249.415 97.0775 248.447 96.4293C247.478 95.7811 246.724 94.8604 246.278 93.7834C245.833 92.7065 245.717 91.5218 245.945 90.3789C246.173 89.2361 246.735 88.1866 247.559 87.3629C248.384 86.5393 249.434 85.9785 250.577 85.7516C251.72 85.5246 252.904 85.6416 253.981 86.0878C255.057 86.534 255.978 87.2893 256.625 88.2584C257.272 89.2274 257.618 90.3665 257.618 91.5319C257.618 92.3062 257.465 93.073 257.169 93.7883C256.872 94.5037 256.438 95.1535 255.89 95.7008C255.342 96.2481 254.692 96.6821 253.976 96.978C253.26 97.2738 252.494 97.4257 251.719 97.425Z" fill="#00C977"/>
<path d="M229.22 219.626L232.416 219.573L233.336 212.167L230.146 212.22L229.22 219.626Z" fill="#E69C95"/>
<path d="M244.472 219.388L247.572 218.441L245.646 211.421L242.546 212.374L244.472 219.388Z" fill="#E69C95"/>
<path d="M247.477 217.51L244.017 219.293C243.961 219.323 243.916 219.371 243.891 219.43C243.866 219.489 243.862 219.554 243.879 219.616L244.62 222.425C244.638 222.493 244.671 222.556 244.717 222.61C244.763 222.663 244.82 222.705 244.885 222.733C244.95 222.761 245.02 222.774 245.09 222.771C245.161 222.768 245.23 222.749 245.292 222.716C246.397 222.123 247.175 221.658 248.577 220.912C249.439 220.467 252.084 219.219 253.274 218.6C254.465 217.981 254.015 216.727 253.476 216.875C251.042 217.526 249.053 217.717 248.027 217.447C247.842 217.398 247.645 217.421 247.477 217.51Z" fill="#263238"/>
<path d="M232.479 219.203L228.993 219.261C228.93 219.263 228.87 219.285 228.821 219.326C228.773 219.366 228.74 219.422 228.728 219.483L228.141 222.33C228.126 222.398 228.126 222.47 228.143 222.538C228.159 222.606 228.191 222.67 228.236 222.724C228.281 222.778 228.338 222.822 228.402 222.85C228.466 222.879 228.536 222.893 228.607 222.89C229.866 222.848 231.68 222.747 233.262 222.721C235.108 222.695 235.648 222.769 237.817 222.721C239.123 222.721 239.467 221.367 238.917 221.256C236.41 220.727 235.431 220.727 233.257 219.425C233.021 219.285 232.753 219.209 232.479 219.203Z" fill="#263238"/>
<path d="M237.33 122.463C238.055 123.918 238.875 125.457 239.695 126.923C240.515 128.388 241.382 129.848 242.308 131.218C242.546 131.557 242.768 131.911 243.012 132.234L243.609 133.049C243.731 133.207 243.8 133.281 243.821 133.318C243.842 133.355 243.853 133.408 244.006 133.419C244.568 133.317 245.09 133.061 245.514 132.678C245.805 132.456 246.101 132.202 246.392 131.932C246.683 131.663 246.974 131.35 247.228 131.102L249.339 132.276C249.162 132.743 248.954 133.198 248.714 133.636C248.478 134.084 248.206 134.512 247.9 134.916C247.574 135.357 247.202 135.761 246.789 136.122C246.298 136.559 245.729 136.898 245.112 137.122C244.339 137.404 243.499 137.45 242.699 137.254C241.95 137.07 241.257 136.707 240.679 136.196C240.551 136.088 240.429 135.973 240.314 135.852L240.144 135.678L240.023 135.54L239.557 135.011C239.245 134.657 238.959 134.292 238.663 133.953C237.533 132.5 236.491 130.981 235.542 129.404C235.076 128.621 234.616 127.817 234.193 127.028C233.77 126.24 233.357 125.441 232.966 124.547L237.33 122.463Z" fill="#E69C95"/>
<path d="M231.606 122.484C230.744 125.415 236.801 133.398 236.801 133.398L242.911 129.467C241.761 126.928 240.343 124.52 238.679 122.283C236.177 119.093 232.548 119.263 231.606 122.484Z" fill="#00C977"/>
<g opacity="0.2">
<path d="M231.606 122.484C230.744 125.415 236.801 133.398 236.801 133.398L242.911 129.467C241.761 126.928 240.343 124.52 238.679 122.283C236.177 119.093 232.548 119.263 231.606 122.484Z" fill="black"/>
</g>
<path opacity="0.2" d="M235.331 125.923C236.584 126.452 238.436 129.488 239.399 131.742L236.807 133.408C235.356 131.472 234.053 129.43 232.908 127.298C233.728 126.388 234.664 125.642 235.331 125.923Z" fill="black"/>
<path d="M246.863 131.673L249.074 128.097L251.005 131.181C250.54 132.004 249.786 132.624 248.889 132.922L246.863 131.673Z" fill="#E69C95"/>
<path d="M252.158 128.134V129.24C252.158 129.585 252.039 129.92 251.82 130.187L251.016 131.181L249.085 128.097L251.079 127.372C251.201 127.329 251.332 127.316 251.46 127.334C251.588 127.351 251.71 127.4 251.816 127.474C251.921 127.549 252.008 127.648 252.067 127.762C252.127 127.877 252.158 128.005 252.158 128.134Z" fill="#E69C95"/>
<path d="M250 132.705L246.519 132.652L248.445 125.441L251.926 125.494L250 132.705Z" fill="#00C977"/>
<path d="M250.354 132.705L246.873 132.652L248.799 125.441L252.28 125.494L250.354 132.705Z" fill="#263238"/>
<path opacity="0.2" d="M233.336 212.172L232.86 215.987L229.665 216.04L230.141 212.22L233.336 212.172Z" fill="black"/>
<path opacity="0.2" d="M242.546 212.374L245.651 211.421L246.641 215.04L243.535 215.992L242.546 212.374Z" fill="black"/>
<path d="M218.127 124.024C220.735 135.249 220.169 146.385 220.455 148.787L237.484 147.517C239.118 129.271 235.246 120.008 235.246 120.008C235.246 120.008 234.151 119.797 232.664 119.643C232.199 119.596 231.691 119.553 231.167 119.527C230.876 119.527 230.585 119.501 230.284 119.495C227.863 119.533 225.447 119.71 223.047 120.024C222.592 120.082 222.132 120.146 221.682 120.22L220.476 120.442H220.428C220.039 120.52 219.668 120.675 219.34 120.899C219.012 121.122 218.732 121.41 218.517 121.744C218.302 122.078 218.157 122.453 218.09 122.844C218.023 123.236 218.036 123.637 218.127 124.024Z" fill="#00C977"/>
<g opacity="0.2">
<path d="M218.127 124.024C220.735 135.249 220.169 146.385 220.455 148.787L237.484 147.517C239.118 129.271 235.246 120.008 235.246 120.008C235.246 120.008 234.151 119.797 232.664 119.643C232.199 119.596 231.691 119.553 231.167 119.527C230.876 119.527 230.585 119.501 230.284 119.495C227.863 119.533 225.447 119.71 223.047 120.024C222.592 120.082 222.132 120.146 221.682 120.22L220.476 120.442H220.428C220.039 120.52 219.668 120.675 219.34 120.899C219.012 121.122 218.732 121.41 218.517 121.744C218.302 122.078 218.157 122.453 218.09 122.844C218.023 123.236 218.036 123.637 218.127 124.024Z" fill="black"/>
</g>
<path opacity="0.2" d="M221.01 126.394L219.053 128.906C219.055 128.938 219.055 128.97 219.053 129.002C219.328 130.705 219.539 132.371 219.698 133.98C221.576 131.668 221.301 127.494 221.01 126.394Z" fill="black"/>
<path d="M223.867 115.062C224.274 116.776 224.248 118.681 223.02 120.045C224.38 121.209 226.142 122.537 228.914 122.431C231.686 122.325 231.067 120.453 230.257 119.506C227.893 119.125 227.887 117.586 227.866 115.893C227.865 115.721 227.81 115.555 227.708 115.417C227.606 115.279 227.463 115.177 227.3 115.126L224.697 114.29C224.587 114.255 224.47 114.249 224.357 114.275C224.245 114.3 224.141 114.355 224.056 114.433C223.972 114.512 223.91 114.611 223.876 114.722C223.843 114.833 223.84 114.95 223.867 115.062Z" fill="#E69C95"/>
<path d="M231.352 133.371C229.924 133.371 228.607 131.657 228.348 129.467C228.246 128.887 228.264 128.293 228.399 127.72C228.535 127.147 228.785 126.607 229.136 126.134C229.301 125.935 229.508 125.774 229.742 125.662C229.976 125.551 230.231 125.492 230.49 125.489C231.913 125.489 233.236 127.203 233.49 129.393C233.591 129.973 233.574 130.567 233.44 131.14C233.305 131.713 233.056 132.252 232.707 132.726C232.54 132.924 232.333 133.084 232.1 133.195C231.866 133.307 231.611 133.367 231.352 133.371ZM230.495 126.018C230.311 126.021 230.13 126.065 229.964 126.146C229.799 126.228 229.653 126.345 229.538 126.489C229.24 126.906 229.028 127.379 228.916 127.88C228.803 128.381 228.792 128.899 228.882 129.404C229.099 131.271 230.231 132.842 231.358 132.842C231.543 132.84 231.725 132.796 231.892 132.715C232.058 132.633 232.205 132.516 232.32 132.371C232.617 131.953 232.828 131.48 232.941 130.98C233.053 130.479 233.066 129.962 232.976 129.457C232.77 127.589 231.638 126.018 230.517 126.018H230.495Z" fill="#00C977"/>
<path opacity="0.2" d="M227.871 115.988L225.253 116.326C225.311 116.443 225.385 116.554 225.454 116.665C225.951 117.459 227.041 117.982 228.173 118.173C227.928 117.472 227.825 116.729 227.871 115.988Z" fill="black"/>
<path d="M231.268 109.211C232.722 109.455 235.442 107.804 234.807 105.604C233.992 106.625 231.268 106.281 231.268 106.281V109.211Z" fill="#263238"/>
<path d="M225.586 111.539C225.745 113.01 223.93 115.628 221.772 114.861C222.83 114.11 222.661 111.364 222.661 111.364L225.586 111.539Z" fill="#263238"/>
<path d="M223.454 108.682C223.063 111.825 222.671 113.65 223.946 115.559C225.856 118.4 229.961 117.676 231.284 114.729C232.474 112.084 232.913 107.37 230.099 105.561C229.482 105.161 228.774 104.925 228.041 104.875C227.308 104.825 226.574 104.963 225.909 105.275C225.244 105.588 224.67 106.065 224.24 106.661C223.81 107.257 223.54 107.953 223.454 108.682Z" fill="#E69C95"/>
<path d="M223.02 111.856C223.787 112.666 225.898 109.359 225.512 108.153C226.306 108.502 227.829 107.836 227.734 106.524C230.109 107.794 233.553 108.799 233.606 106.524C233.659 104.249 231.49 102.53 229.374 102.35C229.628 103.033 228.956 103.323 227.575 103.033C226.194 102.742 220.873 100.292 221.46 105.186C219.471 105.302 219.212 107.82 223.02 111.856Z" fill="#263238"/>
<path d="M221.465 110.634C221.575 111.424 221.994 112.137 222.629 112.618C223.475 113.248 224.004 112.581 224.084 111.587C224.158 110.687 224.084 109.28 223.073 109.042C222.854 108.994 222.625 109.002 222.409 109.065C222.193 109.127 221.997 109.243 221.837 109.401C221.677 109.56 221.559 109.755 221.494 109.971C221.429 110.186 221.419 110.414 221.465 110.634Z" fill="#E69C95"/>
<path d="M226.263 148.358L237.457 147.527C237.457 147.527 238.907 170.502 238.795 180.241C238.684 190.377 234.034 215.225 234.034 215.225L228.628 215.309C228.628 215.309 229.056 191.208 229.056 181.257C229.056 167.857 226.247 148.358 226.247 148.358" fill="#263238"/>
<path opacity="0.2" d="M230.59 172.243C230.739 172.904 234.902 191.531 236.246 202.396C236.96 197.879 237.695 192.805 238.192 188.325L230.59 172.243Z" fill="black"/>
<path d="M231.416 147.982C231.416 147.982 239.938 168.857 241.858 178.014C243.974 188.039 247.334 213.395 247.334 213.395L241.552 214.294C241.552 214.294 237.177 195.339 234.727 185.659C231.945 174.623 220.91 157.15 220.444 148.797L231.416 147.982Z" fill="#263238"/>
<path d="M248.058 213.886L240.874 215.569L239.97 212.802L247.815 211.458L248.058 213.886Z" fill="#00C977"/>
<path d="M234.733 215.347L228.289 215.447L228.258 213.368L235.452 213.146L234.733 215.347Z" fill="#00C977"/>
<path d="M227.834 110.312C227.787 110.566 227.882 110.793 228.046 110.841C228.21 110.888 228.385 110.693 228.432 110.439C228.48 110.185 228.385 109.957 228.215 109.91C228.046 109.862 227.882 110.058 227.834 110.312Z" fill="#263238"/>
<path d="M230.966 110.978C230.919 111.227 231.014 111.46 231.178 111.507C231.342 111.555 231.516 111.359 231.564 111.105C231.612 110.851 231.516 110.619 231.352 110.576C231.188 110.534 231.014 110.724 230.966 110.978Z" fill="#263238"/>
<path d="M229.935 110.915C230.092 111.745 230.362 112.55 230.739 113.306C230.542 113.397 230.328 113.444 230.112 113.444C229.895 113.444 229.681 113.397 229.485 113.306L229.935 110.915Z" fill="#DE706D"/>
<path d="M228.951 114.084C228.667 114.025 228.399 113.909 228.163 113.742C227.926 113.575 227.726 113.362 227.575 113.115C227.566 113.097 227.564 113.076 227.57 113.056C227.576 113.036 227.589 113.02 227.607 113.01C227.625 113.002 227.645 113.001 227.663 113.006C227.682 113.012 227.697 113.025 227.707 113.041C227.88 113.312 228.113 113.538 228.389 113.701C228.664 113.865 228.975 113.961 229.294 113.983C229.311 113.987 229.326 113.997 229.337 114.011C229.348 114.025 229.354 114.042 229.354 114.06C229.354 114.077 229.348 114.094 229.337 114.108C229.326 114.122 229.311 114.132 229.294 114.136C229.179 114.129 229.064 114.111 228.951 114.084Z" fill="#263238"/>
<path d="M227.522 109.18C227.498 109.169 227.474 109.154 227.453 109.137C227.427 109.107 227.412 109.069 227.412 109.029C227.412 108.989 227.427 108.95 227.453 108.92C227.628 108.755 227.84 108.635 228.071 108.567C228.302 108.5 228.545 108.489 228.781 108.534C228.819 108.545 228.852 108.571 228.872 108.605C228.891 108.64 228.897 108.681 228.887 108.719C228.877 108.757 228.853 108.79 228.819 108.809C228.785 108.829 228.745 108.835 228.707 108.825C228.518 108.791 228.323 108.803 228.139 108.859C227.955 108.915 227.787 109.014 227.649 109.148C227.632 109.162 227.611 109.172 227.589 109.178C227.567 109.183 227.544 109.184 227.522 109.18Z" fill="#263238"/>
<path d="M232.654 110.19C232.629 110.182 232.607 110.168 232.59 110.15C232.572 110.131 232.56 110.109 232.553 110.084C232.51 109.9 232.423 109.728 232.3 109.585C232.177 109.441 232.02 109.329 231.844 109.259C231.806 109.247 231.774 109.22 231.755 109.184C231.736 109.149 231.732 109.107 231.744 109.069C231.756 109.03 231.783 108.998 231.818 108.979C231.854 108.96 231.896 108.956 231.934 108.968C232.16 109.057 232.361 109.2 232.52 109.385C232.678 109.569 232.79 109.789 232.844 110.026C232.85 110.045 232.853 110.065 232.851 110.085C232.849 110.105 232.843 110.125 232.833 110.142C232.823 110.16 232.809 110.175 232.793 110.187C232.777 110.199 232.758 110.207 232.738 110.211C232.708 110.215 232.678 110.208 232.654 110.19Z" fill="#263238"/>
<path d="M248.672 217.521C248.419 217.644 248.153 217.738 247.879 217.801C247.867 217.81 247.853 217.815 247.839 217.815C247.824 217.815 247.81 217.81 247.799 217.801C247.791 217.789 247.786 217.774 247.786 217.759C247.786 217.744 247.791 217.729 247.799 217.717C247.868 217.6 248.492 216.563 248.889 216.563C248.934 216.563 248.978 216.576 249.016 216.599C249.054 216.622 249.085 216.656 249.106 216.696C249.147 216.758 249.173 216.83 249.18 216.905C249.188 216.979 249.177 217.055 249.148 217.124C249.036 217.304 248.869 217.443 248.672 217.521ZM248.021 217.605C248.409 217.548 248.761 217.346 249.005 217.039C249.024 216.992 249.03 216.94 249.024 216.889C249.017 216.838 248.998 216.79 248.968 216.748C248.937 216.696 248.91 216.69 248.884 216.69C248.677 216.69 248.281 217.203 248.021 217.605Z" fill="#00C977"/>
<path d="M247.894 217.796H247.852C247.839 217.794 247.826 217.788 247.815 217.78C247.803 217.772 247.795 217.761 247.789 217.748C247.596 217.334 247.534 216.871 247.609 216.421C247.631 216.366 247.664 216.317 247.706 216.276C247.748 216.235 247.798 216.203 247.852 216.182C247.903 216.157 247.96 216.15 248.015 216.163C248.07 216.175 248.119 216.207 248.154 216.251C248.381 216.537 248.154 217.452 247.921 217.764C247.919 217.771 247.915 217.777 247.911 217.783C247.906 217.788 247.901 217.793 247.894 217.796ZM247.894 216.352C247.837 216.381 247.792 216.43 247.768 216.489C247.704 216.847 247.748 217.215 247.894 217.547C248.069 217.172 248.191 216.516 248.058 216.352C248.058 216.352 248.016 216.299 247.926 216.352H247.894Z" fill="#00C977"/>
<path d="M232.802 219.642C232.788 219.637 232.776 219.627 232.768 219.615C232.76 219.603 232.755 219.588 232.755 219.573C232.755 219.559 232.76 219.544 232.768 219.532C232.776 219.52 232.788 219.51 232.802 219.505C232.945 219.425 234.22 218.753 234.611 218.976C234.647 218.996 234.677 219.025 234.699 219.06C234.722 219.095 234.735 219.135 234.738 219.177C234.746 219.245 234.738 219.314 234.714 219.378C234.69 219.443 234.651 219.5 234.6 219.547C234.257 219.859 233.341 219.748 232.823 219.653L232.802 219.642ZM234.526 219.087C234.018 219.116 233.524 219.268 233.087 219.531C233.561 219.666 234.067 219.629 234.516 219.425C234.55 219.394 234.575 219.355 234.59 219.312C234.605 219.268 234.608 219.222 234.6 219.177C234.601 219.16 234.597 219.144 234.588 219.13C234.58 219.116 234.568 219.104 234.553 219.097L234.526 219.087Z" fill="#00C977"/>
<path d="M232.802 219.642C232.791 219.634 232.783 219.623 232.778 219.611C232.772 219.6 232.77 219.586 232.77 219.573C232.798 219.122 232.964 218.689 233.246 218.335C233.362 218.237 233.512 218.187 233.664 218.198C233.876 218.198 233.934 218.325 233.95 218.41C234.013 218.769 233.262 219.468 232.892 219.647C232.878 219.657 232.862 219.661 232.846 219.66C232.829 219.659 232.814 219.653 232.802 219.642ZM233.706 218.357C233.682 218.35 233.656 218.35 233.632 218.357C233.577 218.35 233.521 218.356 233.468 218.373C233.415 218.391 233.366 218.419 233.325 218.457C233.091 218.737 232.948 219.082 232.918 219.446C233.31 219.208 233.817 218.653 233.78 218.441C233.78 218.41 233.77 218.378 233.706 218.357Z" fill="#00C977"/>
<path d="M223.211 125.018C222.153 126.896 221.095 128.901 220.143 130.874C219.183 132.803 218.361 134.797 217.683 136.842C217.603 137.09 217.545 137.334 217.471 137.577C217.445 137.688 217.397 137.847 217.381 137.921C217.364 137.982 217.35 138.043 217.339 138.106C217.293 138.438 217.302 138.776 217.365 139.106C217.578 140.011 217.926 140.88 218.397 141.682C219.495 143.531 220.774 145.266 222.216 146.861L220.682 148.702C218.636 147.349 216.818 145.68 215.297 143.756C214.449 142.684 213.792 141.474 213.355 140.18C213.104 139.407 212.991 138.595 213.022 137.783C213.022 137.566 213.064 137.339 213.091 137.122C213.117 136.905 213.149 136.794 213.181 136.625C213.244 136.318 213.302 135.995 213.371 135.694C213.964 133.344 214.768 131.053 215.773 128.848C216.737 126.682 217.833 124.576 219.053 122.542L223.211 125.018Z" fill="#E69C95"/>
<path d="M219.889 120.686C216.942 121.495 214.069 129.774 214.069 129.774L221.163 131.742C222.406 129.999 223.398 128.09 224.11 126.071C225.602 122.045 223.454 119.712 219.889 120.686Z" fill="#00C977"/>
<g opacity="0.2">
<path d="M219.889 120.686C216.942 121.495 214.069 129.774 214.069 129.774L221.163 131.742C222.406 129.999 223.398 128.09 224.11 126.071C225.602 122.045 223.454 119.712 219.889 120.686Z" fill="black"/>
</g>
<path d="M220.857 146.316L224.094 147.168L222.809 150.21C222.809 150.21 219.905 149.596 219.92 148.014L220.857 146.316Z" fill="#E69C95"/>
<path d="M225.338 149.231L224.38 151.638L222.809 150.21L224.094 147.168L225.338 149.231Z" fill="#E69C95"/>
<path d="M139.93 133.676C139.93 133.676 135.984 145.3 135.046 148.984C134.107 152.668 133.731 158.303 133.731 158.303L163.846 161.821C163.846 161.821 169.029 160.253 168.653 157.003C168.278 153.752 164.9 147.703 160.204 142.483C155.509 137.264 148.376 132.948 146.123 132.948C143.87 132.948 139.93 133.676 139.93 133.676Z" fill="#757575" stroke="#263238" stroke-linecap="round" stroke-linejoin="round"/>
<path d="M245.527 146.11L247.298 155.423L240.607 157.013L245.527 146.11Z" fill="#263238" stroke="#263238" stroke-linecap="round" stroke-linejoin="round"/>
<path d="M265.748 156.146C264.45 151.901 262.503 151.652 262.503 151.652L256.879 134.922C256.879 134.922 250.605 135.921 248.009 138.418C245.413 140.915 239.356 156.895 239.356 156.895L244.115 191.602C244.115 191.602 263.801 186.858 264.45 186.358C265.099 185.859 265.748 181.115 265.964 178.119C266.181 175.122 267.046 160.391 265.748 156.146ZM241.788 155.536C241.788 155.536 246.904 142.817 248.085 141C249.265 139.183 251.233 138.16 251.233 138.16L255.301 137.088L259.4 152.243L241.788 155.536Z" fill="#00C977" stroke="#263238" stroke-linecap="round" stroke-linejoin="round"/>
<path d="M241.591 156.558L247.298 155.423C247.298 155.423 249.561 150.426 250.249 149.744C250.938 149.063 251.922 148.381 253.595 148.836C255.267 149.29 258.81 151.561 258.613 153.038C258.416 154.514 258.121 154.968 256.251 155.309C254.382 155.65 249.462 155.65 249.462 155.65C249.462 155.65 248.183 158.035 247.888 158.489C247.593 158.943 242.772 160.76 242.772 160.76C242.772 160.76 242.181 158.943 241.591 156.558Z" fill="#263238" stroke="#263238" stroke-linecap="round" stroke-linejoin="round"/>
<path d="M182.893 199.783C136.685 198.09 99.2263 202.162 99.2263 208.879C99.2263 211.714 105.9 214.567 117.087 217.045C106.974 217.281 99.6028 218.013 99.6028 218.88C99.6028 219.938 110.587 220.796 124.137 220.796C129.04 220.796 133.603 220.684 137.436 220.49C150.524 222.203 166.132 223.492 182.893 224.106C229.101 225.8 266.559 221.728 266.559 215.011C266.559 208.294 229.101 201.477 182.893 199.783Z" fill="#263238" stroke="#263238" stroke-linecap="round" stroke-linejoin="round"/>
<path d="M101.343 191.093C101.343 191.093 102.361 193.638 103.087 194.506C103.813 195.373 116.94 199.122 116.94 199.122L159.47 209.866L164.624 209.229L182.636 209.895C182.636 209.895 186.23 199.747 182.305 189.75C178.38 179.753 158.757 175.848 153.209 177.879C147.66 179.909 134.668 186.47 125.331 182.877C115.993 179.284 108.549 172.255 105.437 173.193C102.324 174.13 100.836 179.909 100.836 182.409C100.836 184.908 101.343 191.093 101.343 191.093Z" fill="#263238" stroke="#263238" stroke-linecap="round" stroke-linejoin="round"/>
<path d="M192.776 204.995C192.405 194.677 186.425 186.295 179.419 186.274H171.824L171.957 189.971C168.99 193.369 167.185 198.797 167.405 204.92C167.625 211.042 169.82 216.482 173.033 219.899L173.167 223.64H180.762C187.768 223.661 193.147 215.313 192.776 204.995Z" fill="#263238" stroke="#263238" stroke-linecap="round" stroke-linejoin="round"/>
<path d="M174.281 223.571C181.227 222.683 186.059 213.63 185.073 203.35C184.086 193.07 177.656 185.456 170.71 186.344C163.764 187.231 158.933 196.285 159.919 206.565C160.905 216.845 167.335 224.459 174.281 223.571Z" fill="#878787" stroke="#263238" stroke-linecap="round" stroke-linejoin="round"/>
<path d="M182.309 211.316L182.31 211.314C182.434 210.853 182.543 210.379 182.635 209.895L182.636 209.894C182.728 209.409 182.805 208.914 182.864 208.409C182.993 207.308 183.044 206.164 183.002 204.988C182.912 202.483 182.42 200.117 181.627 198.022L181.605 197.964C181.428 197.501 181.236 197.051 181.03 196.615C181.017 196.588 181.005 196.561 180.992 196.534C180.786 196.103 180.566 195.687 180.333 195.287C180.321 195.266 180.309 195.244 180.297 195.223C178.245 191.731 175.229 189.493 171.939 189.484C169.122 189.475 166.625 191.104 164.834 193.757C164.715 193.932 164.6 194.112 164.488 194.297C164.376 194.48 164.267 194.669 164.162 194.861L164.159 194.865C164.056 195.055 163.955 195.248 163.858 195.445L163.85 195.461C163.755 195.654 163.664 195.851 163.575 196.051L163.562 196.08C163.476 196.275 163.394 196.474 163.314 196.676C163.308 196.692 163.302 196.707 163.295 196.724C163.219 196.919 163.146 197.117 163.076 197.319C163.068 197.342 163.059 197.365 163.051 197.388C162.984 197.583 162.92 197.781 162.859 197.981C162.85 198.012 162.84 198.042 162.83 198.073C162.772 198.266 162.718 198.461 162.665 198.659C162.655 198.698 162.644 198.737 162.633 198.777C162.584 198.966 162.539 199.158 162.495 199.351C162.484 199.4 162.472 199.449 162.461 199.498C162.42 199.683 162.384 199.871 162.348 200.06C162.337 200.118 162.324 200.176 162.314 200.235C162.281 200.416 162.253 200.599 162.225 200.782C162.214 200.851 162.202 200.918 162.192 200.987C162.167 201.164 162.146 201.343 162.125 201.522C162.116 201.599 162.106 201.675 162.097 201.752C162.079 201.926 162.065 202.102 162.05 202.279C162.044 202.362 162.035 202.445 162.029 202.53C162.017 202.704 162.009 202.88 162.001 203.056C161.997 203.144 161.991 203.23 161.988 203.319C161.982 203.504 161.98 203.692 161.978 203.879C161.977 203.959 161.974 204.037 161.974 204.118C161.975 204.386 161.979 204.655 161.989 204.926C162.001 205.255 162.022 205.58 162.047 205.904C162.054 205.981 162.061 206.059 162.068 206.136C162.092 206.414 162.122 206.691 162.156 206.965C162.161 207.007 162.166 207.049 162.171 207.091C162.261 207.771 162.379 208.436 162.525 209.084C163.25 212.308 164.649 215.109 166.461 217.122C166.483 217.147 166.505 217.172 166.528 217.197C166.75 217.439 166.977 217.67 167.211 217.888C167.227 217.903 167.243 217.917 167.259 217.932C168.958 219.505 170.948 220.425 173.052 220.431C175.17 220.437 177.107 219.517 178.7 217.934C180.318 216.325 181.579 214.029 182.309 211.316Z" fill="white" stroke="#263238" stroke-linecap="round" stroke-linejoin="round"/>
<path d="M181.8 205.459C181.735 203.658 181.424 201.943 180.916 200.384L176.742 203.402C176.922 204.042 177.037 204.729 177.063 205.448C177.066 205.551 177.063 205.651 177.063 205.753L181.804 206.644C181.814 206.253 181.814 205.858 181.8 205.459Z" fill="#263238" stroke="#263238" stroke-linecap="round" stroke-linejoin="round"/>
<path d="M174.403 199.922C174.836 200.196 175.234 200.573 175.585 201.028L178.524 195.809C177.503 194.521 176.297 193.547 174.984 192.992L174.403 199.922Z" fill="#263238" stroke="#263238" stroke-linecap="round" stroke-linejoin="round"/>
<path d="M176.467 208.846C176.254 209.338 175.99 209.776 175.686 210.148L178.099 216.382C179.256 215.263 180.201 213.735 180.848 211.93L176.467 208.846Z" fill="#263238" stroke="#263238" stroke-linecap="round" stroke-linejoin="round"/>
<path d="M169.365 202.201L165.109 198.784C164.484 200.463 164.122 202.388 164.092 204.448L168.85 204.605C168.9 203.729 169.08 202.915 169.365 202.201Z" fill="#263238" stroke="#263238" stroke-linecap="round" stroke-linejoin="round"/>
<path d="M170.813 200.124C171.16 199.842 171.542 199.638 171.949 199.521L171.253 192.593C169.747 192.901 168.385 193.77 167.262 195.057L170.813 200.124Z" fill="#263238" stroke="#263238" stroke-linecap="round" stroke-linejoin="round"/>
<path d="M173.616 211.429C173.468 211.453 173.318 211.467 173.164 211.467C172.73 211.466 172.309 211.365 171.909 211.181L169.576 217.152C170.754 217.955 172.055 218.407 173.412 218.41C173.782 218.411 174.145 218.374 174.502 218.311L173.616 211.429Z" fill="#263238" stroke="#263238" stroke-linecap="round" stroke-linejoin="round"/>
<path d="M169.33 208.014L164.624 209.229C165.11 211.215 165.906 212.997 166.92 214.453L169.941 209.309C169.702 208.917 169.498 208.481 169.33 208.014Z" fill="#263238" stroke="#263238" stroke-linecap="round" stroke-linejoin="round"/>
<path d="M121.546 194.563C121.372 185.917 118.566 178.894 115.278 178.877H107.702L108.332 210.186H115.909C119.196 210.204 121.72 203.209 121.546 194.563Z" fill="#263238" stroke="#263238" stroke-linecap="round" stroke-linejoin="round"/>
<path d="M113.969 194.563C114.143 203.209 111.619 210.204 108.332 210.186C105.044 210.169 102.239 203.146 102.065 194.5C101.89 185.854 104.414 178.859 107.701 178.877C110.989 178.894 113.795 185.917 113.969 194.563Z" fill="#878787" stroke="#263238" stroke-linecap="round" stroke-linejoin="round"/>
<path d="M112.621 199.859L112.621 199.858C112.68 199.471 112.731 199.075 112.774 198.669L112.774 198.668C112.818 198.262 112.854 197.847 112.881 197.424C112.942 196.501 112.966 195.543 112.946 194.557C112.904 192.458 112.673 190.476 112.301 188.72L112.291 188.672C112.208 188.283 112.118 187.906 112.021 187.542C112.015 187.519 112.009 187.496 112.003 187.474C111.906 187.113 111.803 186.764 111.694 186.429C111.688 186.411 111.683 186.392 111.677 186.375C110.714 183.448 109.299 181.574 107.756 181.566C106.434 181.559 105.262 182.923 104.422 185.146C104.366 185.293 104.312 185.444 104.259 185.599C104.207 185.753 104.156 185.91 104.106 186.071L104.105 186.075C104.056 186.234 104.009 186.396 103.964 186.561L103.96 186.574C103.915 186.736 103.873 186.901 103.831 187.069L103.825 187.093C103.785 187.257 103.746 187.423 103.709 187.592C103.706 187.606 103.703 187.619 103.7 187.632C103.664 187.796 103.63 187.962 103.597 188.131C103.593 188.151 103.589 188.17 103.585 188.189C103.554 188.353 103.524 188.519 103.495 188.686C103.49 188.712 103.486 188.737 103.482 188.763C103.454 188.924 103.429 189.088 103.404 189.254C103.399 189.287 103.394 189.319 103.389 189.353C103.366 189.511 103.345 189.672 103.324 189.834C103.319 189.875 103.313 189.916 103.308 189.957C103.289 190.112 103.272 190.27 103.255 190.428C103.25 190.477 103.244 190.525 103.239 190.575C103.224 190.726 103.21 190.879 103.197 191.033C103.192 191.091 103.187 191.147 103.182 191.205C103.17 191.353 103.16 191.503 103.151 191.653C103.146 191.718 103.141 191.781 103.138 191.846C103.129 191.992 103.122 192.139 103.116 192.287C103.112 192.357 103.108 192.427 103.106 192.498C103.1 192.643 103.096 192.791 103.092 192.938C103.091 193.012 103.088 193.085 103.086 193.159C103.083 193.314 103.083 193.471 103.082 193.628C103.081 193.695 103.08 193.761 103.08 193.828C103.08 194.052 103.082 194.278 103.087 194.506C103.092 194.781 103.102 195.053 103.114 195.324C103.117 195.39 103.12 195.454 103.124 195.519C103.135 195.753 103.149 195.984 103.165 196.214C103.168 196.249 103.17 196.284 103.172 196.319C103.214 196.889 103.27 197.446 103.338 197.99C103.678 200.691 104.335 203.038 105.185 204.724C105.195 204.745 105.206 204.766 105.216 204.787C105.32 204.99 105.427 205.184 105.537 205.367C105.544 205.379 105.552 205.391 105.559 205.403C106.357 206.721 107.29 207.492 108.277 207.497C109.271 207.503 110.18 206.731 110.928 205.405C111.687 204.057 112.279 202.133 112.621 199.859Z" fill="white" stroke="#263238" stroke-linecap="round" stroke-linejoin="round"/>
<path d="M265.921 199.016C265.55 188.698 259.57 180.316 252.564 180.296H244.969C237.963 180.275 232.585 188.623 232.955 198.941C233.326 209.259 239.306 217.641 246.312 217.661H253.907C260.913 217.682 266.292 209.334 265.921 199.016Z" fill="#263238" stroke="#263238" stroke-linecap="round" stroke-linejoin="round"/>
<path d="M268.936 192.399C268.936 192.399 268.653 185.87 267.946 183.584C267.239 181.299 265.117 177.871 265.117 177.871C265.117 177.871 262.996 172.158 259.46 168.566C255.925 164.975 250.126 161.384 248.712 160.567C247.297 159.751 245.459 159.262 242.772 157.139C240.084 155.017 223.396 141.632 218.163 138.04C212.93 134.449 201.616 132.653 199.353 132.164C197.09 131.674 171.067 129.552 162.016 129.552C152.964 129.552 134.296 130.042 123.971 134.612C123.971 134.612 120.577 135.755 120.153 136.898C119.729 138.04 119.446 138.857 119.446 138.857L109.263 155.997C109.263 155.997 105.586 155.67 104.454 159.262C103.323 162.853 103.747 167.75 103.747 167.75C103.747 167.75 101.06 175.422 100.919 181.136C100.777 186.849 101.343 191.093 101.343 191.093C101.343 191.093 100.636 180.646 102.757 177.381C104.879 174.116 109.263 176.565 110.96 182.442C112.657 188.318 114.637 199.255 114.637 199.255L159.47 209.866C159.47 209.866 157.207 196.154 160.177 188.318C163.147 180.483 177.007 180.972 179.553 195.174C182.099 209.376 181.25 211.988 181.25 211.988C181.25 211.988 190.726 214.273 219.577 213.784C248.429 213.294 264.269 209.376 268.512 208.07C268.512 208.07 269.502 202.03 269.785 198.439C270.067 194.848 268.936 192.399 268.936 192.399ZM166.117 159.588C165.834 160.404 165.269 160.894 165.269 160.894C164.137 162.2 161.026 160.894 161.026 160.894C161.026 160.894 147.568 158.425 135.536 156.259C136.262 147.341 139.845 138.74 142.04 134.194C144.323 134.409 149.255 135.125 154.944 139.836C161.45 145.223 166.4 158.772 166.117 159.588Z" fill="#00C977" stroke="#263238" stroke-linecap="round" stroke-linejoin="round"/>
<path d="M137.792 157.107L143.39 157.637" stroke="#263238" stroke-linecap="round" stroke-linejoin="round"/>
<path opacity="0.15" d="M269.784 198.439C270.067 194.848 268.936 192.399 268.936 192.399C268.936 192.399 268.845 190.31 268.639 188.081C250.942 194.108 219.278 194.515 210.447 193.615C200.303 192.582 182.305 189.75 181.507 186.384C180.709 183.017 173.75 175.364 168.976 173.298C164.884 171.527 117.393 163.937 103.909 161.805C103.495 164.803 103.747 167.75 103.747 167.75C103.747 167.75 101.06 175.422 100.919 181.136C100.777 186.849 101.343 191.093 101.343 191.093C101.343 191.093 100.636 180.646 102.757 177.381C104.879 174.116 109.263 176.565 110.96 182.442C112.657 188.318 114.637 199.255 114.637 199.255L159.47 209.866C159.47 209.866 157.207 196.154 160.177 188.318C163.147 180.483 177.007 180.972 179.553 195.174C182.099 209.376 181.25 211.988 181.25 211.988C181.25 211.988 190.726 214.273 219.577 213.784C248.429 213.294 264.269 209.376 268.512 208.07C268.512 208.07 269.502 202.03 269.784 198.439Z" fill="black"/>
<path d="M157.74 157.252C158.344 153.651 160.356 146.915 160.356 146.915C160.356 146.915 163.708 152.393 165.231 156.228C166.753 160.063 165.231 161.501 163.846 161.821C162.462 162.14 157.062 160.063 157.062 160.063L157.74 157.252Z" fill="#263238" stroke="#263238" stroke-linecap="round" stroke-linejoin="round"/>
<path d="M138.165 134.18C135.401 134.363 131.511 134.835 128.497 135.592C125.244 136.408 124.113 136.571 123.547 137.224C122.981 137.877 117.466 145.876 115.486 151.589C115.486 151.589 115.769 153.058 117.041 153.058C117.504 153.058 123.445 154.094 130.817 155.412C132.05 150.347 134.531 141.422 138.165 134.18Z" fill="#757575" stroke="#263238" stroke-linecap="round" stroke-linejoin="round"/>
<path d="M135.663 163.96L131.64 163.122C131.64 163.122 130.656 163.483 130.954 164.62C131.252 165.757 131.785 165.632 131.785 165.632L135.134 166.255C135.134 166.255 135.931 166.354 136.102 165.437C136.273 164.52 136.499 164.401 135.663 163.96Z" stroke="#263238" stroke-linecap="round" stroke-linejoin="round"/>
<path d="M115.323 159.914L112.251 159.233C112.251 159.233 111.499 159.527 111.727 160.45C111.954 161.374 112.361 161.273 112.361 161.273L114.919 161.778C114.919 161.778 115.527 161.859 115.658 161.114C115.788 160.369 115.96 160.273 115.323 159.914Z" stroke="#263238" stroke-linecap="round" stroke-linejoin="round"/>
<path d="M139.93 133.676C139.93 133.676 134.195 145.986 133.189 156.206" stroke="#263238" stroke-linecap="round" stroke-linejoin="round"/>
<path d="M131.881 158.297C131.881 158.297 129.265 163.407 129.164 165.149C129.063 166.891 129.365 187.796 129.868 191.628" stroke="#263238" stroke-linecap="round" stroke-linejoin="round"/>
<path d="M159.551 165.614C159.551 165.614 157.338 174.092 157.237 180.479C157.136 186.867 157.036 198.829 157.036 198.829" stroke="#263238" stroke-linecap="round" stroke-linejoin="round"/>
<path d="M115.178 153.884C115.178 153.884 110.449 158.878 110.046 160.503C109.644 162.129 110.147 176.066 110.147 176.066" stroke="#263238" stroke-linecap="round" stroke-linejoin="round"/>
<path d="M116.083 191.861C116.083 191.861 116.788 194.184 118.297 194.764C119.806 195.345 156.432 203.475 156.432 203.475" stroke="#263238" stroke-linecap="round" stroke-linejoin="round"/>
<path d="M222.186 199.231C222.186 199.231 250.233 199.676 260.655 195.964C260.655 195.964 259.625 203.983 257.695 205.616C255.766 207.25 241.739 208.918 234.923 209.18C227.203 209.477 222.829 208.586 222.829 208.586L222.186 199.231Z" fill="#263238" stroke="#263238" stroke-linecap="round" stroke-linejoin="round"/>
<path d="M217.168 179.035L219.999 185.717C219.999 185.717 235.824 186.163 237.625 186.311C239.426 186.46 241.356 187.499 243.414 186.311C245.473 185.123 254.35 183.787 255.38 183.787C256.409 183.787 257.695 184.826 257.695 184.826C257.695 184.826 255.38 178.144 254.479 177.55C253.578 176.956 252.678 177.104 252.292 177.104C251.906 177.104 233.122 175.471 217.168 179.035Z" fill="#263238" stroke="#263238" stroke-linecap="round" stroke-linejoin="round"/>
<path d="M187.342 165.696C187.342 165.696 180.614 164.501 178.026 165.546C175.438 166.592 176.732 170.624 181.131 174.358C185.531 178.092 189.154 181.676 193.682 182.273C198.211 182.871 205.975 184.812 206.363 183.17C206.751 181.527 205.328 175.553 200.152 171.222C194.976 166.89 187.342 165.696 187.342 165.696Z" fill="white" stroke="#263238" stroke-linecap="round" stroke-linejoin="round"/>
<path d="M241.428 157.182L240.136 157.632C240.136 157.632 237.736 157.716 233.894 157.838C230.602 157.95 226.255 158.089 221.45 158.233C214.818 158.439 207.318 158.651 200.546 158.817C190.193 159.068 181.527 159.196 180.226 158.973C177.989 158.595 175.488 157.66 173.165 155.313C171.859 154 170.606 152.236 169.487 149.866C166.379 143.291 158.489 135.23 158.489 135.23C170.909 133.583 200.541 134.184 203.906 134.334C204.744 134.367 205.819 134.518 207.014 134.768C210.605 135.502 215.29 137.132 218.008 139.263C218.49 139.641 219.266 140.237 220.24 140.988C222.515 142.74 225.889 145.321 229.277 147.914C231.321 149.471 233.369 151.035 235.186 152.425C238.753 155.14 241.428 157.182 241.428 157.182Z" fill="white" stroke="#263238" stroke-linecap="round" stroke-linejoin="round"/>
<path d="M218.008 139.263C218.49 139.641 219.266 140.237 220.24 140.988L200.546 158.817C190.193 159.068 181.527 159.196 180.226 158.973C177.989 158.595 175.488 157.66 173.165 155.313L207.014 134.768C210.605 135.502 215.29 137.132 218.008 139.263Z" fill="#263238" stroke="#263238" stroke-linecap="round" stroke-linejoin="round"/>
<path d="M235.186 152.425L233.894 157.838C230.602 157.95 226.255 158.089 221.45 158.233L229.277 147.914C231.32 149.471 233.369 151.035 235.186 152.425Z" fill="#263238" stroke="#263238" stroke-linecap="round" stroke-linejoin="round"/>
<path d="M213.537 174.566C214.326 175.487 215.087 176.463 215.809 177.494" stroke="#263238" stroke-linecap="round" stroke-linejoin="round"/>
<path d="M194.459 161.364C194.459 161.364 204.253 164.689 212.178 173.057" stroke="#263238" stroke-linecap="round" stroke-linejoin="round"/>
<path d="M257.186 177.231C258.164 179.358 258.946 181.732 259.415 184.364" stroke="#263238" stroke-linecap="round" stroke-linejoin="round"/>
<path d="M242.205 161.962C242.205 161.962 250.881 165.841 256.084 175.072" stroke="#263238" stroke-linecap="round" stroke-linejoin="round"/>
<path d="M202.223 202.137C202.223 203.869 200.774 205.273 198.988 205.273C197.201 205.273 195.753 203.869 195.753 202.137C195.753 200.405 197.201 199.001 198.988 199.001C200.774 199.001 202.223 200.405 202.223 202.137Z" fill="white" stroke="#263238" stroke-linecap="round" stroke-linejoin="round"/>
<path d="M269.217 197.041C268.943 198.534 268.07 199.585 267.266 199.389C266.462 199.193 266.032 197.823 266.305 196.33C266.578 194.837 267.452 193.786 268.256 193.982C269.06 194.179 269.49 195.548 269.217 197.041Z" fill="white" stroke="#263238" stroke-linecap="round" stroke-linejoin="round"/>
<path d="M158.984 160.153C158.984 160.153 156.727 155.765 155.301 155.491C153.876 155.217 147.817 154.942 146.51 155.902C145.203 156.862 145.559 160.016 146.035 160.839C146.51 161.662 148.411 162.073 150.074 161.936C151.737 161.799 157.321 162.347 157.321 162.347C157.321 162.347 160.647 165.09 161.835 164.815C163.023 164.541 164.568 161.524 163.498 159.879C162.429 158.233 160.766 158.645 158.984 160.153Z" fill="#263238" stroke="#263238" stroke-linecap="round" stroke-linejoin="round"/>
<path d="M158.984 160.153L162.904 161.113" stroke="#263238" stroke-linecap="round" stroke-linejoin="round"/>
<path d="M123.971 134.612C123.971 134.612 120.577 135.755 120.153 136.898C119.729 138.04 119.446 138.857 119.446 138.857L109.263 155.997C109.263 155.997 105.586 155.67 104.454 159.262C103.323 162.853 103.747 167.75 103.747 167.75C103.747 167.75 101.06 175.422 100.919 181.136C100.777 186.849 101.343 191.093 101.343 191.093C101.343 191.093 100.636 180.646 102.757 177.381C104.879 174.116 109.263 176.565 110.96 182.442C112.657 188.318 114.637 199.255 114.637 199.255L159.47 209.866C159.47 209.866 157.207 196.154 160.177 188.318C163.147 180.483 177.007 180.972 179.553 195.174C182.099 209.376 181.25 211.988 181.25 211.988C181.25 211.988 190.726 214.273 219.577 213.784C248.429 213.294 264.269 209.376 268.512 208.07C268.512 208.07 269.502 202.03 269.785 198.439C270.067 194.848 268.936 192.399 268.936 192.399C268.936 192.399 268.653 185.87 267.946 183.584C267.239 181.299 265.117 177.871 265.117 177.871C265.117 177.871 262.996 172.158 259.46 168.566C255.925 164.975 250.126 161.384 248.712 160.567C247.297 159.751 245.459 159.262 242.772 157.139C240.084 155.017 223.396 141.632 218.163 138.04C212.93 134.449 201.616 132.653 199.353 132.164C197.09 131.674 171.067 129.552 162.016 129.552C152.964 129.552 134.296 130.042 123.971 134.612Z" stroke="#263238" stroke-linecap="round" stroke-linejoin="round"/>
<path d="M254.369 164.351C254.369 164.351 251.522 165.546 252.298 166.741C253.075 167.936 257.345 171.072 259.286 174.955C261.226 178.838 261.615 180.78 262.52 180.78C263.426 180.78 265.385 178.845 265.117 177.871C264.849 176.897 263.426 168.085 254.369 164.351Z" fill="white" stroke="#263238" stroke-linecap="round" stroke-linejoin="round"/>
<path d="M111.994 194.276C111.965 192.671 111.822 191.141 111.589 189.751L109.676 192.442C109.758 193.013 109.811 193.625 109.823 194.266C109.824 194.358 109.823 194.448 109.823 194.538L111.996 195.332C112.001 194.984 112.001 194.632 111.994 194.276Z" fill="#263238" stroke="#263238" stroke-linecap="round" stroke-linejoin="round"/>
<path d="M108.604 189.339C108.802 189.583 108.985 189.919 109.146 190.325L110.493 185.671C110.025 184.522 109.472 183.654 108.87 183.159L108.604 189.339Z" fill="#263238" stroke="#263238" stroke-linecap="round" stroke-linejoin="round"/>
<path d="M109.55 197.296C109.452 197.735 109.331 198.126 109.192 198.457L110.298 204.017C110.828 203.019 111.261 201.656 111.558 200.046L109.55 197.296Z" fill="#263238" stroke="#263238" stroke-linecap="round" stroke-linejoin="round"/>
<path d="M106.294 191.371L104.344 188.324C104.057 189.821 103.891 191.538 103.877 193.375L106.058 193.515C106.082 192.734 106.164 192.007 106.294 191.371Z" fill="#263238" stroke="#263238" stroke-linecap="round" stroke-linejoin="round"/>
<path d="M106.958 189.519C107.117 189.268 107.292 189.085 107.479 188.982L107.16 182.803C106.47 183.078 105.845 183.853 105.331 185.001L106.958 189.519Z" fill="#263238" stroke="#263238" stroke-linecap="round" stroke-linejoin="round"/>
<path d="M108.243 199.6C108.175 199.621 108.106 199.634 108.036 199.633C107.837 199.633 107.644 199.543 107.461 199.379L106.391 204.703C106.931 205.419 107.528 205.822 108.149 205.825C108.319 205.826 108.486 205.793 108.649 205.736L108.243 199.6Z" fill="#263238" stroke="#263238" stroke-linecap="round" stroke-linejoin="round"/>
<path d="M106.278 196.555L104.121 197.638C104.344 199.409 104.709 200.998 105.174 202.296L106.558 197.709C106.449 197.36 106.356 196.971 106.278 196.555Z" fill="#263238" stroke="#263238" stroke-linecap="round" stroke-linejoin="round"/>
<path d="M101.663 148.209C101.663 148.209 125.54 149.75 127.639 150.76C129.739 151.769 130.264 154.193 130.264 154.193L100.344 152.981L101.663 148.209Z" fill="white" stroke="#263238" stroke-linecap="round" stroke-linejoin="round"/>
<path d="M119.117 134.641C119.117 134.641 105.506 146.067 100.344 152.981L95.0953 151.769L109.655 135.647L119.117 134.641Z" fill="white" stroke="#263238" stroke-linecap="round" stroke-linejoin="round"/>
<path d="M133.189 156.206C133.189 156.206 135.761 141.722 139.93 133.676C139.93 133.676 125.317 131.406 109.395 134.233C108.47 134.397 94.0456 148.336 94.0456 148.336C94.0456 148.336 85.626 156.633 85.4722 158.232C85.4722 158.232 90.6945 179.223 109.707 193.558L130.353 197.41C130.353 197.41 128.971 171.528 129.173 165.945C129.295 162.565 133.189 156.206 133.189 156.206ZM98.5947 150.962C96.4951 150.154 98.5947 147.73 98.5947 147.73L111.055 136.252C119.628 134.637 135.163 136.421 135.163 136.421C134.113 138.643 130.264 154.193 130.264 154.193C130.264 154.193 100.694 151.769 98.5947 150.962Z" fill="#00C977" stroke="#263238" stroke-linecap="round" stroke-linejoin="round"/>
<path d="M91.9447 156.679L89.3047 156.414C89.3047 156.414 88.2716 156.547 88.2716 157.607C88.2716 158.667 89.0751 158.799 89.0751 158.799L94.1916 159.333C94.1916 159.333 94.0706 157.546 94.8741 157.016L91.9447 156.679Z" fill="#263238" stroke="#263238" stroke-linecap="round" stroke-linejoin="round"/>
<path d="M88.3978 159.152C88.3978 159.152 89.2389 160.414 90.08 160.414C90.9211 160.414 94.1172 160.802 94.1172 160.802" fill="#00C977"/>
<path d="M88.3978 159.152C88.3978 159.152 89.2389 160.414 90.08 160.414C90.9211 160.414 94.1172 160.802 94.1172 160.802" stroke="#263238" stroke-linecap="round" stroke-linejoin="round"/>
<path d="M255.301 137.088L256.318 136.997L260.617 152.066L259.4 152.243L255.301 137.088Z" fill="#263238" stroke="#263238" stroke-linecap="round" stroke-linejoin="round"/>
</svg>
