<svg width="309" height="308" viewBox="0 0 309 308" fill="none" xmlns="http://www.w3.org/2000/svg">
<path d="M249.265 112.211C251.383 113.486 253.85 114.058 256.313 113.845C258.776 113.632 261.109 112.644 262.976 111.024C264.843 109.404 266.149 107.234 266.706 104.825C267.264 102.417 267.045 99.8935 266.08 97.6173C265.115 95.3412 263.455 93.4289 261.336 92.1548C259.218 90.8807 256.75 90.3101 254.287 90.5249C251.824 90.7397 249.493 91.7289 247.627 93.3505C245.761 94.9721 244.456 97.143 243.9 99.5518C243.325 101.958 243.535 104.486 244.501 106.764C245.466 109.042 247.136 110.95 249.265 112.211Z" fill="#EBEBEB"/>
<path d="M251.723 100.895C251.732 101.599 251.949 102.285 252.347 102.865C252.746 103.446 253.307 103.895 253.961 104.157C254.615 104.419 255.332 104.48 256.021 104.335C256.709 104.189 257.34 103.842 257.832 103.338C258.323 102.834 258.655 102.196 258.784 101.504C258.913 100.811 258.834 100.096 258.556 99.4491C258.279 98.8018 257.816 98.2513 257.226 97.8672C256.636 97.4831 255.945 97.2826 255.241 97.291C254.773 97.2967 254.311 97.3943 253.881 97.5785C253.452 97.7626 253.062 98.0297 252.736 98.3643C252.409 98.6989 252.152 99.0946 251.978 99.5288C251.804 99.9629 251.718 100.427 251.723 100.895Z" fill="white"/>
<path d="M249.247 110.744V112.211C251.112 113.333 253.253 113.913 255.429 113.886C257.605 113.859 259.731 113.225 261.567 112.057V110.597C261.547 108.963 260.88 107.404 259.711 106.263C258.541 105.121 256.967 104.491 255.333 104.511C253.699 104.53 252.14 105.198 250.999 106.367C249.858 107.536 249.227 109.111 249.247 110.744Z" fill="white"/>
<path d="M132.885 82.6364H54.8743V29.2662H132.885V82.6364ZM55.4903 82.0204H132.269V29.8822H55.4903V82.0204Z" fill="#EBEBEB"/>
<path d="M60.9728 32.7096C60.9716 33.0164 60.8795 33.3159 60.7082 33.5703C60.5369 33.8248 60.294 34.0228 60.0103 34.1394C59.7265 34.2559 59.4146 34.2858 59.1139 34.2252C58.8132 34.1646 58.5371 34.0163 58.3207 33.7989C58.1042 33.5816 57.9569 33.305 57.8975 33.004C57.8381 32.7031 57.8692 32.3913 57.9869 32.108C58.1046 31.8247 58.3036 31.5826 58.5587 31.4123C58.8138 31.242 59.1137 31.1511 59.4205 31.1511C59.6248 31.1511 59.8272 31.1915 60.0159 31.2699C60.2047 31.3483 60.3761 31.4632 60.5203 31.608C60.6645 31.7528 60.7788 31.9246 60.8564 32.1137C60.9341 32.3027 60.9736 32.5052 60.9728 32.7096Z" fill="#A6A6A6"/>
<path d="M67.3114 32.7096C67.3102 33.0164 67.2181 33.3159 67.0468 33.5703C66.8755 33.8248 66.6326 34.0228 66.3489 34.1394C66.0651 34.2559 65.7532 34.2858 65.4525 34.2252C65.1518 34.1646 64.8758 34.0163 64.6593 33.7989C64.4428 33.5816 64.2956 33.305 64.2362 33.004C64.1768 32.7031 64.2079 32.3913 64.3255 32.108C64.4432 31.8247 64.6422 31.5826 64.8973 31.4123C65.1525 31.242 65.4523 31.1511 65.7591 31.1511C65.9635 31.1511 66.1658 31.1915 66.3546 31.2699C66.5433 31.3483 66.7147 31.4632 66.8589 31.608C67.0032 31.7528 67.1174 31.9246 67.195 32.1137C67.2727 32.3027 67.3122 32.5052 67.3114 32.7096Z" fill="#EBEBEB"/>
<path d="M73.65 32.7096C73.6488 33.0164 73.5567 33.3159 73.3854 33.5703C73.2141 33.8248 72.9713 34.0228 72.6875 34.1394C72.4038 34.2559 72.0918 34.2858 71.7911 34.2252C71.4904 34.1646 71.2144 34.0163 70.9979 33.7989C70.7814 33.5816 70.6342 33.305 70.5748 33.004C70.5154 32.7031 70.5465 32.3913 70.6642 32.108C70.7818 31.8247 70.9808 31.5826 71.2359 31.4123C71.4911 31.242 71.791 31.1511 72.0977 31.1511C72.3021 31.1511 72.5045 31.1915 72.6932 31.2699C72.8819 31.3483 73.0533 31.4632 73.1976 31.608C73.3418 31.7528 73.456 31.9246 73.5336 32.1137C73.6113 32.3027 73.6509 32.5052 73.65 32.7096Z" fill="#00C977"/>
<path d="M132.577 35.4385H55.1824V36.0545H132.577V35.4385Z" fill="#EBEBEB"/>
<path d="M78.7126 93.1272L38.0698 98.6729L41.5868 124.448L82.2296 118.902L78.7126 93.1272Z" fill="#EBEBEB"/>
<path d="M78.732 93.1392C77.3029 94.9318 75.8368 96.6627 74.42 98.4368C73.0032 100.211 71.494 101.911 70.0156 103.636C68.5372 105.361 66.9356 107.221 65.3833 109.001L65.2416 109.168C63.8741 110.74 62.4984 112.307 61.1144 113.868L60.9112 114.096L60.6586 113.935L55.4288 110.498C55.3645 110.464 55.3027 110.424 55.244 110.381C53.244 109.071 51.2584 107.761 49.2872 106.451C47.4146 105.186 45.5399 103.909 43.6632 102.619C41.8152 101.301 39.9179 100.026 38.0637 98.6832C39.9918 99.7858 41.9014 100.969 43.8172 102.108C45.7329 103.248 47.6425 104.449 49.546 105.644C51.665 106.962 53.784 108.303 55.9031 109.666L60.6648 112.746C61.8968 111.342 63.1657 109.925 64.4285 108.533C66.1102 106.685 67.7919 104.8 69.4859 102.958C71.0012 101.316 72.5228 99.6729 74.0504 98.0302C75.652 96.367 77.1428 94.7223 78.732 93.1392Z" fill="white"/>
<path d="M56.0448 110.264C56.0322 110.282 56.0177 110.298 56.0017 110.313C55.8169 110.523 55.6259 110.738 55.4349 110.929C54.5356 111.933 53.5869 112.9 52.6506 113.843C51.4925 115.007 50.2975 116.134 49.0963 117.256C47.8951 118.377 46.6323 119.461 45.4003 120.527C44.1683 121.592 42.8747 122.639 41.5503 123.607C42.6345 122.375 43.7802 121.143 44.9383 120.015C46.0964 118.888 47.3037 117.724 48.4988 116.603C49.6938 115.482 50.9628 114.391 52.1948 113.326C53.1927 112.475 54.2091 111.632 55.2748 110.831L56.0078 110.276L56.0448 110.264Z" fill="white"/>
<path d="M82.0091 118.1C80.4691 117.484 78.9599 116.837 77.4753 116.147C75.9908 115.457 74.5124 114.724 73.0463 113.985C71.5802 113.245 70.1326 112.457 68.7343 111.644C67.5701 110.991 66.412 110.313 65.2847 109.593L64.564 109.131C64.564 109.131 64.527 109.131 64.5085 109.094H64.5701L65.4264 109.439C66.6584 109.931 67.8473 110.467 69.0423 111.022C70.5392 111.712 72.0053 112.445 73.4652 113.19C74.9251 113.935 76.3789 114.712 77.7772 115.525C79.1755 116.338 80.6293 117.188 82.0091 118.1Z" fill="white"/>
<path d="M207.712 153.313L198.218 193.415L261.452 208.386L270.946 168.284L207.712 153.313Z" fill="#EBEBEB"/>
<path d="M270.924 168.273C267.795 170.121 264.635 171.833 261.493 173.626C258.351 175.418 255.185 177.1 252.025 178.806C248.74 180.593 245.438 182.354 242.12 184.092L241.818 184.27L233.04 188.866L232.609 189.075L232.325 188.693C230.391 186.016 228.467 183.332 226.554 180.642C226.479 180.551 226.409 180.457 226.344 180.359C224.172 177.32 222.007 174.26 219.851 171.18C217.8 168.254 215.755 165.285 213.691 162.316C211.628 159.347 209.644 156.353 207.667 153.304C209.885 156.039 212.034 158.848 214.215 161.651C216.396 164.454 218.527 167.287 220.671 170.139C223.049 173.293 225.418 176.484 227.779 179.712C229.549 182.114 231.315 184.521 233.077 186.931C235.726 185.57 238.387 184.19 241.042 182.853C244.59 181.042 248.14 179.252 251.693 177.482C254.871 175.905 258.058 174.344 261.253 172.8C264.536 171.285 267.727 169.72 270.924 168.273Z" fill="white"/>
<path d="M227.693 180.642C227.662 180.642 227.638 180.679 227.601 180.691C227.207 180.901 226.806 181.104 226.406 181.307C224.502 182.274 222.574 183.155 220.628 184.024C218.25 185.083 215.841 186.069 213.427 187.042C211.012 188.016 208.579 188.89 206.121 189.777C203.663 190.664 201.193 191.465 198.667 192.161C200.983 190.929 203.349 189.839 205.72 188.786C208.092 187.732 210.519 186.747 212.928 185.767C215.336 184.788 217.782 183.888 220.246 183.026C222.198 182.342 224.182 181.677 226.19 181.086C226.652 180.944 227.114 180.814 227.588 180.685L227.693 180.642Z" fill="white"/>
<path d="M261.598 207.05C259.657 205.3 257.809 203.446 256.005 201.574C254.2 199.701 252.438 197.785 250.689 195.857C248.939 193.929 247.251 191.946 245.607 189.931C244.257 188.293 242.933 186.636 241.676 184.929C241.399 184.56 241.134 184.196 240.869 183.833C240.847 183.805 240.827 183.776 240.808 183.747C240.833 183.775 240.862 183.8 240.894 183.821L241.972 184.8C243.5 186.229 244.966 187.708 246.42 189.204C248.231 191.052 249.98 192.993 251.717 194.933C253.454 196.874 255.155 198.845 256.805 200.859C258.456 202.873 260.076 204.919 261.598 207.05Z" fill="white"/>
<path d="M257.113 23.9994H219.778V47.6784H257.113V23.9994Z" fill="#EBEBEB"/>
<path d="M257.113 24.024C255.604 25.4654 254.07 26.8453 252.549 28.2682C251.027 29.6912 249.469 31.0464 247.941 32.4139C246.413 33.7814 244.713 35.2721 243.099 36.6828L242.958 36.8183L238.646 40.5513L238.43 40.7237L238.221 40.5513L233.909 36.8121L233.761 36.6828C232.139 35.2742 230.523 33.8492 228.913 32.4077C227.379 31.0464 225.833 29.6542 224.311 28.2682C222.79 26.8822 221.231 25.4654 219.747 24.024C221.348 25.256 222.925 26.5557 224.515 27.8247C226.104 29.0937 227.675 30.3996 229.246 31.7178C230.995 33.1634 232.742 34.6315 234.488 36.1222C235.794 37.2249 237.1 38.3398 238.405 39.4548C239.705 38.3398 241.011 37.2187 242.317 36.1222C244.062 34.6438 245.81 33.1736 247.559 31.7117C249.128 30.4057 250.703 29.1121 252.284 27.8309C253.935 26.5311 255.524 25.256 257.113 24.024Z" fill="white"/>
<path d="M234.58 36.6397L234.537 36.6766C234.34 36.8491 234.135 37.0154 233.921 37.1756C232.985 37.9702 232.03 38.7279 231.05 39.461C229.862 40.3665 228.648 41.235 227.422 42.1036C226.196 42.9722 224.958 43.7853 223.726 44.5984C222.494 45.4115 221.194 46.1938 219.876 46.9146C221.01 45.9228 222.186 44.9988 223.375 44.0994C224.564 43.2001 225.784 42.3192 226.997 41.4568C228.211 40.5944 229.461 39.7628 230.73 38.9558C231.734 38.309 232.751 37.6746 233.81 37.1078L234.537 36.6951L234.58 36.6397Z" fill="white"/>
<path d="M257.021 46.9146C255.703 46.1938 254.428 45.4054 253.171 44.5984C251.914 43.7914 250.676 42.9475 249.444 42.1036C248.212 41.2597 246.98 40.3665 245.816 39.461C244.843 38.7279 243.888 37.9764 242.958 37.1818L242.342 36.6766C242.342 36.6766 242.342 36.6766 242.299 36.6397L242.354 36.6705L243.081 37.0832C244.128 37.6992 245.138 38.3152 246.161 38.9312C247.424 39.7382 248.656 40.5821 249.888 41.4322C251.12 42.2822 252.321 43.1631 253.51 44.0748C254.699 44.9865 255.888 45.9228 257.021 46.9146Z" fill="white"/>
<path d="M154.371 292.064C221.844 292.064 276.542 280.519 276.542 266.278C276.542 252.037 221.844 240.493 154.371 240.493C86.8974 240.493 32.1995 252.037 32.1995 266.278C32.1995 280.519 86.8974 292.064 154.371 292.064Z" fill="#EBEBEB"/>
<path d="M25.1216 228.474L57.4677 228.32L89.8139 228.271L154.5 228.166L219.186 228.265L251.532 228.32L283.879 228.474L251.532 228.622L219.186 228.678L154.5 228.782L89.8139 228.678L57.4677 228.622L25.1216 228.474Z" fill="#263238"/>
<path d="M239.945 190.923C239.945 190.923 229.726 188.607 224.108 183.445C218.49 178.283 215.379 169.037 215.379 169.037C219.262 169.782 223.09 170.788 226.837 172.049C228.246 173.498 229.417 175.161 230.305 176.977C230.401 175.811 230.412 174.639 230.336 173.472C231.645 174.038 232.87 174.783 233.976 175.683C238.633 179.718 239.945 190.923 239.945 190.923Z" fill="#00C977"/>
<path d="M221.773 173.533C220.375 172.566 218.958 171.636 217.572 170.663C217.554 170.651 217.542 170.633 217.537 170.612C217.532 170.592 217.536 170.57 217.548 170.552C217.559 170.534 217.577 170.521 217.598 170.517C217.619 170.512 217.641 170.516 217.659 170.527C220.289 172.104 222.888 173.786 225.402 175.542C226.276 176.158 227.133 176.774 227.983 177.451C227.927 177.346 227.866 177.248 227.804 177.143C227.502 176.632 227.188 176.127 226.855 175.628C226.213 174.604 225.485 173.635 224.681 172.733C224.681 172.696 224.681 172.646 224.736 172.683C225.531 173.601 226.326 174.531 227.053 175.48C227.398 175.942 227.718 176.422 228.02 176.915C228.18 177.168 228.334 177.426 228.482 177.685C228.531 177.771 228.586 177.858 228.636 177.95C229.954 178.985 231.241 180.069 232.473 181.215C233.231 181.917 233.958 182.65 234.666 183.408C234.272 182.176 233.927 180.944 233.465 179.712C233.465 179.675 233.521 179.656 233.533 179.712C233.983 180.993 234.469 182.274 234.814 183.586C235.597 184.437 236.342 185.311 237.05 186.223L237.044 186.032C236.925 185.552 236.802 185.071 236.675 184.591C236.428 183.667 236.157 182.743 235.843 181.843C235.257 179.96 234.328 178.201 233.102 176.656C233.098 176.65 233.097 176.642 233.099 176.634C233.1 176.627 233.104 176.62 233.109 176.614C233.114 176.609 233.121 176.605 233.129 176.604C233.136 176.603 233.144 176.604 233.151 176.607C235.061 179.003 236.393 181.806 237.044 184.8C237.155 185.239 237.26 185.677 237.358 186.112C237.408 186.34 237.469 186.58 237.512 186.814C237.82 187.233 238.128 187.658 238.412 188.089C240.151 190.753 241.597 193.597 242.724 196.572C244.001 199.912 245.095 203.319 246.001 206.779C246.001 206.847 245.915 206.871 245.896 206.779C243.894 200.804 241.855 194.736 238.436 189.389C237.709 188.262 236.927 187.172 236.102 186.124C234.408 186.014 232.737 185.681 231.131 185.133C229.375 184.545 227.7 183.738 226.147 182.73C225.248 182.145 224.428 181.467 223.597 180.802C223.591 180.8 223.586 180.797 223.582 180.793C223.578 180.788 223.575 180.783 223.574 180.778C223.572 180.772 223.572 180.766 223.573 180.76C223.574 180.755 223.577 180.749 223.58 180.745C223.584 180.74 223.588 180.736 223.594 180.734C223.599 180.731 223.605 180.73 223.611 180.73C223.616 180.731 223.622 180.732 223.627 180.735C223.632 180.738 223.637 180.742 223.64 180.747C225.066 181.898 226.641 182.851 228.322 183.58C229.975 184.337 231.703 184.917 233.477 185.311C234.235 185.478 234.999 185.595 235.763 185.699C234.812 184.526 233.801 183.403 232.732 182.336C232.387 181.991 232.03 181.665 231.679 181.332C230.486 180.497 229.22 179.771 227.897 179.164C226.221 178.357 224.576 177.5 222.919 176.656C221.983 176.182 221.071 175.696 220.11 175.234C220.067 175.234 220.11 175.153 220.147 175.172C221.829 175.985 223.535 176.743 225.229 177.519C226.825 178.252 228.439 178.985 229.972 179.847L230.163 179.958C228.779 178.755 227.352 177.601 225.882 176.496C224.545 175.498 223.166 174.5 221.773 173.533Z" fill="#263238"/>
<path d="M222.353 178.8C223.184 179.164 224.028 179.49 224.854 179.872C225.679 180.254 226.498 180.734 227.318 181.209C227.354 181.209 227.318 181.276 227.281 181.258C226.467 180.87 225.642 180.506 224.817 180.1C223.991 179.693 223.172 179.238 222.353 178.868C222.291 178.849 222.309 178.782 222.353 178.8Z" fill="#263238"/>
<path d="M273.148 139.419C271.249 141.852 270.171 144.824 270.068 147.908C270.031 148.826 270.179 150.101 270.283 151.604C267.731 153.081 265.47 155.012 263.612 157.302C265.654 156.12 267.996 155.559 270.351 155.688C270.305 156.723 270.175 157.753 269.963 158.768C268.484 158.775 267.021 159.066 265.651 159.624C266.995 159.61 268.326 159.874 269.563 160.4C267.715 166.197 262.325 172.154 247.387 174.679C245.804 167.57 246.74 160.132 250.036 153.637C254.502 144.797 273.148 139.419 273.148 139.419Z" fill="#00C977"/>
<path d="M242.194 199.461C242.453 196.997 242.775 194.533 243.161 192.069C243.921 187.142 244.928 182.258 246.18 177.433C246.766 175.168 247.486 172.941 248.336 170.761C248.296 170.364 248.277 169.965 248.28 169.566C248.28 169.086 248.28 168.605 248.28 168.131C248.28 167.17 248.336 166.215 248.416 165.26C248.569 163.37 248.878 161.495 249.34 159.655C249.611 158.589 249.956 157.542 250.239 156.482C250.239 156.439 250.319 156.482 250.307 156.482C249.81 158.319 249.442 160.188 249.204 162.076C248.934 163.936 248.766 165.809 248.699 167.688C248.699 168.205 248.699 168.716 248.699 169.234C248.699 169.449 248.699 169.671 248.699 169.893C249.436 168.106 250.277 166.364 251.218 164.675C252.738 162.003 254.449 159.444 256.337 157.018C256.345 156.735 256.386 156.454 256.461 156.181L256.682 155.183C256.836 154.499 257.003 153.821 257.187 153.144C257.563 151.789 258.05 150.476 258.475 149.14C258.475 149.097 258.555 149.14 258.543 149.14C258.148 150.464 257.884 151.832 257.582 153.181L257.138 155.183C257.064 155.515 256.996 155.854 256.929 156.187V156.261C257.545 155.497 258.161 154.745 258.777 154.006C261.635 150.655 264.764 147.569 267.912 144.501C268.3 144.126 268.7 143.756 269.095 143.386C269.095 143.386 269.169 143.386 269.138 143.436C266.126 146.577 263.163 149.756 260.354 153.082C259.688 153.871 259.031 154.671 258.382 155.485L259.405 154.807C260.274 154.234 261.154 153.68 262.066 153.175C262.978 152.669 263.883 152.17 264.82 151.708C265.756 151.246 266.803 150.846 267.727 150.304C267.764 150.304 267.801 150.353 267.758 150.366C266.815 150.808 265.903 151.314 265.029 151.881C264.124 152.417 263.212 152.965 262.319 153.532C261.426 154.099 260.557 154.634 259.682 155.201C258.955 155.676 258.241 156.193 257.483 156.63C255.747 158.855 254.148 161.184 252.697 163.603C251.793 165.124 250.971 166.69 250.233 168.297L250.769 168.063L252.136 167.447C253.017 167.053 253.898 166.677 254.785 166.289C256.461 165.562 258.161 164.891 259.805 164.09C260.733 163.653 261.63 163.155 262.491 162.599C262.528 162.599 262.565 162.636 262.528 162.661C259.448 164.774 256.023 166.265 252.629 167.768L251.157 168.414C250.75 168.593 250.35 168.796 249.925 168.95C248.921 171.198 248.077 173.514 247.399 175.88C246.058 180.643 244.97 185.473 244.141 190.35C243.247 195.272 242.668 200.2 242.219 205.128C242.163 205.744 242.108 206.36 242.04 206.976C242.04 207.028 242.019 207.078 241.982 207.115C241.945 207.152 241.895 207.173 241.843 207.173C241.791 207.173 241.74 207.152 241.703 207.115C241.667 207.078 241.646 207.028 241.646 206.976C241.677 204.463 241.935 201.949 242.194 199.461Z" fill="#263238"/>
<path d="M251.292 158.164C251.563 156.643 251.97 155.152 252.383 153.667C252.383 153.624 252.457 153.667 252.45 153.667C252.068 155.127 251.797 156.618 251.526 158.103C251.255 159.587 250.997 161.133 250.781 162.655C250.781 162.655 250.738 162.655 250.744 162.655C250.841 161.149 251.024 159.649 251.292 158.164Z" fill="#263238"/>
<path d="M257.735 162.285C258.774 161.593 259.861 160.975 260.988 160.437C261.536 160.154 262.084 159.889 262.639 159.618C263.193 159.347 263.797 159.113 264.364 158.829C264.401 158.829 264.438 158.873 264.364 158.891C263.822 159.162 263.298 159.507 262.762 159.79C262.226 160.074 261.659 160.406 261.105 160.696C260.008 161.312 258.937 161.928 257.785 162.415C257.772 162.411 257.76 162.404 257.75 162.395C257.74 162.386 257.732 162.375 257.728 162.362C257.723 162.35 257.721 162.336 257.722 162.323C257.724 162.309 257.728 162.297 257.735 162.285Z" fill="#263238"/>
<path opacity="0.1" d="M239.761 173.219C239.761 173.219 230.299 170.965 225.956 164.595C221.81 158.534 220.468 148.203 220.363 147.298C220.535 148.13 222.488 157.154 228.925 161.361C233.853 164.608 238.615 167.256 239.761 173.219Z" fill="#263238"/>
<path d="M231.032 156.883C232.712 158.43 233.92 160.42 234.519 162.624C234.519 162.624 234.519 162.655 234.519 162.624C233.823 160.47 232.621 158.514 231.013 156.92C231.013 156.913 231.014 156.905 231.017 156.899C231.02 156.892 231.026 156.886 231.032 156.883Z" fill="#263238"/>
<path d="M239.761 173.219C239.761 173.219 230.299 170.965 225.956 164.595C221.81 158.534 220.468 148.203 220.363 147.298C220.364 147.277 220.364 147.257 220.363 147.236C220.363 147.236 224.903 153.68 229.671 155.324C234.438 156.969 241.122 162.679 239.761 173.219Z" fill="#00C977"/>
<path d="M222.032 150.815C222.878 152.552 223.854 154.222 224.952 155.811C226.054 157.323 227.365 158.671 228.845 159.815C230.126 160.838 231.488 161.762 232.787 162.76V162.716C232.541 162.353 232.282 162.002 232.011 161.657C231.469 160.967 230.878 160.314 230.287 159.667C229.11 158.392 227.909 157.142 226.855 155.762C226.269 154.993 225.762 154.168 225.34 153.298C225.34 153.261 225.389 153.236 225.408 153.298C226.942 156.495 230.003 158.54 232.184 161.244C232.496 161.627 232.788 162.026 233.059 162.439C233.276 162.737 233.458 163.06 233.601 163.4C234.8 164.357 235.883 165.451 236.828 166.659C236.746 166.034 236.618 165.417 236.447 164.811C236.226 163.97 235.891 163.163 235.449 162.415C235.444 162.407 235.442 162.398 235.444 162.39C235.445 162.381 235.45 162.373 235.458 162.368C235.465 162.363 235.474 162.362 235.483 162.363C235.492 162.365 235.499 162.37 235.504 162.378C235.962 163.125 236.332 163.923 236.607 164.755C236.807 165.42 236.922 166.107 236.952 166.8C237.416 167.436 237.842 168.098 238.227 168.784C238.19 168.587 238.153 168.384 238.11 168.168C237.925 167.226 237.716 166.289 237.494 165.359C237.051 163.464 236.282 161.661 235.221 160.031C235.221 159.994 235.221 159.951 235.276 159.988C236.364 161.596 237.215 163.354 237.802 165.205C238.097 166.129 238.344 167.053 238.553 168.026C238.658 168.494 238.75 168.956 238.843 169.425C238.886 169.671 238.941 169.917 238.978 170.164C239.916 172.224 240.647 174.372 241.159 176.576C242.087 180.515 242.762 184.508 243.179 188.533C243.663 192.749 243.879 196.992 243.826 201.235C243.826 201.765 243.789 202.294 243.758 202.824C243.762 202.84 243.763 202.857 243.759 202.874C243.755 202.89 243.748 202.906 243.738 202.919C243.727 202.932 243.714 202.943 243.699 202.95C243.684 202.957 243.667 202.961 243.651 202.961C243.634 202.961 243.617 202.957 243.602 202.95C243.587 202.943 243.574 202.932 243.564 202.919C243.553 202.906 243.546 202.89 243.542 202.874C243.539 202.857 243.539 202.84 243.543 202.824C243.45 200.73 243.395 198.629 243.266 196.535C243.136 194.44 242.964 192.34 242.736 190.252C242.307 186.142 241.649 182.06 240.765 178.024C240.001 174.562 239.003 171.082 237.118 168.057C236.178 166.549 235.029 165.182 233.705 163.998C232.375 162.809 230.927 161.762 229.529 160.659C228.113 159.579 226.827 158.339 225.697 156.963C224.543 155.433 223.537 153.798 222.691 152.078L222.014 150.797C221.952 150.815 222.007 150.772 222.032 150.815Z" fill="#263238"/>
<path d="M274.466 169.037C274.466 169.037 274.614 182.478 266.575 186.358C258.536 190.239 254.255 187.005 248.773 188.305C248.988 187.985 252.888 182.385 259.085 180.839C265.466 179.256 272.532 174.636 274.466 169.037Z" fill="#00C977"/>
<path opacity="0.1" d="M274.466 169.037C274.466 169.037 274.614 182.478 266.575 186.358C258.536 190.239 254.255 187.005 248.773 188.305C251.659 186.93 254.744 186.02 257.914 185.607C262.984 184.991 272.667 181.72 274.466 169.037Z" fill="black"/>
<path d="M248.243 188.545C249.2 187.676 250.277 186.948 251.44 186.383C251.613 186.297 251.791 186.229 251.964 186.155C252.136 186.081 252.136 185.946 252.235 185.847C252.474 185.595 252.727 185.356 252.992 185.133C253.494 184.695 254.034 184.303 254.606 183.962C255.937 183.18 257.397 182.632 258.758 181.905C258.795 181.905 258.832 181.948 258.795 181.966C258.118 182.318 257.471 182.699 256.812 183.081C256.152 183.463 255.524 183.808 254.908 184.184C254.348 184.543 253.815 184.943 253.313 185.379C253.171 185.502 253.036 185.638 252.9 185.773C253.789 185.475 254.696 185.234 255.617 185.053C257.089 184.751 258.58 184.541 260.046 184.227C260.766 184.074 261.477 183.883 262.177 183.654C262.842 183.118 263.508 182.582 264.142 182.003C264.907 181.304 265.602 180.533 266.218 179.7C266.218 179.663 266.304 179.7 266.28 179.736C265.305 181.055 264.201 182.272 262.984 183.371C263.329 183.242 263.674 183.1 264.013 182.946C266.77 181.705 269.137 179.735 270.856 177.248C270.856 177.211 270.943 177.248 270.918 177.285C269.457 179.42 267.569 181.23 265.374 182.601C264.273 183.286 263.097 183.842 261.869 184.258C260.444 184.699 258.991 185.043 257.52 185.287C256.079 185.523 254.656 185.863 253.263 186.303C251.982 186.726 250.776 187.349 249.691 188.151C247.644 189.74 245.994 191.784 244.874 194.12C243.438 197.221 242.542 200.543 242.225 203.945C242.225 204.093 241.984 204.093 241.997 203.945C242.379 198.352 243.888 192.469 248.243 188.545Z" fill="#263238"/>
<path d="M257.569 184.184C257.988 183.555 258.555 183.039 259.22 182.681C259.983 182.285 260.653 181.73 261.185 181.055C261.185 181.024 261.271 181.055 261.247 181.092C260.764 181.71 260.176 182.237 259.51 182.65C258.78 183.026 258.137 183.548 257.619 184.184C257.6 184.227 257.551 184.184 257.569 184.184Z" fill="#263238"/>
<path d="M253.307 198.463L252.937 205.855L251.822 228.437H234.962L233.841 205.855L233.471 198.463H253.307Z" fill="#37474F"/>
<path d="M253.307 198.463L252.937 205.855H233.841L233.471 198.463H253.307Z" fill="#263238"/>
<path d="M254.489 195.377H232.295V202.43H254.489V195.377Z" fill="#37474F"/>
<path d="M204.624 33.6028H104.111C102.763 33.6141 101.431 33.8909 100.19 34.4176C98.9491 34.9442 97.8243 35.7103 96.8797 36.672C95.9351 37.6338 95.1894 38.7723 94.6852 40.0224C94.181 41.2725 93.9282 42.6098 93.9412 43.9577V250.866C93.9182 253.587 94.9764 256.207 96.8833 258.148C98.7903 260.09 101.39 261.195 104.111 261.221H204.624C207.346 261.195 209.946 260.09 211.854 258.148C213.762 256.207 214.822 253.588 214.8 250.866V43.9577C214.823 41.2353 213.764 38.6152 211.856 36.6735C209.948 34.7317 207.346 33.6272 204.624 33.6028ZM208.437 244.466C208.437 249.911 204.359 254.322 199.333 254.322H109.397C104.358 254.322 100.28 249.911 100.28 244.466V51.7994C100.28 40.7114 104.358 40.1632 109.397 40.1632H127.415C128.462 40.1632 129.318 41.3521 129.318 42.8243V43.4403C129.318 46.8961 131.209 46.9022 133.525 46.9022H175.179C177.52 46.9022 179.399 46.9022 179.399 43.4403V42.8243C179.399 41.3521 180.243 40.1632 181.308 40.1632H199.32C204.347 40.1632 208.425 41.6354 208.425 51.7994L208.437 244.466Z" fill="#263238"/>
<path d="M208.443 51.9657V244.638C208.443 250.084 204.365 254.494 199.339 254.494H109.403C104.364 254.494 100.286 250.09 100.286 244.638V51.9657C100.286 40.8777 104.364 40.3357 109.403 40.3357H127.421C128.468 40.3357 129.324 41.5245 129.324 42.9968V43.6128C129.324 47.0685 131.215 47.0809 133.531 47.0809H175.198C177.538 47.0809 179.417 47.0809 179.417 43.6128V42.9968C179.417 41.5245 180.261 40.3357 181.327 40.3357H199.339C204.396 40.3357 208.443 41.8079 208.443 51.9657Z" fill="white"/>
<path d="M208.443 51.9719V69.4478H100.292V51.9719C100.292 40.8839 104.37 40.3357 109.409 40.3357H127.427C128.474 40.3357 129.33 41.5245 129.33 42.9968V43.6128C129.33 47.0624 131.221 47.0747 133.538 47.0747H175.198C177.538 47.0747 179.417 47.0747 179.417 43.6128V42.9968C179.417 41.5245 180.261 40.3357 181.327 40.3357H199.339C204.396 40.3357 208.443 41.8079 208.443 51.9719Z" fill="#00C977"/>
<path d="M160.044 42.6149H148.685C148.591 42.6141 148.499 42.5946 148.412 42.5574C148.326 42.5202 148.248 42.4661 148.184 42.3984C148.119 42.3306 148.068 42.2505 148.035 42.1629C148.001 42.0752 147.986 41.9818 147.989 41.888C147.989 41.7028 148.062 41.5251 148.192 41.3936C148.323 41.2621 148.5 41.1874 148.685 41.1858H160.044C160.137 41.1849 160.229 41.2025 160.315 41.2374C160.401 41.2724 160.479 41.324 160.545 41.3892C160.61 41.4545 160.663 41.5322 160.698 41.6178C160.734 41.7034 160.752 41.7953 160.752 41.888C160.756 41.9828 160.74 42.0773 160.706 42.1658C160.672 42.2542 160.62 42.3349 160.554 42.4028C160.487 42.4707 160.408 42.5245 160.321 42.561C160.233 42.5974 160.139 42.6158 160.044 42.6149Z" fill="white"/>
<path d="M124.316 44.4937C124.261 44.5491 124.199 44.6046 124.144 44.6662C124.108 44.6959 124.075 44.7289 124.045 44.7647C123.825 44.544 123.563 44.3689 123.275 44.2494C122.987 44.13 122.678 44.0685 122.367 44.0685C122.055 44.0685 121.746 44.13 121.458 44.2494C121.17 44.3689 120.908 44.544 120.688 44.7647L120.596 44.6662L120.423 44.4937L120.645 44.3027C120.799 44.1737 120.969 44.064 121.15 43.9762C121.372 43.8637 121.608 43.7829 121.852 43.736L122.191 43.6929H122.468H122.696C122.907 43.7173 123.113 43.7669 123.312 43.8407C123.459 43.89 123.599 43.9562 123.731 44.0378C123.873 44.1174 124.007 44.2102 124.131 44.315L124.316 44.4814V44.4937Z" fill="white"/>
<path d="M121.236 45.313L120.959 45.0358C121.331 44.6645 121.835 44.456 122.36 44.456C122.886 44.456 123.39 44.6645 123.762 45.0358L123.485 45.3068C123.337 45.1586 123.161 45.0414 122.968 44.9621C122.774 44.8827 122.567 44.8429 122.357 44.8448C122.149 44.8431 121.942 44.8837 121.749 44.9641C121.556 45.0446 121.382 45.1633 121.236 45.313Z" fill="white"/>
<path d="M123.214 45.584L122.943 45.855C122.866 45.7795 122.776 45.7199 122.677 45.6797C122.577 45.6395 122.471 45.6195 122.364 45.621C122.257 45.6198 122.151 45.6405 122.052 45.6818C121.954 45.7231 121.865 45.7841 121.791 45.8612L121.513 45.584C121.625 45.4715 121.757 45.3822 121.903 45.3212C122.049 45.2603 122.205 45.2289 122.364 45.2289C122.522 45.2289 122.678 45.2603 122.824 45.3212C122.97 45.3822 123.102 45.4715 123.214 45.584Z" fill="white"/>
<path d="M122.616 46.1076C122.617 46.1578 122.604 46.2072 122.577 46.2495C122.55 46.2919 122.511 46.3252 122.465 46.3453C122.419 46.3653 122.368 46.3712 122.318 46.3622C122.269 46.3532 122.223 46.3296 122.187 46.2945C122.151 46.2595 122.127 46.2145 122.116 46.1653C122.106 46.1162 122.111 46.0651 122.13 46.0186C122.149 45.9721 122.181 45.9323 122.223 45.9042C122.264 45.8762 122.313 45.8612 122.364 45.8612C122.396 45.8604 122.429 45.8661 122.46 45.8782C122.49 45.8902 122.518 45.9082 122.542 45.9311C122.565 45.9541 122.584 45.9816 122.597 46.0119C122.61 46.0422 122.616 46.0747 122.616 46.1076Z" fill="white"/>
<path d="M107.345 45.0173C107.344 44.8742 107.385 44.734 107.464 44.6145C107.543 44.4951 107.655 44.4018 107.787 44.3464C107.919 44.2911 108.065 44.2763 108.205 44.304C108.345 44.3316 108.474 44.4003 108.576 44.5015C108.677 44.6027 108.745 44.7316 108.773 44.872C108.801 45.0124 108.786 45.1578 108.731 45.2898C108.675 45.4217 108.582 45.5342 108.463 45.6129C108.343 45.6916 108.203 45.733 108.06 45.7318C107.87 45.7318 107.689 45.6565 107.555 45.5225C107.421 45.3885 107.345 45.2068 107.345 45.0173Z" fill="white"/>
<path d="M109.606 45.0173C109.606 44.8759 109.648 44.7378 109.726 44.6203C109.805 44.5028 109.917 44.4112 110.047 44.3571C110.178 44.303 110.321 44.2889 110.46 44.3164C110.599 44.344 110.726 44.4121 110.826 44.512C110.926 44.6119 110.994 44.7393 111.021 44.8779C111.049 45.0165 111.035 45.1601 110.981 45.2907C110.927 45.4213 110.835 45.5329 110.718 45.6114C110.6 45.6899 110.462 45.7318 110.321 45.7318C110.131 45.7318 109.949 45.6565 109.815 45.5225C109.681 45.3885 109.606 45.2068 109.606 45.0173Z" fill="white"/>
<path d="M111.861 45.0173C111.859 44.8742 111.901 44.734 111.98 44.6145C112.058 44.4951 112.171 44.4018 112.303 44.3464C112.435 44.2911 112.58 44.2763 112.72 44.304C112.861 44.3316 112.99 44.4003 113.091 44.5015C113.192 44.6027 113.261 44.7316 113.288 44.872C113.316 45.0124 113.301 45.1578 113.246 45.2898C113.191 45.4217 113.097 45.5342 112.978 45.6129C112.858 45.6916 112.718 45.733 112.575 45.7318C112.386 45.7318 112.204 45.6565 112.07 45.5225C111.936 45.3885 111.861 45.2068 111.861 45.0173Z" fill="white"/>
<path d="M114.115 45.0173C114.114 44.8745 114.155 44.7345 114.234 44.6152C114.312 44.4959 114.424 44.4025 114.556 44.347C114.687 44.2915 114.833 44.2764 114.973 44.3035C115.113 44.3306 115.242 44.3987 115.343 44.4993C115.445 44.5998 115.514 44.7282 115.542 44.8682C115.571 45.0082 115.557 45.1534 115.502 45.2855C115.448 45.4175 115.356 45.5304 115.237 45.6099C115.118 45.6894 114.979 45.7318 114.836 45.7318C114.646 45.7318 114.464 45.6567 114.329 45.5229C114.194 45.3891 114.117 45.2073 114.115 45.0173Z" fill="white"/>
<path d="M116.376 45.0173C116.375 44.8742 116.416 44.734 116.495 44.6145C116.573 44.4951 116.686 44.4018 116.818 44.3464C116.95 44.2911 117.095 44.2763 117.236 44.304C117.376 44.3316 117.505 44.4003 117.606 44.5015C117.707 44.6027 117.776 44.7316 117.804 44.872C117.831 45.0124 117.816 45.1578 117.761 45.2898C117.706 45.4217 117.612 45.5342 117.493 45.6129C117.374 45.6916 117.233 45.733 117.09 45.7318C116.901 45.7318 116.719 45.6565 116.585 45.5225C116.451 45.3885 116.376 45.2068 116.376 45.0173Z" fill="white"/>
<path d="M200.331 46.5819H194.497V43.8777H200.331V46.5819ZM194.787 46.2862H200.023V44.1733H194.787V46.2862Z" fill="white"/>
<path d="M198.741 44.3397H194.978V46.1261H198.741V44.3397Z" fill="white"/>
<path d="M200.848 44.506H200.331V45.9536H200.848V44.506Z" fill="white"/>
<path d="M110.542 62.7642L107.345 59.7705L110.542 56.7767L111.035 57.3065L108.405 59.7705L111.035 62.2345L110.542 62.7642Z" fill="white"/>
<path d="M198.637 62.9798H196.481V62.216C196.48 62.1853 196.471 62.1555 196.454 62.1295C196.438 62.1035 196.415 62.0824 196.388 62.0681C196.305 62.0259 196.225 61.9786 196.148 61.9265C196.12 61.9096 196.088 61.9007 196.055 61.9007C196.023 61.9007 195.991 61.9096 195.963 61.9265L195.316 62.3022L194.238 60.4542L194.891 60.0785C194.917 60.0607 194.938 60.0367 194.952 60.0087C194.966 59.9807 194.973 59.9496 194.971 59.9183C194.971 59.8752 194.971 59.8259 194.971 59.7828C194.971 59.7397 194.971 59.6904 194.971 59.6473C194.973 59.6151 194.966 59.5831 194.952 59.5541C194.938 59.5252 194.917 59.5 194.891 59.4809L194.238 59.1113L195.316 57.2633L195.963 57.6391C195.99 57.6554 196.021 57.664 196.052 57.664C196.084 57.664 196.115 57.6554 196.142 57.6391L196.388 57.5036C196.416 57.4883 196.439 57.4661 196.455 57.439C196.471 57.412 196.48 57.3811 196.481 57.3496V56.5611H198.637V57.288C198.636 57.3197 198.645 57.3508 198.661 57.378C198.677 57.4051 198.701 57.4273 198.729 57.442C198.812 57.4821 198.892 57.5274 198.969 57.5775C198.997 57.5937 199.029 57.6023 199.062 57.6023C199.094 57.6023 199.126 57.5937 199.154 57.5775L199.801 57.2017L200.879 59.0497L200.226 59.4255C200.198 59.4412 200.176 59.4648 200.161 59.4933C200.147 59.5219 200.142 59.554 200.146 59.5857V59.8567C200.142 59.8883 200.147 59.9205 200.161 59.949C200.176 59.9775 200.198 60.0012 200.226 60.0169L200.879 60.3926L199.801 62.2406L199.148 61.8649C199.121 61.8485 199.09 61.8399 199.058 61.8399C199.027 61.8399 198.996 61.8485 198.969 61.8649C198.892 61.917 198.812 61.9643 198.729 62.0065C198.702 62.0208 198.679 62.0419 198.663 62.0679C198.646 62.0939 198.637 62.1237 198.637 62.1544V62.9798ZM196.943 62.5178H198.175V62.216C198.173 62.0995 198.205 61.985 198.266 61.8858C198.327 61.7865 198.415 61.7067 198.519 61.6554L198.717 61.5445C198.816 61.4809 198.931 61.447 199.049 61.447C199.167 61.447 199.283 61.4809 199.382 61.5445L199.628 61.6862L200.244 60.6205L199.992 60.4789C199.885 60.4185 199.798 60.3277 199.744 60.2179C199.689 60.1082 199.668 59.9845 199.684 59.8629V59.6349C199.676 59.5186 199.701 59.4024 199.757 59.2999C199.812 59.1974 199.896 59.1128 199.998 59.0559L200.244 58.9081L199.628 57.8424L199.382 57.9902C199.283 58.0539 199.167 58.0877 199.049 58.0877C198.931 58.0877 198.816 58.0539 198.717 57.9902C198.655 57.946 198.589 57.9088 198.519 57.8793C198.414 57.8276 198.325 57.7468 198.264 57.6464C198.203 57.546 198.172 57.4301 198.175 57.3126V57.0293H196.943V57.288C196.945 57.4062 196.913 57.5225 196.85 57.6229C196.788 57.7234 196.698 57.8039 196.591 57.8547C196.523 57.8869 196.457 57.924 196.394 57.9656C196.296 58.028 196.181 58.0611 196.065 58.0611C195.948 58.0611 195.834 58.028 195.735 57.9656L195.483 57.8177L194.867 58.8834L195.113 59.0313C195.216 59.0886 195.3 59.1742 195.356 59.2779C195.411 59.3816 195.436 59.4991 195.427 59.6165V59.8444C195.435 59.9607 195.41 60.0769 195.354 60.1794C195.298 60.2819 195.215 60.3665 195.113 60.4234L194.867 60.5651L195.483 61.6308L195.735 61.4891C195.834 61.4254 195.95 61.3916 196.068 61.3916C196.186 61.3916 196.301 61.4254 196.4 61.4891C196.464 61.5317 196.53 61.5708 196.598 61.6061C196.702 61.6574 196.79 61.7373 196.851 61.8365C196.912 61.9357 196.944 62.0502 196.943 62.1667V62.5178ZM197.559 61.3844C197.238 61.3856 196.925 61.2919 196.658 61.1152C196.391 60.9384 196.183 60.6866 196.059 60.3914C195.935 60.0962 195.901 59.7709 195.962 59.4565C196.023 59.1422 196.175 58.8529 196.4 58.6253C196.625 58.3976 196.913 58.2417 197.227 58.1773C197.54 58.1129 197.866 58.1429 198.162 58.2635C198.459 58.384 198.713 58.5897 198.893 58.8547C199.073 59.1196 199.17 59.4318 199.172 59.752C199.175 59.9655 199.135 60.1773 199.055 60.3753C198.975 60.5732 198.856 60.7533 198.706 60.9052C198.556 61.057 198.377 61.1775 198.18 61.2598C197.983 61.342 197.772 61.3844 197.559 61.3844ZM197.559 58.6124C197.328 58.6112 197.103 58.6786 196.912 58.8059C196.72 58.9332 196.571 59.1148 196.483 59.3274C196.395 59.5399 196.372 59.7739 196.417 59.9995C196.463 60.225 196.574 60.4319 196.738 60.5937C196.902 60.7555 197.11 60.865 197.336 60.908C197.562 60.9511 197.795 60.9259 198.007 60.8356C198.219 60.7453 198.399 60.594 198.524 60.401C198.649 60.208 198.714 59.982 198.71 59.752C198.706 59.4491 198.582 59.1602 198.367 58.9472C198.152 58.7341 197.861 58.614 197.559 58.6124Z" fill="white"/>
<path d="M192.957 185.835H115.784V120.551L154.365 96.0467L192.957 120.551V185.835Z" fill="#00C977"/>
<path opacity="0.2" d="M192.957 185.835H115.784V120.551L154.365 96.0467L192.957 120.551V185.835Z" fill="black"/>
<path d="M188.608 180.839H120.134V92.9421H170.978L188.608 109.691V180.839Z" fill="#EBEBEB"/>
<path d="M170.978 92.9421L188.608 109.691H170.978V92.9421Z" fill="#DBDBDB"/>
<path d="M126.817 109.95H164.886V107.695H126.817V109.95Z" fill="#DBDBDB"/>
<path d="M126.817 115.648H164.886V113.393H126.817V115.648Z" fill="#DBDBDB"/>
<path d="M126.817 121.34H164.886V119.085H126.817V121.34Z" fill="#DBDBDB"/>
<path d="M126.811 127.038H182.59V124.783H126.811V127.038Z" fill="#DBDBDB"/>
<path d="M126.811 132.736H182.59V130.481H126.811V132.736Z" fill="#DBDBDB"/>
<path d="M126.811 138.434H182.59V136.179H126.811V138.434Z" fill="#DBDBDB"/>
<path d="M126.811 144.132H182.59V141.877H126.811V144.132Z" fill="#DBDBDB"/>
<path d="M126.811 149.824H182.59V147.569H126.811V149.824Z" fill="#DBDBDB"/>
<path d="M126.811 155.521H182.59V153.267H126.811V155.521Z" fill="#DBDBDB"/>
<path d="M126.811 161.213H182.59V158.959H126.811V161.213Z" fill="#DBDBDB"/>
<path d="M126.811 166.917H182.59V164.663H126.811V166.917Z" fill="#DBDBDB"/>
<path d="M126.811 172.616H182.59V170.361H126.811V172.616Z" fill="#DBDBDB"/>
<path d="M192.957 136.894V185.835H115.784V136.894C119.099 138.742 122.357 140.738 125.64 142.659C128.924 144.581 132.176 146.577 135.423 148.573C139.038 150.772 142.654 153.014 146.258 155.269L146.375 155.201C146.338 155.201 146.32 155.263 146.283 155.281C148.981 156.961 151.681 158.651 154.383 160.351C157.075 158.657 159.773 156.951 162.471 155.281C162.44 155.281 162.416 155.226 162.379 155.201C162.415 155.226 162.454 155.247 162.496 155.263C166.097 153.012 169.709 150.778 173.331 148.561C176.575 146.577 179.832 144.61 183.101 142.659C186.39 140.738 189.643 138.766 192.957 136.894Z" fill="#00C977"/>
<g opacity="0.2">
<path d="M192.957 136.894C189.84 139.08 186.668 141.206 183.526 143.337C180.384 145.468 177.187 147.55 173.996 149.639C170.67 151.819 167.337 153.979 163.999 156.119L163.697 156.328L154.808 162.008L154.365 162.273L153.939 162.008C150.97 160.115 148.009 158.222 145.057 156.328L144.749 156.131C141.398 153.988 138.059 151.823 134.733 149.639C131.554 147.563 128.382 145.456 125.215 143.349C122.049 141.243 118.901 139.093 115.784 136.906C119.099 138.754 122.357 140.75 125.64 142.672C128.924 144.594 132.176 146.59 135.423 148.585C139.038 150.784 142.654 153.027 146.258 155.281C148.956 156.961 151.656 158.651 154.358 160.351C157.05 158.657 159.748 156.951 162.446 155.281C166.048 153.031 169.66 150.797 173.282 148.579C176.526 146.596 179.783 144.629 183.052 142.678C186.39 140.738 189.643 138.766 192.957 136.894Z" fill="black"/>
<path d="M146.369 155.232C146.332 155.232 146.313 155.294 146.276 155.312C145.866 155.661 145.455 156.006 145.044 156.347C143.11 157.979 141.127 159.544 139.112 161.066C136.648 162.914 134.141 164.761 131.616 166.523C129.09 168.285 126.527 170.01 123.922 171.679C121.316 173.349 118.68 174.981 115.957 176.478C118.298 174.427 120.731 172.511 123.189 170.65C125.646 168.79 128.172 166.954 130.685 165.187C133.199 163.419 135.786 161.688 138.392 160.018C140.467 158.688 142.58 157.376 144.736 156.15C145.229 155.86 145.728 155.583 146.239 155.3L146.369 155.232Z" fill="black"/>
<path d="M192.772 176.447C190.049 174.95 187.407 173.318 184.813 171.648C182.22 169.979 179.651 168.242 177.107 166.492C174.563 164.743 172.062 162.907 169.604 161.035C167.602 159.513 165.619 157.955 163.697 156.328L162.465 155.281C162.434 155.281 162.41 155.226 162.373 155.201C162.409 155.226 162.448 155.247 162.49 155.263C163.001 155.552 163.5 155.83 163.999 156.119C166.155 157.351 168.249 158.657 170.337 159.988C172.943 161.657 175.493 163.394 178.031 165.156C180.569 166.917 183.07 168.741 185.528 170.62C187.986 172.498 190.431 174.396 192.772 176.447Z" fill="black"/>
</g>
<path d="M127.033 203.674H115.784V214.922H127.033V203.674Z" fill="#EBEBEB"/>
<path d="M143.468 203.674H132.219V214.922H143.468V203.674Z" fill="#EBEBEB"/>
<path d="M159.902 203.674H148.654V214.922H159.902V203.674Z" fill="#EBEBEB"/>
<path d="M176.337 203.674H165.089V214.922H176.337V203.674Z" fill="#EBEBEB"/>
<path d="M192.778 203.674H181.53V214.922H192.778V203.674Z" fill="#EBEBEB"/>
<path d="M192.427 220.848H115.439V222.062H192.427V220.848Z" fill="#EBEBEB"/>
<path d="M192.427 224.052H115.439V225.265H192.427V224.052Z" fill="#EBEBEB"/>
<path d="M192.427 227.261H115.439V228.474H192.427V227.261Z" fill="#EBEBEB"/>
<path d="M151.18 230.464H115.439V231.678H151.18V230.464Z" fill="#EBEBEB"/>
<path d="M116.074 109.032H115.199V108.57H117.663V109.032H116.074ZM112.119 108.989L109.655 108.921V108.459L112.119 108.527V108.989ZM120.743 108.989V108.527C121.556 108.527 122.375 108.49 123.207 108.459V108.921C122.382 108.933 121.562 108.952 120.749 108.97L120.743 108.989ZM126.287 108.798V108.336L128.751 108.213V108.675L126.287 108.798ZM106.575 108.798C105.743 108.749 104.918 108.693 104.111 108.632L104.142 108.17C104.949 108.231 105.762 108.287 106.606 108.336L106.575 108.798ZM131.831 108.496L131.8 108.034L134.264 107.862L134.301 108.324L131.831 108.496ZM101.031 108.361C100.193 108.274 99.3802 108.182 98.5671 108.077L98.6225 107.621C99.4172 107.72 100.236 107.812 101.087 107.899L101.031 108.361ZM137.375 108.077L137.332 107.615L139.796 107.4L139.839 107.862L137.375 108.077ZM95.5364 107.652C94.7048 107.523 93.8917 107.381 93.0724 107.233L93.1586 106.784C93.9471 106.925 94.7541 107.067 95.5795 107.196L95.5364 107.652ZM142.894 107.566L142.851 107.104L145.315 106.851L145.365 107.313L142.894 107.566ZM148.438 106.95L148.383 106.488L148.999 106.414C149.615 106.346 150.2 106.272 150.798 106.192L150.859 106.648L149.048 106.876L148.438 106.95ZM90.0663 106.568C89.2532 106.383 88.4462 106.186 87.6701 105.952L87.7871 105.502C88.5571 105.712 89.3579 105.903 90.171 106.088L90.0663 106.568ZM153.884 106.192L153.81 105.736C154.623 105.601 155.43 105.465 156.237 105.311L156.323 105.767C155.518 105.915 154.705 106.057 153.884 106.192ZM159.354 105.17L159.262 104.72C160.062 104.548 160.863 104.375 161.664 104.19L161.763 104.64C160.986 104.825 160.186 104.997 159.379 105.17H159.354ZM84.6763 105.133C83.8817 104.88 83.0932 104.609 82.3355 104.332L82.4957 103.901C83.2472 104.172 84.0295 104.443 84.818 104.695L84.6763 105.133ZM164.756 103.901L164.639 103.457C165.434 103.254 166.229 103.044 167.017 102.841L167.14 103.285L164.756 103.901ZM79.4649 103.168C78.7011 102.829 77.9496 102.472 77.2289 102.102L77.4383 101.689C78.1529 102.059 78.8982 102.41 79.6497 102.743L79.4649 103.168ZM170.103 102.428L169.974 101.985L172.321 101.27L172.456 101.708C171.705 101.96 170.922 102.201 170.134 102.435L170.103 102.428ZM175.395 100.759L175.247 100.322C176.029 100.057 176.805 99.792 177.575 99.521L177.729 99.9583L175.395 100.759ZM74.5308 100.587C73.8224 100.149 73.1263 99.6873 72.4672 99.213L72.7382 98.8372C73.3912 99.3054 74.0749 99.7612 74.7772 100.192L74.5308 100.587ZM180.631 98.9111L180.47 98.4738C181.24 98.1904 182.01 97.9009 182.774 97.6052L182.941 98.0364C182.22 98.3382 181.438 98.6278 180.661 98.9173L180.631 98.9111ZM70.0709 97.328C69.4426 96.7859 68.8389 96.2192 68.2599 95.6278L68.5925 95.3075C69.1593 95.8804 69.7568 96.4471 70.3728 96.9769L70.0709 97.328ZM185.842 96.9338L185.663 96.5087C186.433 96.1946 187.191 95.8927 187.943 95.5662L188.121 95.9913C187.37 96.2808 186.606 96.595 185.842 96.903V96.9338ZM190.955 94.7778L190.77 94.3527L193.025 93.3548L193.209 93.7737C192.47 94.0817 191.719 94.4143 190.955 94.747V94.7778ZM66.1963 93.3178C65.6729 92.6658 65.211 91.9668 64.8165 91.2296L65.223 91.014C65.6034 91.7265 66.051 92.401 66.5597 93.0283L66.1963 93.3178ZM196.012 92.4801L195.821 92.0612C196.567 91.7101 197.312 91.359 198.045 91.0017L198.242 91.4206C197.509 91.747 196.77 92.0982 196.012 92.4493V92.4801ZM201.014 90.0592L200.805 89.6465L203.004 88.5315L203.213 88.9442L201.014 90.0592ZM63.7693 88.2728C63.6656 87.7162 63.614 87.1511 63.6153 86.585C63.6153 86.3078 63.6153 86.0367 63.6522 85.7595L64.1081 85.7965C64.1081 86.0614 64.0773 86.3201 64.0773 86.585C64.078 87.1219 64.1254 87.6578 64.2189 88.1866L63.7693 88.2728ZM205.948 87.472L205.733 87.0654C206.472 86.6712 207.199 86.2831 207.907 85.895L208.129 86.3016L205.948 87.472ZM210.827 84.8109L210.605 84.4105L212.749 83.1785L212.977 83.5789C212.281 84.0039 211.566 84.392 210.827 84.8232V84.8109ZM64.8349 82.8458L64.4037 82.6734C64.7118 81.898 65.0848 81.1499 65.5187 80.4373L65.9129 80.6775C65.4854 81.3715 65.1185 82.1011 64.8165 82.8582L64.8349 82.8458ZM215.663 82.0389L215.428 81.6385C216.161 81.2073 216.87 80.7822 217.541 80.3757L217.782 80.7699L215.663 82.0389ZM220.412 79.1498L220.165 78.7556C220.917 78.2874 221.613 77.8439 222.254 77.4374L222.5 77.8254C221.847 78.232 221.151 78.6878 220.412 79.1622V79.1498ZM67.6809 78.232L67.3297 77.9302C67.841 77.3142 68.4077 76.6982 69.0176 76.0822L69.3441 76.4148C68.7404 77.0308 68.186 77.616 67.6809 78.232ZM225.069 76.1438L224.81 75.7557C226.141 74.8686 226.849 74.3635 226.855 74.3635L227.12 74.7393C227.12 74.7393 226.406 75.2506 225.069 76.1438ZM71.6171 74.3882L71.3214 74.0309C71.9374 73.5258 72.5904 73.0083 73.2741 72.5032L73.5452 72.8728C72.8676 73.3779 72.2208 73.883 71.6171 74.3882ZM76.0646 71.1234L75.8121 70.7353C76.4897 70.2979 77.1981 69.8544 77.9126 69.4232L78.1529 69.8236C77.4383 70.224 76.7361 70.686 76.0646 71.1234ZM80.8263 68.3021L80.6045 67.8955C81.3191 67.5136 82.0583 67.1317 82.8037 66.7621L83.0069 67.1748C82.2677 67.5444 81.5347 67.9263 80.8263 68.3021ZM85.7913 65.875L85.6065 65.45C86.3703 65.1112 87.1403 64.7909 87.8857 64.489L88.0581 64.9202C87.3128 65.2159 86.5489 65.5362 85.7913 65.875Z" fill="#263238"/>
<path d="M230.57 63.8422L226.985 74.5483L234.925 68.0002L265.632 55.9389L230.57 63.8422Z" fill="#00C977"/>
<path opacity="0.1" d="M230.57 63.8422L226.985 74.5483L234.925 68.0002L265.632 55.9389L230.57 63.8422Z" fill="black"/>
<path d="M236.034 70.4457L226.985 74.5483L234.925 68.0002L236.034 70.4457Z" fill="#263238"/>
<path d="M234.925 68.0002L265.633 55.9389L240.863 81.429L234.925 68.0002Z" fill="#00C977"/>
<path d="M230.57 63.8422L217.461 55.865L265.633 55.939L230.57 63.8422Z" fill="#00C977"/>
<path d="M218.324 192.525C218.034 192.241 217.708 191.958 217.437 191.681L217.751 191.342C218.053 191.625 218.367 191.909 218.644 192.192L218.324 192.525Z" fill="#263238"/>
<path d="M214.252 241.349V240.887C215.077 240.887 215.903 240.813 216.716 240.733L216.759 241.195C215.946 241.275 215.108 241.324 214.252 241.349ZM211.172 241.293C210.359 241.25 209.527 241.176 208.708 241.078L208.757 240.622C209.583 240.714 210.408 240.788 211.221 240.838L211.172 241.293ZM219.839 240.72L219.741 240.271C220.56 240.098 221.355 239.895 222.112 239.655L222.248 240.098C221.472 240.339 220.658 240.548 219.833 240.72H219.839ZM205.628 240.616C204.84 240.468 204.02 240.295 203.201 240.104L203.306 239.655C204.119 239.846 204.926 240.012 205.714 240.16L205.628 240.616ZM200.201 239.31C199.419 239.076 198.624 238.823 197.836 238.558L197.983 238.121C198.766 238.386 199.554 238.638 200.33 238.866L200.201 239.31ZM225.161 238.971L224.964 238.552C225.702 238.204 226.418 237.811 227.108 237.376L227.354 237.77C226.643 238.212 225.906 238.613 225.149 238.971H225.161ZM194.928 237.499C194.164 237.197 193.388 236.883 192.63 236.55L192.815 236.131C193.567 236.452 194.337 236.747 195.094 237.068L194.928 237.499ZM229.843 235.879L229.529 235.534C230.131 234.989 230.691 234.401 231.204 233.772L231.562 234.062C231.032 234.71 230.453 235.318 229.831 235.879H229.843ZM189.803 235.263C189.068 234.914 188.329 234.544 187.585 234.154L187.795 233.747C188.54 234.129 189.273 234.493 190.006 234.844L189.803 235.263ZM184.875 232.688C184.148 232.281 183.44 231.862 182.737 231.456L182.972 231.062C183.674 231.48 184.382 231.893 185.103 232.294L184.875 232.688ZM233.305 231.456L232.898 231.234C233.285 230.519 233.616 229.776 233.89 229.01L234.321 229.17C234.035 229.959 233.689 230.726 233.286 231.462L233.305 231.456ZM180.107 229.805C179.411 229.355 178.727 228.893 178.05 228.431L178.315 228.049C178.986 228.511 179.67 228.967 180.36 229.417L180.107 229.805ZM175.53 226.639C174.865 226.146 174.206 225.647 173.559 225.142L173.842 224.778C174.489 225.284 175.142 225.776 175.807 226.263L175.53 226.639ZM235.11 226.146L234.66 226.066C234.792 225.263 234.876 224.452 234.913 223.639H235.375C235.335 224.482 235.241 225.321 235.091 226.152L235.11 226.146ZM171.132 223.22C170.516 222.69 169.863 222.16 169.241 221.624L169.537 221.273C170.153 221.809 170.769 222.339 171.428 222.863L171.132 223.22ZM234.826 220.596C234.746 219.801 234.629 218.982 234.469 218.169L234.925 218.082C235.085 218.914 235.208 219.74 235.282 220.546L234.826 220.596ZM166.919 219.579C166.303 219.025 165.687 218.471 165.071 217.91L165.391 217.571C165.99 218.134 166.594 218.688 167.202 219.234L166.919 219.579ZM162.859 215.785C162.243 215.212 161.683 214.633 161.097 214.054L161.424 213.721C162.009 214.306 162.594 214.879 163.186 215.452L162.859 215.785ZM233.699 215.2C233.471 214.442 233.2 213.66 232.898 212.877L233.33 212.711C233.638 213.506 233.909 214.294 234.143 215.064L233.699 215.2ZM158.892 211.861C158.313 211.276 157.74 210.684 157.167 210.093L157.494 209.773L159.219 211.534L158.892 211.861ZM231.685 210.056C231.34 209.335 230.958 208.596 230.558 207.875L230.958 207.654C231.365 208.38 231.746 209.126 232.104 209.859L231.685 210.056ZM155.03 207.863L153.323 206.07L153.662 205.756L155.369 207.543L155.03 207.863ZM228.987 205.233C228.556 204.555 228.094 203.871 227.613 203.188L227.995 202.923C228.475 203.606 228.937 204.303 229.375 204.986L228.987 205.233ZM151.198 203.834L149.492 202.048L149.831 201.728L151.531 203.514L151.198 203.834ZM225.784 200.717C225.291 200.101 224.767 199.442 224.231 198.802L224.582 198.506C225.124 199.122 225.654 199.8 226.147 200.434L225.784 200.717ZM147.361 199.818C146.788 199.202 146.221 198.635 145.642 198.044L145.975 197.718L147.693 199.498L147.361 199.818ZM222.198 196.504C221.656 195.888 221.096 195.309 220.511 194.711L220.843 194.385C221.428 195.001 221.995 195.617 222.543 196.19L222.198 196.504ZM143.48 195.857L141.737 194.108L142.063 193.781L143.812 195.531L143.48 195.857ZM139.537 191.946L137.757 190.239L138.071 189.9L139.858 191.613L139.537 191.946ZM135.503 188.133C134.887 187.578 134.271 187.024 133.655 186.469L133.963 186.124C134.579 186.679 135.195 187.239 135.811 187.794L135.503 188.133ZM131.369 184.437C130.753 183.901 130.137 183.365 129.521 182.835L129.817 182.478C130.433 183.014 131.08 183.556 131.696 184.092L131.369 184.437ZM127.125 180.864C126.509 180.346 125.85 179.835 125.197 179.318L125.486 178.954C126.139 179.472 126.78 179.989 127.415 180.506L127.125 180.864ZM122.764 177.408C122.148 176.909 121.458 176.416 120.786 175.923L121.064 175.554C121.735 176.047 122.394 176.539 123.041 177.038L122.764 177.408ZM118.292 174.119L116.265 172.708L116.53 172.326C117.214 172.8 117.891 173.268 118.556 173.743L118.292 174.119ZM113.709 170.989C113.025 170.54 112.335 170.09 111.639 169.646L111.885 169.258C112.587 169.702 113.277 170.152 113.961 170.601L113.709 170.989ZM109.021 168.014C108.325 167.589 107.622 167.164 106.908 166.739L107.142 166.345C107.863 166.77 108.565 167.195 109.261 167.62L109.021 168.014ZM104.241 165.193C103.532 164.786 102.818 164.386 102.091 163.961L102.313 163.554C103.039 163.961 103.76 164.361 104.469 164.786L104.241 165.193ZM99.3742 162.519C98.6535 162.137 97.9266 161.762 97.1874 161.38L97.3968 160.973C98.136 161.349 98.8691 161.731 99.5898 162.113L99.3742 162.519ZM94.4462 160C93.7193 159.636 92.974 159.279 92.2286 158.922L92.4257 158.503C93.1772 158.86 93.9164 159.224 94.6495 159.581L94.4462 160ZM89.4319 157.616L87.1835 156.6L87.3684 156.181C88.1322 156.513 88.8837 156.852 89.6229 157.197L89.4319 157.616ZM84.3561 155.368C83.6046 155.047 82.8469 154.752 82.0769 154.413L82.2555 153.982L84.5347 154.942L84.3561 155.368Z" fill="#263238"/>
<path d="M79.0522 153.193L77.9065 152.737L78.0728 152.306L79.2247 152.762L79.0522 153.193Z" fill="#263238"/>
<path d="M80.5184 145.475L84.584 156.655L76.0401 149.978L43.3674 138.132L80.5184 145.475Z" fill="#00C977"/>
<path opacity="0.1" d="M80.5184 145.475L84.584 156.655L76.0401 149.978L43.3674 138.132L80.5184 145.475Z" fill="black"/>
<path d="M74.9436 152.583L84.584 156.655L76.0401 149.978L74.9436 152.583Z" fill="#263238"/>
<path d="M76.0401 149.978L43.3674 138.132L70.1634 164.281L76.0401 149.978Z" fill="#00C977"/>
<path d="M80.5184 145.475L94.095 136.709L43.3674 138.132L80.5184 145.475Z" fill="#00C977"/>
<path d="M220.187 73.614C222.913 61.8831 215.612 50.1639 203.881 47.4384C192.151 44.7128 180.431 52.0131 177.706 63.744C174.98 75.4748 182.281 87.1941 194.011 89.9196C205.742 92.6452 217.462 85.3449 220.187 73.614Z" fill="#A6A6A6"/>
<path d="M213.827 59.2407H184.062V78.1211H213.827V59.2407Z" fill="white"/>
<path d="M213.827 59.2407C212.626 60.3926 211.4 61.4953 210.186 62.6287C208.973 63.7621 207.722 64.8401 206.49 65.9366C205.258 67.0331 203.922 68.2097 202.634 69.3369L202.517 69.4478L199.086 72.4231L198.92 72.5586L198.753 72.4231L195.328 69.4417L195.205 69.3369C193.912 68.2076 192.624 67.0721 191.343 65.9305C190.111 64.8401 188.879 63.7313 187.647 62.6287C186.415 61.5261 185.214 60.3926 184.012 59.2407C185.288 60.2263 186.544 61.2612 187.813 62.2714C189.082 63.2817 190.333 64.3289 191.583 65.3514C192.975 66.5095 194.369 67.682 195.766 68.8688L198.889 71.5237C199.93 70.6367 200.971 69.7435 202.012 68.8688C203.404 67.6861 204.798 66.5136 206.195 65.3514C207.427 64.3124 208.683 63.2858 209.965 62.2714C211.295 61.2612 212.552 60.2263 213.827 59.2407Z" fill="#DBDBDB"/>
<path d="M195.858 69.3246H195.821L195.353 69.7189C194.608 70.3349 193.844 70.9509 193.062 71.5669C192.113 72.2876 191.146 72.9837 190.173 73.6674C189.199 74.3512 188.208 75.0165 187.204 75.6571C186.199 76.2977 185.183 76.9322 184.124 77.5051C185.029 76.7105 185.972 75.9774 186.914 75.2567C187.856 74.536 188.836 73.8399 189.809 73.15C190.783 72.4601 191.774 71.801 192.778 71.1542C193.579 70.6429 194.392 70.1377 195.242 69.6634L195.828 69.3369L195.858 69.3246Z" fill="#DBDBDB"/>
<path d="M213.753 77.5174C212.706 76.9384 211.683 76.2854 210.673 75.6694C209.663 75.0534 208.683 74.3574 207.698 73.6798C206.712 73.0022 205.757 72.2999 204.809 71.5792C204.033 70.9632 203.269 70.3903 202.53 69.7312L202.055 69.3308H202.018H202.061L202.647 69.6634C203.478 70.1378 204.285 70.6429 205.111 71.1542C206.115 71.7702 207.094 72.4724 208.074 73.15C209.053 73.8276 210.02 74.5298 210.969 75.2567C211.917 75.9836 212.854 76.7228 213.753 77.5174Z" fill="#DBDBDB"/>
<path d="M212.864 63.4619C215.191 62.1937 216.05 59.2791 214.781 56.952C213.513 54.625 210.599 53.7666 208.272 55.0348C205.945 56.3031 205.086 59.2176 206.354 61.5447C207.623 63.8718 210.537 64.7301 212.864 63.4619Z" fill="#00C977"/>
<path d="M210.045 60.3002V56.3886C210.037 56.3147 210.044 56.2399 210.067 56.1691C210.09 56.0983 210.128 56.0331 210.177 55.9777C210.227 55.9224 210.288 55.8781 210.356 55.8478C210.424 55.8175 210.497 55.8018 210.571 55.8018C210.646 55.8018 210.719 55.8175 210.787 55.8478C210.855 55.8781 210.916 55.9224 210.966 55.9777C211.015 56.0331 211.053 56.0983 211.076 56.1691C211.099 56.2399 211.106 56.3147 211.098 56.3886V60.3002C211.106 60.3742 211.099 60.449 211.076 60.5198C211.053 60.5906 211.015 60.6558 210.966 60.7111C210.916 60.7665 210.855 60.8108 210.787 60.8411C210.719 60.8714 210.646 60.887 210.571 60.887C210.497 60.887 210.424 60.8714 210.356 60.8411C210.288 60.8108 210.227 60.7665 210.177 60.7111C210.128 60.6558 210.09 60.5906 210.067 60.5198C210.044 60.449 210.037 60.3742 210.045 60.3002ZM210.575 62.6287C210.504 62.6287 210.435 62.6148 210.37 62.5878C210.306 62.5608 210.247 62.5212 210.198 62.4714C210.149 62.4215 210.11 62.3624 210.083 62.2974C210.057 62.2324 210.044 62.1629 210.045 62.0928V61.9018C210.037 61.8279 210.044 61.7531 210.067 61.6823C210.09 61.6115 210.128 61.5463 210.177 61.4909C210.227 61.4356 210.288 61.3913 210.356 61.361C210.424 61.3307 210.497 61.315 210.571 61.315C210.646 61.315 210.719 61.3307 210.787 61.361C210.855 61.3913 210.916 61.4356 210.966 61.4909C211.015 61.5463 211.053 61.6115 211.076 61.6823C211.099 61.7531 211.106 61.8279 211.098 61.9018V62.0928C211.1 62.1642 211.087 62.2351 211.06 62.3013C211.034 62.3676 210.994 62.4276 210.943 62.4778C210.892 62.528 210.832 62.5673 210.765 62.5932C210.699 62.6192 210.627 62.6313 210.556 62.6287H210.575Z" fill="white"/>
</svg>
