<svg width="332" height="80" viewBox="0 0 332 80" fill="none" xmlns="http://www.w3.org/2000/svg">
<path d="M34.4 5.64285C34.6691 5.64398 34.9382 5.6451 35.2154 5.64626C42.5874 5.7448 49.1624 8.63176 54.4571 13.7143C55.2435 13.3745 55.7583 12.9218 56.3714 12.3286C62.3533 6.8794 70.1372 5.35633 78 5.71428C83.6073 6.13274 88.8026 8.58112 93.0857 12.1143C93.2516 12.2425 93.4175 12.3706 93.5884 12.5027C97.7196 15.8294 100.442 21.3329 101.086 26.5143C101.199 28.0611 101.173 29.6131 101.164 31.1629C101.163 31.6205 101.163 32.0782 101.164 32.5358C101.164 33.7677 101.16 34.9995 101.155 36.2314C101.151 37.5227 101.151 38.814 101.15 40.1053C101.148 42.5459 101.142 44.9864 101.135 47.427C101.127 50.2074 101.124 52.9879 101.12 55.7684C101.113 61.4837 101.101 67.199 101.086 72.9143C97.088 72.9143 93.0903 72.9143 88.9714 72.9143C88.9714 54.736 88.9714 36.5577 88.9714 17.8286C79.6183 17.8286 70.2651 17.8286 60.6286 17.8286C60.6286 36.0069 60.6286 54.1851 60.6286 72.9143C56.7063 72.9143 52.784 72.9143 48.7428 72.9143C48.7428 54.736 48.7428 36.5577 48.7428 17.8286C39.3897 17.8286 30.0366 17.8286 20.4 17.8286C20.4 36.0069 20.4 54.1851 20.4 72.9143C16.4023 72.9143 12.4046 72.9143 8.28571 72.9143C8.26503 66.9018 8.2482 60.8893 8.23833 54.8768C8.23363 52.0847 8.22722 49.2927 8.21673 46.5007C8.20759 44.0658 8.20171 41.6309 8.19968 39.1959C8.1985 37.9079 8.19573 36.62 8.18904 35.332C8.18278 34.1168 8.18093 32.9017 8.18229 31.6866C8.18204 31.2433 8.18026 30.8001 8.17672 30.3568C8.12556 23.6124 10.3978 17.8635 15.1428 13.0286C18.2988 9.93762 22.2793 7.958 26.4714 6.68571C26.6194 6.64026 26.7675 6.59481 26.92 6.54799C29.3732 5.84223 31.8565 5.63014 34.4 5.64285Z" fill="#00C977"/>
<path d="M267.714 5.71428C272.602 5.69877 277.49 5.68615 282.378 5.67875C284.648 5.67522 286.918 5.67042 289.187 5.66255C291.167 5.65569 293.147 5.65128 295.127 5.64976C296.174 5.64887 297.221 5.6468 298.268 5.64178C299.256 5.63708 300.244 5.6357 301.232 5.63672C301.592 5.63653 301.952 5.6352 302.313 5.63254C308.044 5.59236 313.227 7.31349 317.543 11.2C317.721 11.357 317.9 11.5141 318.084 11.6759C321.355 14.7261 323.557 19.2956 323.797 23.7642C323.837 25.0628 323.828 26.3609 323.818 27.6598C323.818 28.1558 323.818 28.6517 323.818 29.1477C323.819 30.483 323.813 31.8182 323.807 33.1535C323.801 34.5531 323.801 35.9527 323.8 37.3523C323.797 39.9977 323.789 42.643 323.78 45.2883C323.77 48.3021 323.765 51.3158 323.76 54.3296C323.751 60.5245 323.734 66.7194 323.714 72.9143C319.717 72.9143 315.719 72.9143 311.6 72.9143C311.525 72.2354 311.449 71.5566 311.371 70.8571C311.18 70.9759 310.989 71.0946 310.792 71.217C307.434 73.2492 303.926 74.353 299.979 74.3557C299.743 74.3576 299.507 74.3595 299.263 74.3615C298.488 74.367 297.712 74.369 296.937 74.3705C296.392 74.3726 295.847 74.3747 295.302 74.3768C294.161 74.3805 293.02 74.3823 291.879 74.383C290.428 74.3842 288.977 74.3928 287.526 74.4033C286.4 74.4101 285.275 74.4117 284.149 74.4119C283.615 74.4129 283.08 74.4157 282.546 74.4205C276.654 74.4694 271.462 73.3581 267.029 69.2571C266.853 69.103 266.678 68.9489 266.498 68.7902C262.737 65.2979 260.576 60.1564 260.371 55.0607C260.273 49.509 261.917 44.3252 265.801 40.2997C266.131 39.9681 266.465 39.641 266.8 39.3143C266.955 39.1575 267.109 39.0008 267.269 38.8393C270.96 35.3293 276.263 33.9383 281.214 33.9793C281.548 33.9795 281.881 33.9794 282.215 33.979C283.111 33.9788 284.007 33.9828 284.904 33.9876C285.844 33.9919 286.784 33.9923 287.724 33.9931C289.5 33.9952 291.276 34.0008 293.052 34.0078C295.455 34.0169 297.858 34.0206 300.261 34.0246C304.041 34.031 307.82 34.0446 311.6 34.0571C311.6 28.7017 311.6 23.3463 311.6 17.8286C297.118 17.8286 282.635 17.8286 267.714 17.8286C267.714 13.8309 267.714 9.83314 267.714 5.71428ZM274.286 49.2C272.969 50.8649 272.605 52.6372 272.654 54.7161C272.655 54.931 272.656 55.1459 272.657 55.3673C272.662 56.045 272.674 56.7224 272.686 57.4C272.69 57.8631 272.694 58.3262 272.698 58.7893C272.708 59.9168 272.724 61.044 272.743 62.1714C276.842 62.1928 280.941 62.2089 285.04 62.2188C286.943 62.2235 288.847 62.2299 290.75 62.2404C292.41 62.2495 294.07 62.2554 295.73 62.2574C296.608 62.2586 297.486 62.2614 298.364 62.2681C299.193 62.2743 300.021 62.2762 300.849 62.2748C301.295 62.2752 301.74 62.2801 302.185 62.2852C304.759 62.2732 307.122 61.6196 309.086 59.8857C311.691 56.9881 311.696 54.186 311.643 50.4857C311.639 50.0667 311.636 49.6476 311.633 49.2286C311.626 48.2094 311.614 47.1905 311.6 46.1714C307.441 46.15 303.283 46.1339 299.124 46.1241C297.193 46.1193 295.262 46.1129 293.331 46.1025C291.647 46.0933 289.963 46.0874 288.278 46.0854C287.388 46.0842 286.497 46.0814 285.606 46.0748C284.765 46.0685 283.925 46.0666 283.085 46.068C282.633 46.0676 282.181 46.0627 281.729 46.0577C278.686 46.0716 276.378 46.9821 274.286 49.2Z" fill="#00C977"/>
<path d="M134.98 5.61049C135.431 5.61074 135.882 5.6106 136.333 5.61008C137.545 5.60982 138.756 5.61516 139.968 5.62158C141.239 5.62733 142.51 5.62783 143.78 5.62892C146.181 5.63174 148.582 5.63923 150.983 5.64843C153.719 5.65869 156.454 5.66369 159.19 5.66827C164.813 5.6778 170.435 5.69455 176.057 5.71428C176.057 9.712 176.057 13.7097 176.057 17.8286C159.237 17.8286 142.416 17.8286 125.086 17.8286C125.086 23.1086 125.086 28.3886 125.086 33.8286C139.493 33.8286 153.899 33.8286 168.743 33.8286C168.743 37.9017 168.743 41.9749 168.743 46.1714C154.336 46.1714 139.929 46.1714 125.086 46.1714C124.53 53.6659 124.53 53.6659 127.359 59.6902C129.172 61.3276 131.163 62.0129 133.59 62.0065C133.864 62.0085 133.864 62.0085 134.143 62.0105C134.751 62.0144 135.359 62.0151 135.966 62.0157C136.404 62.0179 136.841 62.0202 137.278 62.0227C138.462 62.0289 139.646 62.0324 140.831 62.0354C142.069 62.0389 143.308 62.0451 144.546 62.0509C146.89 62.0616 149.235 62.07 151.579 62.0776C154.248 62.0863 156.918 62.0976 159.587 62.1091C165.077 62.1327 170.567 62.1528 176.057 62.1714C176.057 66.1691 176.057 70.1668 176.057 74.2857C170.164 74.3064 164.271 74.3232 158.377 74.3331C155.641 74.3378 152.904 74.3442 150.167 74.3547C147.781 74.3638 145.394 74.3697 143.007 74.3717C141.745 74.3729 140.482 74.3757 139.22 74.3824C138.029 74.3886 136.838 74.3905 135.646 74.3891C135.212 74.3894 134.778 74.3912 134.343 74.3947C130.807 74.4221 127.455 74.0429 124.243 72.4428C124.063 72.3557 123.884 72.2685 123.699 72.1787C121.916 71.2753 120.407 70.1201 118.914 68.8C118.677 68.5967 118.677 68.5967 118.435 68.3893C115.117 65.3356 113.121 60.6559 112.743 56.2286C112.708 55.1868 112.707 54.1455 112.706 53.1032C112.705 52.7894 112.704 52.4757 112.703 52.162C112.7 51.3137 112.698 50.4654 112.697 49.6171C112.696 49.0851 112.695 48.5532 112.694 48.0213C112.691 46.3514 112.689 44.6815 112.688 43.0115C112.687 41.0945 112.683 39.1775 112.677 37.2604C112.672 35.7718 112.669 34.2833 112.669 32.7947C112.669 31.9089 112.667 31.0231 112.663 30.1373C112.624 21.0664 112.624 21.0664 114.571 17.1429C114.672 16.9322 114.774 16.7215 114.878 16.5045C117.285 11.7769 121.578 8.51118 126.457 6.62857C129.304 5.73673 132.015 5.58632 134.98 5.61049Z" fill="#00C977"/>
<path d="M208.592 5.67382C208.849 5.67232 209.106 5.67082 209.37 5.66927C210.217 5.66478 211.064 5.6621 211.912 5.65982C212.348 5.65842 212.348 5.65842 212.793 5.65699C214.176 5.65272 215.559 5.64939 216.942 5.64748C218.527 5.64526 220.112 5.63926 221.697 5.63C223.078 5.6222 224.46 5.61956 225.842 5.61864C226.425 5.61753 227.007 5.6149 227.59 5.61063C234.543 5.56288 240.268 6.90295 245.451 11.775C250.033 16.514 251.029 21.532 251.029 28.1143C247.031 28.1143 243.033 28.1143 238.914 28.1143C238.914 24.72 238.914 21.3257 238.914 17.8286C226.091 17.8286 213.269 17.8286 200.057 17.8286C200.057 32.4617 200.057 47.0948 200.057 62.1714C212.88 62.1714 225.703 62.1714 238.914 62.1714C238.914 58.8526 238.914 55.5337 238.914 52.1143C242.912 52.1143 246.91 52.1143 251.029 52.1143C251.029 58.9288 249.886 63.6883 245.086 68.5714C244.932 68.7285 244.778 68.8855 244.619 69.0473C240.906 72.5786 235.853 74.3991 230.776 74.3781C230.37 74.3804 230.37 74.3804 229.955 74.3828C229.068 74.387 228.182 74.3861 227.296 74.3848C226.831 74.3854 226.366 74.3864 225.901 74.3874C224.442 74.3906 222.983 74.3903 221.524 74.3877C220.03 74.385 218.535 74.3882 217.041 74.3944C215.748 74.3995 214.455 74.4009 213.163 74.3996C212.395 74.3988 211.627 74.3997 210.859 74.4033C204.023 74.4307 198.249 73.0011 193.2 68.1143C189.086 63.8043 187.64 58.6415 187.651 52.7868C187.65 52.4774 187.649 52.168 187.648 51.8586C187.645 51.0274 187.645 50.1962 187.645 49.3649C187.646 48.6664 187.644 47.9679 187.643 47.2694C187.641 45.6187 187.641 43.9681 187.642 42.3174C187.643 40.6252 187.641 38.9331 187.636 37.2409C187.632 35.7786 187.63 34.3162 187.631 32.8538C187.632 31.9846 187.631 31.1155 187.628 30.2463C187.604 23.0568 188.256 17.3002 193.429 11.8857C193.552 11.7452 193.675 11.6046 193.803 11.4598C195.052 10.091 196.648 9.16649 198.229 8.22857C198.419 8.11483 198.61 8.0011 198.807 7.88392C201.832 6.23707 205.195 5.68252 208.592 5.67382Z" fill="#00C977"/>
</svg>
