<svg width="200" height="143" viewBox="0 0 200 143" fill="none" xmlns="http://www.w3.org/2000/svg">
<path d="M12.5708 79.804C12.3711 73.6207 52.0528 67.3212 101.202 65.7337C150.352 64.1461 190.358 67.8718 190.557 74.0551C190.757 80.2384 151.075 86.5379 101.926 88.1254C52.7761 89.713 12.7705 85.9873 12.5708 79.804Z" fill="#263238" stroke="#263238" stroke-miterlimit="10"/>
<path d="M188.311 57.7108C188.311 57.7108 187.229 60.0537 186.455 60.8535C185.681 61.6532 171.721 65.1086 171.721 65.1086L126.478 75.0133L120.998 74.4237L101.839 75.0389C101.839 75.0389 98.0149 65.6879 102.188 56.4753C106.361 47.2627 127.237 43.6587 133.138 45.535C139.038 47.4114 152.86 53.4506 162.79 50.149C172.72 46.8474 180.641 40.3622 183.953 41.2235C187.265 42.0848 188.844 47.4165 188.844 49.7184C188.844 52.0202 188.311 57.7108 188.311 57.7108Z" fill="#263238" stroke="#263238" stroke-miterlimit="10"/>
<path d="M91.0581 70.5227C91.4528 61.0127 97.815 53.292 105.264 53.2715H113.344L113.2 56.6756C116.358 59.808 118.275 64.8116 118.045 70.4509C117.814 76.0902 115.481 81.1092 112.057 84.257L111.913 87.7072H103.839C96.3846 87.7226 90.6633 80.0326 91.0581 70.5227Z" fill="#263238" stroke="#263238" stroke-miterlimit="10"/>
<path d="M110.725 87.631C103.337 86.8129 98.1993 78.4707 99.2485 68.9982C100.298 59.5257 107.137 52.51 114.524 53.3282C121.911 54.1463 127.049 62.4885 126 71.961C124.951 81.4335 118.112 88.4492 110.725 87.631Z" fill="#878787" stroke="#263238" stroke-miterlimit="10"/>
<path d="M102.188 76.3465C102.06 75.921 101.942 75.4852 101.845 75.0392C101.749 74.588 101.667 74.1318 101.598 73.6704C101.46 72.6255 101.412 71.5706 101.455 70.5175C101.535 68.3057 102.023 66.1279 102.896 64.0938L102.921 64.0425C103.106 63.617 103.311 63.2017 103.531 62.8019L103.572 62.725C103.793 62.3302 104.023 61.9457 104.269 61.5766L104.31 61.5151C106.494 58.3007 109.699 56.2346 113.2 56.2295C116.199 56.2295 118.839 57.7214 120.757 60.1668C120.885 60.3257 121.008 60.4949 121.126 60.6794C121.244 60.8486 121.362 61.0229 121.474 61.1921C121.587 61.3664 121.695 61.5458 121.797 61.7048C121.9 61.8842 121.997 62.0636 122.09 62.2482V62.2789C122.182 62.4584 122.269 62.6378 122.356 62.8275V62.8685C122.438 63.0479 122.515 63.2325 122.592 63.4171C122.592 63.4171 122.592 63.4581 122.618 63.4837C122.69 63.6631 122.756 63.8426 122.823 64.0271L122.854 64.1143C122.915 64.2886 122.971 64.468 123.028 64.6526C123.028 64.6885 123.054 64.7244 123.064 64.7602C123.115 64.9346 123.161 65.114 123.212 65.2729C123.222 65.3196 123.234 65.3658 123.248 65.4113C123.289 65.5805 123.33 65.7548 123.366 65.924C123.366 65.9753 123.392 66.0316 123.402 66.0829C123.438 66.2521 123.469 66.4213 123.5 66.5956L123.53 66.7853C123.561 66.9442 123.582 67.1134 123.602 67.2979L123.633 67.5081C123.633 67.6671 123.669 67.8311 123.684 67.9952C123.684 68.0721 123.684 68.149 123.684 68.2259C123.684 68.3848 123.684 68.5488 123.715 68.7078V68.9538C123.715 69.123 123.715 69.2973 123.715 69.4665C123.715 69.5434 123.715 69.6152 123.715 69.687C123.715 69.933 123.715 70.1996 123.715 70.4355C123.715 70.6713 123.684 71.0353 123.653 71.3326C123.653 71.4044 123.653 71.4762 123.653 71.5479C123.628 71.8043 123.597 72.0606 123.561 72.3118V72.4297C123.464 73.0552 123.335 73.6652 123.182 74.2651C122.508 77.0676 121.079 79.6317 119.05 81.6782L118.978 81.7448C118.742 81.9704 118.501 82.1806 118.25 82.3857L118.199 82.4216C116.472 83.8714 114.301 84.6856 112.047 84.7286C109.831 84.7162 107.695 83.898 106.038 82.4267C104.216 80.7962 102.883 78.691 102.188 76.3465Z" fill="white" stroke="#263238" stroke-miterlimit="10"/>
<path d="M102.731 70.948C102.796 69.3493 103.114 67.771 103.675 66.2725L108.114 69.0562C107.912 69.6642 107.797 70.2975 107.771 70.9377C107.771 71.0351 107.771 71.1274 107.771 71.2197L102.726 72.0399C102.716 71.6811 102.716 71.3171 102.731 70.948Z" fill="#263238" stroke="#263238" stroke-miterlimit="10"/>
<path d="M110.585 65.8475C110.109 66.1129 109.684 66.46 109.329 66.8728L106.202 62.064C107.23 60.909 108.52 60.0177 109.965 59.4648L110.585 65.8475Z" fill="#263238" stroke="#263238" stroke-miterlimit="10"/>
<path d="M108.407 74.0703C108.623 74.5091 108.903 74.9134 109.237 75.2699L106.674 81.0169C105.384 79.9049 104.382 78.4979 103.752 76.9156L108.407 74.0703Z" fill="#263238" stroke="#263238" stroke-miterlimit="10"/>
<path d="M115.958 67.9486L120.485 64.8008C121.183 66.4531 121.55 68.2261 121.566 70.0197L116.506 70.1633C116.461 69.3976 116.276 68.6467 115.958 67.9486Z" fill="#263238" stroke="#263238" stroke-miterlimit="10"/>
<path d="M114.42 66.0318C114.054 65.7757 113.644 65.5881 113.21 65.4781L113.948 59.1211C115.564 59.4207 117.047 60.2142 118.193 61.3922L114.42 66.0318Z" fill="#263238" stroke="#263238" stroke-miterlimit="10"/>
<path d="M111.436 76.4543C111.596 76.475 111.757 76.4852 111.918 76.4851C112.375 76.4836 112.828 76.3948 113.251 76.2236L115.712 81.7245C114.483 82.4725 113.075 82.873 111.636 82.8832C111.247 82.8853 110.857 82.8562 110.472 82.796L111.436 76.4543Z" fill="#263238" stroke="#263238" stroke-miterlimit="10"/>
<path d="M115.994 73.3066L121.003 74.4242C120.519 76.1766 119.687 77.8137 118.558 79.2382L115.348 74.496C115.608 74.1251 115.824 73.7261 115.994 73.3066Z" fill="#263238" stroke="#263238" stroke-miterlimit="10"/>
<path d="M166.825 60.9103C167.01 52.9435 169.993 46.4685 173.49 46.4531H181.549L180.877 75.3059H172.818C169.322 75.3213 166.641 68.8617 166.825 60.9103Z" fill="#263238" stroke="#263238" stroke-miterlimit="10"/>
<path d="M174.884 60.9103C174.7 68.8771 177.381 75.3213 180.877 75.3059C184.374 75.2906 187.357 68.8207 187.542 60.8488C187.726 52.8768 185.045 46.4378 181.549 46.4532C178.052 46.4685 175.069 52.9691 174.884 60.9103Z" fill="#878787" stroke="#263238" stroke-miterlimit="10"/>
<path d="M176.314 65.7856C176.253 65.4268 176.196 65.0628 176.15 64.6885C176.104 64.3143 176.068 63.9298 176.037 63.5401C175.976 62.6891 175.95 61.8073 175.971 60.8999C176.005 59.0861 176.235 57.2812 176.658 55.5169V55.4759C176.745 55.1171 176.842 54.7685 176.945 54.4506V54.384C177.053 54.0558 177.16 53.7329 177.278 53.4253V53.374C178.303 50.6774 179.806 48.9497 181.451 48.9395C182.856 48.9395 184.102 50.1903 184.994 52.241C185.055 52.3794 185.112 52.5179 185.168 52.6563C185.224 52.7998 185.281 52.9434 185.332 53.092C185.383 53.2407 185.435 53.3894 185.481 53.538C185.527 53.6867 185.573 53.8354 185.619 53.9943C185.667 54.1447 185.708 54.2985 185.742 54.4557V54.4916C185.783 54.6403 185.819 54.7941 185.855 54.953C185.853 54.97 185.853 54.9873 185.855 55.0043C185.891 55.1529 185.922 55.3067 185.952 55.4605C185.955 55.4844 185.955 55.5084 185.952 55.5323C185.983 55.681 186.009 55.8348 186.04 55.9835V56.0757C186.04 56.2244 186.086 56.3731 186.106 56.5218V56.6345C186.106 56.7781 186.147 56.9216 186.163 57.0652C186.165 57.1113 186.165 57.1575 186.163 57.2036C186.163 57.342 186.193 57.4856 186.204 57.624C186.204 57.6804 186.204 57.7317 186.204 57.7829L186.234 58.1982V58.3725C186.234 58.5109 186.234 58.6442 186.234 58.7826C186.234 58.921 186.234 58.9108 186.234 58.9723C186.234 59.1107 186.234 59.244 186.234 59.3824C186.234 59.5209 186.234 59.5157 186.234 59.5824C186.234 59.7259 186.234 59.8695 186.234 60.0181C186.234 60.0797 186.234 60.1412 186.234 60.2027C186.234 60.4078 186.234 60.618 186.234 60.823C186.234 61.0281 186.234 61.3357 186.234 61.5818C186.234 61.6382 186.234 61.6997 186.234 61.7612L186.188 62.3969C186.188 62.4328 186.188 62.4635 186.188 62.4994C186.142 63.0121 186.081 63.5248 186.009 64.0374C185.744 66.2089 185.078 68.3122 184.045 70.2407L184.015 70.3022C183.902 70.4868 183.789 70.6662 183.671 70.8149V70.8456C182.825 72.0606 181.831 72.7733 180.78 72.7784C179.729 72.7835 178.76 72.0709 177.965 70.8508C177.094 69.2843 176.534 67.5645 176.314 65.7856Z" fill="white" stroke="#263238" stroke-miterlimit="10"/>
<path d="M13.2562 65.0109C13.651 55.501 20.0132 47.7803 27.4622 47.7598H35.5418C42.996 47.7598 48.7173 55.4497 48.3225 64.9443C47.9278 74.4389 41.5656 82.1904 34.1115 82.1904H26.037C18.5828 82.216 12.8615 74.5004 13.2562 65.0109Z" fill="#263238" stroke="#263238" stroke-miterlimit="10"/>
<path d="M164.241 5.66012C164.241 5.66012 167.83 6.71621 168.306 7.76718C168.783 8.81814 169.055 9.57176 169.055 9.57176L179.887 25.367C179.887 25.367 183.799 25.0696 185.014 28.3763C186.229 31.683 185.763 36.1996 185.763 36.1996C185.763 36.1996 188.623 43.2692 188.772 48.5343C188.874 51.6004 188.723 54.6697 188.321 57.711C188.321 57.711 189.074 48.0832 186.819 45.0738C184.563 42.0645 179.898 44.3253 178.103 49.7391C176.309 55.1528 174.156 65.2318 174.156 65.2318L126.478 75.0135C126.478 75.0135 128.887 62.3763 125.724 55.1528C122.561 47.9294 107.827 48.3856 105.115 61.474C102.403 74.5623 103.311 76.9667 103.311 76.9667C103.311 76.9667 93.2316 79.0738 62.5435 78.6226C31.8554 78.1715 15.0092 74.5623 10.4926 73.3575C10.4926 73.3575 9.46727 67.79 9.13918 64.4833C8.93982 62.5803 9.25128 60.6585 10.0415 58.9158C10.0415 58.9158 10.3439 52.8971 11.0975 50.79C11.8512 48.683 14.1069 45.525 14.1069 45.525C14.1069 45.525 16.3626 40.2599 20.1205 36.9532C23.8783 33.6465 30.0508 30.3347 31.558 29.5811C33.0652 28.8275 35.0134 28.3763 37.8741 26.4231C40.7347 24.4698 58.4832 12.13 64.0507 8.82327C69.6183 5.51658 81.6505 3.85555 84.0447 3.4044C86.4388 2.95326 114.133 1 123.761 1C133.389 1 153.26 1.45114 164.241 5.66012Z" fill="#00C977" stroke="#263238" stroke-miterlimit="10"/>
<path opacity="0.15" d="M9.14403 64.4831C8.94467 62.5801 9.25613 60.6583 10.0463 58.9156C10.0463 58.9156 10.1437 56.988 10.3642 54.9373C29.1892 60.4895 62.8662 60.8637 72.2582 60.0332C83.0498 59.0848 102.193 56.4753 103.018 53.3685C103.844 50.2618 111.267 43.2126 116.347 41.3055C120.7 39.6753 171.203 32.6825 185.557 30.7139C185.821 32.5284 185.878 34.3669 185.726 36.1943C185.726 36.1943 188.587 43.2639 188.736 48.529C188.838 51.5951 188.687 54.6644 188.285 57.7057C188.285 57.7057 189.038 48.0778 186.782 45.0685C184.527 42.0591 179.862 44.32 178.067 49.7337C176.273 55.1475 174.156 65.2316 174.156 65.2316L126.478 75.0133C126.478 75.0133 128.887 62.3761 125.724 55.1526C122.561 47.9292 107.827 48.3854 105.115 61.4738C102.403 74.5621 103.31 76.9665 103.31 76.9665C103.31 76.9665 93.2314 79.0736 62.5432 78.6224C31.8551 78.1713 15.0089 74.5621 10.4923 73.3573C10.4975 73.3573 9.44649 67.7898 9.14403 64.4831Z" fill="black"/>
<path d="M131.297 10.4738C137.352 6.13667 142.576 5.47533 145.027 5.27539C147.359 9.46386 151.179 17.3897 151.942 25.6077C139.126 27.6071 124.828 29.8833 124.828 29.8833C124.828 29.8833 121.521 31.083 120.316 29.8833C119.921 29.5618 119.611 29.148 119.414 28.6785C119.111 27.9249 124.376 15.4415 131.297 10.4738Z" fill="white" stroke="#263238" stroke-miterlimit="10"/>
<path d="M149.143 5.29102C152.597 5.47648 156.034 5.90994 159.427 6.58806C162.887 7.34168 164.092 7.49035 164.692 8.09529C165.291 8.70024 171.162 16.057 173.269 21.3067C173.182 21.6842 172.972 22.0221 172.673 22.2672C172.373 22.5123 172 22.6505 171.613 22.6601C171.1 22.6601 164.804 23.6137 156.961 24.8287C155.648 20.1583 153.013 11.9557 149.143 5.29102Z" fill="white" stroke="#263238" stroke-miterlimit="10"/>
<path d="M168.255 22.8958C168.255 22.8958 165.692 13.0167 160.514 7.1416" stroke="#263238" stroke-miterlimit="10"/>
<path d="M151.803 32.708L156.084 31.9492C156.223 31.9908 156.353 32.0596 156.465 32.1517C156.578 32.2437 156.671 32.3572 156.739 32.4855C156.807 32.6138 156.849 32.7544 156.862 32.899C156.876 33.0437 156.86 33.1896 156.817 33.3283C156.499 34.3793 155.93 34.2613 155.93 34.2613L152.367 34.8355C152.133 34.8594 151.899 34.7954 151.709 34.6562C151.52 34.5169 151.389 34.3123 151.342 34.0819C151.157 33.2206 150.916 33.113 151.803 32.708Z" stroke="#263238" stroke-miterlimit="10"/>
<path d="M173.443 28.9765L176.719 28.3613C176.941 28.4373 177.124 28.5977 177.229 28.8079C177.333 29.0181 177.351 29.261 177.278 29.4841C177.037 30.3351 176.601 30.2428 176.601 30.2428L173.879 30.7093C173.694 30.7271 173.509 30.6731 173.363 30.5586C173.217 30.444 173.121 30.2778 173.094 30.0941C172.946 29.3867 172.761 29.3098 173.443 28.9765Z" stroke="#263238" stroke-miterlimit="10"/>
<path d="M147.267 4.77832C147.267 4.77832 153.368 16.1236 154.444 25.5413" stroke="#263238" stroke-miterlimit="10"/>
<path d="M155.828 27.4893C155.828 27.4893 158.612 32.1955 158.72 33.8002C158.827 35.4048 158.504 54.6708 157.971 58.203" stroke="#263238" stroke-miterlimit="10"/>
<path d="M125.539 17C125.539 17 127.682 23.2084 128.323 26.5253" stroke="#263238" stroke-miterlimit="10"/>
<path d="M126.396 34.2314C126.396 34.2314 128.754 42.0445 128.857 47.9299C128.959 53.8153 129.072 64.8478 129.072 64.8478" stroke="#263238" stroke-miterlimit="10"/>
<path d="M173.597 23.4189C173.597 23.4189 178.627 28.0329 179.052 29.5197C179.478 31.0064 178.949 43.8743 178.949 43.8743" stroke="#263238" stroke-miterlimit="10"/>
<path d="M172.618 58.4189C172.618 58.4189 171.87 60.5619 170.265 61.0951C168.66 61.6282 129.698 69.1234 129.698 69.1234" stroke="#263238" stroke-miterlimit="10"/>
<path d="M59.7754 65.2115C59.7754 65.2115 29.9434 65.6216 18.8596 62.2021C18.8596 62.2021 19.9516 69.5896 22.0073 71.0969C24.0631 72.6041 38.9766 74.137 46.2256 74.3779C54.4283 74.6548 59.0935 73.8345 59.0935 73.8345L59.7754 65.2115Z" fill="#263238" stroke="#263238" stroke-miterlimit="10"/>
<path d="M65.1123 46.5962L62.103 52.7482C62.103 52.7482 45.2722 53.1584 43.3548 53.2917C41.4374 53.4249 39.3868 54.3888 37.2028 53.2917C35.0189 52.1945 25.5705 50.9693 24.4733 50.9693C23.3762 50.9693 22.0126 51.928 22.0126 51.928C22.0126 51.928 24.4733 45.776 25.432 45.2223C26.1503 44.8584 26.9598 44.714 27.7595 44.807C28.1645 44.8173 48.1431 43.3152 65.1123 46.5962Z" fill="#263238" stroke="#263238" stroke-miterlimit="10"/>
<path d="M96.8354 34.308C96.8354 34.308 104.013 33.2058 106.745 34.1696C109.478 35.1334 108.124 38.8503 103.444 42.2902C98.763 45.7302 94.9078 49.0318 90.1143 49.5855C85.3209 50.1391 77.0157 51.9437 76.6056 50.4057C76.1955 48.8677 77.7078 43.3873 83.2139 39.3937C88.7199 35.4 96.8354 34.308 96.8354 34.308Z" fill="white" stroke="#263238" stroke-miterlimit="10"/>
<path d="M39.3245 26.4594L40.6985 26.8746L47.3631 27.0643C50.8646 27.1668 55.4889 27.295 60.6001 27.4283C67.6544 27.618 75.6315 27.8128 82.8344 27.941C93.8465 28.1717 103.064 28.2896 104.448 28.0845C107.23 27.7267 109.844 26.5529 111.959 24.7112C113.552 23.2855 114.877 21.5856 115.871 19.6922C119.136 13.6581 127.503 6.2296 127.503 6.2296C114.292 4.6916 82.7729 5.26579 79.1945 5.40421C78.0843 5.4608 76.9795 5.59442 75.8878 5.80408C72.0685 6.4808 67.0854 7.98291 64.1939 9.94642C63.6813 10.295 62.8559 10.8436 61.8203 11.5357C59.4005 13.1506 55.8118 15.5293 52.2078 17.9184L45.9225 22.0761L39.3245 26.4594Z" fill="white" stroke="#263238" stroke-miterlimit="10"/>
<path d="M64.2196 9.94605C63.7069 10.2947 62.8815 10.8432 61.846 11.5353L82.7935 27.9406C93.8055 28.1713 103.023 28.2892 104.407 28.0841C107.189 27.7263 109.803 26.5525 111.918 24.7108L75.9135 5.80371C72.0941 6.48043 67.111 7.98254 64.2196 9.94605Z" fill="#263238" stroke="#263238" stroke-miterlimit="10"/>
<path d="M45.9486 22.0757L47.3226 27.0639C50.8241 27.1664 55.4483 27.2946 60.5596 27.4279L52.2339 17.918L45.9486 22.0757Z" fill="#263238" stroke="#263238" stroke-miterlimit="10"/>
<path d="M68.9727 42.4795C68.137 43.3305 67.327 44.2277 66.558 45.1812" stroke="#263238" stroke-miterlimit="10"/>
<path d="M89.2686 30.3145C89.2686 30.3145 78.8512 33.3904 70.4178 41.0804" stroke="#263238" stroke-miterlimit="10"/>
<path d="M22.5449 44.9355C21.4443 47.0032 20.6467 49.2184 20.1764 51.513" stroke="#263238" stroke-miterlimit="10"/>
<path d="M38.4785 30.8682C38.4785 30.8682 29.2505 34.4568 23.7189 42.9466" stroke="#263238" stroke-miterlimit="10"/>
<path d="M81.0097 67.8875C81.0097 69.487 82.5477 70.779 84.4497 70.779C86.3516 70.779 87.8896 69.487 87.8896 67.8875C87.8896 66.288 86.3516 64.9961 84.4497 64.9961C82.5477 64.9961 81.0097 66.2983 81.0097 67.8875Z" fill="white" stroke="#263238" stroke-miterlimit="10"/>
<path d="M9.74909 63.1917C10.0413 64.5708 10.9692 65.5397 11.8254 65.3552C12.6815 65.1706 13.1378 63.9146 12.8507 62.5355C12.5636 61.1565 11.6306 60.1926 10.8 60.3721C9.96953 60.5515 9.45687 61.8178 9.74909 63.1917Z" fill="white" stroke="#263238" stroke-miterlimit="10"/>
<path d="M127.991 28.3611C127.991 28.3611 130.846 23.5472 132.651 23.2344C134.455 22.9217 142.13 22.6346 143.786 23.6907C145.442 24.7468 144.986 28.2022 144.386 29.1045C143.786 30.0067 141.376 30.4579 139.259 30.3092C137.142 30.1605 130.082 30.7604 130.082 30.7604C130.082 30.7604 125.873 33.7697 124.366 33.4672C122.859 33.1648 120.906 29.8786 122.264 28.0484C123.623 26.2181 125.73 26.7206 127.991 28.3611Z" fill="#263238" stroke="#263238" stroke-miterlimit="10"/>
<path d="M127.99 28.376L123.023 29.4321" stroke="#263238" stroke-miterlimit="10"/>
<path d="M164.241 5.66012C164.241 5.66012 167.83 6.71621 168.306 7.76718C168.783 8.81814 169.055 9.57176 169.055 9.57176L179.887 25.367C179.887 25.367 183.799 25.0696 185.014 28.3763C186.229 31.683 185.763 36.1996 185.763 36.1996C185.763 36.1996 188.623 43.2692 188.772 48.5343C188.874 51.6004 188.723 54.6697 188.321 57.711C188.321 57.711 189.074 48.0832 186.819 45.0738C184.563 42.0645 179.898 44.3253 178.103 49.7391C176.309 55.1528 174.156 65.2318 174.156 65.2318L126.478 75.0135C126.478 75.0135 128.887 62.3763 125.724 55.1528C122.561 47.9294 107.827 48.3856 105.115 61.474C102.403 74.5623 103.311 76.9667 103.311 76.9667C103.311 76.9667 93.2316 79.0738 62.5435 78.6226C31.8554 78.1715 15.0092 74.5623 10.4926 73.3575C10.4926 73.3575 9.46727 67.79 9.13917 64.4833C8.93982 62.5803 9.25128 60.6585 10.0415 58.9158C10.0415 58.9158 10.3439 52.8971 11.0976 50.79C11.8512 48.683 14.1069 45.525 14.1069 45.525C14.1069 45.525 16.3626 40.2599 20.1205 36.9532C23.8783 33.6465 30.0508 30.3347 31.558 29.5811C33.0653 28.8275 35.0134 28.3763 37.8741 26.4231C40.7347 24.4698 58.4832 12.13 64.0507 8.82327C69.6183 5.51658 81.6505 3.85555 84.0447 3.4044C86.4388 2.95326 114.133 1 123.761 1C133.389 1 153.26 1.45114 164.241 5.66012Z" stroke="#263238" stroke-miterlimit="10"/>
<path d="M25.5447 33.0674C25.5447 33.0674 28.5694 34.1696 27.744 35.2718C26.9186 36.3741 22.3764 39.2604 20.3155 42.8388C18.2546 46.4172 17.8342 48.2064 16.8755 48.2064C15.9168 48.2064 13.8252 46.4223 14.1123 45.5252C14.3994 44.628 15.9117 36.5074 25.5447 33.0674Z" fill="white" stroke="#263238" stroke-miterlimit="10"/>
<path d="M176.981 60.6592C177.007 59.2603 177.151 57.866 177.411 56.4912L179.462 58.9725C179.36 59.5295 179.3 60.0933 179.282 60.6592C179.282 60.7463 179.282 60.8284 179.282 60.9104L176.97 61.6435C176.975 61.3 176.975 60.9719 176.981 60.6592Z" fill="#263238" stroke="#263238" stroke-miterlimit="10"/>
<path d="M180.59 56.0959C180.351 56.3667 180.156 56.6728 180.011 57.0033L178.58 52.7123C178.958 51.8129 179.551 51.0205 180.308 50.4053L180.59 56.0959Z" fill="#263238" stroke="#263238" stroke-miterlimit="10"/>
<path d="M179.584 63.4277C179.675 63.7967 179.802 64.1557 179.964 64.4992L178.785 69.6259C178.138 68.4888 177.686 67.2516 177.447 65.9654L179.584 63.4277Z" fill="#263238" stroke="#263238" stroke-miterlimit="10"/>
<path d="M183.045 57.9676L185.096 55.1582C185.425 56.6883 185.597 58.2481 185.608 59.8132L183.291 59.9414C183.273 59.277 183.191 58.616 183.045 57.9676Z" fill="#263238" stroke="#263238" stroke-miterlimit="10"/>
<path d="M182.358 56.2599C182.219 56.0457 182.029 55.8695 181.804 55.7472L182.143 50.0566C182.876 50.3078 183.542 51.0256 184.091 52.0817L182.358 56.2599Z" fill="#263238" stroke="#263238" stroke-miterlimit="10"/>
<path d="M180.975 65.5498C181.046 65.5704 181.121 65.5808 181.195 65.5805C181.419 65.5738 181.635 65.4906 181.805 65.3447L182.943 70.2561C182.723 70.5513 182.442 70.7957 182.12 70.9727C181.797 71.1496 181.439 71.2549 181.072 71.2814C180.898 71.2777 180.726 71.2501 180.559 71.1994L180.975 65.5498Z" fill="#263238" stroke="#263238" stroke-miterlimit="10"/>
<path d="M183.061 62.7451L185.357 63.7346C185.159 65.2051 184.782 66.646 184.235 68.0256L182.763 63.7961C182.887 63.4532 182.987 63.102 183.061 62.7451Z" fill="#263238" stroke="#263238" stroke-miterlimit="10"/>
<path d="M20.5866 98.3861C20.749 98.3867 20.9114 98.3874 21.0787 98.3881C25.5273 98.4472 29.495 100.179 32.6901 103.229C33.1646 103.025 33.4752 102.753 33.8452 102.397C37.455 99.128 42.1522 98.2141 46.897 98.4289C50.2807 98.68 53.4158 100.149 56.0004 102.269C56.1005 102.346 56.2006 102.423 56.3038 102.502C58.7967 104.498 60.4395 107.8 60.828 110.909C60.8966 111.837 60.8806 112.768 60.875 113.698C60.8749 113.973 60.8749 114.247 60.8752 114.522C60.8753 115.261 60.8729 116 60.87 116.739C60.8674 117.514 60.8671 118.289 60.8666 119.064C60.8653 120.528 60.862 121.992 60.8578 123.457C60.8532 125.125 60.8509 126.793 60.8488 128.461C60.8445 131.891 60.8369 135.32 60.828 138.749C58.4156 138.749 56.0032 138.749 53.5177 138.749C53.5177 127.842 53.5177 116.935 53.5177 105.697C47.8735 105.697 42.2294 105.697 36.4142 105.697C36.4142 116.604 36.4142 127.511 36.4142 138.749C34.0473 138.749 31.6804 138.749 29.2418 138.749C29.2418 127.842 29.2418 116.935 29.2418 105.697C23.5977 105.697 17.9535 105.697 12.1383 105.697C12.1383 116.604 12.1383 127.511 12.1383 138.749C9.72593 138.749 7.31351 138.749 4.828 138.749C4.81552 135.141 4.80536 131.534 4.79941 127.926C4.79657 126.251 4.79271 124.576 4.78638 122.901C4.78086 121.44 4.77731 119.979 4.77609 118.518C4.77537 117.745 4.7737 116.972 4.76966 116.2C4.76589 115.47 4.76477 114.741 4.76559 114.012C4.76544 113.746 4.76436 113.48 4.76223 113.214C4.73136 109.168 6.10256 105.718 8.96593 102.817C10.8704 100.963 13.2724 99.7751 15.8021 99.0118C15.8915 98.9845 15.9808 98.9572 16.0728 98.9291C17.5532 98.5057 19.0517 98.3784 20.5866 98.3861Z" fill="#00C977"/>
<path d="M161.379 98.4284C164.328 98.4191 167.278 98.4115 170.228 98.407C171.597 98.4049 172.967 98.402 174.337 98.3973C175.532 98.3932 176.726 98.3906 177.921 98.3897C178.553 98.3891 179.184 98.3879 179.816 98.3849C180.413 98.382 181.009 98.3812 181.605 98.3818C181.823 98.3817 182.04 98.3809 182.257 98.3793C185.716 98.3552 188.844 99.3879 191.448 101.72C191.556 101.814 191.663 101.908 191.774 102.005C193.748 103.835 195.077 106.577 195.222 109.258C195.246 110.037 195.24 110.816 195.235 111.596C195.234 111.893 195.235 112.191 195.235 112.488C195.235 113.29 195.232 114.091 195.228 114.892C195.224 115.732 195.224 116.571 195.223 117.411C195.222 118.998 195.217 120.586 195.212 122.173C195.206 123.981 195.203 125.789 195.2 127.598C195.194 131.314 195.184 135.031 195.172 138.748C192.76 138.748 190.347 138.748 187.862 138.748C187.816 138.341 187.771 137.934 187.724 137.514C187.608 137.585 187.493 137.657 187.374 137.73C185.348 138.949 183.231 139.612 180.849 139.613C180.707 139.614 180.564 139.616 180.417 139.617C179.949 139.62 179.481 139.621 179.013 139.622C178.684 139.623 178.355 139.625 178.027 139.626C177.338 139.628 176.649 139.629 175.961 139.63C175.085 139.63 174.21 139.635 173.334 139.642C172.655 139.646 171.976 139.647 171.296 139.647C170.974 139.648 170.652 139.649 170.329 139.652C166.773 139.681 163.641 139.015 160.965 136.554C160.859 136.462 160.754 136.369 160.645 136.274C158.376 134.179 157.071 131.094 156.948 128.036C156.888 124.705 157.881 121.595 160.225 119.18C160.424 118.981 160.625 118.784 160.827 118.588C160.92 118.494 161.014 118.4 161.11 118.303C163.338 116.197 166.538 115.363 169.525 115.387C169.727 115.387 169.928 115.387 170.129 115.387C170.67 115.387 171.211 115.389 171.752 115.392C172.319 115.395 172.886 115.395 173.454 115.396C174.526 115.397 175.597 115.4 176.669 115.404C178.119 115.41 179.569 115.412 181.019 115.415C183.3 115.418 185.581 115.427 187.862 115.434C187.862 112.221 187.862 109.008 187.862 105.697C179.122 105.697 170.383 105.697 161.379 105.697C161.379 103.298 161.379 100.9 161.379 98.4284ZM165.344 124.52C164.55 125.519 164.33 126.582 164.359 127.829C164.36 127.958 164.361 128.087 164.362 128.22C164.365 128.627 164.372 129.033 164.379 129.44C164.382 129.718 164.384 129.996 164.386 130.273C164.392 130.95 164.402 131.626 164.413 132.303C166.887 132.315 169.36 132.325 171.834 132.331C172.983 132.334 174.131 132.338 175.28 132.344C176.282 132.35 177.283 132.353 178.285 132.354C178.815 132.355 179.345 132.357 179.875 132.361C180.375 132.364 180.874 132.366 181.374 132.365C181.643 132.365 181.912 132.368 182.18 132.371C183.734 132.364 185.159 131.972 186.344 130.931C187.917 129.193 187.919 127.511 187.887 125.291C187.885 125.04 187.884 124.788 187.882 124.537C187.877 123.925 187.87 123.314 187.862 122.703C185.352 122.69 182.843 122.68 180.333 122.674C179.168 122.671 178.002 122.668 176.837 122.661C175.821 122.656 174.805 122.652 173.788 122.651C173.251 122.65 172.713 122.649 172.176 122.645C171.668 122.641 171.161 122.64 170.654 122.641C170.382 122.64 170.109 122.637 169.836 122.634C168 122.643 166.607 123.189 165.344 124.52Z" fill="#00C977"/>
<path d="M81.2814 98.3666C81.5535 98.3668 81.8257 98.3667 82.0978 98.3664C82.8289 98.3662 83.56 98.3694 84.2911 98.3733C85.058 98.3768 85.8249 98.3771 86.5918 98.3777C88.0406 98.3794 89.4894 98.3839 90.9382 98.3894C92.589 98.3956 94.2399 98.3986 95.8908 98.4013C99.2836 98.407 102.676 98.4171 106.069 98.4289C106.069 100.828 106.069 103.226 106.069 105.697C95.9188 105.697 85.7684 105.697 75.3105 105.697C75.3105 108.865 75.3105 112.033 75.3105 115.297C84.0043 115.297 92.6981 115.297 101.655 115.297C101.655 117.741 101.655 120.185 101.655 122.703C92.9615 122.703 84.2677 122.703 75.3105 122.703C74.975 127.2 74.975 127.2 76.6822 130.814C77.7764 131.797 78.9775 132.208 80.4424 132.204C80.6076 132.205 80.6076 132.205 80.7761 132.207C81.1429 132.209 81.5096 132.209 81.8764 132.21C82.1402 132.211 82.404 132.212 82.6678 132.214C83.3824 132.218 84.0971 132.22 84.8117 132.222C85.5591 132.224 86.3065 132.227 87.0539 132.231C88.4685 132.237 89.8832 132.242 91.2978 132.247C92.9086 132.252 94.5194 132.259 96.1302 132.266C99.4432 132.28 102.756 132.292 106.069 132.303C106.069 134.702 106.069 137.1 106.069 139.572C102.513 139.584 98.9565 139.594 95.4002 139.6C93.7488 139.603 92.0973 139.607 90.4459 139.613C89.0056 139.619 87.5654 139.622 86.1251 139.623C85.3633 139.624 84.6015 139.626 83.8397 139.63C83.1209 139.634 82.4021 139.635 81.6833 139.634C81.4212 139.634 81.159 139.635 80.8969 139.637C78.7632 139.654 76.74 139.426 74.8019 138.466C74.6936 138.414 74.5854 138.361 74.4739 138.308C73.3976 137.766 72.4868 137.072 71.5863 136.28C71.4431 136.158 71.4431 136.158 71.297 136.034C69.2946 134.202 68.0905 131.394 67.8622 128.737C67.8411 128.112 67.8405 127.488 67.84 126.862C67.8393 126.674 67.8386 126.486 67.8379 126.298C67.8361 125.789 67.8352 125.28 67.8346 124.771C67.8342 124.451 67.8336 124.132 67.833 123.813C67.8311 122.811 67.8298 121.809 67.8292 120.807C67.8286 119.657 67.8262 118.507 67.8222 117.357C67.8192 116.463 67.8178 115.57 67.8177 114.677C67.8175 114.146 67.8167 113.614 67.8142 113.083C67.7902 107.64 67.7902 107.64 68.9656 105.286C69.0266 105.16 69.0876 105.033 69.1505 104.903C70.603 102.066 73.1935 100.107 76.1381 98.9775C77.8559 98.4424 79.4921 98.3521 81.2814 98.3666Z" fill="#00C977"/>
<path d="M125.702 98.4039C125.857 98.403 126.012 98.4021 126.172 98.4012C126.683 98.3985 127.194 98.3969 127.705 98.3955C127.969 98.3946 127.969 98.3946 128.237 98.3938C129.072 98.3912 129.906 98.3892 130.741 98.3881C131.697 98.3867 132.654 98.3831 133.61 98.3776C134.444 98.3729 135.277 98.3713 136.111 98.3708C136.463 98.3701 136.815 98.3685 137.166 98.366C141.362 98.3373 144.817 99.1414 147.944 102.065C150.71 104.908 151.31 107.919 151.31 111.868C148.898 111.868 146.485 111.868 144 111.868C144 109.832 144 107.795 144 105.697C136.262 105.697 128.524 105.697 120.552 105.697C120.552 114.477 120.552 123.257 120.552 132.302C128.29 132.302 136.027 132.302 144 132.302C144 130.311 144 128.32 144 126.268C146.412 126.268 148.825 126.268 151.31 126.268C151.31 130.357 150.621 133.213 147.724 136.142C147.631 136.237 147.538 136.331 147.442 136.428C145.202 138.547 142.153 139.639 139.089 139.626C138.844 139.628 138.844 139.628 138.593 139.629C138.058 139.632 137.524 139.631 136.989 139.63C136.708 139.631 136.428 139.631 136.147 139.632C135.267 139.634 134.386 139.634 133.506 139.632C132.604 139.631 131.702 139.633 130.8 139.636C130.02 139.639 129.24 139.64 128.46 139.639C127.997 139.639 127.533 139.639 127.07 139.642C122.945 139.658 119.461 138.8 116.414 135.868C113.931 133.282 113.058 130.185 113.065 126.672C113.065 126.486 113.064 126.3 113.063 126.115C113.061 125.616 113.061 125.117 113.062 124.619C113.062 124.199 113.061 123.78 113.061 123.361C113.059 122.371 113.059 121.38 113.06 120.39C113.061 119.375 113.059 118.359 113.056 117.344C113.054 116.467 113.053 115.589 113.053 114.712C113.053 114.19 113.053 113.669 113.051 113.147C113.037 108.834 113.43 105.38 116.552 102.131C116.626 102.047 116.701 101.962 116.777 101.875C117.531 101.054 118.495 100.499 119.448 99.9367C119.563 99.8685 119.679 99.8003 119.797 99.7299C121.622 98.7418 123.652 98.4091 125.702 98.4039Z" fill="#00C977"/>
</svg>
