<svg width="206" height="205" viewBox="0 0 206 205" fill="none" xmlns="http://www.w3.org/2000/svg">
<g clip-path="url(#clip0_102_3879)">
<path d="M205.5 156.784H0.5V156.886H205.5V156.784Z" fill="#EBEBEB"/>
<path d="M184.959 163.381H149.33V163.483H184.959V163.381Z" fill="#EBEBEB"/>
<path d="M150.704 159.576H147.141V159.679H150.704V159.576Z" fill="#EBEBEB"/>
<path d="M123.218 162.975H115.35V163.078H123.218V162.975Z" fill="#EBEBEB"/>
<path d="M30.8648 160.265H22.0088V160.367H30.8648V160.265Z" fill="#EBEBEB"/>
<path d="M45.965 160.265H34.5137V160.367H45.965V160.265Z" fill="#EBEBEB"/>
<path d="M104.849 161.946H85.6445V162.049H104.849V161.946Z" fill="#EBEBEB"/>
<path d="M97.6699 138.498H18.503C17.8828 138.497 17.2884 138.25 16.8503 137.811C16.4121 137.372 16.166 136.777 16.166 136.157V24.8706C16.1714 24.254 16.4199 23.6644 16.8575 23.2299C17.295 22.7954 17.8864 22.5511 18.503 22.55H97.6699C98.2908 22.55 98.8863 22.7967 99.3253 23.2357C99.7644 23.6748 100.011 24.2703 100.011 24.8911V136.157C100.011 136.778 99.7644 137.373 99.3253 137.812C98.8863 138.251 98.2908 138.498 97.6699 138.498ZM18.503 22.632C17.91 22.6331 17.3417 22.8695 16.9227 23.2892C16.5038 23.7089 16.2685 24.2776 16.2685 24.8706V136.157C16.2685 136.75 16.5038 137.319 16.9227 137.738C17.3417 138.158 17.91 138.394 18.503 138.396H97.6699C98.2633 138.394 98.8321 138.158 99.2517 137.739C99.6712 137.319 99.9074 136.75 99.9085 136.157V24.8706C99.9074 24.2773 99.6712 23.7085 99.2517 23.2889C98.8321 22.8693 98.2633 22.6331 97.6699 22.632H18.503Z" fill="#EBEBEB"/>
<path d="M186.357 138.498H107.186C106.565 138.497 105.97 138.25 105.532 137.811C105.093 137.372 104.846 136.778 104.845 136.157V24.8706C104.851 24.2536 105.101 23.6641 105.539 23.2297C105.977 22.7953 106.569 22.5511 107.186 22.55H186.357C186.973 22.5522 187.563 22.797 188 23.2314C188.436 23.6657 188.684 24.2547 188.69 24.8706V136.157C188.69 136.776 188.444 137.371 188.007 137.809C187.57 138.248 186.976 138.496 186.357 138.498ZM107.186 22.632C106.592 22.6331 106.024 22.8693 105.604 23.2889C105.185 23.7085 104.948 24.2773 104.947 24.8706V136.157C104.948 136.75 105.185 137.319 105.604 137.739C106.024 138.158 106.592 138.394 107.186 138.396H186.357C186.95 138.394 187.519 138.158 187.939 137.739C188.358 137.319 188.594 136.75 188.595 136.157V24.8706C188.594 24.2773 188.358 23.7085 187.939 23.2889C187.519 22.8693 186.95 22.6331 186.357 22.632H107.186Z" fill="#EBEBEB"/>
<path d="M86.0423 29.9055H22.644V120.569H86.0423V29.9055Z" fill="#E6E6E6"/>
<path d="M87.9447 29.9055H23.5337V120.569H87.9447V29.9055Z" fill="#F0F0F0"/>
<path d="M86.0423 120.569H22.644V122.229H86.0423V120.569Z" fill="#E6E6E6"/>
<path d="M88.9574 120.569H24.5464V122.229H88.9574V120.569Z" fill="#F0F0F0"/>
<path d="M85.2842 117.904V32.5664L26.1991 32.5664L26.1991 117.904H85.2842Z" fill="#FAFAFA"/>
<path d="M53.4966 117.904L67.8302 32.5706H75.2102L60.8766 117.904H53.4966Z" fill="white"/>
<path d="M34.8745 117.904L49.2081 32.5706H56.5881L42.2545 117.904H34.8745Z" fill="white"/>
<path d="M27.4289 75.0712C27.3182 75.0712 27.228 74.9359 27.228 74.7678V34.3992C27.228 34.2311 27.3182 34.0999 27.4289 34.0999C27.5396 34.0999 27.6339 34.2311 27.6339 34.3992V74.7678C27.6339 74.9359 27.5601 75.0712 27.4289 75.0712Z" fill="#F0F0F0"/>
<path d="M62.4634 117.904L76.797 32.5706H79.6711L65.3375 117.904H62.4634Z" fill="white"/>
<path d="M85.2842 117.908V32.5706H84.948V117.908H85.2842Z" fill="#E6E6E6"/>
<path opacity="0.5" d="M88.5764 40.2663H25.1781L24.9321 33.6038H88.3304L88.5764 40.2663Z" fill="#E0E0E0"/>
<path opacity="0.5" d="M88.5764 51.2131H25.1781L24.9321 44.5547H88.3304L88.5764 51.2131Z" fill="#E0E0E0"/>
<path opacity="0.5" d="M88.5764 62.1643H25.1781L24.9321 55.5059H88.3304L88.5764 62.1643Z" fill="#E0E0E0"/>
<path opacity="0.5" d="M88.5764 73.1154H25.1781L24.9321 66.4529H88.3304L88.5764 73.1154Z" fill="#E0E0E0"/>
<path opacity="0.5" d="M88.5764 84.0625H25.1781L24.9321 77.4041H88.3304L88.5764 84.0625Z" fill="#E0E0E0"/>
<path opacity="0.5" d="M88.5764 95.0134H25.1781L24.9321 88.355H88.3304L88.5764 95.0134Z" fill="#E0E0E0"/>
<path opacity="0.5" d="M88.5764 45.7396H25.1781L24.9321 39.0771H88.3304L88.5764 45.7396Z" fill="#E0E0E0"/>
<path opacity="0.5" d="M88.5764 56.6908H25.1781L24.9321 50.0283H88.3304L88.5764 56.6908Z" fill="#E0E0E0"/>
<path opacity="0.5" d="M88.5764 67.6377H25.1781L24.9321 60.9792H88.3304L88.5764 67.6377Z" fill="#E0E0E0"/>
<path opacity="0.5" d="M88.5764 78.5888H25.1781L24.9321 71.9304H88.3304L88.5764 78.5888Z" fill="#E0E0E0"/>
<path opacity="0.5" d="M88.5764 89.5399H25.1781L24.9321 82.8774H88.3304L88.5764 89.5399Z" fill="#E0E0E0"/>
<path opacity="0.5" d="M88.5764 100.491H25.1781L24.9321 93.8286H88.3304L88.5764 100.491Z" fill="#E0E0E0"/>
<path d="M122.298 92.0654H109.662V155.39H122.298V92.0654Z" fill="#F0F0F0"/>
<path d="M174.402 155.39H112.09V156.784H174.402V155.39Z" fill="#F0F0F0"/>
<path d="M122.294 155.39H176.82V92.0656H122.294V155.39Z" fill="#F5F5F5"/>
<path d="M170.551 127.744H128.563C128.165 127.743 127.782 127.584 127.501 127.302C127.219 127.02 127.06 126.638 127.059 126.239V116.44C127.059 116.04 127.217 115.657 127.499 115.375C127.781 115.092 128.164 114.932 128.563 114.931H135.505C135.785 114.936 136.058 115.017 136.294 115.167C136.531 115.317 136.722 115.529 136.845 115.78C136.98 116.029 137.18 116.236 137.423 116.381C137.666 116.525 137.944 116.601 138.227 116.6H160.896C161.31 116.599 161.707 116.434 161.999 116.141C162.117 116.02 162.217 115.881 162.294 115.731C162.418 115.484 162.608 115.277 162.842 115.132C163.077 114.988 163.347 114.911 163.622 114.911H170.551C170.952 114.911 171.335 115.07 171.618 115.353C171.901 115.636 172.06 116.019 172.06 116.419V126.239C172.059 126.638 171.9 127.021 171.617 127.303C171.334 127.585 170.951 127.744 170.551 127.744ZM128.563 115.345C128.273 115.346 127.994 115.463 127.789 115.669C127.584 115.874 127.469 116.153 127.469 116.444V126.239C127.47 126.529 127.585 126.807 127.79 127.012C127.995 127.217 128.273 127.333 128.563 127.334H170.551C170.842 127.334 171.121 127.218 171.327 127.013C171.533 126.808 171.649 126.53 171.65 126.239V116.44C171.65 116.149 171.534 115.869 171.328 115.663C171.122 115.457 170.843 115.341 170.551 115.341H163.622C163.424 115.34 163.229 115.394 163.059 115.497C162.889 115.6 162.751 115.747 162.659 115.923C162.563 116.113 162.437 116.286 162.286 116.436C162.104 116.619 161.887 116.764 161.649 116.864C161.41 116.963 161.154 117.014 160.896 117.014H138.227C137.87 117.014 137.519 116.917 137.212 116.734C136.905 116.551 136.654 116.287 136.485 115.973C136.395 115.788 136.256 115.631 136.083 115.52C135.91 115.408 135.71 115.347 135.505 115.341L128.563 115.345Z" fill="#EBEBEB"/>
<path d="M170.551 144.853H128.563C128.165 144.852 127.782 144.693 127.501 144.411C127.219 144.129 127.06 143.747 127.059 143.348V133.553C127.059 133.154 127.217 132.771 127.499 132.488C127.781 132.205 128.164 132.046 128.563 132.045H135.505C135.785 132.049 136.058 132.131 136.294 132.28C136.531 132.43 136.722 132.642 136.845 132.893C136.98 133.142 137.18 133.35 137.423 133.494C137.666 133.638 137.944 133.714 138.227 133.713H160.896C161.1 133.714 161.303 133.674 161.492 133.595C161.681 133.516 161.852 133.4 161.995 133.254C162.116 133.134 162.217 132.996 162.294 132.844C162.418 132.598 162.608 132.391 162.842 132.246C163.077 132.101 163.347 132.024 163.622 132.024H170.551C170.952 132.024 171.335 132.183 171.618 132.466C171.901 132.749 172.06 133.133 172.06 133.533V143.328C172.062 143.527 172.025 143.725 171.95 143.91C171.875 144.095 171.764 144.264 171.624 144.405C171.484 144.547 171.317 144.66 171.133 144.737C170.948 144.814 170.751 144.853 170.551 144.853ZM128.563 132.455C128.273 132.456 127.994 132.572 127.789 132.778C127.584 132.984 127.469 133.263 127.469 133.553V143.348C127.47 143.638 127.585 143.916 127.79 144.121C127.995 144.326 128.273 144.442 128.563 144.443H170.551C170.842 144.443 171.121 144.328 171.327 144.123C171.533 143.918 171.649 143.639 171.65 143.348V133.553C171.65 133.262 171.534 132.983 171.328 132.776C171.122 132.57 170.843 132.455 170.551 132.455H163.622C163.424 132.454 163.229 132.508 163.059 132.611C162.889 132.713 162.751 132.861 162.659 133.037C162.563 133.227 162.437 133.4 162.286 133.549C162.104 133.734 161.888 133.88 161.649 133.979C161.411 134.078 161.154 134.129 160.896 134.127H138.227C137.87 134.128 137.519 134.031 137.212 133.848C136.905 133.664 136.654 133.401 136.485 133.086C136.395 132.901 136.256 132.745 136.083 132.633C135.91 132.522 135.71 132.46 135.505 132.455H128.563Z" fill="#EBEBEB"/>
<path d="M172.06 152.471H127.059V148.83H172.06V152.471ZM127.469 152.061H171.65V149.24H127.469V152.061Z" fill="#EBEBEB"/>
<path d="M170.551 110.639H128.563C128.165 110.638 127.782 110.479 127.501 110.197C127.219 109.915 127.06 109.533 127.059 109.134V99.3391C127.059 98.9396 127.217 98.5565 127.499 98.2736C127.781 97.9908 128.164 97.8313 128.563 97.8303H135.505C135.784 97.8343 136.057 97.9152 136.294 98.0642C136.53 98.2132 136.721 98.4245 136.845 98.6749C136.98 98.9239 137.179 99.1317 137.423 99.2761C137.666 99.4205 137.944 99.4962 138.227 99.4949H160.896C161.31 99.494 161.707 99.3288 161.999 99.0357C162.117 98.9146 162.217 98.7764 162.294 98.6257C162.418 98.3794 162.608 98.1723 162.842 98.0275C163.077 97.8827 163.347 97.8059 163.622 97.8057H170.551C170.75 97.8057 170.946 97.8447 171.129 97.9205C171.312 97.9963 171.478 98.1075 171.618 98.2476C171.758 98.3877 171.87 98.554 171.945 98.7371C172.021 98.9201 172.06 99.1163 172.06 99.3145V109.109C172.063 109.309 172.026 109.508 171.951 109.693C171.877 109.878 171.766 110.047 171.626 110.19C171.485 110.332 171.318 110.445 171.134 110.522C170.949 110.599 170.751 110.639 170.551 110.639ZM128.563 98.2403C128.273 98.2413 127.994 98.3576 127.789 98.5635C127.584 98.7695 127.469 99.0483 127.469 99.3391V109.134C127.47 109.424 127.585 109.702 127.79 109.907C127.995 110.112 128.273 110.228 128.563 110.229H170.551C170.842 110.229 171.121 110.113 171.327 109.908C171.533 109.703 171.649 109.425 171.65 109.134V99.3391C171.65 99.0476 171.534 98.7682 171.328 98.5621C171.122 98.356 170.843 98.2403 170.551 98.2403H163.622C163.424 98.2396 163.229 98.2936 163.059 98.3963C162.889 98.4989 162.751 98.6464 162.659 98.8225C162.563 99.0122 162.437 99.1853 162.286 99.335C162.104 99.5185 161.887 99.6642 161.649 99.7634C161.41 99.8626 161.154 99.9135 160.896 99.9131H138.227C137.87 99.9129 137.519 99.816 137.212 99.6326C136.905 99.4493 136.654 99.1863 136.485 98.8717C136.395 98.6868 136.256 98.5302 136.083 98.4189C135.91 98.3076 135.71 98.2458 135.505 98.2403H128.563Z" fill="#EBEBEB"/>
<path d="M178.51 91.0447H122.299V92.0656H178.51V91.0447Z" fill="#F0F0F0"/>
<path d="M107.9 92.0654H122.299V91.0445H107.9V92.0654Z" fill="#E6E6E6"/>
<path d="M166.271 32.0908H118.043V79.9583H166.271V32.0908Z" fill="#E6E6E6"/>
<path d="M168.875 32.0908H118.535V79.9583H168.875V32.0908Z" fill="#F0F0F0"/>
<path d="M166.55 77.6377V34.4155H120.859V77.6377H166.55Z" fill="white"/>
<path d="M143.705 73.8204C140.186 73.8204 136.746 72.7768 133.819 70.8216C130.893 68.8664 128.612 66.0873 127.266 62.8359C125.919 59.5845 125.566 56.0067 126.253 52.555C126.94 49.1033 128.634 45.9327 131.123 43.4442C133.611 40.9556 136.782 39.2609 140.234 38.5743C143.685 37.8878 147.263 38.2401 150.515 39.5869C153.766 40.9337 156.545 43.2144 158.5 46.1406C160.456 49.0668 161.499 52.5071 161.499 56.0264C161.494 60.744 159.617 65.2668 156.281 68.6027C152.946 71.9385 148.423 73.815 143.705 73.8204ZM143.705 38.5399C140.247 38.5399 136.866 39.5655 133.99 41.4869C131.115 43.4084 128.873 46.1394 127.55 49.3346C126.226 52.5299 125.88 56.0458 126.555 59.4379C127.229 62.8299 128.895 65.9457 131.34 68.3913C133.786 70.8368 136.902 72.5022 140.294 73.1769C143.686 73.8517 147.202 73.5054 150.397 72.1819C153.592 70.8583 156.323 68.6171 158.245 65.7414C160.166 62.8658 161.192 59.4849 161.192 56.0264C161.187 51.3901 159.344 46.9448 156.065 43.6664C152.787 40.388 148.342 38.5443 143.705 38.5399Z" fill="#F5F5F5"/>
<path d="M103 175.299C146.904 175.299 182.495 173.222 182.495 170.658C182.495 168.095 146.904 166.017 103 166.017C59.096 166.017 23.5049 168.095 23.5049 170.658C23.5049 173.222 59.096 175.299 103 175.299Z" fill="#F5F5F5"/>
<path d="M28.29 147.428H128.695L135.911 84.9644H35.5101L28.29 147.428Z" fill="#00C977"/>
<path opacity="0.4" d="M28.29 147.428H128.695L135.911 84.9644H35.5101L28.29 147.428Z" fill="white"/>
<path d="M148.416 149.769H48.0112L35.5103 84.9644H135.911L148.416 149.769Z" fill="#00C977"/>
<path opacity="0.6" d="M148.416 149.769H48.0112L35.5103 84.9644H135.911L148.416 149.769Z" fill="white"/>
<path d="M144.57 146.292H50.5119L40.4136 93.9312H134.472L144.57 146.292Z" fill="white"/>
<g opacity="0.5">
<path d="M57.8348 106.629H47.9989L46.1006 96.7888H55.9365L57.8348 106.629Z" fill="#00C977"/>
<path d="M131.787 106.629H121.947L120.053 96.7888H129.889L131.787 106.629Z" fill="#00C977"/>
<path d="M119.458 106.629H109.622L107.724 96.7888H117.564L119.458 106.629Z" fill="#00C977"/>
<path d="M107.134 106.629H97.2977L95.3994 96.7888H105.239L107.134 106.629Z" fill="#00C977"/>
<path d="M94.8084 106.629H84.9725L83.0742 96.7888H92.9101L94.8084 106.629Z" fill="#00C977"/>
<path d="M82.4842 106.629H72.6483L70.75 96.7888H80.5859L82.4842 106.629Z" fill="#00C977"/>
<path d="M70.1595 106.629H60.3236L58.4253 96.7888H68.2612L70.1595 106.629Z" fill="#00C977"/>
<path opacity="0.5" d="M60.2005 118.896H50.3646L48.4663 109.06H58.3022L60.2005 118.896Z" fill="#00C977"/>
<path d="M134.152 118.896H124.316L122.418 109.06H132.254L134.152 118.896Z" fill="#00C977"/>
<path opacity="0.5" d="M121.828 118.896H111.992L110.094 109.06H119.93L121.828 118.896Z" fill="#00C977"/>
<path d="M109.503 118.896H99.6628L97.7686 109.06H107.604L109.503 118.896Z" fill="#00C977"/>
<path d="M97.1746 118.896H87.3387L85.4404 109.06H95.2804L97.1746 118.896Z" fill="#00C977"/>
<path d="M84.8494 118.896H75.0135L73.1152 109.06H82.9511L84.8494 118.896Z" fill="#00C977"/>
<path d="M72.5252 118.896H62.6893L60.791 109.06H70.6269L72.5252 118.896Z" fill="#00C977"/>
<path d="M62.5662 131.163H52.7303L50.832 121.327H60.6679L62.5662 131.163Z" fill="#00C977"/>
<path d="M136.517 131.163H126.682L124.783 121.327H134.619L136.517 131.163Z" fill="#00C977"/>
<path d="M124.193 131.163H114.357L112.459 121.327H122.295L124.193 131.163Z" fill="#00C977"/>
<path d="M111.869 131.163H102.033L100.135 121.327H109.971L111.869 131.163Z" fill="#00C977"/>
<path d="M99.5438 131.163H89.7038L87.8096 121.327H97.6455L99.5438 131.163Z" fill="#00C977"/>
<path d="M87.2156 131.163H77.3797L75.4814 121.327H85.3214L87.2156 131.163Z" fill="#00C977"/>
<path d="M74.8909 131.163H65.055L63.1567 121.327H72.9926L74.8909 131.163Z" fill="#00C977"/>
<path d="M64.932 143.434H55.0961L53.1978 133.594H63.0378L64.932 143.434Z" fill="#00C977"/>
<path d="M138.884 143.434H129.048L127.149 133.594H136.985L138.884 143.434Z" fill="#00C977"/>
<path d="M126.559 143.434H116.723L114.825 133.594H124.661L126.559 143.434Z" fill="#00C977"/>
<path d="M114.234 143.434H104.398L102.5 133.594H112.336L114.234 143.434Z" fill="#00C977"/>
<path d="M101.91 143.434H92.0741L90.1758 133.594H100.012L101.91 143.434Z" fill="#00C977"/>
<path d="M89.5848 143.434H79.7448L77.8506 133.594H87.6865L89.5848 143.434Z" fill="#00C977"/>
<path opacity="0.5" d="M77.2606 143.434H67.4206L65.5264 133.594H75.3623L77.2606 143.434Z" fill="#00C977"/>
</g>
<path d="M47.8922 89.4129L47.7651 88.761C48.9254 88.761 49.5732 87.0226 49.1755 84.9644C48.7778 82.9062 47.4617 81.1637 46.3055 81.1637C45.1493 81.1637 44.4974 82.9062 44.891 84.9644H44.2432C43.7594 82.4675 44.6122 80.5159 46.1784 80.5159C47.7446 80.5159 49.3518 82.4675 49.8315 84.9644C50.3112 87.4613 49.4584 89.4129 47.8922 89.4129Z" fill="#263238"/>
<path d="M57.6007 89.4129L57.4736 88.761C58.6339 88.761 59.2817 87.0226 58.884 84.9644C58.4863 82.9062 57.1702 81.1637 56.014 81.1637C54.8578 81.1637 54.2059 82.9062 54.5995 84.9644H53.9517C53.4679 82.4675 54.3207 80.5159 55.8869 80.5159C57.4531 80.5159 59.0603 82.4675 59.54 84.9644C60.0197 87.4613 59.1669 89.4129 57.6007 89.4129Z" fill="#263238"/>
<path d="M67.3302 89.4129L67.2031 88.761C68.3634 88.761 69.0112 87.0226 68.6135 84.9644C68.2158 82.9062 66.8997 81.1637 65.7435 81.1637C64.5873 81.1637 63.9313 82.9062 64.329 84.9644H63.6402C63.1564 82.4675 64.0092 80.5159 65.5754 80.5159C67.1416 80.5159 68.7488 82.4675 69.2285 84.9644C69.7082 87.4613 68.8759 89.4129 67.3302 89.4129Z" fill="#263238"/>
<path d="M77.0146 89.4129L76.8916 88.761C78.0519 88.761 78.6997 87.0226 78.302 84.9644C77.9043 82.9062 76.5882 81.1637 75.432 81.1637C74.2758 81.1637 73.6239 82.9062 74.0216 84.9644H73.3697C72.89 82.4675 73.7428 80.5159 75.309 80.5159C76.8752 80.5159 78.4783 82.4675 78.9621 84.9644C79.4459 87.4613 78.5849 89.4129 77.0146 89.4129Z" fill="#263238"/>
<path d="M86.7236 89.4129L86.6006 88.761C87.7609 88.761 88.4087 87.0226 88.011 84.9644C87.6133 82.9062 86.2972 81.1637 85.141 81.1637C83.9848 81.1637 83.3329 82.9062 83.7306 84.9644H83.0787C82.599 82.4675 83.4518 80.5159 85.018 80.5159C86.5842 80.5159 88.1873 82.4675 88.6711 84.9644C89.1549 87.4613 88.2939 89.4129 86.7236 89.4129Z" fill="#263238"/>
<path d="M96.4398 89.4129L96.3168 88.761C97.4771 88.761 98.1249 87.0226 97.7272 84.9644C97.3295 82.9062 96.0134 81.1637 94.8572 81.1637C93.701 81.1637 93.0491 82.9062 93.4468 84.9644H92.7949C92.3152 82.4675 93.1639 80.5159 94.7342 80.5159C96.3045 80.5159 97.9035 82.4675 98.3873 84.9644C98.8711 87.4613 98.0019 89.4129 96.4398 89.4129Z" fill="#263238"/>
<path d="M106.141 89.4129L106.018 88.761C107.178 88.761 107.826 87.0226 107.428 84.9644C107.031 82.9062 105.715 81.1637 104.558 81.1637C103.402 81.1637 102.75 82.9062 103.148 84.9644H102.496C102.016 82.4675 102.865 80.5159 104.435 80.5159C106.006 80.5159 107.605 82.4675 108.088 84.9644C108.572 87.4613 107.711 89.4129 106.141 89.4129Z" fill="#263238"/>
<path d="M115.85 89.4129L115.727 88.761C116.887 88.761 117.535 87.0226 117.137 84.9644C116.74 82.9062 115.424 81.1637 114.267 81.1637C113.111 81.1637 112.459 82.9062 112.857 84.9644H112.205C111.725 82.4675 112.574 80.5159 114.144 80.5159C115.715 80.5159 117.314 82.4675 117.797 84.9644C118.281 87.4613 117.416 89.4129 115.85 89.4129Z" fill="#263238"/>
<path d="M125.55 89.4129L125.427 88.761C126.587 88.761 127.235 87.0226 126.838 84.9644C126.44 82.9062 125.124 81.1637 123.968 81.1637C122.811 81.1637 122.159 82.9062 122.557 84.9644H121.905C121.426 82.4675 122.274 80.5159 123.845 80.5159C125.415 80.5159 127.014 82.4675 127.494 84.9644C127.973 87.4613 127.125 89.4129 125.55 89.4129Z" fill="#263238"/>
<path d="M83.6033 105.243H49.1141L47.2158 95.407H81.705L83.6033 105.243Z" fill="#00C977"/>
<path d="M98.3016 117.514H88.4616L86.5674 107.674H96.4033L98.3016 117.514Z" fill="#00C977"/>
<path d="M129.076 130.109L128.543 129.646C127.449 128.688 126.232 127.881 124.923 127.248L125.263 126.243C126.482 126.833 127.629 127.561 128.683 128.412C130.498 125.719 132.876 123.452 135.653 121.766L136.386 122.766C133.56 124.483 131.167 126.828 129.392 129.617L129.076 130.109Z" fill="#00C977"/>
<path d="M94.6935 109.302H93.8038L92.3155 111.996L89.794 109.302H88.9043L91.9875 112.594L90.1712 115.883H91.065L92.5492 113.193L95.0707 115.883H95.9645L92.8772 112.594L94.6935 109.302Z" fill="white"/>
<path d="M112.926 132.865L114.566 141.397H106.038L104.398 132.865H112.93M113.459 132.213H103.619L105.517 142.053H115.357L113.463 132.213H113.459Z" fill="#00C977"/>
<path d="M88.3347 129.781H66.1742L64.2759 119.946H86.4364L88.3347 129.781Z" fill="#263238"/>
<path d="M73.0702 123.869C73.1292 124.098 73.134 124.337 73.0841 124.568C73.0342 124.798 72.931 125.014 72.7828 125.198C72.6346 125.382 72.4454 125.528 72.2305 125.625C72.0156 125.723 71.7808 125.769 71.545 125.759C71.0126 125.74 70.502 125.543 70.0936 125.201C69.6853 124.859 69.4026 124.39 69.29 123.869C69.2319 123.641 69.2278 123.402 69.2781 123.172C69.3283 122.941 69.4316 122.726 69.5796 122.543C69.7276 122.359 69.9164 122.213 70.1308 122.115C70.3453 122.017 70.5796 121.971 70.8152 121.979C71.3474 122 71.8577 122.197 72.2659 122.539C72.6741 122.881 72.957 123.349 73.0702 123.869Z" fill="white"/>
<path d="M73.5252 125.657C73.3166 125.947 73.04 126.181 72.7197 126.339C72.3995 126.497 72.0453 126.574 71.6884 126.563C70.8746 126.543 70.0971 126.222 69.5072 125.661C69.1421 125.858 68.8488 126.166 68.6691 126.54C68.4894 126.914 68.4326 127.336 68.5068 127.744H75.3292C75.2057 127.282 74.9793 126.855 74.6668 126.493C74.3544 126.132 73.964 125.846 73.5252 125.657Z" fill="white"/>
<path d="M84.6408 124.251H77.0968L76.8877 123.164H84.4317L84.6408 124.251Z" fill="white"/>
<path d="M82.5615 126.559H77.5431L77.334 125.472H82.3524L82.5615 126.559Z" fill="white"/>
<path d="M122.171 96.3255C124.115 96.3255 126.866 96.6084 128.945 97.9655C129.322 98.1882 129.651 98.4843 129.913 98.8364C130.174 99.1886 130.362 99.5895 130.466 100.015C130.831 101.627 129.974 103.386 129.027 104.341C127.53 105.85 125.201 106.801 122.467 106.99C122.155 107.014 121.835 107.026 121.519 107.026C119.594 107.01 117.689 106.631 115.902 105.911C114.144 105.21 112.278 104.271 111.753 102.443C111.616 102.021 111.574 101.575 111.63 101.135C111.686 100.696 111.839 100.274 112.077 99.9007C112.387 99.4266 112.797 99.0263 113.278 98.7281C115.55 97.3231 118.139 96.5123 120.806 96.3706C121.261 96.3419 121.72 96.3255 122.171 96.3255ZM122.048 95.6941C121.56 95.6941 121.089 95.6941 120.646 95.7433C117.886 95.8885 115.207 96.726 112.856 98.1787C112.316 98.5152 111.855 98.9657 111.507 99.4989C111.229 99.9421 111.052 100.441 110.987 100.96C110.923 101.479 110.973 102.006 111.134 102.504C111.749 104.628 113.852 105.731 115.763 106.489C117.631 107.244 119.624 107.639 121.638 107.654C121.97 107.654 122.298 107.654 122.626 107.621C125.226 107.432 127.817 106.547 129.523 104.825C131.228 103.103 132.315 99.4497 129.219 97.4448C127.132 96.0959 124.402 95.6941 122.044 95.6941H122.048Z" fill="#263238"/>
<path d="M121.1 115.579C121.172 115.463 121.234 115.343 121.286 115.217C121.374 114.944 121.237 114.641 121.286 114.358C121.324 114.176 121.413 114.008 121.543 113.875C121.673 113.742 121.838 113.649 122.019 113.606C122.389 113.535 122.771 113.59 123.105 113.762C123.32 113.888 123.55 113.986 123.79 114.055C124.027 114.075 124.266 114.075 124.504 114.055C125.218 114.055 125.316 114.729 125.658 115.208C126.421 116.252 127.82 119.583 129.042 120.09C129.297 120.198 129.845 120.344 129.668 119.885C129.397 119.307 129.177 118.706 129.013 118.088C128.933 117.778 128.92 117.454 128.974 117.137C129.028 116.821 129.148 116.519 129.326 116.252C129.439 116.09 129.605 115.973 129.796 115.92C130.079 115.92 130.167 116.038 130.265 116.223C130.378 116.422 130.502 116.615 130.637 116.799L131.449 117.971C132.994 120.256 134.129 121.555 134.843 123.303C135.4 124.69 135.498 126.155 136.926 127.786C138.129 129.163 144.751 135.452 144.751 135.452C144.751 135.452 145.886 133.811 150.865 126.536C154.631 121.047 156.372 120.276 158.309 119.768L158.367 136.37C155.485 140.185 152.316 143.776 148.889 147.112C145.231 150.735 141.768 148.528 138.54 143.811C136.408 140.715 131.126 132.844 129.786 130.764C129.061 129.516 128.031 128.471 126.793 127.727C125.364 126.749 124.142 125.502 123.193 124.055C122.558 122.945 122.037 121.774 121.638 120.559C121.49 120.035 121.385 119.499 121.325 118.958C121.256 118.45 121.325 117.981 121.247 117.424C121.168 116.868 120.836 116.135 121.1 115.579Z" fill="#FFBF9D"/>
<path d="M130.128 121.643C129.072 124.572 130.128 126.525 131.674 127.434C130.531 125.727 129.988 123.69 130.128 121.643Z" fill="#EE5B5B"/>
<path d="M159.541 118.577C156.881 119.133 154.494 119.905 152.606 122.668C151.697 124.006 150.904 125.422 150.043 126.799C149.065 128.323 148.547 129.036 147.911 130.012C147.275 130.989 146.806 131.526 146.199 132.444C145.956 132.808 145.663 133.137 145.329 133.42C145.012 133.666 144.785 134.009 144.683 134.397C144.642 134.707 144.557 135.01 144.429 135.295C144.22 135.585 144.082 135.919 144.028 136.272C144.042 136.581 144.122 136.884 144.263 137.161C144.959 138.854 145.169 140.707 144.869 142.512C144.566 144.323 143.684 145.988 142.355 147.258C142.199 147.405 143.333 148.635 143.539 148.85C143.935 149.351 144.497 149.697 145.123 149.826C145.945 149.914 146.102 149.514 147.363 149.504C147.676 149.504 147.989 149.573 148.341 149.504C148.745 149.436 149.127 149.273 149.455 149.028C149.784 148.784 150.049 148.465 150.229 148.098C150.664 147.223 151.192 146.398 151.804 145.637L152.909 144.465C154.533 142.746 155.453 142.2 157.086 140.491L160.021 137.434L159.541 118.577Z" fill="#DCCCCC"/>
<path d="M144.517 136.155C145.284 136.424 145.987 136.85 146.581 137.405C147.186 137.938 147.707 138.561 148.126 139.25C148.592 139.976 148.909 140.785 149.06 141.633C149.211 142.481 149.193 143.351 149.007 144.192C149.007 144.27 148.879 144.289 148.87 144.192C148.826 143.382 148.728 142.576 148.576 141.78C148.371 140.956 148.041 140.169 147.598 139.446C147.204 138.798 146.716 138.212 146.15 137.707C145.884 137.462 145.6 137.236 145.299 137.033C144.977 136.809 144.625 136.633 144.321 136.418C144.184 136.321 144.37 136.106 144.517 136.155Z" fill="#263238"/>
<path d="M145.143 135.149C146.69 135.206 148.174 135.769 149.369 136.75C149.962 137.218 150.483 137.771 150.915 138.391C151.136 138.696 151.326 139.024 151.482 139.367C151.665 139.721 151.784 140.105 151.834 140.5C151.834 140.559 151.726 140.715 151.658 140.627C151.433 140.305 151.306 139.895 151.1 139.553C150.895 139.211 150.729 138.938 150.513 138.645C150.086 138.06 149.579 137.537 149.007 137.092C147.869 136.206 146.522 135.627 145.095 135.412C144.87 135.412 145.026 135.149 145.143 135.149Z" fill="#263238"/>
<path d="M144.821 135.012L142.287 133.01C142.287 133.01 143.852 138.176 142.894 141.321C142.417 143.091 141.596 144.75 140.478 146.204C141.322 147.265 142.369 148.148 143.559 148.801C143.559 148.801 145.202 147.61 146.014 143.411C146.534 140.556 146.115 137.61 144.821 135.012Z" fill="#455A64"/>
<path d="M178.116 96.4547L177.266 115.432C177.122 118.657 176.251 123.369 171.147 122.903C166.757 122.171 165.824 117.925 165.961 114.918C166.023 113.487 166.078 112.295 166.071 112.179C166.071 112.179 161.269 111.494 161.118 106.7C161.057 104.378 161.31 99.5981 161.592 95.2699C161.73 93.0261 162.714 90.9175 164.345 89.3678C165.976 87.818 168.134 86.9417 170.386 86.9148H170.845C175.853 87.1339 178.466 91.4964 178.116 96.4547Z" fill="#FFBF9D"/>
<path d="M166.071 112.206C168.291 112.165 170.453 111.49 172.3 110.261C172.3 110.261 170.832 113.788 166.03 113.432L166.071 112.206Z" fill="#FF9A6C"/>
<path d="M169.625 97.7012C169.714 97.8039 170.311 97.393 171.093 97.4204C171.875 97.4478 172.465 97.8724 172.561 97.7697C172.657 97.667 172.513 97.5437 172.266 97.3451C171.926 97.0931 171.516 96.952 171.093 96.941C170.673 96.9286 170.261 97.0537 169.92 97.2971C169.693 97.482 169.625 97.6601 169.625 97.7012Z" fill="#263238"/>
<path d="M169.624 99.427C169.634 99.5935 169.704 99.7507 169.822 99.8692C169.939 99.9877 170.096 100.059 170.262 100.071C170.347 100.079 170.433 100.07 170.514 100.045C170.595 100.019 170.67 99.9767 170.734 99.9209C170.798 99.865 170.851 99.7967 170.887 99.72C170.924 99.6433 170.945 99.5599 170.948 99.475C170.948 99.3066 170.882 99.1449 170.764 99.0245C170.646 98.9042 170.486 98.8348 170.317 98.8312C170.232 98.8217 170.146 98.8299 170.064 98.8553C169.982 98.8806 169.906 98.9225 169.841 98.9784C169.776 99.0343 169.723 99.103 169.686 99.1802C169.648 99.2574 169.628 99.3414 169.624 99.427Z" fill="#263238"/>
<path d="M167.327 103.152C166.937 103.036 166.534 102.97 166.127 102.954C165.935 102.954 165.756 102.906 165.722 102.776C165.702 102.581 165.743 102.385 165.839 102.214L166.374 100.776C166.872 99.5519 167.271 98.29 167.567 97.0024C166.972 98.1843 166.472 99.4118 166.072 100.673C165.894 101.173 165.722 101.659 165.564 102.118C165.447 102.346 165.416 102.609 165.475 102.858C165.504 102.924 165.547 102.983 165.602 103.031C165.656 103.078 165.721 103.113 165.791 103.132C165.896 103.157 166.005 103.171 166.113 103.173C166.517 103.217 166.925 103.21 167.327 103.152Z" fill="#263238"/>
<path d="M170.167 95.1533C170.228 95.3382 170.853 95.2423 171.648 95.3245C172.444 95.4067 173.02 95.6121 173.13 95.4478C173.24 95.2834 173.061 95.1944 172.814 95.0232C172.482 94.8094 172.104 94.6779 171.71 94.6397C171.316 94.5992 170.918 94.6556 170.551 94.804C170.276 94.9204 170.132 95.0848 170.167 95.1533Z" fill="#263238"/>
<path d="M162.628 95.2768C162.703 95.4275 163.314 95.2768 164.096 95.3247C164.878 95.3727 165.468 95.4754 165.564 95.3247C165.66 95.1741 165.488 95.1124 165.228 94.9823C164.88 94.8196 164.501 94.7354 164.116 94.7358C163.73 94.7244 163.347 94.7969 162.991 94.9481C162.724 95.085 162.594 95.2083 162.628 95.2768Z" fill="#263238"/>
<path d="M177.78 100.043C177.856 100.002 181.066 99.0161 181.011 102.296C180.956 105.577 177.67 104.844 177.664 104.755C177.657 104.666 177.78 100.043 177.78 100.043Z" fill="#FFBF9D"/>
<path d="M178.686 103.522C178.686 103.522 178.748 103.563 178.844 103.611C178.911 103.639 178.983 103.654 179.056 103.654C179.129 103.654 179.202 103.639 179.269 103.611C179.485 103.483 179.663 103.298 179.783 103.078C179.904 102.858 179.963 102.609 179.955 102.358C179.968 102.076 179.916 101.795 179.804 101.536C179.773 101.434 179.718 101.34 179.644 101.263C179.57 101.186 179.479 101.127 179.379 101.091C179.314 101.07 179.244 101.074 179.182 101.101C179.119 101.129 179.07 101.179 179.043 101.242C178.995 101.331 179.043 101.399 179.001 101.399C178.96 101.399 178.926 101.344 178.96 101.214C178.976 101.132 179.022 101.058 179.091 101.009C179.182 100.942 179.294 100.913 179.406 100.926C179.54 100.957 179.665 101.02 179.768 101.111C179.871 101.202 179.95 101.318 179.996 101.447C180.133 101.733 180.197 102.048 180.181 102.365C180.187 102.651 180.109 102.933 179.956 103.177C179.804 103.42 179.584 103.614 179.324 103.734C179.235 103.759 179.142 103.763 179.052 103.747C178.962 103.73 178.876 103.693 178.802 103.638C178.693 103.604 178.679 103.529 178.686 103.522Z" fill="#FF9A6C"/>
<path d="M167.971 105.46C167.937 105.378 168.595 105.221 169.075 104.645C169.281 104.393 169.452 104.114 169.583 103.817C169.693 103.584 169.768 103.44 169.803 103.454C169.837 103.467 169.803 103.625 169.755 103.885C169.663 104.226 169.499 104.544 169.274 104.817C169.044 105.089 168.742 105.293 168.403 105.406C168.149 105.495 167.978 105.495 167.971 105.46Z" fill="#263238"/>
<path d="M182.438 94.9889C181.82 93.7973 181.752 92.407 181.443 91.099C181.134 89.7909 180.503 88.4144 179.262 87.8939C178.72 87.6047 178.112 87.4644 177.498 87.4873C176.885 87.5101 176.288 87.6954 175.77 88.024C175.651 87.169 175.286 86.3669 174.72 85.7143C174.154 85.0617 173.411 84.5866 172.58 84.3464C170.621 83.8459 168.563 83.8885 166.626 84.4697C165.364 84.9011 164.116 85.8393 162.579 87.257C161.931 87.8463 161.334 88.4901 160.796 89.1814L159.094 93.5644L160.199 95.9682C160.261 96.1362 160.332 96.3008 160.412 96.4613L161.248 101.454C161.399 100.084 161.564 95.434 161.715 94.0917C162.728 94.1216 163.737 93.9458 164.68 93.575C165.624 93.2042 166.482 92.6461 167.203 91.9345C167.985 91.1606 168.622 90.1744 169.638 89.743C170.941 89.1882 172.423 89.743 173.753 90.2703L173.699 90.2155C174.378 90.5795 174.981 91.07 175.475 91.6605C175.023 94.299 175.145 97.0036 175.832 99.591C175.935 99.9814 176.237 100.783 176.6 100.961C177.32 101.289 177.561 100.55 178.027 100.18C178.437 99.9287 178.926 99.8384 179.399 99.9266C179.829 98.8323 180.195 97.7141 180.496 96.5777C180.933 96.7446 181.404 96.8033 181.868 96.7489C181.752 96.4065 181.628 96.0641 181.505 95.7148C181.676 95.8509 181.871 95.9532 182.081 96.0162C182.186 96.0426 182.297 96.0365 182.399 95.9985C182.5 95.9606 182.588 95.8927 182.65 95.8039C182.726 95.5368 182.568 95.2423 182.438 94.9889Z" fill="#263238"/>
<path d="M174.207 88.49C174.37 88.6325 174.522 88.7882 174.66 88.9557C175.012 89.434 175.235 89.9957 175.304 90.5856C175.365 90.9889 175.384 91.3975 175.359 91.8047C175.359 92.243 175.27 92.7155 175.208 93.1743C175.138 93.6921 175.097 94.2134 175.085 94.7358C175.085 95.0154 175.106 95.2947 175.147 95.5713C175.169 95.8668 175.271 96.1507 175.442 96.3931C175.519 96.4969 175.625 96.5764 175.747 96.6225C175.868 96.6686 176 96.6793 176.127 96.6533C176.364 96.6235 176.584 96.5149 176.752 96.3452C177.032 96.0048 177.217 95.5958 177.287 95.1604H177.17C177.294 95.5281 177.469 95.8764 177.691 96.1945C177.911 96.4889 178.235 96.6876 178.597 96.7492C178.763 96.7766 178.934 96.7576 179.091 96.6944C179.237 96.6283 179.361 96.5213 179.448 96.3863C179.527 96.2612 179.57 96.1165 179.571 95.9685C179.572 95.8297 179.526 95.6945 179.441 95.585L179.386 95.6261C179.651 95.9708 179.988 96.2536 180.374 96.4547C180.473 96.5092 180.576 96.5572 180.682 96.5986H180.792C180.792 96.5986 180.792 96.5986 180.689 96.5438C180.586 96.489 180.518 96.4616 180.387 96.3863C180.017 96.1762 179.695 95.8917 179.441 95.5507L179.386 95.5918C179.454 95.6932 179.49 95.8124 179.49 95.9343C179.49 96.0562 179.454 96.1753 179.386 96.2767C179.31 96.3971 179.2 96.4925 179.07 96.5506C178.928 96.6115 178.77 96.6282 178.618 96.5986C178.283 96.5329 177.984 96.3448 177.781 96.0712C177.565 95.7584 177.395 95.4173 177.273 95.0577L177.218 94.9001L177.177 95.0645C177.11 95.4813 176.935 95.8733 176.669 96.2014C176.517 96.352 176.319 96.4482 176.107 96.4753C176.002 96.4891 175.894 96.4756 175.796 96.436C175.697 96.3964 175.611 96.3321 175.544 96.2493C175.392 96.0201 175.3 95.7563 175.277 95.4823C175.236 95.2125 175.215 94.9401 175.215 94.6673C175.225 94.1496 175.264 93.6329 175.332 93.1196C175.393 92.6265 175.455 92.1539 175.469 91.7088C175.491 91.2946 175.471 90.8792 175.407 90.4692C175.328 89.8705 175.091 89.3035 174.721 88.8256C174.568 88.6879 174.395 88.5747 174.207 88.49Z" fill="#455A64"/>
<path d="M159.151 92.2974H159.185L159.301 92.3864C159.359 92.4424 159.424 92.4908 159.493 92.5302C159.583 92.5934 159.677 92.6506 159.775 92.7014C160.41 93.0317 161.117 93.1988 161.833 93.1877C162.881 93.1779 163.903 92.8638 164.775 92.2837C165.835 91.5596 166.736 90.6275 167.423 89.5443C167.8 88.9896 168.109 88.4075 168.459 87.8801C168.777 87.3721 169.165 86.911 169.611 86.5104C170.016 86.1416 170.506 85.8802 171.038 85.7503C171.279 85.6995 171.527 85.6856 171.772 85.7092C172.007 85.7358 172.237 85.791 172.458 85.8735C172.823 86.0318 173.15 86.2652 173.418 86.5584C173.625 86.7732 173.794 87.0209 173.919 87.2912C174.013 87.5254 174.082 87.7687 174.125 88.0171V87.9692C174.125 87.9281 174.125 87.8801 174.125 87.8185C174.094 87.6311 174.043 87.4475 173.974 87.2706C173.851 86.9947 173.684 86.7403 173.48 86.5173C173.208 86.2197 172.873 85.9859 172.499 85.8324C172.281 85.7389 172.05 85.6788 171.813 85.6544C171.559 85.6217 171.302 85.6332 171.052 85.6886C170.506 85.8172 170.001 86.081 169.584 86.4556C169.125 86.867 168.728 87.3421 168.404 87.8664C168.054 88.4006 167.718 88.9759 167.361 89.5306C166.682 90.5909 165.795 91.5039 164.755 92.2152C163.898 92.7867 162.897 93.1026 161.867 93.126C161.171 93.1417 160.481 92.989 159.857 92.6809C159.336 92.4686 159.157 92.2837 159.151 92.2974Z" fill="#455A64"/>
<path d="M162.332 97.591C162.421 97.6937 163.018 97.2759 163.8 97.3033C164.582 97.3307 165.172 97.7553 165.268 97.6526C165.364 97.5499 165.22 97.4266 164.973 97.2348C164.635 96.978 164.224 96.8342 163.8 96.8239C163.381 96.815 162.97 96.9397 162.627 97.1801C162.373 97.365 162.284 97.543 162.332 97.591Z" fill="#263238"/>
<path d="M162.764 99.4266C162.774 99.593 162.844 99.7502 162.961 99.8687C163.079 99.9872 163.235 100.059 163.402 100.07C163.487 100.079 163.572 100.07 163.653 100.044C163.735 100.018 163.81 99.9762 163.874 99.9204C163.938 99.8646 163.99 99.7962 164.027 99.7195C164.064 99.6429 164.085 99.5595 164.088 99.4745C164.078 99.3081 164.008 99.1508 163.891 99.0323C163.773 98.9138 163.617 98.8421 163.45 98.8307C163.365 98.8223 163.28 98.8312 163.198 98.857C163.117 98.8828 163.042 98.9249 162.978 98.9807C162.914 99.0365 162.862 99.1048 162.825 99.1815C162.788 99.2582 162.767 99.3416 162.764 99.4266Z" fill="#263238"/>
<path d="M161.202 88.6606C161.007 88.9415 160.745 89.1694 160.439 89.3237C160.134 89.4779 159.795 89.5537 159.453 89.5441C159.219 89.479 158.99 89.3989 158.767 89.3044C158.527 89.4345 158.547 90.2358 158.698 90.4618C158.841 90.6568 159.002 90.8379 159.178 91.0028C158.376 91.3932 157.662 91.1535 156.839 90.8111C156.886 91.5333 157.123 92.2304 157.527 92.8316C157.93 93.4329 158.486 93.9171 159.137 94.2353C159.333 94.3544 159.556 94.4247 159.785 94.4401C160.014 94.4556 160.243 94.4159 160.454 94.3243C160.78 94.0768 161.005 93.7188 161.085 93.3176C161.524 91.9009 161.786 90.4358 161.867 88.9551L161.202 88.6606Z" fill="#263238"/>
<path d="M191.658 130.02L190.163 153.908L187.172 162.324L158.739 158.592L160.385 117.173L165.983 114.57C165.983 114.57 166.044 119.446 169.776 118.837C173.508 118.227 178.008 113.057 177.322 113.618L187.46 115.762L191.658 130.02Z" fill="#DCCCCC"/>
<path d="M175.201 133.895L156.68 133.121L155.417 159.405L154.533 173.732L155.397 255.387H170.392L171.956 217.46L171.839 198.188L171.428 189.614L177.135 222.233L181.415 257.01L198.612 255.222C198.612 255.222 195.958 225.418 195.107 219.329C194.256 213.241 190.237 180.978 190.237 180.245C190.237 179.513 188.536 162.275 188.536 162.275L188.35 158.953C188.35 158.953 180.462 156.755 178.335 152.365C176.209 147.975 175.201 133.895 175.201 133.895Z" fill="#00C977"/>
<path d="M191.575 152.629C190.298 153.133 187.743 153.838 187.743 152.629C187.743 151.42 185.189 144.57 183.911 141.296C183.06 139.533 181.357 135.781 181.357 134.874C181.357 134.081 180.269 131.107 179.522 129.195C179.336 128.718 179.338 128.187 179.535 127.715L180.751 124.79C181.088 123.982 181.785 123.379 182.634 123.164L191.575 152.629Z" fill="#B8AAAA"/>
<path d="M174.186 125.355C178.343 117.5 181.649 114.397 181.649 114.397L184.51 115.082C181.142 115.274 174.728 134.258 174.728 134.258L170.736 134.128C170.736 134.128 170.64 132.066 174.186 125.355Z" fill="#00C977"/>
<path d="M159.108 117.397L161.804 116.315L161.735 116.705C161.735 117.027 160.137 134.251 160.137 134.251L157.537 133.614L159.108 117.397Z" fill="#00C977"/>
<path d="M185.327 115.63C190.085 117.614 191.87 118.29 194.612 124.93C197.262 131.351 199.865 139.332 201.593 143.666C203.667 148.838 204.991 145.965 202.284 150.162C184.247 178.125 178.255 174.503 189.935 149.188C191.455 146.103 189.935 147.061 189.935 147.061L182.286 129.929C182.286 129.929 180.823 117.43 185.327 115.63Z" fill="#FFA8A7"/>
<path d="M181.605 166.699C181.051 167.2 180.555 167.772 180.128 168.403C179.688 169.609 179.335 170.849 179.071 172.112C179.071 172.112 179.608 172.609 180.576 171.015C181.064 170.263 181.481 169.462 181.822 168.622L181.605 166.699Z" fill="#FFA8A7"/>
<path d="M180.198 172.252L181.531 166.756L184.841 162.178L190.524 166.002L189.614 171.63C189.614 171.63 187.911 174.204 187.31 174.616C186.71 175.028 185.916 174.376 185.916 174.376C185.237 175.015 183.954 174.364 183.954 174.364C183.078 174.99 182.261 173.945 182.261 173.945C182.261 173.945 181.138 174.554 180.738 174.376C180.579 174.286 180.453 174.142 180.378 173.967C180.118 173.443 180.054 172.83 180.198 172.252Z" fill="#FFA8A7"/>
<path d="M186.804 173.112C186.744 173.066 186.516 173.319 186.289 173.667C186.062 174.015 185.926 174.328 185.98 174.366C186.035 174.404 186.262 174.152 186.489 173.804C186.717 173.456 186.858 173.15 186.804 173.112Z" fill="#EE5B5B"/>
<path d="M185.146 172.565C185.083 172.561 184.851 172.97 184.542 173.485C184.234 173.999 183.958 174.405 184.012 174.45C184.066 174.495 184.426 174.149 184.749 173.616C185.072 173.082 185.208 172.59 185.146 172.565Z" fill="#EE5B5B"/>
<path d="M183.188 172.204C183.118 172.199 182.957 172.593 182.734 173.065C182.511 173.537 182.307 173.921 182.361 173.966C182.415 174.011 182.718 173.675 182.949 173.176C183.18 172.677 183.25 172.222 183.188 172.204Z" fill="#EE5B5B"/>
<path d="M187.202 172.041C187.202 172.041 187.195 172.15 187.289 172.253C187.421 172.391 187.594 172.474 187.778 172.487C187.963 172.499 188.146 172.441 188.295 172.322C188.403 172.234 188.434 172.147 188.41 172.124C188.386 172.102 188.121 172.262 187.767 172.238C187.413 172.213 187.206 171.993 187.202 172.041Z" fill="#EE5B5B"/>
<path d="M185.146 171.824C185.146 171.824 185.138 171.933 185.271 172.038C185.425 172.162 185.61 172.235 185.803 172.247C185.997 172.264 186.191 172.215 186.359 172.106C186.485 172.026 186.536 171.94 186.512 171.911C186.489 171.882 186.193 172.026 185.82 172.001C185.447 171.975 185.194 171.772 185.146 171.824Z" fill="#EE5B5B"/>
<path d="M181.516 170.379C181.519 170.345 181.324 170.49 181.413 170.764C181.558 171.058 181.806 171.278 182.102 171.374C182.385 171.496 182.697 171.518 182.994 171.435C183.221 171.362 183.324 171.259 183.313 171.231C182.936 171.285 182.553 171.258 182.187 171.153C181.949 171.067 181.74 170.91 181.583 170.7C181.474 170.527 181.539 170.422 181.516 170.379Z" fill="#EE5B5B"/>
<path d="M185.21 114.995C188.179 116.002 191.276 116.28 194.268 122.729C196.738 128.032 198.988 133.44 201.227 138.835C201.5 139.579 201.862 140.286 202.305 140.943C202.959 141.694 203.553 142.495 204.08 143.339C204.579 144.318 204.731 145.437 204.509 146.512C204.381 147.079 204.149 147.67 204.057 148.203C204.085 149.223 204.007 150.243 203.825 151.248C203.619 151.758 203.258 152.192 202.792 152.487C202.363 152.799 201.969 153.436 201.54 153.726C200.635 154.351 200.171 153.783 199.812 154.015L200.252 153.147C199.32 151.178 197.656 149.65 195.613 148.886C193.356 148.27 190.95 148.501 188.852 149.534C188.852 149.534 188.202 149.418 188.446 148.596C188.606 148.19 188.665 147.751 188.616 147.317C188.568 146.883 188.414 146.468 188.167 146.107C187.564 145.007 187.773 143.478 186.949 141.811C186.126 140.144 181.614 130.36 181.614 130.36C181.614 130.36 179.677 119.001 185.21 114.995Z" fill="#DCCCCC"/>
<path d="M190.131 147.502L188.832 149.53C188.832 149.53 193.183 149.008 196.217 150.5C197.936 151.279 199.205 152.628 200.493 153.982C201.715 153.337 203.069 152.21 203.935 151.153C203.935 151.153 203.002 149.328 198.871 147.796C196.058 146.785 192.992 146.682 190.131 147.502Z" fill="#455A64"/>
<path d="M189.541 146.953C190.048 146.287 190.683 145.732 191.408 145.322C192.134 144.911 192.934 144.653 193.761 144.563C194.732 144.4 195.719 144.354 196.701 144.427C197.723 144.524 198.739 144.683 199.742 144.903C199.854 144.903 199.798 145.152 199.742 145.141C198.733 145.012 197.718 144.941 196.701 144.926C195.811 144.892 194.92 144.948 194.041 145.096C193.267 145.221 192.512 145.45 191.797 145.775C191.006 146.138 190.254 146.582 189.552 147.1C189.508 147.202 189.508 147.043 189.541 146.953Z" fill="#263238"/>
<path d="M189.521 144.264C190.013 142.913 190.981 141.817 192.221 141.206C193.458 140.453 194.894 140.149 196.309 140.341C196.466 140.341 196.309 140.649 196.22 140.649C194.927 140.616 193.648 140.93 192.501 141.561C191.38 142.284 190.405 143.235 189.633 144.358C189.555 144.453 189.499 144.335 189.521 144.264Z" fill="#263238"/>
<path d="M168.253 176.239C168.23 177.034 168.325 177.828 168.534 178.595C168.822 180.033 169.316 182.019 169.906 184.149C170.496 186.279 170.976 188.258 171.278 189.683C171.58 191.107 171.779 191.99 171.833 191.984C171.868 191.77 171.868 191.553 171.833 191.34C171.792 190.936 171.696 190.347 171.559 189.628C171.285 188.19 170.818 186.204 170.256 184.06C169.693 181.916 169.151 179.951 168.808 178.54C168.465 177.129 168.308 176.239 168.253 176.239Z" fill="#263238"/>
<g opacity="0.3">
<path d="M168.396 177.266C168.396 177.444 166.826 194.723 171.826 197.449L171.449 189.607L168.396 177.266Z" fill="black"/>
</g>
<path d="M169.624 155.94C169.624 155.899 169.281 155.988 168.801 156.228C168.174 156.551 167.606 156.977 167.12 157.488C166.636 158.008 166.282 158.634 166.084 159.316C165.973 159.592 165.94 159.893 165.988 160.186C166.307 159.297 166.771 158.466 167.36 157.728C168.437 156.584 169.665 156.036 169.624 155.94Z" fill="#FF9A6C"/>
</g>
<defs>
<clipPath id="clip0_102_3879">
<rect width="205" height="205" fill="white" transform="translate(0.5)"/>
</clipPath>
</defs>
</svg>
