<svg width="246" height="206" viewBox="0 0 246 206" fill="none" xmlns="http://www.w3.org/2000/svg">
<path d="M244.112 73.5964C244.112 73.5964 238.51 34.5371 198.457 10.4121C158.403 -13.7127 139.857 10.2941 119.72 20.3095C99.5829 30.3247 88.6592 16.5391 55.0477 10.0292C21.4362 3.51932 -7.69377 68.2353 1.82948 118.783C11.3527 169.33 32.3599 187.328 78.2956 198.816C124.231 210.304 151.401 172.394 183.892 179.286C216.383 186.179 255.036 147.503 244.112 73.5964Z" fill="#DFFFF2"/>
<path d="M120.5 178C164.407 178 200 174.866 200 171C200 167.134 164.407 164 120.5 164C76.5934 164 41 167.134 41 171C41 174.866 76.5934 178 120.5 178Z" fill="#D2D2D2"/>
<path d="M22.1584 155.393L69.239 156.932H173.381L218.314 154.649V144.833L212.554 136.512L196.888 130.977L177.008 136.512L169.123 143.955L79.9483 144.833L62.4799 132.104L48.8266 127.177L28.8123 132.352L23.9307 141.304L21.0469 150.316L22.1584 155.393Z" fill="#263238"/>
<path opacity="0.6" d="M22.1584 155.393L69.239 156.932H173.381L218.314 154.649V144.833L212.554 136.512L196.888 130.977L177.008 136.512L169.123 143.955L79.9483 144.833L62.4799 132.104L48.8266 127.177L28.8123 132.352L23.9307 141.304L21.0469 150.316L22.1584 155.393Z" fill="black"/>
<path d="M24.8999 147.95C26.5972 143.842 33.2511 137.008 37.3441 135.295C41.3244 133.628 50.7721 133.313 54.6172 135.295C58.6726 137.391 63.802 145.809 65.1914 150.173C65.7021 151.78 65.5519 155.64 65.3866 158.186L176.536 159.358C176.303 156.271 176.145 152.013 176.874 150.233C178.556 146.132 185.225 139.298 189.318 137.586C193.298 135.911 202.746 135.603 206.591 137.586C210.646 139.674 215.783 148.1 217.173 152.463C217.508 154.126 217.619 155.826 217.503 157.518C218.356 156.89 219.115 156.144 219.756 155.302L220.8 153.89C222.195 152.012 222.948 149.734 222.948 147.394V143.767C222.947 141.767 222.399 139.807 221.363 138.097L218.69 133.703V103.843C218.691 102.375 218.394 100.921 217.818 99.57L207.139 74.4638C206.326 72.5518 204.984 70.9118 203.27 69.737C201.556 68.5622 199.543 67.9014 197.466 67.8324C185.998 67.4419 163.498 66.766 154.358 67.0814C141.066 67.532 105.423 71.1669 94.7961 72.2709C92.8341 72.4759 90.9905 73.3081 89.539 74.644L57.9967 103.633L26.5972 117.294C25.2866 117.87 24.1289 118.745 23.2162 119.848C22.3035 120.951 21.6611 122.252 21.3401 123.647L18.3811 136.414L17.3973 137.699C15.9415 139.607 15.2868 142.007 15.5724 144.39L16.1807 149.362C16.4691 151.718 17.6588 153.871 19.5001 155.37L19.8907 155.685C21.2421 156.789 22.8814 157.482 24.6145 157.683C24.3441 154.589 24.1188 149.842 24.8999 147.95Z" fill="#00C977"/>
<path d="M44.5317 172.47C53.9677 172.47 61.6171 164.821 61.6171 155.385C61.6171 145.949 53.9677 138.299 44.5317 138.299C35.0957 138.299 27.4463 145.949 27.4463 155.385C27.4463 164.821 35.0957 172.47 44.5317 172.47Z" fill="#263238"/>
<path opacity="0.5" d="M44.5314 167.288C51.1055 167.288 56.4348 161.959 56.4348 155.385C56.4348 148.811 51.1055 143.481 44.5314 143.481C37.9573 143.481 32.6279 148.811 32.6279 155.385C32.6279 161.959 37.9573 167.288 44.5314 167.288Z" fill="white"/>
<g opacity="0.5">
<path d="M40.1151 151.473L39.2889 148.994C39.2021 148.729 39.0474 148.492 38.8404 148.305C38.6333 148.118 38.3811 147.989 38.1086 147.93C37.8361 147.87 37.5529 147.883 37.287 147.967C37.0211 148.051 36.7818 148.203 36.5928 148.408C35.6643 149.459 34.9545 150.685 34.505 152.013C34.4209 152.28 34.4079 152.565 34.4674 152.838C34.5268 153.112 34.6567 153.365 34.8441 153.573C35.0315 153.78 35.2699 153.936 35.5358 154.023C35.8017 154.111 36.0858 154.127 36.36 154.071L38.9134 153.553C39.1363 153.508 39.3472 153.417 39.5319 153.284C39.7166 153.152 39.8709 152.981 39.9846 152.784C40.0983 152.588 40.1688 152.369 40.1913 152.143C40.2138 151.916 40.1878 151.688 40.1151 151.473Z" fill="black"/>
<path d="M45.7329 149.632L47.4602 147.672C47.6468 147.466 47.7759 147.214 47.8349 146.942C47.8938 146.67 47.8804 146.388 47.7961 146.122C47.7117 145.857 47.5594 145.619 47.3542 145.431C47.149 145.243 46.8982 145.112 46.6266 145.051C45.2448 144.761 43.8178 144.761 42.436 145.051C42.1657 145.114 41.9165 145.246 41.7131 145.435C41.5097 145.624 41.3592 145.863 41.2765 146.127C41.1938 146.392 41.1817 146.674 41.2415 146.945C41.3013 147.216 41.4309 147.467 41.6174 147.672L43.3522 149.632C43.5016 149.801 43.6849 149.935 43.8901 150.027C44.0953 150.12 44.3176 150.167 44.5426 150.167C44.7675 150.167 44.9899 150.12 45.1951 150.027C45.4002 149.935 45.5835 149.801 45.7329 149.632Z" fill="black"/>
<path d="M50.1105 153.53L52.6715 154.048C52.9455 154.105 53.2297 154.089 53.4957 154.002C53.7616 153.914 54 153.759 54.187 153.551C54.374 153.342 54.503 153.089 54.5613 152.815C54.6196 152.541 54.6049 152.257 54.5189 151.99C54.0726 150.662 53.3654 149.436 52.4386 148.385C52.2497 148.18 52.0103 148.028 51.7445 147.944C51.4786 147.86 51.1954 147.847 50.9229 147.907C50.6504 147.966 50.3981 148.095 50.1911 148.282C49.9841 148.469 49.8294 148.706 49.7425 148.971L48.9089 151.45C48.8374 151.665 48.8124 151.893 48.8355 152.119C48.8585 152.345 48.9291 152.563 49.0426 152.76C49.1561 152.956 49.31 153.126 49.4941 153.259C49.6781 153.392 49.8882 153.484 50.1105 153.53Z" fill="black"/>
<path d="M48.9089 159.306L49.7425 161.784C49.8294 162.049 49.9841 162.287 50.1911 162.473C50.3981 162.66 50.6504 162.79 50.9229 162.849C51.1954 162.908 51.4786 162.895 51.7445 162.811C52.0103 162.727 52.2497 162.575 52.4386 162.37C53.3654 161.319 54.0726 160.093 54.5189 158.765C54.6049 158.499 54.6196 158.214 54.5613 157.941C54.503 157.667 54.374 157.413 54.187 157.205C54 156.997 53.7616 156.841 53.4957 156.754C53.2297 156.666 52.9455 156.65 52.6715 156.707L50.1105 157.225C49.8882 157.271 49.6781 157.363 49.4941 157.496C49.31 157.629 49.1561 157.799 49.0426 157.996C48.9291 158.192 48.8585 158.411 48.8355 158.636C48.8124 158.862 48.8374 159.09 48.9089 159.306Z" fill="black"/>
<path d="M43.3288 161.145L41.6165 163.105C41.43 163.312 41.301 163.565 41.2425 163.837C41.184 164.109 41.198 164.392 41.2832 164.658C41.3683 164.923 41.5216 165.161 41.7277 165.349C41.9338 165.536 42.1855 165.667 42.4576 165.726C43.8394 166.017 45.2665 166.017 46.6483 165.726C46.9198 165.666 47.1706 165.535 47.3758 165.347C47.581 165.159 47.7334 164.92 47.8177 164.655C47.9021 164.39 47.9154 164.107 47.8565 163.835C47.7976 163.564 47.6684 163.312 47.4819 163.105L45.7546 161.145C45.6051 160.969 45.4192 160.828 45.2098 160.731C45.0004 160.635 44.7724 160.584 44.5417 160.584C44.311 160.584 44.083 160.635 43.8736 160.731C43.6642 160.828 43.4783 160.969 43.3288 161.145Z" fill="black"/>
<path d="M38.9428 157.225L36.3893 156.707C36.1126 156.649 35.8255 156.665 35.557 156.753C35.2884 156.841 35.0479 156.999 34.8598 157.21C34.6716 157.421 34.5425 157.678 34.4853 157.955C34.4282 158.232 34.4451 158.519 34.5343 158.787C34.9838 160.115 35.6936 161.341 36.6221 162.392C36.8111 162.597 37.0504 162.749 37.3163 162.833C37.5822 162.917 37.8654 162.93 38.1379 162.871C38.4104 162.811 38.6626 162.682 38.8697 162.495C39.0767 162.309 39.2314 162.071 39.3183 161.806L40.1444 159.328C40.2209 159.111 40.2499 158.88 40.2293 158.651C40.2087 158.422 40.139 158.201 40.025 158.001C39.9109 157.802 39.7552 157.629 39.5685 157.495C39.3817 157.361 39.1683 157.269 38.9428 157.225Z" fill="black"/>
</g>
<g opacity="0.5">
<path d="M42.9842 154.649C43.428 154.649 43.7878 154.289 43.7878 153.845C43.7878 153.401 43.428 153.042 42.9842 153.042C42.5404 153.042 42.1807 153.401 42.1807 153.845C42.1807 154.289 42.5404 154.649 42.9842 154.649Z" fill="white"/>
<path d="M46.8747 153.845C46.8747 154.004 46.8276 154.159 46.7393 154.292C46.651 154.424 46.5255 154.527 46.3787 154.587C46.2318 154.648 46.0703 154.664 45.9144 154.633C45.7585 154.602 45.6153 154.526 45.5029 154.413C45.3906 154.301 45.314 154.158 45.283 154.002C45.252 153.846 45.2679 153.684 45.3287 153.538C45.3896 153.391 45.4926 153.265 45.6247 153.177C45.7569 153.089 45.9122 153.042 46.0712 153.042C46.2843 153.042 46.4887 153.126 46.6394 153.277C46.7901 153.428 46.8747 153.632 46.8747 153.845Z" fill="white"/>
<path d="M43.7878 156.932C43.7878 157.091 43.7407 157.246 43.6524 157.378C43.5641 157.511 43.4386 157.614 43.2918 157.674C43.1449 157.735 42.9833 157.751 42.8275 157.72C42.6716 157.689 42.5284 157.613 42.416 157.5C42.3036 157.388 42.2271 157.245 42.1961 157.089C42.1651 156.933 42.181 156.771 42.2418 156.624C42.3027 156.478 42.4056 156.352 42.5378 156.264C42.6699 156.176 42.8253 156.128 42.9842 156.128C43.1974 156.128 43.4018 156.213 43.5525 156.364C43.7032 156.514 43.7878 156.719 43.7878 156.932Z" fill="white"/>
<path d="M46.8747 156.932C46.8747 157.091 46.8276 157.246 46.7393 157.378C46.651 157.511 46.5255 157.614 46.3787 157.674C46.2318 157.735 46.0703 157.751 45.9144 157.72C45.7585 157.689 45.6153 157.613 45.5029 157.5C45.3906 157.388 45.314 157.245 45.283 157.089C45.252 156.933 45.2679 156.771 45.3287 156.624C45.3896 156.478 45.4926 156.352 45.6247 156.264C45.7569 156.176 45.9122 156.128 46.0712 156.128C46.2843 156.128 46.4887 156.213 46.6394 156.364C46.7901 156.514 46.8747 156.719 46.8747 156.932Z" fill="white"/>
</g>
<path d="M197.631 172.47C207.067 172.47 214.717 164.821 214.717 155.385C214.717 145.949 207.067 138.299 197.631 138.299C188.195 138.299 180.546 145.949 180.546 155.385C180.546 164.821 188.195 172.47 197.631 172.47Z" fill="#263238"/>
<path opacity="0.5" d="M197.632 167.288C204.206 167.288 209.535 161.959 209.535 155.385C209.535 148.811 204.206 143.481 197.632 143.481C191.058 143.481 185.729 148.811 185.729 155.385C185.729 161.959 191.058 167.288 197.632 167.288Z" fill="white"/>
<g opacity="0.5">
<path d="M193.246 151.473L192.42 148.994C192.333 148.729 192.178 148.492 191.971 148.305C191.764 148.118 191.512 147.989 191.239 147.93C190.967 147.87 190.684 147.883 190.418 147.967C190.152 148.051 189.913 148.203 189.724 148.408C188.795 149.459 188.085 150.685 187.636 152.013C187.552 152.28 187.539 152.565 187.598 152.838C187.658 153.112 187.788 153.365 187.975 153.573C188.162 153.78 188.401 153.936 188.667 154.023C188.933 154.111 189.217 154.127 189.491 154.071L192.044 153.553C192.267 153.508 192.478 153.417 192.663 153.284C192.847 153.152 193.002 152.981 193.115 152.784C193.229 152.588 193.3 152.369 193.322 152.143C193.345 151.916 193.319 151.688 193.246 151.473Z" fill="black"/>
<path d="M198.834 149.632L200.561 147.672C200.748 147.466 200.877 147.214 200.936 146.942C200.995 146.67 200.981 146.388 200.897 146.122C200.812 145.857 200.66 145.619 200.455 145.431C200.25 145.243 199.999 145.112 199.727 145.051C198.346 144.761 196.919 144.761 195.537 145.051C195.265 145.111 195.013 145.241 194.807 145.429C194.601 145.616 194.447 145.854 194.362 146.12C194.277 146.385 194.263 146.668 194.322 146.941C194.38 147.213 194.509 147.465 194.696 147.672L196.43 149.632C196.58 149.804 196.765 149.942 196.972 150.037C197.179 150.131 197.404 150.18 197.632 150.18C197.86 150.18 198.085 150.131 198.292 150.037C198.5 149.942 198.684 149.804 198.834 149.632Z" fill="black"/>
<path d="M203.213 153.53L205.773 154.049C206.041 154.096 206.317 154.075 206.574 153.987C206.831 153.898 207.062 153.746 207.244 153.544C207.426 153.342 207.553 153.096 207.614 152.831C207.675 152.566 207.667 152.29 207.591 152.028C207.145 150.7 206.437 149.475 205.511 148.424C205.322 148.219 205.082 148.067 204.816 147.983C204.551 147.899 204.267 147.885 203.995 147.945C203.722 148.004 203.47 148.133 203.263 148.32C203.056 148.507 202.901 148.744 202.815 149.009L201.981 151.488C201.916 151.703 201.897 151.929 201.925 152.152C201.952 152.375 202.027 152.59 202.143 152.783C202.259 152.975 202.414 153.141 202.598 153.27C202.783 153.399 202.992 153.488 203.213 153.53Z" fill="black"/>
<path d="M202.01 159.306L202.844 161.784C202.931 162.049 203.086 162.287 203.293 162.473C203.5 162.66 203.752 162.789 204.024 162.849C204.297 162.908 204.58 162.895 204.846 162.811C205.112 162.727 205.351 162.575 205.54 162.37C206.454 161.323 207.15 160.105 207.59 158.787C207.676 158.521 207.691 158.237 207.633 157.963C207.575 157.689 207.446 157.436 207.259 157.227C207.072 157.019 206.833 156.863 206.567 156.776C206.301 156.689 206.017 156.673 205.743 156.73L203.182 157.248C202.965 157.298 202.761 157.392 202.582 157.525C202.403 157.657 202.254 157.826 202.144 158.019C202.034 158.213 201.965 158.427 201.942 158.648C201.919 158.87 201.942 159.094 202.01 159.306Z" fill="black"/>
<path d="M196.43 161.145L194.696 163.105C194.509 163.312 194.38 163.565 194.322 163.837C194.263 164.11 194.277 164.393 194.362 164.658C194.447 164.923 194.601 165.161 194.807 165.349C195.013 165.536 195.265 165.667 195.537 165.726C196.919 166.017 198.346 166.017 199.727 165.726C199.999 165.666 200.25 165.535 200.455 165.347C200.66 165.159 200.812 164.92 200.897 164.655C200.981 164.39 200.995 164.107 200.936 163.836C200.877 163.564 200.748 163.312 200.561 163.105L198.834 161.145C198.684 160.973 198.5 160.835 198.292 160.741C198.085 160.647 197.86 160.598 197.632 160.598C197.404 160.598 197.179 160.647 196.972 160.741C196.765 160.835 196.58 160.973 196.43 161.145Z" fill="black"/>
<path d="M192.044 157.225L189.491 156.707C189.217 156.651 188.933 156.667 188.667 156.755C188.401 156.842 188.162 156.997 187.975 157.205C187.788 157.413 187.658 157.666 187.598 157.94C187.539 158.213 187.552 158.498 187.636 158.765C188.085 160.093 188.795 161.319 189.724 162.37C189.913 162.575 190.152 162.727 190.418 162.811C190.684 162.895 190.967 162.908 191.239 162.848C191.512 162.789 191.764 162.66 191.971 162.473C192.178 162.286 192.333 162.049 192.42 161.784L193.246 159.305C193.319 159.09 193.345 158.862 193.322 158.635C193.3 158.409 193.229 158.19 193.115 157.994C193.002 157.797 192.847 157.626 192.663 157.494C192.478 157.361 192.267 157.27 192.044 157.225Z" fill="black"/>
</g>
<g opacity="0.5">
<path d="M196.887 153.845C196.887 154.004 196.84 154.159 196.752 154.291C196.664 154.423 196.538 154.526 196.391 154.587C196.245 154.648 196.083 154.664 195.927 154.633C195.771 154.602 195.628 154.525 195.516 154.413C195.403 154.3 195.327 154.157 195.296 154.001C195.265 153.845 195.281 153.684 195.341 153.537C195.402 153.39 195.505 153.265 195.637 153.176C195.77 153.088 195.925 153.041 196.084 153.041C196.297 153.041 196.501 153.126 196.652 153.276C196.803 153.427 196.887 153.631 196.887 153.845Z" fill="white"/>
<path d="M199.171 154.648C199.615 154.648 199.974 154.288 199.974 153.845C199.974 153.401 199.615 153.041 199.171 153.041C198.727 153.041 198.367 153.401 198.367 153.845C198.367 154.288 198.727 154.648 199.171 154.648Z" fill="white"/>
<path d="M196.887 156.932C196.887 157.09 196.84 157.246 196.752 157.378C196.664 157.51 196.538 157.613 196.391 157.674C196.245 157.735 196.083 157.751 195.927 157.72C195.771 157.689 195.628 157.612 195.516 157.5C195.403 157.387 195.327 157.244 195.296 157.088C195.265 156.932 195.281 156.771 195.341 156.624C195.402 156.477 195.505 156.352 195.637 156.263C195.77 156.175 195.925 156.128 196.084 156.128C196.297 156.128 196.501 156.213 196.652 156.363C196.803 156.514 196.887 156.718 196.887 156.932Z" fill="white"/>
<path d="M199.974 156.932C199.974 157.09 199.927 157.246 199.839 157.378C199.751 157.51 199.625 157.613 199.478 157.674C199.331 157.735 199.17 157.751 199.014 157.72C198.858 157.689 198.715 157.612 198.603 157.5C198.49 157.387 198.414 157.244 198.383 157.088C198.352 156.932 198.368 156.771 198.428 156.624C198.489 156.477 198.592 156.352 198.724 156.263C198.856 156.175 199.012 156.128 199.171 156.128C199.384 156.128 199.588 156.213 199.739 156.363C199.89 156.514 199.974 156.718 199.974 156.932Z" fill="white"/>
</g>
<path d="M88.5618 79.5032C89.1434 78.9694 89.4915 78.2281 89.5309 77.4397C89.5702 76.6513 89.2976 75.8791 88.7721 75.29L57.9207 103.626L57.0195 104.016C57.0796 104.091 57.1247 104.166 57.1923 104.241C57.7312 104.828 58.4809 105.176 59.2766 105.21C60.0722 105.244 60.8488 104.96 61.4355 104.422L88.5618 79.5032Z" fill="#263238"/>
<path opacity="0.5" d="M22.504 138.299C22.456 138.299 22.4085 138.289 22.3645 138.27C22.3205 138.251 22.281 138.223 22.2485 138.188C22.216 138.152 22.1912 138.111 22.1757 138.065C22.1602 138.02 22.1544 137.971 22.1585 137.924L23.593 123.324C23.5983 123.273 23.615 123.223 23.6419 123.179C23.6687 123.135 23.7051 123.098 23.7483 123.07C23.7915 123.042 23.8405 123.024 23.8915 123.017C23.9426 123.01 23.9946 123.015 24.0436 123.031L25.3503 123.467C26.1397 123.716 26.8079 124.25 27.2245 124.965C27.6411 125.68 27.7762 126.525 27.6033 127.334L25.8009 135.671C25.6409 136.423 25.2247 137.096 24.6234 137.576C24.0221 138.055 23.273 138.311 22.504 138.299Z" fill="white"/>
<g opacity="0.2">
<path d="M30.6369 128.657C30.634 128.509 30.6602 128.362 30.714 128.224C30.7679 128.086 30.8484 127.96 30.9509 127.853C31.0534 127.747 31.176 127.661 31.3115 127.602C31.4471 127.543 31.593 127.511 31.7409 127.508L210.233 124.045C210.53 124.043 210.817 124.158 211.032 124.364C211.246 124.57 211.372 124.852 211.382 125.149C211.386 125.449 211.271 125.738 211.063 125.953C210.855 126.168 210.57 126.293 210.27 126.298L31.786 129.761C31.6378 129.765 31.4903 129.739 31.352 129.686C31.2137 129.632 31.0875 129.552 30.9806 129.449C30.8737 129.346 30.7882 129.223 30.7293 129.087C30.6703 128.951 30.6389 128.805 30.6369 128.657Z" fill="white"/>
</g>
<path d="M143.311 107.561L176.528 106.982C177.376 106.968 178.212 106.773 178.978 106.41C179.745 106.047 180.425 105.525 180.974 104.878C181.523 104.231 181.927 103.475 182.161 102.659C182.394 101.843 182.45 100.987 182.326 100.148L179.052 77.7984C178.956 77.1649 178.64 76.5855 178.159 76.1623C177.678 75.7391 177.063 75.4993 176.423 75.4853C170.663 75.3501 164.888 75.2524 160.299 75.2524C158.046 75.2524 156.146 75.2524 154.621 75.3275C151.617 75.4327 146.878 75.7706 141.329 76.2363C140.682 76.2889 140.077 76.5719 139.622 77.0337C139.167 77.4955 138.893 78.1053 138.85 78.7521L137.296 101.185C137.239 102.006 137.352 102.831 137.63 103.606C137.907 104.382 138.342 105.091 138.907 105.69C139.472 106.289 140.155 106.765 140.913 107.087C141.671 107.409 142.488 107.57 143.311 107.561Z" fill="#263238"/>
<path d="M209.963 102.334L199.449 77.7006C199.252 77.2349 198.927 76.8353 198.51 76.5491C198.093 76.263 197.603 76.1022 197.098 76.086C195.258 76.0259 192.915 75.9433 190.272 75.8682C189.874 75.855 189.479 75.9293 189.114 76.0859C188.749 76.2424 188.422 76.4773 188.158 76.7739C187.894 77.0706 187.698 77.4217 187.584 77.8025C187.47 78.1832 187.442 78.5843 187.5 78.9774L190.842 101.508C191.064 102.936 191.794 104.237 192.898 105.17C194.001 106.104 195.405 106.609 196.85 106.592L207.094 106.419C207.772 106.424 208.433 106.206 208.976 105.799C209.518 105.392 209.913 104.818 210.098 104.166C210.246 103.556 210.198 102.915 209.963 102.334Z" fill="#263238"/>
<path d="M127.457 77.4753C115.291 78.6168 102.944 79.8935 97.6873 80.4793C95.9856 80.6555 94.3865 81.3774 93.1287 82.537L74.7065 99.4572C73.9183 100.191 73.3709 101.146 73.1365 102.196C72.9021 103.247 72.9917 104.344 73.3935 105.343C73.7953 106.342 74.4904 107.195 75.3871 107.791C76.2838 108.386 77.3401 108.696 78.4165 108.68L123.064 107.929C124.556 107.904 125.984 107.32 127.066 106.292C128.149 105.264 128.805 103.868 128.907 102.379L130.409 80.3816C130.439 79.9884 130.383 79.5933 130.244 79.224C130.106 78.8547 129.889 78.52 129.608 78.2432C129.327 77.9665 128.989 77.7544 128.617 77.6218C128.246 77.4892 127.85 77.4391 127.457 77.4753Z" fill="#263238"/>
<path d="M178.435 113.373L170.677 113.523C170.382 113.529 170.102 113.651 169.895 113.861C169.689 114.072 169.573 114.355 169.573 114.65C169.573 114.8 169.603 114.948 169.661 115.086C169.719 115.225 169.804 115.35 169.911 115.455C170.018 115.56 170.145 115.642 170.284 115.697C170.424 115.753 170.572 115.78 170.722 115.777L178.48 115.626C178.775 115.62 179.056 115.499 179.262 115.288C179.469 115.078 179.584 114.795 179.584 114.5C179.584 114.35 179.554 114.202 179.496 114.063C179.438 113.925 179.353 113.8 179.246 113.695C179.139 113.59 179.012 113.508 178.873 113.452C178.734 113.397 178.585 113.37 178.435 113.373Z" fill="#263238"/>
<path d="M124.01 115.574C124.01 115.424 123.98 115.276 123.922 115.138C123.864 114.999 123.779 114.874 123.672 114.769C123.565 114.664 123.438 114.582 123.299 114.527C123.16 114.471 123.011 114.444 122.861 114.447L115.103 114.598C114.808 114.604 114.527 114.725 114.321 114.936C114.115 115.146 113.999 115.429 113.999 115.724C113.999 115.874 114.029 116.022 114.087 116.161C114.145 116.299 114.23 116.424 114.337 116.529C114.444 116.634 114.571 116.716 114.71 116.772C114.849 116.827 114.998 116.854 115.148 116.851L122.906 116.701C123.201 116.697 123.483 116.576 123.69 116.365C123.897 116.154 124.012 115.869 124.01 115.574Z" fill="#263238"/>
<g opacity="0.2">
<path d="M24.8998 147.95C25.7271 146.187 26.8047 144.553 28.0991 143.099L18.704 143.279C18.0697 143.288 17.4475 143.104 16.9203 142.751C16.3931 142.399 15.9858 141.894 15.7525 141.304C15.5211 142.316 15.4652 143.36 15.5873 144.39L16.1956 149.362C16.4841 151.718 17.6737 153.872 19.5151 155.37L19.9056 155.685C21.257 156.789 22.8963 157.482 24.6294 157.683C24.344 154.589 24.1187 149.843 24.8998 147.95Z" fill="black"/>
<path d="M176.527 159.358C176.294 156.271 176.137 152.013 176.865 150.233C178.074 147.274 181.889 142.896 185.449 140.042L61.2627 142.453C62.876 144.859 64.1923 147.451 65.183 150.173C65.6936 151.78 65.5434 155.64 65.3782 158.186L176.527 159.358Z" fill="black"/>
<path d="M217.151 152.464C217.485 154.126 217.597 155.826 217.481 157.518C218.334 156.891 219.093 156.145 219.734 155.302L220.778 153.891C222.173 152.012 222.926 149.734 222.926 147.394V143.767C222.925 141.768 222.377 139.807 221.341 138.097L220.357 136.512C220.307 137.284 219.972 138.01 219.417 138.548C218.862 139.087 218.126 139.4 217.353 139.426L209.175 139.584C212.659 143.307 215.37 147.685 217.151 152.464Z" fill="black"/>
</g>
<g opacity="0.2">
<path d="M72.1904 148.843C72.1904 148.445 72.3487 148.063 72.6304 147.781C72.912 147.499 73.2941 147.341 73.6924 147.341L169.288 145.456C169.686 145.456 170.068 145.614 170.35 145.896C170.632 146.178 170.79 146.56 170.79 146.958C170.79 147.356 170.632 147.738 170.35 148.02C170.068 148.302 169.686 148.46 169.288 148.46L73.6474 150.315C73.262 150.304 72.8958 150.144 72.6246 149.87C72.3534 149.596 72.198 149.229 72.1904 148.843Z" fill="white"/>
</g>
<path opacity="0.6" d="M79.956 94.606L74.6989 99.4274C73.8991 100.159 73.3415 101.117 73.1008 102.174C72.86 103.231 72.9476 104.336 73.3517 105.342C73.7558 106.348 74.4572 107.206 75.3622 107.803C76.2673 108.399 77.3328 108.705 78.4164 108.68H79.971L79.956 94.606Z" fill="black"/>
<path d="M87.1352 95.86H84.4842C83.8468 95.86 83.2355 96.1132 82.7848 96.5639C82.3341 97.0146 82.081 97.6259 82.081 98.2632V101.958L77.665 102.814C77.3979 102.865 77.1571 103.008 76.9842 103.218C76.8114 103.428 76.7175 103.691 76.7188 103.963V105.007C76.7177 105.198 76.7634 105.385 76.8517 105.554C76.9401 105.723 77.0685 105.867 77.2256 105.975C77.3828 106.082 77.5639 106.149 77.7531 106.171C77.9423 106.192 78.1338 106.166 78.3109 106.096L82.524 104.467C82.7915 104.866 83.1729 105.177 83.6187 105.358C84.0646 105.538 84.5545 105.581 85.0249 105.48L87.5258 104.925C87.904 104.838 88.2418 104.627 88.4845 104.324C88.7272 104.021 88.8604 103.645 88.8625 103.257V97.5648C88.8626 97.339 88.8177 97.1155 88.7306 96.9072C88.6436 96.6988 88.516 96.5099 88.3553 96.3513C88.1946 96.1927 88.004 96.0676 87.7945 95.9833C87.5851 95.8989 87.361 95.857 87.1352 95.86Z" fill="#00C977"/>
<path d="M140.742 67.5717L140.598 68.0555L140.467 68.4655C140.377 68.7402 140.278 68.9944 140.18 69.2568C139.983 69.7693 139.77 70.2695 139.536 70.7656C139.081 71.752 138.568 72.7104 137.999 73.6356C137.716 74.0989 137.417 74.5458 137.113 74.9927C136.81 75.4396 136.486 75.8701 136.146 76.2924C135.478 77.1461 134.762 77.9607 134.001 78.7319L133.841 78.8959C133.621 79.1222 133.359 79.3044 133.071 79.433C132.216 79.8067 131.288 79.9792 130.356 79.9373C129.545 79.8934 128.749 79.706 128.003 79.3838C127.378 79.1198 126.788 78.7811 126.244 78.3752C125.756 78.019 125.295 77.6285 124.862 77.2067C124.077 76.4206 123.369 75.5611 122.747 74.6401C122.443 74.1973 122.165 73.7422 121.898 73.283C121.632 72.8238 121.402 72.3646 121.152 71.8357C120.989 71.4911 120.951 71.1003 121.044 70.7307C121.138 70.3611 121.358 70.0358 121.666 69.8106C121.973 69.5854 122.35 69.4744 122.73 69.4968C123.111 69.5192 123.472 69.6736 123.751 69.9333L123.858 70.0317L124.858 70.9501C125.199 71.2617 125.547 71.561 125.896 71.848C126.555 72.4078 127.254 72.9203 127.987 73.3814C128.559 73.7632 129.195 74.0408 129.864 74.2014C130.035 74.2494 130.215 74.2494 130.385 74.2014C130.441 74.1763 130.488 74.133 130.516 74.0784L129.573 74.7918C130.094 74.0866 130.598 73.3732 131.062 72.6352C131.525 71.8972 131.968 71.1346 132.382 70.3679C132.796 69.6012 133.177 68.8099 133.53 68.0186C133.71 67.6086 133.87 67.2232 134.034 66.8296L134.444 65.7554L134.559 65.4602C134.886 64.704 135.486 64.0986 136.239 63.7646C136.993 63.4305 137.844 63.3922 138.624 63.6572C139.404 63.9223 140.056 64.4713 140.45 65.1951C140.844 65.9189 140.951 66.7644 140.75 67.5635L140.742 67.5717Z" fill="#263238"/>
<path d="M122.312 71.8563L119.54 70.8928L118.958 67.0962C118.958 67.0962 123.603 68.3262 123.583 70.5648L122.312 71.8563Z" fill="#CE7A63"/>
<path d="M138.637 52.0778C136.829 51.4423 134.332 49.2775 135.312 46.4772C136.059 44.3534 138.822 44.1648 139.908 44.8003C140.995 45.4358 141.04 44.132 142.43 43.6318C143.82 43.1316 144.8 44.3903 145.505 45.0504C146.21 45.7105 147.034 45.2103 148.08 45.2554C149.125 45.3005 149.871 46.6699 149.289 47.6703C148.264 49.4251 149.958 50.5403 148.674 51.9097C146.784 53.8982 148.264 55.8498 145.599 57.8301C143.98 59.0437 139.38 56.8174 138.637 52.0778Z" fill="#263238"/>
<path d="M138.605 53.9308C138.538 53.9709 138.462 53.9948 138.384 54.0005C138.248 54.0119 138.113 53.9691 138.009 53.8816C137.904 53.794 137.839 53.6688 137.826 53.5331C137.736 52.7194 137.842 51.8959 138.136 51.1319C138.43 50.3678 138.903 49.6854 139.515 49.142C139.568 49.0998 139.629 49.0686 139.694 49.0502C139.76 49.0319 139.828 49.0268 139.895 49.0352C139.962 49.0436 140.027 49.0653 140.086 49.0992C140.145 49.133 140.196 49.1782 140.237 49.2322C140.279 49.2849 140.31 49.3454 140.329 49.4102C140.348 49.4751 140.353 49.5429 140.346 49.61C140.338 49.677 140.317 49.7419 140.285 49.8009C140.252 49.8599 140.208 49.9118 140.155 49.9538C139.676 50.3897 139.308 50.9337 139.082 51.5407C138.856 52.1476 138.778 52.7998 138.855 53.4429C138.864 53.5395 138.844 53.6365 138.8 53.7227C138.756 53.809 138.688 53.8811 138.605 53.9308Z" fill="#263238"/>
<path d="M135.657 63.4715C135.657 63.4715 132.02 72.7785 135.472 90.1215H151.958C152.073 87.5918 150.482 75.2467 152.922 63.3239C151.099 62.9734 149.256 62.7406 147.403 62.6269C145.07 62.4915 142.73 62.4915 140.396 62.6269C138.797 62.7838 137.212 63.0662 135.657 63.4715Z" fill="white"/>
<path d="M146.711 54.71C146.269 56.965 145.83 61.0978 147.404 62.6025C147.404 62.6025 144.764 64.7427 141.988 66.9075C141.375 66.3875 140.906 65.7181 140.627 64.9639C140.349 64.2097 140.269 63.3963 140.397 62.6025C142.911 62.0039 142.857 60.1425 142.41 58.3836L146.711 54.71Z" fill="#CE7A63"/>
<path opacity="0.2" d="M144.96 56.2227L142.414 58.3957C142.523 58.7984 142.595 59.21 142.631 59.6257C143.451 60.4047 144.911 58.4326 145.013 57.4281C145.068 57.0263 145.049 56.6181 144.96 56.2227Z" fill="black"/>
<path d="M146.682 50.9174C146.797 53.976 147.018 55.7595 145.641 57.4774C143.562 60.0522 139.675 59.0313 138.65 56.067C137.728 53.402 137.695 48.851 140.552 47.3504C141.179 47.0163 141.881 46.8478 142.592 46.8611C143.302 46.8743 143.997 47.0688 144.611 47.4262C145.225 47.7835 145.738 48.2918 146.1 48.9028C146.462 49.5138 146.663 50.2073 146.682 50.9174Z" fill="#CE7A63"/>
<path d="M146.6 53.7465C145.76 55.3865 144.792 50.2 145.038 49.3349C142.066 50.1549 137.507 49.8843 137.859 47.8097C138.269 45.4686 140.992 45.3784 144.009 45.6654C148.991 46.1451 147.511 51.9671 146.6 53.7465Z" fill="#263238"/>
<path d="M145.128 54.0377C145.051 54.0422 144.973 54.0281 144.903 53.9967C144.84 53.9696 144.784 53.9304 144.737 53.8815C144.69 53.8326 144.653 53.7749 144.628 53.7117C144.604 53.6484 144.592 53.581 144.593 53.5131C144.594 53.4452 144.609 53.3783 144.636 53.3161C144.946 52.5588 145.434 51.8869 146.057 51.3569C146.681 50.8268 147.422 50.454 148.22 50.2698C148.353 50.2459 148.49 50.2755 148.601 50.3523C148.713 50.4291 148.789 50.5469 148.814 50.6798C148.836 50.8127 148.805 50.9489 148.729 51.0597C148.652 51.1705 148.536 51.2475 148.404 51.2743C147.773 51.4303 147.188 51.735 146.699 52.163C146.21 52.5909 145.83 53.1297 145.591 53.7343C145.552 53.8246 145.487 53.9014 145.405 53.9553C145.323 54.0092 145.227 54.0379 145.128 54.0377Z" fill="#263238"/>
<path d="M148.208 53.0699C148.046 53.8066 147.62 54.4585 147.01 54.9026C146.211 55.4602 145.58 54.7755 145.6 53.812C145.621 52.9469 146.063 51.6185 146.957 51.4463C147.851 51.2741 148.409 52.1638 148.208 53.0699Z" fill="#CE7A63"/>
<path d="M133.8 167.611C133.419 167.706 133.038 167.743 132.874 167.611C132.832 167.573 132.803 167.522 132.791 167.466C132.779 167.41 132.785 167.352 132.808 167.3C132.822 167.253 132.846 167.209 132.877 167.172C132.909 167.134 132.948 167.104 132.993 167.083C133.456 166.824 134.633 167.16 134.686 167.177C134.701 167.181 134.714 167.189 134.724 167.202C134.734 167.214 134.739 167.229 134.739 167.245C134.739 167.26 134.734 167.275 134.724 167.287C134.714 167.3 134.701 167.308 134.686 167.312C134.4 167.437 134.103 167.537 133.8 167.611ZM133.193 167.148C133.148 167.159 133.104 167.175 133.062 167.197C133.035 167.21 133.011 167.229 132.991 167.251C132.972 167.274 132.957 167.3 132.947 167.329C132.915 167.431 132.947 167.468 132.968 167.488C133.152 167.648 133.907 167.468 134.444 167.251C134.038 167.136 133.613 167.102 133.193 167.148Z" fill="#263238"/>
<path d="M134.681 167.304H134.653C134.243 167.234 133.39 166.763 133.365 166.41C133.365 166.328 133.394 166.213 133.583 166.148C133.717 166.102 133.864 166.111 133.993 166.172C134.444 166.39 134.71 167.177 134.722 167.21C134.729 167.221 134.733 167.233 134.733 167.247C134.733 167.26 134.729 167.272 134.722 167.283C134.711 167.294 134.697 167.301 134.681 167.304ZM133.673 166.271H133.632C133.505 166.312 133.509 166.365 133.513 166.381C133.513 166.595 134.128 166.98 134.546 167.111C134.434 166.781 134.222 166.495 133.939 166.291C133.855 166.255 133.761 166.248 133.673 166.271Z" fill="#263238"/>
<path d="M139.162 168.28L136.075 168.735L136.174 161.659L139.261 161.208L139.162 168.28Z" fill="#CE7A63"/>
<path d="M135.612 166.906H139.659C139.718 166.905 139.776 166.925 139.822 166.964C139.867 167.002 139.897 167.056 139.905 167.115L140.315 169.842C140.323 169.91 140.316 169.98 140.296 170.045C140.275 170.111 140.241 170.172 140.195 170.223C140.149 170.275 140.093 170.316 140.03 170.344C139.968 170.372 139.9 170.387 139.831 170.387C138.621 170.367 136.883 170.297 135.362 170.297C133.586 170.297 131.992 170.391 129.909 170.391C128.65 170.391 128.416 169.198 128.937 169.006C131.266 168.132 132.512 167.985 134.87 167.144C135.102 167.024 135.353 166.944 135.612 166.906Z" fill="#263238"/>
<path opacity="0.2" d="M136.173 161.663L136.12 165.308L139.212 164.852L139.265 161.208L136.173 161.663Z" fill="black"/>
<path d="M137.58 167.124C137.559 165.816 137.969 163.713 134.71 165C132.766 165.763 135.403 168.005 135.403 168.005L137.58 167.124Z" fill="#263238"/>
<path d="M135.473 90.1092C135.473 90.1092 133.833 114.943 134.296 123.774C134.747 132.142 135.002 155.881 135.059 162.109C135.061 162.299 135.104 162.485 135.184 162.657C135.264 162.829 135.379 162.981 135.523 163.105C135.666 163.229 135.834 163.321 136.016 163.374C136.197 163.428 136.388 163.443 136.576 163.417L138.757 163.122C139.048 163.082 139.318 162.948 139.526 162.74C139.733 162.532 139.866 162.261 139.905 161.97C141.316 150.978 142.992 134.02 143.357 124.943C143.767 114.582 146.318 90.0928 146.318 90.0928L135.473 90.1092Z" fill="#40FFB3"/>
<path opacity="0.2" d="M135.473 90.1092C135.473 90.1092 133.833 114.943 134.296 123.774C134.747 132.142 135.002 155.881 135.059 162.109C135.061 162.299 135.104 162.485 135.184 162.657C135.264 162.829 135.379 162.981 135.523 163.105C135.666 163.229 135.834 163.321 136.016 163.374C136.197 163.428 136.388 163.443 136.576 163.417L138.757 163.122C139.048 163.082 139.318 162.948 139.526 162.74C139.733 162.532 139.866 162.261 139.905 161.97C141.316 150.978 142.992 134.02 143.357 124.943C143.767 114.582 146.318 90.0928 146.318 90.0928L135.473 90.1092Z" fill="white"/>
<path d="M156.055 167.206C155.698 167.366 155.329 167.472 155.14 167.362C155.092 167.332 155.055 167.288 155.033 167.235C155.012 167.183 155.008 167.125 155.022 167.07C155.026 167.021 155.041 166.973 155.066 166.93C155.091 166.886 155.124 166.849 155.165 166.82C155.575 166.484 156.805 166.607 156.846 166.611C156.861 166.612 156.875 166.618 156.887 166.628C156.899 166.637 156.907 166.65 156.912 166.665C156.915 166.679 156.914 166.694 156.909 166.708C156.903 166.721 156.895 166.733 156.883 166.742C156.621 166.921 156.344 167.076 156.055 167.206ZM155.374 166.857C155.332 166.878 155.292 166.902 155.255 166.931C155.23 166.948 155.209 166.971 155.193 166.997C155.178 167.023 155.168 167.052 155.165 167.083C155.165 167.185 155.19 167.222 155.214 167.234C155.423 167.362 156.133 167.046 156.625 166.742C156.204 166.7 155.78 166.739 155.374 166.857Z" fill="#263238"/>
<path d="M156.85 166.751C156.44 166.751 155.514 166.443 155.427 166.099C155.407 166.021 155.427 165.902 155.596 165.804C155.657 165.768 155.725 165.745 155.795 165.737C155.866 165.728 155.937 165.734 156.006 165.754C156.489 165.89 156.895 166.611 156.912 166.644C156.918 166.655 156.921 166.668 156.921 166.681C156.921 166.694 156.918 166.707 156.912 166.718C156.904 166.727 156.895 166.735 156.884 166.74C156.874 166.746 156.862 166.75 156.85 166.751ZM155.673 165.931H155.637C155.522 165.996 155.534 166.045 155.538 166.062C155.591 166.267 156.252 166.542 156.686 166.599C156.518 166.292 156.259 166.046 155.944 165.894C155.859 165.871 155.77 165.878 155.69 165.914L155.673 165.931Z" fill="#263238"/>
<path d="M161.631 166.931L158.72 167.919L156.789 161.076L159.696 160.088L161.631 166.931Z" fill="#CE7A63"/>
<path opacity="0.2" d="M143.123 98.9897C142.275 102.389 142.5 116.513 143.378 124.475C143.587 119.814 144.177 112.626 144.776 106.025L143.123 98.9897Z" fill="black"/>
<path d="M157.601 166.259L161.586 165.541C161.646 165.529 161.707 165.539 161.761 165.568C161.814 165.597 161.855 165.644 161.877 165.701L162.923 168.284C162.948 168.347 162.959 168.414 162.955 168.482C162.951 168.549 162.931 168.615 162.898 168.674C162.865 168.733 162.819 168.784 162.764 168.823C162.708 168.862 162.645 168.888 162.578 168.899C161.385 169.096 159.655 169.334 158.158 169.604C156.412 169.92 156.399 170.014 154.349 170.391C153.119 170.617 152.591 169.498 153.054 169.215C155.137 167.952 154.796 167.866 156.912 166.628C157.118 166.465 157.351 166.34 157.601 166.259Z" fill="#263238"/>
<path opacity="0.2" d="M156.789 161.08L157.785 164.606L160.696 163.618L159.7 160.092L156.789 161.08Z" fill="black"/>
<path d="M141.323 90.1092C141.323 90.1092 143.447 114.947 145.083 123.774C146.657 132.269 153.779 156.468 155.878 161.966C156 162.287 156.242 162.548 156.552 162.696C156.862 162.843 157.217 162.865 157.543 162.757L159.646 162.072C159.955 161.971 160.217 161.761 160.382 161.481C160.547 161.201 160.605 160.871 160.544 160.551C158.453 149.756 155.124 133.979 154.296 124.943C153.349 114.582 151.959 90.0928 151.959 90.0928L141.323 90.1092Z" fill="#40FFB3"/>
<path opacity="0.2" d="M141.323 90.1092C141.323 90.1092 143.447 114.947 145.083 123.774C146.657 132.269 153.779 156.468 155.878 161.966C156 162.287 156.242 162.548 156.552 162.696C156.862 162.843 157.217 162.865 157.543 162.757L159.646 162.072C159.955 161.971 160.217 161.761 160.382 161.481C160.547 161.201 160.605 160.871 160.544 160.551C158.453 149.756 155.124 133.979 154.296 124.943C153.349 114.582 151.959 90.0928 151.959 90.0928L141.323 90.1092Z" fill="white"/>
<path d="M142.16 52.2214C142.185 52.4715 142.074 52.6847 141.91 52.7011C141.746 52.7175 141.598 52.5289 141.574 52.2911C141.549 52.0533 141.66 51.8319 141.824 51.8155C141.988 51.7991 142.135 51.9754 142.16 52.2214Z" fill="#263238"/>
<path d="M139.364 52.5001C139.389 52.7461 139.278 52.9593 139.114 52.9757C138.95 52.9921 138.802 52.8035 138.778 52.5657C138.753 52.3279 138.864 52.1024 139.028 52.086C139.192 52.0696 139.34 52.25 139.364 52.5001Z" fill="#263238"/>
<path d="M140.266 52.5327C140.045 53.3189 139.717 54.0708 139.29 54.7672C139.471 54.871 139.673 54.934 139.881 54.9517C140.09 54.9694 140.299 54.9414 140.495 54.8697L140.266 52.5327Z" fill="#BA4D3C"/>
<path d="M141.27 55.485C141.251 55.4862 141.232 55.48 141.218 55.4678C141.203 55.4556 141.194 55.4382 141.192 55.4194C141.191 55.4097 141.192 55.3999 141.194 55.3905C141.197 55.3811 141.201 55.3723 141.208 55.3647C141.214 55.3571 141.221 55.3507 141.23 55.346C141.238 55.3414 141.248 55.3384 141.258 55.3374C141.566 55.3145 141.864 55.219 142.129 55.0587C142.393 54.8984 142.616 54.6778 142.779 54.4149C142.787 54.3976 142.803 54.3844 142.821 54.3783C142.839 54.3722 142.86 54.3735 142.877 54.3821C142.894 54.3916 142.906 54.4069 142.912 54.425C142.918 54.4432 142.917 54.4629 142.91 54.4805C142.737 54.767 142.498 55.0077 142.212 55.1825C141.927 55.3573 141.604 55.461 141.27 55.485Z" fill="#263238"/>
<path d="M142.91 51.2373C142.888 51.2391 142.865 51.2361 142.844 51.2283C142.822 51.2205 142.803 51.2082 142.787 51.1922C142.668 51.0508 142.517 50.9398 142.347 50.8685C142.176 50.7972 141.991 50.7676 141.807 50.7822C141.769 50.7882 141.73 50.7791 141.699 50.7569C141.668 50.7347 141.646 50.7011 141.639 50.6633C141.636 50.6444 141.636 50.625 141.64 50.6063C141.644 50.5875 141.652 50.5698 141.663 50.5541C141.674 50.5384 141.688 50.5251 141.705 50.515C141.721 50.5049 141.739 50.4981 141.758 50.4952C141.986 50.4712 142.217 50.5022 142.431 50.5857C142.645 50.6691 142.836 50.8026 142.988 50.9749C143.002 50.9883 143.014 51.0045 143.021 51.0225C143.029 51.0405 143.033 51.0598 143.033 51.0794C143.033 51.099 143.029 51.1184 143.021 51.1364C143.014 51.1544 143.002 51.1706 142.988 51.184C142.968 51.209 142.941 51.2275 142.91 51.2373Z" fill="#263238"/>
<path d="M138.011 51.631C137.989 51.6353 137.967 51.6353 137.945 51.631C137.91 51.6149 137.883 51.5857 137.869 51.5497C137.855 51.5137 137.856 51.4737 137.872 51.4383C137.96 51.2248 138.099 51.0357 138.276 50.8866C138.453 50.7375 138.663 50.6329 138.888 50.5814C138.909 50.5744 138.93 50.5718 138.951 50.574C138.973 50.5761 138.993 50.5828 139.012 50.5937C139.03 50.6046 139.046 50.6194 139.058 50.637C139.07 50.6547 139.079 50.6748 139.082 50.6959C139.086 50.717 139.085 50.7387 139.079 50.7594C139.074 50.7801 139.064 50.7993 139.05 50.8157C139.036 50.8321 139.019 50.8454 139 50.8545C138.98 50.8636 138.959 50.8683 138.938 50.8684C138.759 50.9119 138.594 50.997 138.455 51.1167C138.316 51.2364 138.207 51.3874 138.138 51.5572C138.125 51.5799 138.107 51.5987 138.085 51.6116C138.062 51.6246 138.037 51.6313 138.011 51.631Z" fill="#263238"/>
<path d="M147.83 62.0898C149.437 62.0898 153.312 62.1759 153.689 63.6109C154.066 65.0459 153.652 67.3706 153.14 68.7359C153.894 70.8187 153.652 73.8937 152.935 74.8531C153.722 77.1737 153.209 78.8834 152.73 79.7034C153.107 80.6259 153.447 83.2581 152.869 84.5537C153.345 86.3987 153.89 89.4737 153.037 90.0928C151.877 90.9128 148.79 91.3228 146.608 90.8062C144.427 90.2896 145.284 85.8862 145.452 84.8612C144.497 83.5984 145.522 79.8059 145.522 79.8059C145.042 78.7481 145.76 74.7834 145.76 74.7834C145.182 73.8281 145.932 68.6334 145.932 68.6334C145.309 67.592 145.038 62.0898 147.83 62.0898Z" fill="#263238"/>
<path d="M136.026 63.0452C137.289 62.4876 141.52 61.4749 140.7 62.5901C139.511 64.2096 140.241 65.9152 139.535 67.9201C140.159 69.8348 139.945 72.9631 139.367 74.0701C139.881 75.6762 139.829 77.4096 139.22 78.9819C139.527 79.8019 139.81 82.3726 139.33 83.7994C139.74 85.5378 140.052 89.0433 139.33 89.8346C138.811 90.4067 138.123 90.7983 137.365 90.9524C136.608 91.1065 135.822 91.0151 135.12 90.6915C134.115 90.2815 133.668 86.9277 134.164 85.7715C133.189 83.6436 133.984 80.4907 133.984 80.4907C133.041 78.8507 133.771 75.4108 133.771 75.4108C132.836 72.3604 133.984 68.9861 133.984 68.9861C133.48 68.0718 134.013 63.9349 136.026 63.0452Z" fill="#263238"/>
<path d="M138.81 63.4224C138.642 63.2979 138.506 63.136 138.411 62.9496C138.316 62.7632 138.266 62.5573 138.265 62.3482C138.262 62.2081 138.286 62.0687 138.337 61.9381C138.388 61.8075 138.464 61.6882 138.561 61.5872C138.659 61.4862 138.775 61.4054 138.903 61.3496C139.032 61.2937 139.17 61.2638 139.31 61.2617C139.79 61.3016 140.257 61.4412 140.68 61.6717C141.324 61.9874 141.561 62.2785 141.59 62.7541C141.619 63.2297 140.446 64.9025 139.802 64.5048C139.159 64.1071 139.171 63.8324 138.81 63.4224Z" fill="#263238"/>
<path opacity="0.2" d="M151.25 69.2852C151.57 67.9035 152.381 68.0265 153.189 68.5923L153.132 68.7522C153.886 70.835 153.644 73.91 152.927 74.8694C152.972 75.0006 153.013 75.1318 153.05 75.2794C152.045 74.2954 150.651 71.8928 151.25 69.2852Z" fill="black"/>
<path d="M151.389 72.6597L148.663 73.9061L148.396 82.7129L140.987 87.4853L149.282 90.4619L151.533 98.9776L154.263 97.7353L155.788 83.8445L151.389 72.6597Z" fill="#C5A033"/>
<path d="M168.453 91.2575L165.722 92.5039L156.924 92.0119L160.606 89.5273L168.453 91.2575Z" fill="#40FFB3"/>
<path opacity="0.3" d="M168.453 91.2575L165.722 92.5039L156.924 92.0119L160.606 89.5273L168.453 91.2575Z" fill="black"/>
<path d="M151.389 72.6597L158.219 78.2275L166.678 75.7593L163.492 83.9757L168.453 91.2573L159.654 90.7653L154.263 97.7353L152.008 89.2155L143.718 86.2389L151.122 81.4665L151.389 72.6597Z" fill="#FFC107"/>
<path d="M155.682 90.1668L155.62 92.9507L158.9 92.7662C158.9 92.7662 159.343 91.0237 157.457 89.8101L155.682 90.1668Z" fill="#CE7A63"/>
<path d="M156.674 95.7386L158.945 94.4307L158.904 92.7661L155.62 92.9506L156.674 95.7386Z" fill="#CE7A63"/>
<path d="M153.8 63.5292C154.066 63.7752 154.267 63.9638 154.488 64.1811C154.71 64.3984 154.898 64.5911 155.128 64.8207C155.538 65.2512 155.948 65.694 156.358 66.1409C157.16 67.0582 157.914 68.0162 158.617 69.0109C159.36 70.0503 160.02 71.1471 160.589 72.2909C161.275 73.6152 161.714 75.0531 161.885 76.5344C161.91 76.7536 161.922 76.974 161.922 77.1945V77.5389V77.7767L161.852 78.7074C161.778 79.3183 161.704 79.9374 161.602 80.5155C161.412 81.685 161.163 82.8441 160.856 83.9882C160.266 86.2378 159.484 88.4325 158.519 90.5482C158.361 90.9046 158.082 91.1931 157.731 91.3623C157.38 91.5315 156.98 91.5702 156.603 91.4716C156.227 91.3729 155.897 91.1433 155.674 90.8239C155.451 90.5044 155.349 90.116 155.386 89.7282V89.6626C155.563 87.4978 155.796 85.292 155.915 83.1518C155.997 82.0776 156.03 81.0157 156.055 79.9784C156.055 79.4577 156.055 78.9493 156.055 78.4409L156.022 77.7029V77.5225V77.4446C156.013 77.3865 156.001 77.329 155.985 77.2724C155.772 76.5511 155.463 75.8616 155.066 75.2224C154.567 74.4049 154.019 73.6176 153.426 72.8649C152.807 72.0777 152.143 71.2946 151.454 70.5238C151.11 70.1384 150.753 69.7612 150.401 69.3799L149.868 68.8182L149.363 68.2975L149.281 68.2114C148.697 67.5963 148.373 66.7784 148.379 65.9297C148.385 65.0811 148.719 64.2677 149.312 63.6604C149.905 63.0532 150.71 62.6994 151.558 62.6734C152.407 62.6474 153.232 62.9513 153.861 63.521L153.8 63.5292Z" fill="#263238"/>
<path d="M149.06 63.0616C149.47 63.0042 149.577 62.0448 149.249 61.4216C148.982 60.9091 148.019 60.9788 147.158 61.2002C146.465 61.3546 145.802 61.6205 145.194 61.9874C144.325 62.4671 144.64 63.0452 144.841 63.5003C145.042 63.9554 145.424 65.0009 146.244 64.4474C147.064 63.8939 148.486 63.1477 149.06 63.0616Z" fill="#263238"/>
<path d="M159.401 166.078C159.339 164.77 159.684 162.659 156.465 164.028C154.542 164.848 157.244 167.013 157.244 167.013L159.401 166.078Z" fill="#263238"/>
<path d="M119.089 64.1399H123.493C123.615 64.1443 123.733 64.1859 123.831 64.2592C123.929 64.3324 124.003 64.4338 124.042 64.5499L126.346 72.7499C126.361 72.7977 126.365 72.8483 126.356 72.8976C126.348 72.947 126.327 72.9936 126.297 73.0337C126.267 73.0737 126.228 73.106 126.183 73.128C126.138 73.1499 126.089 73.1609 126.039 73.1599H121.631C121.51 73.1535 121.393 73.1111 121.296 73.0381C121.199 72.9651 121.126 72.8647 121.086 72.7499L118.782 64.5499C118.766 64.5021 118.762 64.4511 118.77 64.4014C118.778 64.3516 118.798 64.3046 118.828 64.2643C118.858 64.224 118.898 64.1916 118.943 64.1699C118.989 64.1483 119.039 64.1379 119.089 64.1399Z" fill="#40FFB3"/>
<path d="M121.488 69.6668L120.565 66.4565L118.958 67.0961L119.54 70.8927L121.488 69.6668Z" fill="#CE7A63"/>
<path opacity="0.3" d="M123.845 64.4351C123.889 64.4377 123.93 64.4537 123.964 64.4808C123.998 64.508 124.022 64.545 124.034 64.5868L126.342 72.7499C126.349 72.7667 126.352 72.7851 126.35 72.8033C126.348 72.8214 126.341 72.8388 126.33 72.8536C126.32 72.8684 126.305 72.8802 126.289 72.8879C126.272 72.8956 126.254 72.8989 126.236 72.8975C126.193 72.8957 126.151 72.8805 126.118 72.8541C126.084 72.8276 126.059 72.7911 126.047 72.7499L123.747 64.5745C123.743 64.5587 123.742 64.5422 123.745 64.5262C123.748 64.5101 123.754 64.4949 123.763 64.4816C123.773 64.4683 123.785 64.4572 123.799 64.4492C123.813 64.4411 123.829 64.4363 123.845 64.4351Z" fill="black"/>
<path d="M69.7531 32.2832H66.6494V32.6932H69.7531V32.2832Z" fill="#7B89AA"/>
<path d="M55.1698 36.9326H54.7598C54.7608 35.7034 55.2482 34.5245 56.1155 33.6534C56.9827 32.7823 58.1595 32.2897 59.3887 32.2832H64.9647V32.6932H59.3887C58.2682 32.6997 57.1958 33.1491 56.4054 33.9433C55.615 34.7375 55.1708 35.8121 55.1698 36.9326Z" fill="#7B89AA"/>
<path d="M107.798 33.7183H59.389C57.616 33.7183 56.1787 35.1556 56.1787 36.9286V44.899C56.1787 46.672 57.616 48.1093 59.389 48.1093H107.798C109.571 48.1093 111.008 46.672 111.008 44.899V36.9286C111.008 35.1556 109.571 33.7183 107.798 33.7183Z" fill="#7B89AA"/>
<path d="M77.0435 39.8731L77.3004 40.393L77.4168 40.6284L77.6767 40.6662L78.2506 40.7497L77.8349 41.1535L77.6459 41.3371L77.6905 41.5968L77.7893 42.1719L77.2763 41.9019L77.0435 41.7794L76.8106 41.9019L76.2976 42.1719L76.3964 41.5968L76.4411 41.3371L76.252 41.1535L75.8363 40.7497L76.4102 40.6662L76.6701 40.6284L76.7865 40.393L77.0435 39.8731Z" fill="#FFC107" stroke="#C5A033"/>
<path d="M83.4478 39.8731L83.7047 40.393L83.8211 40.6284L84.081 40.6662L84.6549 40.7497L84.2392 41.1535L84.0501 41.3371L84.0948 41.5968L84.1936 42.1719L83.6806 41.9019L83.4478 41.7794L83.2149 41.9019L82.7019 42.1719L82.8007 41.5968L82.8454 41.3371L82.6563 41.1535L82.2406 40.7497L82.8145 40.6662L83.0744 40.6284L83.1908 40.393L83.4478 39.8731Z" fill="#FFC107" stroke="#C5A033"/>
<path d="M89.8521 39.8731L90.109 40.393L90.2254 40.6284L90.4853 40.6662L91.0614 40.75L90.6469 41.1541L90.4592 41.3371L90.503 41.5956L90.6008 42.1734L90.0849 41.9019L89.8521 41.7794L89.6192 41.9019L89.1062 42.1719L89.205 41.5968L89.2497 41.3371L89.0606 41.1535L88.6449 40.7497L89.2188 40.6662L89.4787 40.6284L89.5951 40.393L89.8521 39.8731Z" fill="#FFC107" stroke="#C5A033"/>
<path d="M96.2564 39.8731L96.5133 40.393L96.6297 40.6284L96.8896 40.6662L97.4657 40.75L97.0512 41.1541L96.8635 41.3371L96.9073 41.5956L97.0051 42.1734L96.4892 41.9019L96.2564 41.7794L96.0235 41.9019L95.5105 42.1719L95.6093 41.5968L95.654 41.3371L95.4649 41.1535L95.0492 40.7497L95.6231 40.6662L95.883 40.6284L95.9994 40.393L96.2564 39.8731Z" fill="#FFC107" stroke="#C5A033"/>
<path opacity="0.3" d="M102.66 39.6715L102.996 40.3562C103.026 40.4157 103.07 40.4669 103.124 40.5055C103.179 40.544 103.242 40.5688 103.308 40.5776L104.062 40.6883L103.517 41.2213C103.469 41.2674 103.434 41.3243 103.413 41.3871C103.392 41.4499 103.387 41.5169 103.398 41.5821L103.525 42.3365L102.853 42.0003C102.792 41.9715 102.727 41.9561 102.66 41.9552C102.594 41.955 102.53 41.9704 102.471 42.0003L101.795 42.357L101.91 41.5903C101.92 41.5251 101.915 41.4581 101.894 41.3953C101.874 41.3325 101.838 41.2756 101.791 41.2295L101.245 40.6965L102 40.5858C102.068 40.5779 102.132 40.5531 102.188 40.5137C102.244 40.4743 102.289 40.4216 102.32 40.3603L102.656 39.6756M102.656 38.749L101.951 40.1758L100.372 40.4054L101.516 41.5206L101.245 43.0909L102.656 42.3488L104.066 43.0909L103.796 41.5206L104.939 40.4054L103.361 40.1758L102.656 38.749Z" fill="white"/>
<path opacity="0.2" d="M66.178 45.8379C68.8975 45.8379 71.1021 43.6334 71.1021 40.9138C71.1021 38.1943 68.8975 35.9897 66.178 35.9897C63.4585 35.9897 61.2539 38.1943 61.2539 40.9138C61.2539 43.6334 63.4585 45.8379 66.178 45.8379Z" fill="white"/>
<path d="M70.2456 40.9137C70.2466 41.8184 69.9457 42.6976 69.3904 43.412C68.8352 44.1263 68.0574 44.6349 67.1803 44.8571C66.3033 45.0793 65.3772 45.0024 64.5488 44.6386C63.7204 44.2748 63.0371 43.645 62.6073 42.8489C62.2824 42.2557 62.1131 41.5899 62.1153 40.9137C62.1488 39.8579 62.5918 38.8565 63.3505 38.1215C64.1092 37.3866 65.1241 36.9756 66.1804 36.9756C67.2367 36.9756 68.2516 37.3866 69.0103 38.1215C69.769 38.8565 70.212 39.8579 70.2456 40.9137Z" fill="white"/>
<path d="M104.46 83.73H96.2559V84.14H104.46V83.73Z" fill="#7B89AA"/>
<path d="M107.798 68.314H59.389C57.616 68.314 56.1787 69.7513 56.1787 71.5243V79.4947C56.1787 81.2677 57.616 82.705 59.389 82.705H107.798C109.571 82.705 111.008 81.2677 111.008 79.4947V71.5243C111.008 69.7513 109.571 68.314 107.798 68.314Z" fill="#7B89AA"/>
<path d="M57.3216 75.2009L54.2923 76.7866L50.4225 77.3459C50.4225 77.3459 49.2117 78.5114 50.8896 80.6549C52.5675 82.7983 53.8251 83.4983 54.3861 83.4983C54.947 83.4983 57.4574 82.6124 57.8809 82.3328C58.3044 82.0531 61.3304 79.8159 61.3304 79.8159C61.3304 79.8159 62.7319 80.7486 64.8333 79.2097C66.9348 77.6709 72.4308 73.1043 72.4308 73.1043C72.4308 73.1043 73.2229 72.5903 72.7104 71.5654C72.198 70.5406 70.7513 69.5141 69.7264 69.1407C68.7016 68.7673 67.3486 69.2345 66.9784 69.4204C66.6082 69.6063 58.4935 73.384 58.4935 73.384C58.4935 73.384 57.0419 73.8964 57.3216 75.2009Z" fill="white" stroke="#263238" stroke-miterlimit="10"/>
<path d="M64.3243 78.5249C64.3185 78.7923 64.239 79.053 64.0947 79.2782" stroke="#263238" stroke-miterlimit="10"/>
<path d="M58.8711 73.4902C58.8711 73.4902 61.2004 73.5678 62.7894 75.4106C63.5524 76.2981 63.9969 77.0546 64.1974 77.6834" stroke="#263238" stroke-miterlimit="10"/>
<path d="M57.6914 75.0024L58.9215 74.5659C58.9215 74.5659 60.6108 74.6694 61.7116 75.7443C62.8124 76.8193 62.8641 78.1012 62.7623 78.5101L61.6097 79.5091" stroke="#263238" stroke-miterlimit="10"/>
<path d="M55.0801 76.9741C55.0801 76.9741 57.1346 78.2883 57.82 78.8945C58.3146 79.3309 58.2565 80.9167 58.2565 80.9167" stroke="#263238" stroke-miterlimit="10"/>
<path d="M50.4719 77.8795C50.4146 77.9301 50.3683 77.9919 50.3361 78.0612C50.3038 78.1305 50.2862 78.2057 50.2844 78.282C50.2782 78.8846 50.418 79.4797 50.6917 80.0165C51.2365 81.1238 53.645 82.8825 54.0152 83.0232C54.3854 83.1638 54.6311 82.9359 54.7362 82.3556C54.8412 81.7752 54.3078 80.183 53.7873 79.6997C53.5529 79.4831 51.9122 78.3305 51.1605 77.8294C51.0564 77.7603 50.9323 77.7278 50.8076 77.7368C50.683 77.7459 50.5649 77.7961 50.4719 77.8795Z" fill="#263238" stroke="#263238" stroke-miterlimit="10"/>
<path d="M54.443 79.9275L57.6339 79.2033L62.1018 76.562C62.1018 76.562 62.4251 76.2807 61.7123 75.7408C61.3975 75.4843 61.0574 75.2606 60.6971 75.0732L56.2308 77.7113L57.2944 78.4355L53.6768 79.2438C53.9481 79.4531 54.2042 79.6816 54.443 79.9275Z" fill="#263238"/>
<path d="M72.7053 71.5659C72.4094 70.9759 71.8065 70.3875 71.1518 69.922C71.0453 69.899 70.9351 69.899 70.8285 69.922C70.5311 70.0077 61.8086 74.4756 61.8086 74.4756C63.042 75.2838 64.0199 77.1978 64.0199 77.1978C64.0199 77.1978 72.5258 71.4609 72.7053 71.5659Z" fill="#263238"/>
<path d="M77.0435 74.4675L77.3002 74.9884L77.4168 75.225L77.678 75.2623L78.2506 75.3441L77.8342 75.75L77.6459 75.9337L77.6905 76.1929L77.7888 76.7634L77.2763 76.4937L77.0435 76.3712L76.8106 76.4937L76.2981 76.7634L76.3964 76.1929L76.4411 75.9337L76.2527 75.75L75.8363 75.3441L76.409 75.2623L76.6701 75.225L76.7868 74.9884L77.0435 74.4675Z" fill="#FFC107" stroke="#C5A033"/>
<path d="M83.4478 74.4675L83.7045 74.9884L83.8211 75.225L84.0823 75.2623L84.6549 75.3441L84.2385 75.75L84.0501 75.9337L84.0948 76.1929L84.1931 76.7634L83.6806 76.4937L83.4478 76.3712L83.2149 76.4937L82.7024 76.7634L82.8007 76.1929L82.8454 75.9337L82.657 75.75L82.2406 75.3441L82.8133 75.2623L83.0744 75.225L83.1911 74.9884L83.4478 74.4675Z" fill="#FFC107" stroke="#C5A033"/>
<path d="M89.8521 74.4675L90.1088 74.9884L90.2254 75.225L90.4865 75.2623L91.0615 75.3444L90.6463 75.7506L90.4592 75.9337L90.503 76.1917L90.6003 76.7649L90.0849 76.4937L89.8521 76.3712L89.6192 76.4937L89.1067 76.7634L89.205 76.1929L89.2497 75.9337L89.0613 75.75L88.6449 75.3441L89.2176 75.2623L89.4787 75.225L89.5953 74.9884L89.8521 74.4675Z" fill="#FFC107" stroke="#C5A033"/>
<path d="M96.2564 74.4675L96.5131 74.9884L96.6297 75.225L96.8908 75.2623L97.4657 75.3444L97.0506 75.7506L96.8635 75.9337L96.9073 76.1917L97.0046 76.7649L96.4892 76.4937L96.2564 76.3712L96.0235 76.4937L95.511 76.7634L95.6093 76.1929L95.654 75.9337L95.4656 75.75L95.0492 75.3441L95.6219 75.2623L95.883 75.225L95.9997 74.9884L96.2564 74.4675Z" fill="#FFC107" stroke="#C5A033"/>
<path d="M102.66 74.4675L102.916 74.9884L103.033 75.225L103.294 75.2623L103.869 75.3444L103.454 75.7506L103.267 75.9337L103.311 76.1917L103.408 76.7649L102.892 76.4937L102.66 76.3712L102.427 76.4937L101.914 76.7634L102.013 76.1929L102.057 75.9337L101.869 75.75L101.453 75.3441L102.025 75.2623L102.286 75.225L102.403 74.9884L102.66 74.4675Z" fill="#FFC107" stroke="#C5A033"/>
<path d="M107.798 51.0161H59.389C57.616 51.0161 56.1787 52.4534 56.1787 54.2264V62.1968C56.1787 63.9698 57.616 65.4071 59.389 65.4071H107.798C109.571 65.4071 111.008 63.9698 111.008 62.1968V54.2264C111.008 52.4534 109.571 51.0161 107.798 51.0161Z" fill="#7B89AA"/>
<path d="M109.519 59.4414L106.075 65.4069H114.685L109.519 59.4414Z" fill="#7B89AA"/>
<path d="M77.0435 57.1696L77.3002 57.6905L77.4164 57.9264L77.6767 57.9643L78.2506 58.0477L77.8349 58.4515L77.6458 58.6352L77.6905 58.8951L77.7888 59.4656L77.2763 59.1959L77.0435 59.0734L76.8106 59.1959L76.2981 59.4656L76.3964 58.8951L76.4412 58.6352L76.252 58.4515L75.8363 58.0477L76.4102 57.9643L76.6705 57.9264L76.7868 57.6905L77.0435 57.1696Z" fill="#FFC107" stroke="#C5A033"/>
<path d="M83.4478 57.1696L83.7045 57.6905L83.8207 57.9264L84.081 57.9643L84.6549 58.0477L84.2392 58.4515L84.05 58.6352L84.0948 58.8951L84.1931 59.4656L83.6806 59.1959L83.4478 59.0734L83.2149 59.1959L82.7024 59.4656L82.8007 58.8951L82.8455 58.6352L82.6563 58.4515L82.2406 58.0477L82.8145 57.9643L83.0748 57.9264L83.1911 57.6905L83.4478 57.1696Z" fill="#FFC107" stroke="#C5A033"/>
<path opacity="0.3" d="M89.8513 56.965L90.1875 57.6497C90.217 57.7099 90.2609 57.7619 90.3152 57.8012C90.3695 57.8406 90.4327 57.8659 90.4991 57.8752L91.2494 57.99L90.7041 58.523C90.6566 58.5691 90.621 58.626 90.6003 58.6888C90.5796 58.7516 90.5744 58.8185 90.5852 58.8838L90.7123 59.6382L90.0399 59.2815C89.9807 59.2495 89.9145 59.2326 89.8472 59.2323C89.7811 59.2321 89.7161 59.249 89.6586 59.2815L88.9821 59.6382L89.1092 58.8838C89.1199 58.8185 89.1147 58.7516 89.094 58.6888C89.0733 58.626 89.0377 58.5691 88.9903 58.523L88.445 57.99L89.1994 57.8793C89.2658 57.87 89.3289 57.8447 89.3833 57.8053C89.4376 57.766 89.4814 57.714 89.511 57.6538L89.8472 56.9691M89.8472 56.0425L89.142 57.4734L87.5635 57.703L88.7074 58.8141L88.4368 60.3844L89.8472 59.6423L91.2576 60.3844L90.987 58.8141L92.1309 57.703L90.5524 57.4734L89.8472 56.0425Z" fill="white"/>
<path opacity="0.3" d="M96.2564 56.9652L96.5926 57.6499C96.6221 57.7101 96.6659 57.7621 96.7203 57.8014C96.7746 57.8407 96.8377 57.8661 96.9042 57.8754L97.6586 57.9861L97.1133 58.5191C97.0658 58.5652 97.0302 58.622 97.0095 58.6849C96.9888 58.7477 96.9836 58.8146 96.9944 58.8799L97.1215 59.6343L96.4491 59.2776C96.3898 59.2456 96.3237 59.2287 96.2564 59.2284C96.1903 59.2282 96.1253 59.2451 96.0678 59.2776L95.3913 59.6343L95.5184 58.8799C95.5291 58.8146 95.5239 58.7477 95.5032 58.6849C95.4825 58.622 95.4469 58.5652 95.3995 58.5191L94.8542 57.9861L95.6086 57.8754C95.675 57.8661 95.7381 57.8407 95.7924 57.8014C95.8468 57.7621 95.8906 57.7101 95.9202 57.6499L96.2564 56.9652ZM96.2564 56.0386L95.5512 57.4695L93.9727 57.6991L95.1166 58.8102L94.846 60.3805L96.2564 59.6384L97.6668 60.3805L97.4003 58.8102L98.5442 57.6991L96.9657 57.4695L96.2605 56.0386H96.2564Z" fill="white"/>
<path opacity="0.3" d="M102.66 56.9652L102.996 57.6499C103.025 57.7101 103.069 57.7621 103.124 57.8014C103.178 57.8407 103.241 57.8661 103.307 57.8754L104.062 57.9861L103.517 58.5191C103.469 58.5652 103.434 58.622 103.413 58.6849C103.392 58.7477 103.387 58.8146 103.398 58.8799L103.525 59.6343L102.852 59.2776C102.793 59.2456 102.727 59.2287 102.66 59.2284C102.594 59.2282 102.529 59.2451 102.471 59.2776L101.795 59.6343L101.922 58.8799C101.932 58.8146 101.927 58.7477 101.907 58.6849C101.886 58.622 101.85 58.5652 101.803 58.5191L101.257 57.9861L102.012 57.8754C102.078 57.8661 102.141 57.8407 102.196 57.8014C102.25 57.7621 102.294 57.7101 102.323 57.6499L102.66 56.9652ZM102.66 56.0386L101.954 57.4695L100.376 57.6991L101.52 58.8102L101.249 60.3805L102.66 59.6384L104.07 60.3805L103.799 58.8102L104.943 57.6991L103.365 57.4695L102.66 56.0386Z" fill="white"/>
<path d="M69.8381 51.7808H56.6211V53.6318H69.8381V51.7808Z" fill="#263238" stroke="#263238" stroke-miterlimit="10"/>
<path d="M55.3857 50.9185H53.6377V53.1989H55.3857V50.9185Z" fill="#92E3A9" stroke="#263238" stroke-miterlimit="10"/>
<path d="M63.3633 50.9185H61.6152V53.1989H63.3633V50.9185Z" fill="#92E3A9" stroke="#263238" stroke-miterlimit="10"/>
<path d="M71.1482 54.1855H52.4199V64.3703H71.1482V54.1855Z" fill="white" stroke="#263238" stroke-miterlimit="10"/>
<path d="M71.1511 54.1855H64.2754V64.3703H71.1511V54.1855Z" fill="white" stroke="#263238" stroke-miterlimit="10"/>
<path d="M71.5698 52.8438H52V54.6948H71.5698V52.8438Z" fill="#263238" stroke="#263238" stroke-miterlimit="10"/>
<path d="M71.5698 64.3701H52V65.2957H71.5698V64.3701Z" fill="#263238" stroke="#263238" stroke-miterlimit="10"/>
<path d="M55.1564 56.4663H53.332V56.9987H55.1564V56.4663Z" fill="#263238" stroke="#263238" stroke-miterlimit="10"/>
<path d="M63.4396 56.4663H61.6152V56.9987H63.4396V56.4663Z" fill="#263238" stroke="#263238" stroke-miterlimit="10"/>
<path d="M62.7939 57.6437V55.8193H62.2615V57.6437H62.7939Z" fill="#263238" stroke="#263238" stroke-miterlimit="10"/>
<path d="M63.8635 29.0144H60.5882V29.6557C59.0163 30.3047 57.6724 31.4057 56.7268 32.8191C55.7812 34.2326 55.2764 35.8949 55.2764 37.5955C55.2764 39.2961 55.7812 40.9585 56.7268 42.3719C57.6724 43.7854 59.0163 44.8864 60.5882 45.5353V46.1766H63.8635C66.1413 46.1766 68.3257 45.2718 69.9364 43.6612C71.547 42.0505 72.4518 39.8661 72.4518 37.5883C72.4518 35.3105 71.547 33.1261 69.9364 31.5155C68.3257 29.9048 66.1413 29 63.8635 29V29.0144Z" fill="#263238" stroke="#263238" stroke-miterlimit="10"/>
<path d="M60.5883 46.1913C65.3315 46.1913 69.1766 42.3462 69.1766 37.603C69.1766 32.8598 65.3315 29.0146 60.5883 29.0146C55.8451 29.0146 52 32.8598 52 37.603C52 42.3462 55.8451 46.1913 60.5883 46.1913Z" fill="#878787" stroke="#263238" stroke-miterlimit="10"/>
<path d="M60.5883 45.014C64.6816 45.014 67.9999 41.6958 67.9999 37.6025C67.9999 33.5092 64.6816 30.1909 60.5883 30.1909C56.495 30.1909 53.1768 33.5092 53.1768 37.6025C53.1768 41.6958 56.495 45.014 60.5883 45.014Z" fill="#92E3A9" stroke="#263238" stroke-miterlimit="10"/>
<path d="M62.8393 31.3929L62.1291 34.7308C62.1161 34.7911 62.1215 34.8539 62.1447 34.9111C62.1678 34.9682 62.2076 35.0171 62.2589 35.0514C62.3101 35.0874 62.3712 35.1064 62.4337 35.1059C62.4978 35.1056 62.5603 35.0861 62.6132 35.0498L65.4092 33.0923C64.6981 32.3317 63.8176 31.7495 62.8393 31.3929ZM66.8473 35.4907L63.8012 37.0153C63.7451 37.0432 63.6988 37.0873 63.6682 37.1419C63.6376 37.1965 63.6242 37.2591 63.6297 37.3214C63.6353 37.3838 63.6595 37.443 63.6992 37.4914C63.739 37.5397 63.7924 37.575 63.8525 37.5925L67.1278 38.5544C67.1753 38.236 67.1988 37.9144 67.1984 37.5925C67.1951 36.8797 67.0765 36.1721 66.8473 35.4971V35.4907ZM63.0461 39.7424C62.9984 39.7227 62.9466 39.7149 62.8952 39.7195C62.8438 39.7241 62.7943 39.7411 62.7509 39.7689C62.7075 39.7968 62.6714 39.8347 62.6458 39.8795C62.6201 39.9243 62.6056 39.9746 62.6036 40.0261C62.6037 40.0658 62.6119 40.1051 62.6276 40.1416L63.9102 43.3063C64.8093 42.7805 65.5721 42.0507 66.137 41.1756L63.0461 39.7424ZM60.4473 40.8646C60.4315 40.8051 60.399 40.7514 60.3535 40.7098C60.308 40.6683 60.2515 40.6408 60.1908 40.6305H60.1443C60.089 40.6307 60.0347 40.6457 59.987 40.6739C59.9394 40.7021 59.9002 40.7424 59.8734 40.7909L58.2028 43.7584C59.1717 44.1332 60.2153 44.2743 61.2489 44.1704L60.4473 40.8646ZM57.9784 39.1813C57.9518 39.133 57.9129 39.0927 57.8655 39.0645C57.8182 39.0363 57.7642 39.0213 57.7091 39.0209C57.6925 39.0194 57.6759 39.0194 57.6594 39.0209L54.2926 39.5724C54.6044 40.5668 55.1472 41.4733 55.8766 42.2177L57.9608 39.5211C57.9966 39.4712 58.0173 39.412 58.0204 39.3506C58.0235 39.2892 58.009 39.2282 57.9784 39.1748V39.1813ZM57.6577 36.2041L55.1183 33.9067C54.5336 34.7691 54.1627 35.7583 54.0361 36.7925L57.4477 36.7428C57.5089 36.7405 57.5682 36.7206 57.6184 36.6857C57.6687 36.6508 57.708 36.6021 57.7315 36.5456C57.746 36.5088 57.7536 36.4697 57.7539 36.4302C57.7543 36.3864 57.7453 36.343 57.7276 36.3029C57.7099 36.2628 57.6839 36.227 57.6513 36.1977L57.6577 36.2041ZM57.1383 31.9701L59.3042 34.6057C59.3337 34.6411 59.3704 34.6697 59.4119 34.6896C59.4534 34.7096 59.4987 34.7203 59.5447 34.7212C59.5757 34.7211 59.6066 34.7162 59.6361 34.7067C59.6959 34.6872 59.7486 34.6504 59.7876 34.6011C59.8267 34.5518 59.8504 34.4921 59.8557 34.4294L60.0657 31.021C59.0283 31.1 58.0247 31.4254 57.1383 31.9701Z" fill="#263238" stroke="#263238" stroke-miterlimit="10"/>
<path d="M60.5892 38.693C61.1913 38.693 61.6794 38.205 61.6794 37.6029C61.6794 37.0008 61.1913 36.5127 60.5892 36.5127C59.9871 36.5127 59.499 37.0008 59.499 37.6029C59.499 38.205 59.9871 38.693 60.5892 38.693Z" fill="#92E3A9" stroke="#263238" stroke-miterlimit="10"/>
<path d="M59.1136 37.7887C59.1136 37.6619 59.076 37.5379 59.0055 37.4325C58.9351 37.327 58.8349 37.2448 58.7177 37.1963C58.6006 37.1477 58.4716 37.135 58.3472 37.1598C58.2228 37.1845 58.1086 37.2456 58.0189 37.3353C57.9292 37.425 57.8681 37.5392 57.8434 37.6636C57.8186 37.788 57.8313 37.917 57.8799 38.0341C57.9284 38.1513 58.0106 38.2515 58.1161 38.3219C58.2215 38.3924 58.3455 38.43 58.4723 38.43C58.6424 38.43 58.8055 38.3625 58.9258 38.2422C59.046 38.1219 59.1136 37.9588 59.1136 37.7887Z" fill="#263238" stroke="#263238" stroke-miterlimit="10"/>
<path d="M60.39 35.7961C60.39 35.6692 60.3524 35.5452 60.2819 35.4398C60.2114 35.3343 60.1113 35.2521 59.9941 35.2036C59.8769 35.1551 59.748 35.1424 59.6236 35.1671C59.4992 35.1919 59.3849 35.2529 59.2952 35.3426C59.2056 35.4323 59.1445 35.5466 59.1197 35.671C59.095 35.7954 59.1077 35.9243 59.1562 36.0415C59.2048 36.1586 59.287 36.2588 59.3924 36.3293C59.4979 36.3997 59.6219 36.4373 59.7487 36.4373C59.9188 36.4373 60.0819 36.3698 60.2022 36.2495C60.3224 36.1293 60.39 35.9661 60.39 35.7961Z" fill="#263238" stroke="#263238" stroke-miterlimit="10"/>
<path d="M62.931 36.2643C62.931 36.1375 62.8934 36.0135 62.8229 35.908C62.7525 35.8026 62.6523 35.7204 62.5351 35.6719C62.4179 35.6233 62.289 35.6106 62.1646 35.6354C62.0402 35.6601 61.9259 35.7212 61.8363 35.8109C61.7466 35.9006 61.6855 36.0148 61.6608 36.1392C61.636 36.2636 61.6487 36.3926 61.6973 36.5097C61.7458 36.6269 61.828 36.7271 61.9334 36.7975C62.0389 36.868 62.1629 36.9056 62.2897 36.9056C62.4598 36.9056 62.6229 36.838 62.7432 36.7178C62.8634 36.5975 62.931 36.4344 62.931 36.2643Z" fill="#263238" stroke="#263238" stroke-miterlimit="10"/>
<path d="M63.0189 38.6305C63.0189 38.5037 62.9813 38.3797 62.9108 38.2743C62.8403 38.1688 62.7402 38.0866 62.623 38.0381C62.5058 37.9895 62.3769 37.9768 62.2525 38.0016C62.1281 38.0263 62.0138 38.0874 61.9242 38.1771C61.8345 38.2668 61.7734 38.381 61.7487 38.5054C61.7239 38.6298 61.7366 38.7588 61.7851 38.8759C61.8337 38.9931 61.9159 39.0933 62.0213 39.1637C62.1268 39.2342 62.2508 39.2718 62.3776 39.2718C62.5477 39.2718 62.7108 39.2042 62.8311 39.084C62.9513 38.9637 63.0189 38.8006 63.0189 38.6305Z" fill="#263238" stroke="#263238" stroke-miterlimit="10"/>
<path d="M60.8695 39.5646C60.8695 39.4378 60.8319 39.3138 60.7614 39.2083C60.6909 39.1029 60.5908 39.0207 60.4736 38.9722C60.3564 38.9236 60.2275 38.9109 60.1031 38.9357C59.9787 38.9604 59.8644 39.0215 59.7747 39.1112C59.6851 39.2008 59.624 39.3151 59.5992 39.4395C59.5745 39.5639 59.5872 39.6928 59.6357 39.81C59.6843 39.9272 59.7665 40.0274 59.8719 40.0978C59.9774 40.1683 60.1014 40.2059 60.2282 40.2059C60.3983 40.2059 60.5614 40.1383 60.6816 40.0181C60.8019 39.8978 60.8695 39.7347 60.8695 39.5646Z" fill="#263238" stroke="#263238" stroke-miterlimit="10"/>
</svg>
