<svg width="308" height="218" viewBox="0 0 308 218" fill="none" xmlns="http://www.w3.org/2000/svg">
<path d="M275.112 73.5964C275.112 73.5964 269.51 34.5371 229.457 10.4121C189.403 -13.7127 170.857 10.2941 150.72 20.3095C130.583 30.3247 119.659 16.5391 86.0477 10.0292C52.4362 3.51932 23.3062 68.2353 32.8295 118.783C42.3527 169.33 63.3599 187.328 109.296 198.816C155.231 210.304 182.401 172.394 214.892 179.286C247.383 186.179 286.036 147.503 275.112 73.5964Z" fill="#FFDFDF"/>
<path d="M264.021 99.051C264.161 97.7021 262.752 96.591 261.692 96.4762C261.189 96.4188 260.665 96.5254 260.177 96.2999C259.141 95.8079 258.726 93.9998 257.717 93.4299C256.96 92.9994 256.09 93.3807 255.357 93.8809C254.624 94.3811 253.903 95.0084 253.082 95.0781C252.37 95.1396 251.598 94.7829 250.961 95.2544C250.495 95.6029 250.253 96.3286 249.825 96.755C249.38 97.1276 248.864 97.317 248.341 97.3003C247.82 97.2828 247.301 97.3968 246.811 97.6365C246.339 97.9317 245.948 98.6082 246.045 99.3011L264.021 99.051Z" fill="#EBEBEB"/>
<path d="M90.4416 52.6677C90.5779 51.3188 89.1692 50.2077 88.1119 50.0929C87.606 50.0355 87.0819 50.1421 86.5972 49.9166C85.5612 49.4287 85.1461 47.6165 84.1343 47.0466C83.38 46.6366 82.5105 47.0015 81.7774 47.4976C81.0443 47.9937 80.3203 48.6251 79.5023 48.6948C78.7904 48.7563 78.0179 48.3996 77.3817 48.8711C76.9182 49.2237 76.6759 49.9453 76.2487 50.3717C75.8032 50.7438 75.2876 50.9332 74.7643 50.917C74.2481 50.9009 73.7343 51.0164 73.2496 51.2573C72.777 51.5484 72.3862 52.2249 72.4831 52.8973L90.4416 52.6677Z" fill="#EBEBEB"/>
<path d="M81.4472 76.6608C81.6744 74.4304 79.3478 72.5977 77.5998 72.405C76.7667 72.3148 75.9003 72.487 75.1096 72.1139C73.398 71.2939 72.7164 68.3132 71.0441 67.362C69.796 66.6486 68.3601 67.2841 67.1513 68.1082C65.9426 68.9323 64.7278 69.9696 63.3918 70.0885C62.2164 70.1869 60.938 69.5965 59.911 70.3755C59.1446 70.9536 58.7417 72.1508 58.0358 72.856C57.3299 73.5612 56.4423 73.676 55.585 73.7539C54.7277 73.8318 53.837 73.8318 53.0554 74.3156C52.2738 74.7994 51.6286 75.9146 51.7922 77.0585L81.4472 76.6608Z" fill="#F5F5F5"/>
<path d="M58.0721 157.808C58.0721 157.808 56.1817 158.841 58.375 164.266C60.5683 169.69 62.0406 172.363 62.0406 172.363C62.0406 172.363 62.4344 173.626 61.6437 173.855C60.8531 174.085 59.099 173.765 58.7688 175.085C58.4386 176.406 59.1839 177.726 60.6895 178.8C62.1951 179.874 65.4305 182.4 65.7213 182.629C66.0122 182.859 66.303 183.449 65.7819 183.708C65.2609 183.966 61.3408 184.675 61.6952 187.172C62.0497 189.669 66.5938 191.76 67.0876 191.982C67.5814 192.203 67.6935 192.494 67.6723 192.863C67.6511 193.232 66.306 193.294 65.1973 193.552C64.0885 193.81 62.8343 194.372 63.1282 195.79C63.422 197.209 66.1576 200.116 72.6648 200.751L75.6942 200.776L77.2756 197.254C80.3232 189.44 79.9445 184.766 79.2114 183.679C78.4782 182.593 77.4604 183.732 76.7121 184.868C75.9638 186.004 75.2156 187.504 74.9702 187.349C74.7248 187.193 74.6157 186.906 74.7278 186.213C74.8399 185.52 75.9396 179.19 74.5733 177.459C73.2071 175.729 70.6987 179.87 70.2443 180.321C69.7899 180.772 69.5899 180.128 69.599 179.682C69.6081 179.235 69.7384 174.175 69.8595 171.892C69.9807 169.608 69.5899 168.058 68.5478 167.722C67.5057 167.386 66.8119 169.579 66.2515 170.37C65.6911 171.162 65.1064 170.038 65.1064 170.038C65.1064 170.038 64.2188 166.914 61.9679 161.543C59.717 156.172 58.0296 157.853 58.0296 157.853" fill="#EBEBEB"/>
<path d="M75.8732 201.735C74.2312 197.783 71.4018 190.69 68.9479 184.618C66.4941 178.546 64.2735 173.052 62.6467 169.087C61.8318 167.111 61.1744 165.508 60.717 164.397L60.1929 163.118L60.0596 162.785L60.0142 162.671C60.0328 162.705 60.05 162.74 60.0657 162.777L60.208 163.105C60.3353 163.4 60.511 163.827 60.7473 164.372C61.2168 165.471 61.8833 167.066 62.7043 169.042C64.3462 172.999 66.5789 178.472 69.0328 184.556C71.4866 190.641 74.304 197.726 75.9308 201.69" fill="#E0E0E0"/>
<path d="M61.1987 175.668C61.2713 175.681 61.3425 175.706 61.4108 175.742C61.5441 175.795 61.738 175.877 61.9773 175.988C62.4559 176.205 63.1073 176.529 63.8252 176.906L65.6429 177.874L66.2003 178.165C66.27 178.192 66.3371 178.231 66.4003 178.279C66.3279 178.267 66.2568 178.243 66.1882 178.21C66.0519 178.156 65.858 178.07 65.6217 177.96C65.1461 177.734 64.4947 177.398 63.7798 177.025L61.944 176.074L61.3987 175.77C61.3293 175.747 61.2622 175.712 61.1987 175.668Z" fill="#E0E0E0"/>
<path d="M66.6152 178.009C66.591 178.009 67.0242 176.147 67.5846 173.872C68.1451 171.596 68.6207 169.772 68.6449 169.772C68.6692 169.772 68.236 171.633 67.6755 173.909C67.1151 176.184 66.6395 178.021 66.6152 178.009Z" fill="#E0E0E0"/>
<path d="M70.0718 187.566C70.1024 187.473 70.1421 187.386 70.1899 187.308L70.5353 186.631C70.8382 186.057 71.226 185.266 71.644 184.368C72.0621 183.47 72.4226 182.646 72.6801 182.043L72.9831 181.33C73.0162 181.239 73.0569 181.154 73.1042 181.076C73.0836 181.173 73.054 181.267 73.0164 181.354C72.9528 181.531 72.8588 181.764 72.7377 182.088C72.4953 182.703 72.1318 183.54 71.7258 184.438C71.3199 185.336 70.8958 186.123 70.5898 186.684C70.4353 186.963 70.3081 187.185 70.2202 187.336C70.1767 187.42 70.1269 187.497 70.0718 187.566Z" fill="#E0E0E0"/>
<path d="M64.8247 186.906C64.8942 186.896 64.9642 186.896 65.0337 186.906L65.5942 186.947C66.0668 186.988 66.7211 187.049 67.4452 187.127C68.1692 187.205 68.8205 187.283 69.2931 187.349L69.8535 187.427C69.9223 187.434 69.9903 187.45 70.0565 187.476C69.988 187.485 69.919 187.485 69.8505 187.476L69.287 187.435C68.8145 187.394 68.1601 187.328 67.4361 187.25C66.712 187.172 66.0607 187.095 65.5881 187.033L65.0307 186.951C64.961 186.947 64.8919 186.932 64.8247 186.906Z" fill="#E0E0E0"/>
<path d="M67.0845 195.86C67.1721 195.849 67.2604 195.849 67.348 195.86L68.069 195.909C68.6749 195.954 69.5171 196.028 70.4411 196.114C71.365 196.2 72.2072 196.291 72.8131 196.36L73.5311 196.45C73.62 196.455 73.7083 196.471 73.7946 196.5C73.706 196.51 73.6167 196.51 73.5281 196.5L72.8192 196.455C72.2133 196.409 71.3711 196.336 70.4441 196.245C69.5171 196.155 68.681 196.073 68.0751 196.004L67.3571 195.913C67.2653 195.906 67.1741 195.888 67.0845 195.86Z" fill="#E0E0E0"/>
<path d="M73.6372 196.426C73.6772 196.31 73.7249 196.199 73.7796 196.094C73.8886 195.868 74.028 195.573 74.1946 195.216C74.546 194.47 75.0277 193.441 75.5367 192.285C76.0456 191.129 76.4849 190.067 76.7999 189.296L77.1725 188.382C77.2156 188.267 77.2653 188.158 77.321 188.054C77.2878 188.174 77.2494 188.292 77.2059 188.406C77.1271 188.628 77.009 188.948 76.8575 189.337C76.5545 190.124 76.1274 191.194 75.6154 192.351C75.1034 193.507 74.6157 194.532 74.2522 195.266C74.0674 195.631 73.9189 195.922 73.8099 196.123C73.7592 196.231 73.7015 196.332 73.6372 196.426Z" fill="#E0E0E0"/>
<path d="M255.03 74.2418C255.209 72.487 253.382 71.0438 252.001 70.8962C251.346 70.8224 250.665 70.9577 250.044 70.6666C248.699 70.0311 248.162 67.6777 246.848 66.9315C245.866 66.3698 244.727 66.87 243.785 67.5178C242.843 68.1656 241.894 68.9815 240.831 69.0717C239.922 69.1537 238.904 68.6863 238.105 69.2972C237.499 69.7564 237.196 70.6953 236.629 71.2488C236.063 71.8023 235.378 71.9048 234.703 71.954C234.027 72.0032 233.33 72.0155 232.718 72.3968C232.106 72.7781 231.594 73.6555 231.722 74.5534L255.03 74.2418Z" fill="#F5F5F5"/>
<path d="M252.313 181.1C252.652 181.386 252.946 181.761 253.176 182.203C253.406 182.645 253.568 183.146 253.652 183.675C253.815 184.735 253.797 185.832 253.597 186.881C253.258 188.931 252.225 190.87 251.174 192.379C250.013 190.674 249.932 187.988 249.962 186.639C249.995 184.479 251.028 180.604 252.334 181.117" fill="#F5F5F5"/>
<path d="M252.376 195.999C252.336 195.397 252.415 194.791 252.604 194.243C252.793 193.695 253.085 193.225 253.452 192.879C253.823 192.543 254.239 192.31 254.677 192.194C255.115 192.078 255.566 192.081 256.003 192.203C256.208 192.23 256.407 192.317 256.585 192.459C256.763 192.6 256.915 192.793 257.033 193.023C257.115 193.26 257.149 193.522 257.13 193.782C257.112 194.042 257.043 194.291 256.93 194.503C256.695 194.926 256.381 195.257 256.021 195.462C254.833 196.241 253.576 196.692 252.361 196.004" fill="#F5F5F5"/>
<path d="M250.474 200.542C250.61 199.594 250.874 198.688 251.253 197.869C251.491 197.347 251.755 196.847 252.043 196.373C252.573 195.501 253.254 194.82 254.025 194.388C254.259 194.267 254.501 194.178 254.749 194.122C254.84 194.099 254.933 194.099 255.024 194.122C255.024 194.163 254.64 194.22 254.07 194.556C253.337 195.019 252.689 195.697 252.174 196.541C251.892 197.009 251.629 197.498 251.386 198.005C251.18 198.409 251.005 198.842 250.865 199.296C250.755 199.723 250.625 200.139 250.474 200.542Z" fill="#E0E0E0"/>
<path d="M251.719 184.142C251.734 184.374 251.734 184.607 251.719 184.839C251.719 185.29 251.68 185.938 251.64 186.738C251.562 188.341 251.438 190.551 251.253 192.986C251.068 195.421 250.859 197.627 250.68 199.214C250.589 200.005 250.514 200.649 250.453 201.088C250.43 201.319 250.394 201.548 250.344 201.772C250.342 201.539 250.356 201.305 250.386 201.075C250.432 200.587 250.489 199.956 250.559 199.189C250.704 197.599 250.898 195.397 251.08 192.966C251.262 190.534 251.404 188.361 251.519 186.725C251.574 185.959 251.619 185.323 251.653 184.835C251.66 184.602 251.683 184.37 251.719 184.142Z" fill="#E0E0E0"/>
<path d="M250.377 196.504C250.194 195.255 249.793 194.083 249.209 193.084C248.625 192.086 247.873 191.291 247.017 190.764C246.578 190.501 246.011 190.354 245.666 190.788C245.321 191.223 245.417 192.018 245.602 192.609C246.008 193.845 246.674 194.89 247.518 195.615C248.361 196.339 249.344 196.71 250.343 196.68" fill="#F5F5F5"/>
<path d="M247.36 192.58C247.36 192.58 247.454 192.621 247.605 192.736C247.757 192.851 247.972 193.031 248.229 193.269C248.913 193.88 249.508 194.657 249.983 195.561C250.237 196.07 250.427 196.633 250.547 197.225C250.64 197.711 250.684 198.212 250.677 198.714C250.672 199.048 250.644 199.382 250.595 199.71C250.586 199.832 250.561 199.951 250.523 200.063C250.489 200.063 250.565 199.542 250.553 198.714C250.543 198.23 250.489 197.749 250.392 197.283C250.269 196.717 250.082 196.18 249.838 195.692C249.372 194.812 248.806 194.038 248.16 193.4C247.882 193.147 247.615 192.873 247.36 192.58Z" fill="#E0E0E0"/>
<path d="M285.048 202.055C285.048 202.117 225.822 202.162 152.776 202.162C79.7311 202.162 20.4883 202.117 20.4883 202.055C20.4883 201.994 79.7023 201.948 152.776 201.948C225.85 201.948 285.048 202.01 285.048 202.055Z" fill="#263238"/>
<path d="M106.728 134.811H113.627C114.045 134.811 114.447 134.977 114.742 135.272C115.038 135.567 115.204 135.968 115.204 136.385V141.018H105.734C105.242 141.018 104.77 140.823 104.422 140.476C104.073 140.128 103.878 139.657 103.878 139.165V137.64C103.882 136.888 104.184 136.169 104.718 135.639C105.252 135.109 105.975 134.811 106.728 134.811Z" fill="#696D7D"/>
<path d="M205.872 141.014H196.397V136.381C196.397 135.964 196.564 135.563 196.859 135.268C197.155 134.973 197.556 134.807 197.974 134.807H204.874C205.629 134.807 206.354 135.107 206.889 135.64C207.423 136.174 207.724 136.898 207.724 137.652V139.161C207.724 139.652 207.529 140.123 207.181 140.47C206.834 140.817 206.363 141.013 205.872 141.014Z" fill="#696D7D"/>
<path d="M122.325 178.164H104.56V201.928H122.325V178.164Z" fill="#263238"/>
<path d="M208.142 178.164H190.377V201.928H208.142V178.164Z" fill="#263238"/>
<path d="M106.63 146.439L111.796 142.298L119.968 119.899C121.2 117.111 123.533 113.52 128.945 112.974L185.239 113.47C186.799 113.485 188.317 113.974 189.59 114.872C190.864 115.77 191.833 117.035 192.369 118.497L199.687 138.497L201.691 143.04L206.459 146.373C207.361 147.001 208.097 147.838 208.606 148.812C209.114 149.785 209.379 150.867 209.378 151.965L211.313 160.862C211.437 161.437 211.472 162.028 211.415 162.613L209.362 184.052C209.362 184.052 209.124 189.952 202.98 189.952H111.028C111.028 189.952 105.118 190.19 104.17 183.343C103.685 179.837 102.203 162.096 102.203 162.096C102.272 157.632 104.047 154.147 104.075 151.461C104.105 150.488 104.349 149.533 104.79 148.665C105.232 147.797 105.86 147.037 106.63 146.439Z" fill="#696D7D"/>
<g opacity="0.3">
<path d="M102.855 169.714C103.562 169.891 210.758 169.53 210.758 169.53L209.44 183.507C209.44 186.988 206.635 190.104 203.148 190.104H111.36C106.876 190.104 104.145 186.676 104.1 182.773L102.855 169.714Z" fill="black"/>
</g>
<path d="M107.02 148.936L127.397 151.396V163.327C127.397 163.327 105.221 162.748 103.878 159.755L103.796 151.683C103.81 151.285 103.907 150.894 104.08 150.536C104.253 150.178 104.499 149.859 104.803 149.601C105.106 149.343 105.459 149.15 105.841 149.036C106.223 148.921 106.624 148.887 107.02 148.936Z" fill="#E0E0E0"/>
<path d="M205.596 148.936L185.219 151.396V163.327C185.219 163.327 207.333 162.543 208.68 159.55L208.82 151.683C208.806 151.285 208.709 150.894 208.536 150.536C208.362 150.178 208.116 149.859 207.813 149.601C207.51 149.343 207.156 149.15 206.775 149.036C206.393 148.921 205.992 148.887 205.596 148.936Z" fill="#E0E0E0"/>
<path d="M115.447 139.001C115.447 139.001 121.352 119.321 124.169 116.812H188.812C188.812 116.812 194.365 129.001 196.397 139.001H115.447Z" fill="#455A64"/>
<path d="M131.943 181.383V183.097C131.943 184.097 132.341 185.056 133.05 185.764C133.758 186.471 134.719 186.869 135.721 186.869H176.998C178 186.869 178.961 186.471 179.669 185.764C180.378 185.056 180.776 184.097 180.776 183.097V181.383H131.943Z" fill="#263238"/>
<path d="M189.038 176.623V184.126C189.038 184.126 204.142 186.25 206.348 176.623H189.038Z" fill="#263238"/>
<path d="M125.701 176.623V184.126C125.701 184.126 110.597 186.25 108.392 176.623H125.701Z" fill="#263238"/>
<path d="M191.371 116.91C191.371 116.972 175.692 117.001 156.362 116.972C137.032 116.943 121.348 116.873 121.348 116.812C121.348 116.75 137.023 116.722 156.362 116.746C175.7 116.771 191.371 116.849 191.371 116.91Z" fill="#263238"/>
<path d="M195.843 138.87C195.88 138.821 198.475 140.707 201.645 143.085C204.816 145.463 207.35 147.427 207.313 147.476C207.276 147.525 204.676 145.639 201.51 143.265C198.344 140.891 195.806 138.936 195.843 138.87Z" fill="#263238"/>
<path d="M115.447 139.001C115.484 139.05 113.278 140.99 110.519 143.335C107.759 145.68 105.484 147.541 105.443 147.48C105.402 147.418 107.607 145.495 110.371 143.15C113.135 140.805 115.398 138.956 115.447 139.001Z" fill="#263238"/>
<path d="M116.194 129.678C116.256 129.702 115.258 132.577 113.972 136.103C112.687 139.629 111.595 142.47 111.537 142.449C111.48 142.429 112.473 139.551 113.759 136.025C115.044 132.499 116.137 129.657 116.194 129.678Z" fill="#263238"/>
<path d="M187.481 151.121H187.33L186.874 151.15L185.124 151.24C183.605 151.314 181.408 151.4 178.689 151.473C173.252 151.629 165.741 151.707 157.445 151.683C149.15 151.658 141.635 151.564 136.197 151.506L129.771 151.445L128.021 151.416H127.565H127.409C127.461 151.41 127.513 151.41 127.565 151.416H128.021H129.771H136.21L157.458 151.527C165.753 151.555 173.264 151.498 178.697 151.383C181.416 151.33 183.625 151.268 185.132 151.223L186.886 151.174H187.342C187.386 151.151 187.433 151.133 187.481 151.121Z" fill="#263238"/>
<path d="M146.801 116.812H164.144V118.723C164.144 119.208 163.951 119.673 163.607 120.016C163.264 120.359 162.798 120.551 162.312 120.551H148.633C148.147 120.551 147.681 120.359 147.338 120.016C146.994 119.673 146.801 119.208 146.801 118.723V116.812Z" fill="#263238"/>
<path d="M188.997 138.657H188.562C188.562 136.399 187.664 134.235 186.065 132.638C184.466 131.042 182.298 130.145 180.036 130.145C177.775 130.145 175.607 131.042 174.008 132.638C172.409 134.235 171.511 136.399 171.511 138.657H171.076C171.076 136.284 172.02 134.009 173.7 132.331C175.381 130.653 177.66 129.711 180.036 129.711C182.413 129.711 184.692 130.653 186.373 132.331C188.053 134.009 188.997 136.284 188.997 138.657Z" fill="#263238"/>
<path d="M168.246 138.308C168.246 138.308 169.499 135.988 173.133 135.889C176.509 135.799 185.079 135.889 185.079 135.889C185.079 135.889 189.26 136.074 190.471 137.792V138.87H168.246V138.308Z" fill="#263238"/>
<path d="M125.023 139.05C124.637 139.46 125.311 133.241 126.186 130.44C126.317 130.102 126.552 129.814 126.858 129.616C127.163 129.419 127.523 129.323 127.886 129.341H143.532C143.919 129.316 144.302 129.425 144.618 129.649C144.933 129.873 145.162 130.199 145.265 130.571C145.627 132.507 146.567 136 146.785 139.034L125.023 139.05Z" fill="#263238"/>
<path d="M141.454 122.343H130.354C129.61 122.343 129.007 122.945 129.007 123.688V127.148C129.007 127.891 129.61 128.493 130.354 128.493H141.454C142.198 128.493 142.801 127.891 142.801 127.148V123.688C142.801 122.945 142.198 122.343 141.454 122.343Z" fill="#263238"/>
<path d="M162.879 139.001C162.493 139.411 163.187 132.695 164.062 129.887C164.193 129.549 164.429 129.261 164.734 129.065C165.039 128.868 165.399 128.773 165.762 128.792H181.408C181.795 128.767 182.178 128.875 182.494 129.099C182.809 129.324 183.038 129.649 183.141 130.022C183.498 131.953 184.459 135.963 184.677 138.993L162.879 139.001Z" fill="#263238"/>
<path d="M179.33 122.343H168.23C167.486 122.343 166.883 122.945 166.883 123.688V127.148C166.883 127.891 167.486 128.493 168.23 128.493H179.33C180.074 128.493 180.677 127.891 180.677 127.148V123.688C180.677 122.945 180.074 122.343 179.33 122.343Z" fill="#263238"/>
<path d="M175.309 167.57H136.259C135.572 167.584 134.901 167.362 134.358 166.942C133.815 166.522 133.432 165.929 133.274 165.262L131.22 155.688C131.143 155.258 131.163 154.817 131.278 154.396C131.394 153.975 131.603 153.585 131.889 153.255C132.175 152.925 132.532 152.664 132.933 152.489C133.334 152.315 133.769 152.233 134.206 152.248H178.028C180.028 152.248 181.486 154.04 180.968 155.864L178.254 165.442C178.06 166.067 177.668 166.613 177.137 166.996C176.606 167.38 175.965 167.581 175.309 167.57Z" fill="#263238"/>
<path d="M200.738 141.761C200.532 141.444 200.361 141.106 200.229 140.752C199.949 140.121 199.58 139.231 199.21 138.239C198.841 137.246 198.541 136.332 198.34 135.668C198.209 135.314 198.117 134.947 198.064 134.573C198.235 134.906 198.373 135.255 198.475 135.615L199.407 138.161C199.765 139.112 200.089 139.969 200.36 140.695C200.52 141.037 200.646 141.394 200.738 141.761Z" fill="#263238"/>
<g opacity="0.3">
<path d="M174.283 162.425C174.125 162.932 173.807 163.375 173.376 163.687C172.945 163.998 172.425 164.163 171.893 164.155H140.21C139.653 164.161 139.111 163.98 138.671 163.64C138.231 163.299 137.919 162.821 137.787 162.281L136.144 156.024L137.787 163.814C137.915 164.356 138.226 164.838 138.667 165.179C139.108 165.52 139.652 165.699 140.21 165.688H171.893C172.425 165.696 172.945 165.532 173.376 165.22C173.807 164.908 174.125 164.465 174.283 163.958L176.484 156.188L174.283 162.425Z" fill="black"/>
</g>
<path d="M169.679 155.282H142.575V162.207H169.679V155.282Z" fill="#455A64"/>
<g opacity="0.3">
<path d="M166.882 116.91C167.17 117.439 139.245 139.001 139.245 139.001L154.53 139.03L180.693 116.91H166.882Z" fill="white"/>
</g>
<g opacity="0.3">
<path d="M159.803 139.001L185.215 116.91H188.007L163.675 139.055L159.803 139.001Z" fill="white"/>
</g>
<path d="M156.308 150.559C158.603 150.559 160.464 150.19 160.464 149.735C160.464 149.28 158.603 148.911 156.308 148.911C154.013 148.911 152.152 149.28 152.152 149.735C152.152 150.19 154.013 150.559 156.308 150.559Z" fill="#E0E0E0"/>
<path d="M196.397 139.001C196.397 139.063 178.275 139.124 155.922 139.14C133.569 139.157 115.447 139.116 115.447 139.054C115.447 138.993 133.565 138.927 155.922 138.915C178.279 138.903 196.397 138.94 196.397 139.001Z" fill="#263238"/>
<path d="M175.921 138.251C175.545 137.938 175.088 137.74 174.602 137.679C174.117 137.618 173.624 137.697 173.182 137.906C173.22 137.584 173.187 137.258 173.084 136.95C172.982 136.642 172.814 136.36 172.591 136.124C172.368 135.888 172.097 135.704 171.795 135.584C171.493 135.464 171.169 135.412 170.844 135.43C170.52 135.449 170.204 135.538 169.918 135.691C169.632 135.845 169.383 136.059 169.188 136.319C168.994 136.579 168.859 136.878 168.793 137.195C168.726 137.513 168.73 137.841 168.805 138.157C167.544 137.513 165.162 138.39 165.569 139.756L176.246 139.735C176.636 139.337 176.357 138.62 175.921 138.251Z" fill="#E0E0E0"/>
<path d="M144.526 114.754C144.526 114.819 140.616 114.869 135.799 114.869C130.982 114.869 127.068 114.819 127.068 114.754C127.068 114.688 130.978 114.643 135.799 114.643C140.62 114.643 144.526 114.68 144.526 114.754Z" fill="white"/>
<path d="M154.916 140.067C154.916 140.129 147.191 140.178 137.668 140.178C128.145 140.178 120.42 140.129 120.42 140.067C120.42 140.006 128.14 139.952 137.668 139.952C147.195 139.952 154.916 140.002 154.916 140.067Z" fill="white"/>
<path d="M150.066 149.468C150.066 149.534 146.004 149.583 140.994 149.583C135.984 149.583 131.918 149.534 131.918 149.468C131.918 149.403 135.98 149.358 140.994 149.358C146.008 149.358 150.066 149.407 150.066 149.468Z" fill="white"/>
<path d="M178.742 171.186C178.742 171.248 167.609 171.297 153.877 171.297C140.144 171.297 129.011 171.248 129.011 171.186C129.011 171.125 140.14 171.071 153.877 171.071C167.613 171.071 178.742 171.12 178.742 171.186Z" fill="white"/>
<path d="M167.104 180.173C167.104 180.235 163.072 180.288 158.103 180.288C153.134 180.288 149.097 180.235 149.097 180.173C149.097 180.112 153.125 180.063 158.103 180.063C163.08 180.063 167.104 180.112 167.104 180.173Z" fill="white"/>
<path d="M173.408 156.397C173.408 156.455 165.786 156.504 156.386 156.504C146.986 156.504 139.36 156.455 139.36 156.397C139.36 156.34 146.982 156.291 156.386 156.291C165.79 156.291 173.408 156.336 173.408 156.397Z" fill="white"/>
<path d="M248.108 46.8948H64.3638V67.813H248.108V46.8948Z" fill="#E0E0E0"/>
<path d="M248.117 67.8254H64.3516V46.8826H248.117V67.8254ZM64.3721 67.8049H248.096V46.8949H64.3721V67.8049Z" fill="#263238"/>
<path d="M258.174 31.8887H228.758V193.388H258.174V31.8887Z" fill="#E0E0E0"/>
<path d="M228.741 193.4C228.741 192.289 228.692 123.446 228.63 31.9011V31.7781H258.268V31.8888C258.244 100.195 258.227 160.108 258.215 193.388V193.445H258.157L228.741 193.4L258.157 193.339L258.096 193.4C258.096 160.12 258.067 100.207 258.042 31.9011L258.157 32.0118H228.741L228.852 31.9011C228.803 123.434 228.741 192.277 228.741 193.4Z" fill="#263238"/>
<path d="M263.813 193.388H221.099V202.051H263.813V193.388Z" fill="#E0E0E0"/>
<path d="M221.099 202.051C221.099 202.051 221.099 202.006 221.099 201.912C221.099 201.817 221.099 201.666 221.099 201.481C221.099 201.071 221.099 200.526 221.099 199.792C221.099 198.3 221.078 196.127 221.062 193.388V193.326H221.124L263.833 193.277H263.944V202.162H263.833L233.337 202.113L224.356 202.08H221.949H221.329H221.12H221.341H221.974H224.409L233.415 202.047L263.833 202.002L263.726 202.108C263.726 199.32 263.726 196.414 263.726 193.445L263.837 193.556L221.128 193.507L221.193 193.445C221.193 196.172 221.165 198.328 221.156 199.813C221.156 200.551 221.156 201.12 221.156 201.514C221.156 201.703 221.156 201.85 221.156 201.957C221.156 202.063 221.099 202.051 221.099 202.051Z" fill="#263238"/>
<path d="M208.754 55.7864L203.946 56.3621L206.511 77.7094L211.318 77.1337L208.754 55.7864Z" fill="#E0E0E0"/>
<path d="M206.512 77.7023C206.512 77.7023 206.512 77.6736 206.492 77.6039C206.471 77.5342 206.467 77.4235 206.451 77.3005C206.41 77.0135 206.36 76.6158 206.291 76.1074C206.155 75.0414 205.962 73.5244 205.724 71.6343C205.247 67.7926 204.59 62.4503 203.839 56.37V56.2593H203.946L208.75 55.6812C209.001 55.8739 208.82 55.7386 208.878 55.7837V55.8821V55.9846L208.902 56.1896L208.952 56.5996L209.05 57.4196C209.116 57.9608 209.182 58.502 209.247 59.035C209.373 60.1064 209.498 61.1547 209.621 62.1797C209.863 64.2297 210.093 66.1772 210.311 68.0017C210.722 71.6425 211.099 74.7667 211.375 77.1283V77.1939H211.313L207.748 77.6039L206.812 77.6982L206.578 77.7228H206.5H206.586L206.833 77.6859L207.777 77.5588L211.297 77.0996L211.243 77.1734C210.948 74.8159 210.561 71.6917 210.11 68.055C209.888 66.2305 209.65 64.2789 209.403 62.233C209.28 61.208 209.153 60.1584 209.021 59.0924C208.96 58.5553 208.894 58.0182 208.828 57.4524L208.73 56.6324L208.681 56.2224L208.656 56.0133V55.9108V55.8616V55.8206C208.709 55.8616 208.533 55.714 208.775 55.9108L203.97 56.4848L204.069 56.3618C204.775 62.4175 205.399 67.7393 205.843 71.5605C206.061 73.467 206.254 74.9963 206.356 76.0705C206.41 76.5871 206.455 76.9971 206.488 77.3005C206.488 77.4317 206.508 77.5383 206.516 77.6203C206.525 77.7023 206.512 77.7023 206.512 77.7023Z" fill="#263238"/>
<path d="M185.786 137.964C186.915 137.31 187.825 136.337 188.402 135.168C188.244 135.819 187.921 136.419 187.462 136.909C187.004 137.399 186.426 137.763 185.786 137.964Z" fill="#263238"/>
<path d="M183.158 135.639C183.87 135.362 184.565 135.043 185.24 134.684C185.876 134.259 186.488 133.801 187.075 133.311C186.639 133.965 186.048 134.501 185.355 134.873C184.698 135.307 183.943 135.571 183.158 135.639Z" fill="#263238"/>
<path d="M86.9302 31.8887H57.5142V193.388H86.9302V31.8887Z" fill="#E0E0E0"/>
<path d="M86.9261 193.4C86.9261 192.289 86.881 123.446 86.8194 31.9011L86.9261 32.0118H57.5142L57.6251 31.9011C57.6004 100.207 57.584 160.12 57.5717 193.4L57.5142 193.339L86.9261 193.4L57.5142 193.457H57.4526V193.4C57.4526 160.12 57.4239 100.207 57.4033 31.9011V31.7781H87.037V31.8888C86.9754 123.434 86.9303 192.277 86.9261 193.4Z" fill="#263238"/>
<path d="M94.585 193.388H51.8716V202.051H94.585V193.388Z" fill="#E0E0E0"/>
<path d="M94.5849 202.051C94.5849 202.051 94.5849 201.998 94.5849 201.899C94.5849 201.801 94.5849 201.645 94.5849 201.457C94.5849 201.047 94.5849 200.493 94.5849 199.755C94.5849 198.271 94.5644 196.114 94.552 193.388L94.6136 193.449L51.9043 193.498L52.0152 193.388V202.051L51.9043 201.944L82.3265 201.99L91.3283 202.022H93.7636H94.396H94.6177H94.4124H93.7923H91.3817L82.4004 202.055L51.9043 202.104H51.7441V193.277H51.8591L94.5685 193.326H94.6301V193.4C94.6301 196.139 94.6013 198.32 94.5931 199.804C94.5931 200.538 94.5931 201.1 94.5931 201.493C94.5931 201.678 94.5931 201.817 94.5931 201.924C94.5931 202.031 94.5849 202.055 94.5849 202.051Z" fill="#263238"/>
<path d="M96.3608 54.3309L94.7686 75.7725L99.5971 76.1299L101.189 54.6883L96.3608 54.3309Z" fill="#E0E0E0"/>
<path d="M99.5911 76.14C99.5861 76.1033 99.5861 76.066 99.5911 76.0293C99.5911 75.9432 99.5911 75.8366 99.5911 75.7054C99.5911 75.4102 99.6363 75.0043 99.6691 74.4754C99.739 73.4012 99.8416 71.8637 99.973 69.9654C100.244 66.1237 100.622 60.7814 101.053 54.7011L101.156 54.8159L96.3304 54.4633C96.5645 54.2542 96.3961 54.41 96.4495 54.3649V54.4592V54.5617V54.7667L96.4208 55.1767L96.3592 55.9967C96.3181 56.5434 96.277 57.09 96.236 57.6367C96.1579 58.7109 96.0758 59.7646 96.0019 60.7937C95.8458 62.8437 95.698 64.8117 95.5584 66.6403C95.2709 70.2934 95.0286 73.434 94.8438 75.8038L94.7822 75.7341L98.3222 76.0293L99.2708 76.1154L99.5172 76.14H99.6075H99.5295H99.2913L98.355 76.0867L94.774 75.8571H94.7124V75.7915C94.8767 73.4217 95.0984 70.2811 95.3571 66.628C95.4886 64.7953 95.6323 62.8355 95.7678 60.7773C95.8458 59.7482 95.9198 58.6945 96.0019 57.6203C96.0389 57.0832 96.0799 56.542 96.121 55.9803L96.1826 55.1603L96.2113 54.7503V54.5453V54.4428V54.3485C96.2647 54.2993 96.0881 54.4428 96.3304 54.2378L101.156 54.5986H101.267V54.7052C100.79 60.8183 100.375 66.1852 100.08 70.0392C99.9238 71.9416 99.8006 73.4668 99.7143 74.5492C99.6691 75.0576 99.6363 75.4594 99.6117 75.7464C99.6117 75.8735 99.587 75.976 99.5788 76.0539C99.5706 76.1318 99.5911 76.14 99.5911 76.14Z" fill="#263238"/>
<path d="M96.4162 133.454C96.4162 133.454 96.4162 133.483 96.3957 133.532C96.3752 133.581 96.3464 133.667 96.3136 133.757C96.2273 133.966 96.1164 134.253 95.9727 134.618L94.6709 137.833C94.3916 138.517 94.0836 139.276 93.7469 140.092C93.5785 140.502 93.4101 140.912 93.2171 141.363C93.0217 141.827 92.7434 142.252 92.3958 142.617C92.0035 142.995 91.4992 143.235 90.9585 143.302C90.4013 143.369 89.8365 143.336 89.2911 143.204C88.1823 142.954 87.1146 142.384 85.9196 142.322H85.7594L85.8333 142.179C86.9243 140.014 87.8842 137.787 88.708 135.508C89.0448 134.581 89.3486 133.663 89.6279 132.757L89.8332 132.835C89.4294 133.735 88.9282 134.589 88.3384 135.381C87.7777 136.138 87.0625 136.769 86.2399 137.23C85.4387 137.646 84.5369 137.831 83.6363 137.763C82.7923 137.709 81.9955 137.356 81.3899 136.767L81.3242 136.697L81.3899 136.635C83.1981 134.921 84.6641 132.88 85.7101 130.621C86.0838 129.801 86.3261 129.153 86.4863 128.702C86.5602 128.489 86.6177 128.317 86.6588 128.189C86.6762 128.129 86.6996 128.07 86.7286 128.013C86.5049 128.924 86.1955 129.813 85.8046 130.666C84.7834 132.957 83.3275 135.029 81.5172 136.767V136.635C82.0932 137.19 82.8494 137.521 83.6486 137.566C84.5106 137.628 85.3726 137.448 86.1372 137.045C86.9438 136.601 87.6443 135.987 88.1906 135.246C88.7672 134.459 89.256 133.612 89.6484 132.72L89.8538 132.798C89.5745 133.708 89.2665 134.635 88.9298 135.565C88.1022 137.852 87.1339 140.085 86.0305 142.252L85.9401 142.101C87.1968 142.187 88.2686 142.753 89.3445 142.999C89.8649 143.13 90.405 143.165 90.9379 143.101C91.4408 143.043 91.9109 142.823 92.2767 142.474C92.6093 142.128 92.8752 141.723 93.0611 141.281C93.2582 140.871 93.4266 140.424 93.6031 140.018L94.5477 137.767L95.907 134.577L96.2766 133.733L96.3793 133.515C96.39 133.494 96.4024 133.473 96.4162 133.454Z" fill="#263238"/>
<path d="M258.638 30.9539H57.5142V60.724H258.638V30.9539Z" fill="#E8867C"/>
<g opacity="0.3">
<path d="M60.4463 60.724L76.4992 30.9539H91.2709L75.8586 60.724H60.4463Z" fill="black"/>
</g>
<g opacity="0.3">
<path d="M95.4512 60.724L111.504 30.9539H126.276L110.863 60.724H95.4512Z" fill="black"/>
</g>
<g opacity="0.3">
<path d="M130.457 60.724L146.51 30.9539H161.281L145.869 60.724H130.457Z" fill="black"/>
</g>
<g opacity="0.3">
<path d="M165.462 60.724L181.515 30.9539H196.287L180.874 60.724H165.462Z" fill="black"/>
</g>
<g opacity="0.3">
<path d="M200.467 60.724L216.52 30.9539H231.292L215.88 60.724H200.467Z" fill="black"/>
</g>
<g opacity="0.3">
<path d="M235.472 60.724L251.525 30.9539H258.638V45.7426L250.884 60.724H235.472Z" fill="black"/>
</g>
<path d="M258.638 60.7241C258.638 60.3141 258.638 50.2281 258.585 30.954L258.638 31.0073L57.5264 31.0647L57.6373 30.954V60.7241L57.5264 60.6134L258.65 60.7241L57.5264 60.8348H57.4155V30.8433H57.5387L258.65 30.9007H258.708V30.954C258.659 50.2281 258.642 60.3346 258.638 60.7241Z" fill="#263238"/>
<path d="M78.3512 191.53L77.4642 198.443C77.4642 198.443 84.2443 201.157 84.2073 202.449L70.6841 201.727L71.6163 190.899L78.3512 191.53Z" fill="#455A64"/>
<g opacity="0.6">
<path d="M73.3493 197.5C73.216 197.528 73.0978 197.605 73.0168 197.714C72.9359 197.824 72.8979 197.959 72.9099 198.094C72.934 198.228 73.0081 198.348 73.117 198.429C73.226 198.511 73.3618 198.548 73.4972 198.533C73.6381 198.503 73.7629 198.421 73.8477 198.305C73.9325 198.189 73.9715 198.045 73.9571 197.902C73.9194 197.765 73.8299 197.647 73.7073 197.575C73.5848 197.502 73.4388 197.48 73.3 197.512" fill="white"/>
</g>
<g opacity="0.6">
<path d="M70.6841 201.727L70.7785 200.632L83.809 201.789C83.9431 201.867 84.0554 201.979 84.1357 202.112C84.216 202.245 84.2618 202.396 84.2689 202.551L70.6841 201.727Z" fill="white"/>
</g>
<path d="M77.6901 198.394C77.6901 198.459 77.3492 198.459 77.0084 198.644C76.6675 198.828 76.4663 199.086 76.4088 199.054C76.3513 199.021 76.4827 198.644 76.9016 198.439C77.3205 198.234 77.7106 198.32 77.6901 198.394Z" fill="#263238"/>
<path d="M79.0532 199.107C79.0532 199.173 78.7657 199.259 78.5152 199.517C78.2647 199.775 78.1743 200.062 78.1045 200.054C78.0347 200.046 78.0347 199.669 78.3468 199.353C78.6589 199.037 79.0573 199.046 79.0532 199.107Z" fill="#263238"/>
<path d="M79.7022 200.87C79.6406 200.87 79.579 200.542 79.7802 200.198C79.9815 199.853 80.3018 199.739 80.3264 199.788C80.3511 199.837 80.1416 200.021 79.9774 200.304C79.8131 200.587 79.7679 200.87 79.7022 200.87Z" fill="#263238"/>
<path d="M77.7186 196.799C77.6857 196.856 77.3901 196.737 77.0163 196.729C76.6426 196.721 76.3388 196.811 76.31 196.75C76.2813 196.688 76.581 196.483 77.0246 196.499C77.4681 196.516 77.7556 196.75 77.7186 196.799Z" fill="#263238"/>
<g opacity="0.3">
<path d="M78.1741 192.9L78.0181 194.134L71.394 193.47L71.4885 192.354L78.1741 192.9Z" fill="black"/>
</g>
<path d="M77.8707 195.401C77.643 195.439 77.4092 195.417 77.1931 195.335C76.9534 195.27 76.723 195.175 76.5073 195.052C76.3786 194.982 76.2551 194.902 76.1377 194.815C76.0658 194.765 76.002 194.704 75.9488 194.634C75.9098 194.584 75.8887 194.523 75.8887 194.46C75.8887 194.397 75.9098 194.335 75.9488 194.286C75.9853 194.242 76.0315 194.208 76.0835 194.186C76.1356 194.164 76.1921 194.155 76.2486 194.158C76.3342 194.167 76.4185 194.186 76.4991 194.216C76.641 194.266 76.7784 194.327 76.9098 194.4C77.128 194.524 77.326 194.68 77.497 194.864C77.7804 195.183 77.8666 195.438 77.842 195.45C77.8173 195.462 77.6777 195.249 77.382 194.978C77.2096 194.819 77.0179 194.681 76.8112 194.568C76.6894 194.508 76.5631 194.457 76.4334 194.417C76.2938 194.363 76.1706 194.351 76.1295 194.417C76.0884 194.482 76.1295 194.45 76.1295 194.495C76.1703 194.543 76.2172 194.586 76.2691 194.622C76.3764 194.708 76.4889 194.787 76.6059 194.86C76.8059 194.983 77.0178 195.086 77.2383 195.167C77.4546 195.229 77.666 195.307 77.8707 195.401Z" fill="#263238"/>
<path d="M77.7761 195.487C77.6639 195.283 77.6221 195.048 77.657 194.818C77.668 194.568 77.7221 194.321 77.8172 194.089C77.873 193.945 77.9432 193.808 78.0266 193.679C78.07 193.593 78.1354 193.52 78.2162 193.467C78.297 193.415 78.3902 193.384 78.4865 193.379C78.5472 193.385 78.6049 193.408 78.6524 193.446C78.6999 193.484 78.7351 193.535 78.7535 193.593C78.7814 193.675 78.7966 193.76 78.7987 193.847C78.8084 193.998 78.7946 194.15 78.7576 194.298C78.6963 194.547 78.575 194.778 78.4044 194.97C78.1087 195.294 77.8295 195.347 77.8254 195.327C77.8213 195.306 78.0471 195.183 78.2812 194.868C78.414 194.684 78.5063 194.474 78.5523 194.253C78.5779 194.125 78.5848 193.993 78.5728 193.863C78.5728 193.716 78.5235 193.597 78.4701 193.609C78.4167 193.621 78.2771 193.695 78.2114 193.806C78.1343 193.917 78.0669 194.035 78.0102 194.158C77.9152 194.368 77.8502 194.591 77.8172 194.818C77.7638 195.228 77.8131 195.479 77.7761 195.487Z" fill="#263238"/>
<path d="M115.701 113.419C115.658 113.35 115.621 113.278 115.589 113.203C115.537 113.039 115.619 112.858 115.589 112.688C115.567 112.579 115.513 112.479 115.435 112.399C115.358 112.32 115.259 112.264 115.15 112.238C114.929 112.195 114.7 112.228 114.5 112.332C114.371 112.407 114.234 112.466 114.09 112.507C113.948 112.519 113.805 112.519 113.663 112.507C113.235 112.507 113.177 112.91 112.972 113.197C112.515 113.823 111.678 115.816 110.946 116.12C110.793 116.184 110.465 116.272 110.571 115.997C110.734 115.651 110.865 115.291 110.963 114.922C111.011 114.736 111.019 114.542 110.987 114.352C110.954 114.163 110.883 113.982 110.776 113.823C110.708 113.725 110.609 113.655 110.495 113.624C110.325 113.624 110.272 113.694 110.214 113.805C110.146 113.924 110.072 114.039 109.991 114.15L109.505 114.851C108.58 116.22 107.901 116.997 107.473 118.044C107.139 118.874 107.081 119.751 106.226 120.727C105.505 121.551 101.541 125.317 101.541 125.317C101.541 125.317 100.862 124.334 97.8811 119.979C95.6266 116.693 94.5843 116.231 93.4248 115.927L93.3896 125.866C95.1154 128.15 97.0123 130.3 99.064 132.297C101.254 134.466 103.327 133.145 105.26 130.321C106.536 128.468 109.698 123.756 110.501 122.51C110.935 121.763 111.551 121.137 112.292 120.692C113.148 120.107 113.88 119.36 114.447 118.494C114.828 117.829 115.14 117.128 115.379 116.401C115.467 116.087 115.53 115.766 115.566 115.442C115.607 115.138 115.566 114.857 115.613 114.524C115.66 114.191 115.859 113.752 115.701 113.419Z" fill="#FFBF9D"/>
<path d="M110.295 117.05C110.928 118.803 110.295 119.973 109.37 120.516C110.054 119.495 110.38 118.276 110.295 117.05Z" fill="#EE5B5B"/>
<path d="M92.6868 115.214C94.2796 115.547 95.7085 116.009 96.8387 117.664C97.3833 118.464 97.8576 119.312 98.3729 120.137C98.9585 121.049 99.2689 121.475 99.6495 122.06C100.03 122.645 100.311 122.966 100.674 123.516C100.82 123.734 100.995 123.931 101.195 124.1C101.385 124.248 101.521 124.453 101.582 124.685C101.607 124.871 101.658 125.052 101.734 125.223C101.859 125.396 101.942 125.596 101.974 125.808C101.966 125.993 101.918 126.174 101.834 126.34C101.417 127.353 101.291 128.462 101.471 129.543C101.652 130.628 102.18 131.624 102.976 132.385C103.069 132.472 102.39 133.209 102.267 133.338C102.03 133.638 101.694 133.845 101.318 133.922C100.827 133.975 100.733 133.735 99.9774 133.729C99.79 133.729 99.6027 133.77 99.3918 133.729C99.1501 133.689 98.9215 133.591 98.725 133.445C98.5285 133.298 98.3697 133.107 98.2616 132.888C98.0017 132.364 97.6856 131.87 97.3189 131.414L96.6571 130.713C95.6851 129.684 95.1346 129.356 94.1567 128.333L92.3999 126.503L92.6868 115.214Z" fill="#DCCCCC"/>
<path d="M101.682 125.737C101.222 125.899 100.802 126.154 100.446 126.486C100.084 126.805 99.7718 127.178 99.5209 127.591C99.2424 128.025 99.0524 128.51 98.962 129.017C98.8716 129.525 98.8824 130.046 98.9939 130.549C98.9939 130.596 99.07 130.607 99.0759 130.549C99.1019 130.064 99.1606 129.582 99.2515 129.105C99.3745 128.612 99.572 128.141 99.8371 127.708C100.073 127.32 100.365 126.969 100.704 126.667C100.863 126.52 101.033 126.385 101.213 126.264C101.407 126.129 101.617 126.024 101.799 125.895C101.881 125.837 101.77 125.708 101.682 125.737Z" fill="#263238"/>
<path d="M101.307 125.135C100.381 125.17 99.4922 125.506 98.7769 126.094C98.422 126.374 98.1102 126.705 97.8517 127.076C97.719 127.259 97.6052 127.455 97.5121 127.661C97.4024 127.873 97.3311 128.102 97.3013 128.339C97.3013 128.374 97.3657 128.468 97.4067 128.415C97.5414 128.222 97.6175 127.977 97.7405 127.772C97.8634 127.567 97.963 127.404 98.0918 127.228C98.3478 126.878 98.6513 126.565 98.9936 126.299C99.6748 125.768 100.482 125.422 101.336 125.293C101.471 125.293 101.377 125.135 101.307 125.135Z" fill="#263238"/>
<path d="M101.5 125.053L103.017 123.855C103.017 123.855 102.08 126.948 102.654 128.83C102.939 129.89 103.43 130.883 104.1 131.753C103.595 132.389 102.968 132.918 102.255 133.309C102.255 133.309 101.272 132.595 100.785 130.081C100.474 128.372 100.725 126.609 101.5 125.053Z" fill="#455A64"/>
<path d="M93.4634 191.444L92.9295 198.394C92.9295 198.394 99.8369 200.759 99.8616 202.055L86.3096 202.014L86.6956 191.153L93.4634 191.444Z" fill="#455A64"/>
<g opacity="0.6">
<path d="M88.7698 197.639C88.6378 197.672 88.5227 197.753 88.4469 197.866C88.371 197.979 88.3398 198.116 88.3591 198.25C88.3878 198.383 88.4665 198.499 88.5789 198.576C88.6913 198.652 88.8287 198.682 88.9628 198.66C89.1023 198.623 89.2234 198.537 89.303 198.416C89.3825 198.296 89.4149 198.151 89.394 198.008C89.3487 197.873 89.253 197.761 89.1268 197.694C89.0006 197.628 88.8536 197.613 88.7164 197.652" fill="white"/>
</g>
<g opacity="0.6">
<path d="M86.3223 202.01L86.3592 200.915L99.4349 201.407C99.5726 201.48 99.6901 201.586 99.7768 201.716C99.8635 201.845 99.9168 201.994 99.9318 202.149L86.3223 202.01Z" fill="white"/>
</g>
<path d="M93.1512 198.32C93.1512 198.386 92.8144 198.402 92.4818 198.603C92.1491 198.804 91.9643 199.07 91.9027 199.042C91.8411 199.013 91.9561 198.632 92.3668 198.402C92.7775 198.172 93.1676 198.275 93.1512 198.32Z" fill="#263238"/>
<path d="M94.5474 198.976C94.5474 199.042 94.2682 199.14 94.0341 199.411C93.8 199.681 93.722 199.972 93.6563 199.968C93.5906 199.964 93.5618 199.587 93.8616 199.259C94.1614 198.931 94.5474 198.914 94.5474 198.976Z" fill="#263238"/>
<path d="M95.2748 200.706C95.2173 200.706 95.1352 200.382 95.32 200.03C95.5048 199.677 95.821 199.542 95.8457 199.599C95.8703 199.657 95.6732 199.841 95.5253 200.132C95.3775 200.423 95.3488 200.702 95.2748 200.706Z" fill="#263238"/>
<path d="M93.0981 196.737C93.0653 196.795 92.7696 196.692 92.3918 196.701C92.014 196.709 91.7224 196.819 91.6895 196.762C91.6567 196.705 91.9482 196.479 92.3877 196.471C92.8271 196.463 93.131 196.68 93.0981 196.737Z" fill="#263238"/>
<g opacity="0.3">
<path d="M93.3569 192.822L93.2625 194.06L86.6138 193.732L86.6507 192.613L93.3569 192.822Z" fill="black"/>
</g>
<path d="M81.5665 101.97L82.0757 113.331C82.1619 115.262 82.6835 118.083 85.7388 117.804C88.3671 117.365 88.9256 114.823 88.8435 113.023C88.8065 112.167 88.7737 111.453 88.7778 111.383C88.7778 111.383 91.6524 110.973 91.7428 108.103C91.7797 106.714 91.6278 103.852 91.4594 101.261C91.3766 99.9172 90.7877 98.6549 89.8112 97.7271C88.8346 96.7993 87.5427 96.2746 86.1947 96.2585H85.9195C82.9217 96.3897 81.357 99.0014 81.5665 101.97Z" fill="#FFBF9D"/>
<path d="M88.7777 111.4C87.4488 111.375 86.1548 110.971 85.0488 110.235C85.0488 110.235 85.9277 112.347 88.8023 112.134L88.7777 111.4Z" fill="#FF9A6C"/>
<path d="M86.6501 102.716C86.5967 102.778 86.2395 102.532 85.7713 102.548C85.3031 102.564 84.95 102.819 84.8925 102.757C84.835 102.696 84.9212 102.622 85.0691 102.503C85.2726 102.352 85.5179 102.268 85.7713 102.261C86.0224 102.254 86.2691 102.328 86.4736 102.474C86.6091 102.585 86.6501 102.692 86.6501 102.716Z" fill="#263238"/>
<path d="M86.6505 103.749C86.6447 103.849 86.6028 103.943 86.5324 104.014C86.4621 104.085 86.3683 104.128 86.2686 104.135C86.2178 104.14 86.1666 104.134 86.118 104.119C86.0694 104.104 86.0245 104.078 85.986 104.045C85.9476 104.012 85.9164 103.971 85.8943 103.925C85.8723 103.879 85.8599 103.829 85.8579 103.778C85.8579 103.677 85.8974 103.58 85.9681 103.508C86.0387 103.436 86.1348 103.395 86.2357 103.393C86.2868 103.387 86.3385 103.392 86.3875 103.407C86.4366 103.422 86.482 103.447 86.521 103.481C86.5599 103.514 86.5915 103.555 86.6138 103.602C86.636 103.648 86.6486 103.698 86.6505 103.749Z" fill="#263238"/>
<path d="M88.0261 105.98C88.2597 105.91 88.5011 105.87 88.7447 105.861C88.8597 105.861 88.9665 105.832 88.987 105.754C88.9992 105.638 88.9748 105.52 88.9172 105.418L88.5969 104.557C88.2987 103.824 88.0598 103.069 87.8823 102.298C88.2389 103.005 88.5383 103.74 88.7776 104.495C88.8843 104.795 88.987 105.086 89.0815 105.361C89.1516 105.497 89.1705 105.654 89.1349 105.803C89.1178 105.843 89.0919 105.879 89.0592 105.907C89.0265 105.935 88.9878 105.956 88.9459 105.967C88.8827 105.983 88.818 105.991 88.7529 105.992C88.5111 106.019 88.2669 106.014 88.0261 105.98Z" fill="#263238"/>
<path d="M86.3261 101.191C86.2891 101.302 85.9154 101.244 85.4391 101.293C84.9627 101.343 84.6177 101.466 84.552 101.367C84.4863 101.269 84.5931 101.215 84.7409 101.113C84.9399 100.985 85.1666 100.906 85.4021 100.883C85.638 100.859 85.8763 100.893 86.0961 100.982C86.2604 101.051 86.3466 101.15 86.3261 101.191Z" fill="#263238"/>
<path d="M90.8392 101.265C90.7941 101.355 90.4286 101.265 89.9604 101.293C89.4923 101.322 89.1391 101.384 89.0816 101.293C89.0241 101.203 89.1268 101.166 89.2828 101.088C89.491 100.991 89.7182 100.941 89.9481 100.941C90.1792 100.934 90.4089 100.977 90.6216 101.068C90.7817 101.15 90.8598 101.224 90.8392 101.265Z" fill="#263238"/>
<path d="M81.7677 104.118C81.7225 104.094 79.8006 103.503 79.8334 105.467C79.8663 107.431 81.8334 106.992 81.8375 106.939C81.8416 106.886 81.7677 104.118 81.7677 104.118Z" fill="#FFBF9D"/>
<path d="M81.2258 106.201C81.2258 106.201 81.1888 106.226 81.1313 106.254C81.091 106.271 81.0477 106.28 81.004 106.28C80.9603 106.28 80.917 106.271 80.8767 106.254C80.7473 106.177 80.6409 106.067 80.5687 105.935C80.4964 105.803 80.461 105.654 80.466 105.504C80.4583 105.335 80.4892 105.167 80.5564 105.012C80.5751 104.951 80.6078 104.895 80.652 104.849C80.6962 104.802 80.7507 104.767 80.811 104.746C80.8498 104.733 80.8918 104.735 80.929 104.752C80.9662 104.769 80.9959 104.798 81.0122 104.836C81.041 104.889 81.0122 104.93 81.0369 104.93C81.0615 104.93 81.082 104.897 81.0615 104.819C81.0522 104.77 81.0243 104.726 80.9835 104.696C80.929 104.657 80.8615 104.639 80.7946 104.647C80.7142 104.665 80.6396 104.703 80.5779 104.758C80.5161 104.812 80.4692 104.881 80.4414 104.959C80.3592 105.13 80.3211 105.319 80.3305 105.508C80.3273 105.68 80.374 105.849 80.4652 105.994C80.5563 106.14 80.6879 106.256 80.8438 106.328C80.8968 106.343 80.9525 106.345 81.0065 106.335C81.0606 106.326 81.1117 106.303 81.1559 106.271C81.2216 106.25 81.2299 106.205 81.2258 106.201Z" fill="#FF9A6C"/>
<path d="M87.5105 107.888C87.5372 107.934 87.8507 107.677 88.2989 107.656C88.4936 107.649 88.6883 107.669 88.8778 107.714C89.0285 107.746 89.1244 107.762 89.1303 107.741C89.1362 107.719 89.0487 107.679 88.9072 107.607C88.7114 107.527 88.5007 107.491 88.2892 107.499C88.0758 107.511 87.8696 107.581 87.693 107.701C87.5587 107.79 87.4966 107.872 87.5105 107.888Z" fill="#263238"/>
<path d="M78.9794 101.092C79.349 100.379 79.39 99.5467 79.5748 98.7636C79.7596 97.9805 80.1375 97.1564 80.8808 96.8448C81.2048 96.6717 81.5692 96.5877 81.9365 96.6014C82.3038 96.6151 82.6608 96.726 82.971 96.9227C83.0426 96.4109 83.2609 95.9307 83.5998 95.54C83.9386 95.1493 84.3835 94.8649 84.8807 94.721C86.0534 94.4214 87.2859 94.4469 88.4452 94.7948C89.2009 95.0531 89.9483 95.6148 90.8682 96.4635C91.2565 96.8163 91.6137 97.2018 91.9359 97.6156L92.9544 100.24L92.2932 101.679C92.256 101.779 92.2135 101.878 92.1659 101.974L91.6649 104.963C91.5745 104.143 91.476 101.359 91.3856 100.555C90.779 100.573 90.175 100.468 89.6103 100.246C89.0456 100.024 88.5319 99.6899 88.1003 99.2638C87.6321 98.8005 87.2502 98.2101 86.6424 97.9518C85.8621 97.6197 84.9751 97.9518 84.1784 98.2675L84.2113 98.2347C83.8046 98.4527 83.4436 98.7463 83.1476 99.0998C83.4181 100.679 83.3452 102.299 82.9341 103.848C82.8725 104.081 82.6918 104.561 82.4741 104.668C82.0429 104.864 81.8992 104.422 81.62 104.2C81.3745 104.05 81.0818 103.996 80.7986 104.049C80.5412 103.393 80.3219 102.724 80.1416 102.044C79.8801 102.144 79.5983 102.179 79.3202 102.146C79.39 101.941 79.464 101.736 79.5379 101.527C79.4354 101.609 79.3183 101.67 79.1929 101.707C79.1299 101.723 79.0635 101.72 79.0027 101.697C78.9418 101.674 78.8893 101.634 78.8521 101.58C78.8069 101.42 78.9013 101.244 78.9794 101.092Z" fill="#263238"/>
<path d="M83.9072 97.2017C83.8093 97.2869 83.7187 97.3802 83.6362 97.4805C83.4249 97.7668 83.2919 98.1031 83.2502 98.4563C83.2137 98.6977 83.2027 98.9423 83.2173 99.1861C83.2173 99.4485 83.2707 99.7314 83.3077 100.006C83.3499 100.316 83.3746 100.628 83.3816 100.941C83.3814 101.108 83.369 101.275 83.3446 101.441C83.3313 101.618 83.2703 101.788 83.168 101.933C83.1214 101.995 83.058 102.043 82.9853 102.07C82.9126 102.098 82.8336 102.104 82.7574 102.089C82.6156 102.071 82.484 102.006 82.3837 101.904C82.2156 101.701 82.105 101.456 82.0634 101.195H82.1332C82.0592 101.415 81.9541 101.624 81.8211 101.814C81.6899 101.99 81.4958 102.109 81.279 102.146C81.1793 102.163 81.077 102.151 80.9833 102.113C80.8957 102.074 80.8216 102.01 80.7697 101.929C80.7222 101.854 80.6967 101.767 80.6958 101.679C80.6952 101.596 80.7227 101.515 80.7739 101.449L80.8067 101.474C80.6481 101.68 80.4463 101.85 80.2154 101.97C80.1556 102.003 80.0939 102.031 80.0306 102.056H79.9648C79.9648 102.056 79.9648 102.056 80.0264 102.023C80.088 101.99 80.1291 101.974 80.2071 101.929C80.4287 101.803 80.6217 101.633 80.7739 101.429L80.8067 101.453C80.7661 101.514 80.7444 101.585 80.7444 101.658C80.7444 101.731 80.7661 101.803 80.8067 101.863C80.8521 101.935 80.9178 101.993 80.9956 102.027C81.081 102.064 81.1755 102.074 81.2667 102.056C81.4672 102.017 81.6458 101.904 81.7677 101.74C81.8966 101.553 81.9988 101.349 82.0716 101.134L82.1044 101.039L82.1291 101.138C82.1689 101.387 82.2737 101.622 82.4329 101.818C82.5241 101.908 82.6424 101.966 82.7697 101.982C82.8327 101.991 82.8969 101.982 82.9559 101.959C83.0148 101.935 83.0667 101.897 83.1064 101.847C83.1976 101.71 83.2527 101.552 83.2666 101.388C83.2911 101.226 83.3034 101.063 83.3036 100.9C83.2976 100.59 83.2743 100.281 83.2337 99.9733C83.1968 99.6781 83.1598 99.3952 83.1516 99.1287C83.1383 98.8807 83.1507 98.632 83.1886 98.3866C83.2362 98.0281 83.3778 97.6887 83.5992 97.4026C83.6909 97.3201 83.7948 97.2524 83.9072 97.2017Z" fill="#455A64"/>
<path d="M92.9214 99.481H92.9009L92.831 99.5343C92.7966 99.5679 92.7579 99.5968 92.7161 99.6204C92.6622 99.6582 92.606 99.6925 92.5477 99.7229C92.1676 99.9207 91.7442 100.021 91.3157 100.014C90.6883 100.008 90.0761 99.8201 89.5539 99.4728C88.9194 99.0393 88.3801 98.4813 87.9688 97.8328C87.7429 97.5007 87.5581 97.1522 87.3486 96.8365C87.1581 96.5324 86.9259 96.2564 86.6587 96.0165C86.4167 95.7957 86.123 95.6392 85.8045 95.5614C85.6602 95.531 85.512 95.5227 85.3651 95.5368C85.2247 95.5528 85.0868 95.5858 84.9545 95.6352C84.7361 95.73 84.5401 95.8697 84.3795 96.0452C84.2559 96.1739 84.1546 96.3221 84.0797 96.4839C84.0238 96.6242 83.9825 96.7698 83.9565 96.9185V96.8898C83.9565 96.8652 83.9565 96.8365 83.9565 96.7996C83.9752 96.6875 84.0055 96.5775 84.0469 96.4716C84.1206 96.3064 84.2204 96.1542 84.3426 96.0206C84.5057 95.8425 84.7062 95.7025 84.9298 95.6106C85.0605 95.5546 85.199 95.5187 85.3405 95.504C85.4925 95.4844 85.6467 95.4914 85.7963 95.5245C86.1232 95.6015 86.4255 95.7594 86.6752 95.9837C86.95 96.23 87.1879 96.5144 87.3815 96.8283C87.5909 97.1481 87.7922 97.4925 88.0057 97.8246C88.4127 98.4594 88.9434 99.006 89.5663 99.4318C90.0789 99.7739 90.6787 99.9631 91.2952 99.9771C91.7119 99.9865 92.1247 99.8951 92.4984 99.7106C92.8105 99.5835 92.9173 99.4728 92.9214 99.481Z" fill="#455A64"/>
<path d="M91.0159 102.65C90.9625 102.712 90.6052 102.462 90.137 102.478C89.6689 102.495 89.3157 102.749 89.2582 102.687C89.2007 102.626 89.2869 102.552 89.4348 102.437C89.6371 102.283 89.8828 102.197 90.137 102.191C90.3879 102.186 90.6339 102.261 90.8393 102.404C90.9912 102.515 91.0446 102.622 91.0159 102.65Z" fill="#263238"/>
<path d="M90.7574 103.749C90.7517 103.849 90.7097 103.943 90.6394 104.014C90.5691 104.085 90.4752 104.128 90.3755 104.135C90.3248 104.14 90.2735 104.134 90.2249 104.119C90.1764 104.103 90.1314 104.078 90.093 104.045C90.0545 104.011 90.0233 103.97 90.0013 103.925C89.9792 103.879 89.9668 103.829 89.9648 103.778C89.9706 103.678 90.0126 103.584 90.0829 103.513C90.1532 103.442 90.247 103.399 90.3468 103.392C90.3975 103.387 90.4487 103.393 90.4973 103.408C90.5459 103.424 90.5908 103.449 90.6293 103.482C90.6678 103.516 90.699 103.557 90.721 103.602C90.743 103.648 90.7554 103.698 90.7574 103.749Z" fill="#263238"/>
<path d="M91.6933 97.304C91.81 97.4721 91.9669 97.6085 92.1497 97.7009C92.3326 97.7932 92.5356 97.8386 92.7405 97.8329C92.8803 97.7939 93.0175 97.7459 93.1511 97.6894C93.2949 97.7673 93.2825 98.247 93.1922 98.3823C93.1068 98.499 93.0105 98.6074 92.9047 98.7062C93.3852 98.9399 93.8123 98.7964 94.3051 98.5914C94.277 99.0237 94.1349 99.4411 93.8933 99.801C93.6517 100.161 93.3192 100.451 92.9294 100.641C92.8118 100.713 92.6789 100.755 92.5416 100.764C92.4044 100.773 92.267 100.749 92.1409 100.695C91.9456 100.546 91.8112 100.332 91.7631 100.092C91.5006 99.2438 91.3434 98.3667 91.2949 97.4803L91.6933 97.304Z" fill="#263238"/>
<path d="M73.46 122.065L74.3552 136.366L76.1457 141.405L93.1679 139.17L92.1823 114.373L88.8312 112.815C88.8312 112.815 88.7943 115.735 86.5602 115.37C84.3262 115.005 81.6322 111.909 82.0429 112.245L75.9732 113.529L73.46 122.065Z" fill="#DCCCCC"/>
<path d="M83.3119 124.385L94.3999 123.921L95.1556 139.657L95.6853 148.234L95.1679 197.119H86.1907L85.2544 174.413L85.3242 162.875L85.5706 157.742L82.1539 177.271L79.5913 198.09L69.2959 197.02C69.2959 197.02 70.8852 179.177 71.3944 175.532C71.9036 171.887 74.3101 152.572 74.3101 152.133C74.3101 151.695 75.3286 141.375 75.3286 141.375L75.4395 139.387C75.4395 139.387 80.1621 138.07 81.4352 135.442C82.7083 132.814 83.3119 124.385 83.3119 124.385Z" fill="#E8867C"/>
<path d="M73.5093 135.6C74.274 135.902 75.8033 136.324 75.8033 135.6C75.8033 134.877 77.3327 130.776 78.0974 128.816C78.6072 127.76 79.6268 125.514 79.6268 124.971C79.6268 124.496 80.2778 122.715 80.725 121.571C80.8366 121.285 80.8353 120.968 80.7175 120.685L79.9892 118.934C79.7878 118.45 79.3702 118.089 78.8621 117.96L73.5093 135.6Z" fill="#B8AAAA"/>
<path d="M83.9193 119.272C81.4307 114.569 79.4512 112.712 79.4512 112.712L77.7388 113.122C79.7551 113.237 83.5949 124.602 83.5949 124.602L85.985 124.524C85.985 124.524 86.0424 123.29 83.9193 119.272Z" fill="#E8867C"/>
<path d="M92.9464 114.508L91.3325 113.86L91.3736 114.094C91.3736 114.286 92.3304 124.598 92.3304 124.598L93.8869 124.216L92.9464 114.508Z" fill="#E8867C"/>
<path d="M77.2495 113.45C74.4011 114.638 73.3321 115.043 71.6907 119.017C70.1045 122.862 68.5458 127.64 67.5113 130.235C66.2699 133.331 65.4769 131.611 67.0977 134.123C77.8963 150.864 81.483 148.695 74.491 133.54C73.5806 131.693 74.4908 132.267 74.4908 132.267L79.0702 122.01C79.0702 122.01 79.9461 114.528 77.2495 113.45Z" fill="#FFA8A7"/>
<path d="M79.4778 144.023C79.8097 144.324 80.1068 144.666 80.3623 145.043C80.6254 145.766 80.837 146.508 80.9951 147.264C80.9951 147.264 80.6733 147.562 80.0938 146.607C79.8019 146.157 79.5521 145.677 79.3481 145.175L79.4778 144.023Z" fill="#FFA8A7"/>
<path d="M80.3199 147.348L79.5219 144.057L77.5408 141.317L74.1384 143.606L74.6832 146.976C74.6832 146.976 75.7027 148.517 76.0621 148.763C76.4215 149.01 76.8967 148.619 76.8967 148.619C77.3035 149.002 78.0716 148.612 78.0716 148.612C78.5959 148.987 79.0852 148.362 79.0852 148.362C79.0852 148.362 79.7571 148.726 79.997 148.619C80.0919 148.566 80.1675 148.48 80.2121 148.374C80.3678 148.061 80.4063 147.694 80.3199 147.348Z" fill="#FFA8A7"/>
<path d="M76.3651 147.863C76.4012 147.836 76.5372 147.987 76.6733 148.195C76.8095 148.403 76.8909 148.591 76.8583 148.614C76.8256 148.637 76.6896 148.486 76.5535 148.277C76.4174 148.069 76.3324 147.886 76.3651 147.863Z" fill="#EE5B5B"/>
<path d="M77.358 147.535C77.3959 147.533 77.5345 147.778 77.7194 148.086C77.9042 148.394 78.0694 148.637 78.0371 148.664C78.0047 148.691 77.7888 148.484 77.5955 148.164C77.4022 147.845 77.321 147.55 77.358 147.535Z" fill="#EE5B5B"/>
<path d="M78.53 147.319C78.5717 147.316 78.6678 147.552 78.8015 147.835C78.9351 148.117 79.0575 148.347 79.0252 148.374C78.9928 148.401 78.8115 148.2 78.6729 147.901C78.5344 147.602 78.4927 147.33 78.53 147.319Z" fill="#EE5B5B"/>
<path d="M76.1268 147.222C76.1268 147.222 76.1314 147.287 76.0747 147.349C75.996 147.431 75.8922 147.481 75.782 147.489C75.6718 147.496 75.5622 147.461 75.4728 147.39C75.4082 147.337 75.3894 147.285 75.4037 147.272C75.418 147.258 75.5768 147.354 75.7888 147.34C76.0008 147.325 76.1249 147.193 76.1268 147.222Z" fill="#EE5B5B"/>
<path d="M77.358 147.092C77.358 147.092 77.3625 147.157 77.2831 147.22C77.1908 147.294 77.0801 147.338 76.9646 147.345C76.8486 147.355 76.7321 147.326 76.6317 147.261C76.5561 147.213 76.5259 147.161 76.5399 147.144C76.5539 147.126 76.7311 147.213 76.9544 147.197C77.1778 147.182 77.3292 147.061 77.358 147.092Z" fill="#EE5B5B"/>
<path d="M79.5312 146.227C79.5298 146.206 79.6461 146.293 79.5927 146.457C79.5061 146.633 79.3579 146.765 79.1805 146.822C79.0113 146.895 78.8243 146.908 78.6467 146.859C78.5105 146.815 78.4492 146.753 78.4556 146.737C78.6814 146.769 78.9104 146.753 79.1295 146.69C79.2719 146.639 79.3973 146.545 79.4912 146.419C79.5563 146.316 79.5177 146.252 79.5312 146.227Z" fill="#EE5B5B"/>
<path d="M77.32 113.07C75.5425 113.673 73.6886 113.839 71.8972 117.7C70.4182 120.875 69.0712 124.112 67.7311 127.342C67.5677 127.787 67.3509 128.211 67.0853 128.604C66.6938 129.053 66.3385 129.533 66.023 130.039C65.724 130.624 65.6334 131.294 65.7661 131.938C65.8424 132.278 65.9813 132.631 66.0368 132.95C66.0198 133.561 66.0664 134.172 66.1757 134.773C66.2988 135.079 66.515 135.338 66.7937 135.515C67.0506 135.702 67.2867 136.083 67.5436 136.257C68.0852 136.631 68.3629 136.291 68.5782 136.43L68.3143 135.91C68.8725 134.732 69.8688 133.816 71.0917 133.359C72.4433 132.991 73.8832 133.129 75.1398 133.747C75.1398 133.747 75.5286 133.678 75.3828 133.186C75.2866 132.943 75.2515 132.68 75.2806 132.42C75.3096 132.16 75.4019 131.911 75.5495 131.696C75.9105 131.037 75.7855 130.122 76.2785 129.124C76.7715 128.126 79.4725 122.268 79.4725 122.268C79.4725 122.268 80.6321 115.468 77.32 113.07Z" fill="#DCCCCC"/>
<path d="M74.3738 132.53L75.1519 133.745C75.1519 133.745 72.5466 133.432 70.7302 134.326C69.7014 134.792 68.9418 135.599 68.1707 136.41C67.4389 136.024 66.6284 135.349 66.1101 134.717C66.1101 134.717 66.6682 133.624 69.1413 132.706C70.8258 132.101 72.6613 132.04 74.3738 132.53Z" fill="#455A64"/>
<path d="M74.7267 132.202C74.4234 131.804 74.0431 131.471 73.6089 131.226C73.1748 130.98 72.6957 130.825 72.2006 130.772C71.6192 130.674 71.0283 130.646 70.4405 130.69C69.8285 130.748 69.2205 130.843 68.6198 130.975C68.5527 130.975 68.5863 131.124 68.6198 131.117C69.2239 131.04 69.8317 130.997 70.4405 130.988C70.9733 130.968 71.5067 131.002 72.0327 131.09C72.4964 131.165 72.9481 131.302 73.3763 131.497C73.8499 131.714 74.3002 131.98 74.72 132.29C74.7468 132.351 74.7468 132.256 74.7267 132.202Z" fill="#263238"/>
<path d="M74.7385 130.592C74.4438 129.784 73.8646 129.128 73.1223 128.762C72.3819 128.311 71.5222 128.129 70.6747 128.244C70.5809 128.244 70.6747 128.428 70.7284 128.428C71.5022 128.408 72.268 128.596 72.9547 128.974C73.6259 129.407 74.2094 129.976 74.6714 130.649C74.7183 130.706 74.7519 130.635 74.7385 130.592Z" fill="#263238"/>
<path d="M87.4717 149.735C87.4855 150.211 87.4287 150.686 87.3033 151.145C87.1309 152.006 86.8352 153.195 86.482 154.47C86.1288 155.745 85.8414 156.93 85.6607 157.783C85.48 158.636 85.3609 159.165 85.328 159.161C85.3073 159.033 85.3073 158.903 85.328 158.775C85.3527 158.533 85.4102 158.181 85.4923 157.75C85.6566 156.889 85.9358 155.7 86.2726 154.417C86.6093 153.134 86.9337 151.957 87.1391 151.112C87.3444 150.268 87.4389 149.735 87.4717 149.735Z" fill="#263238"/>
<g opacity="0.3">
<path d="M87.3859 150.35C87.3859 150.456 88.3263 160.801 85.3325 162.433L85.5584 157.738L87.3859 150.35Z" fill="black"/>
</g>
<path d="M86.6505 137.582C86.6505 137.558 86.8558 137.611 87.1433 137.755C87.5187 137.948 87.8588 138.203 88.1494 138.509C88.4391 138.82 88.6515 139.195 88.7695 139.604C88.8361 139.769 88.856 139.949 88.827 140.124C88.6363 139.592 88.3588 139.095 88.0057 138.653C87.361 137.968 86.6259 137.64 86.6505 137.582Z" fill="#FF9A6C"/>
<path d="M142.559 122.318C142.559 122.376 138.189 123.917 132.756 125.766C127.323 127.615 122.9 129.071 122.9 129.014C122.9 128.956 127.269 127.415 132.707 125.565C138.144 123.716 142.538 122.261 142.559 122.318Z" fill="white"/>
<path d="M132.645 127.964C131.584 128.246 130.506 128.461 129.417 128.608C128.341 128.823 127.252 128.968 126.157 129.042C127.217 128.757 128.296 128.542 129.385 128.398C130.46 128.18 131.55 128.035 132.645 127.964Z" fill="white"/>
<path d="M141.081 130.592C141.081 130.653 137.2 130.682 132.411 130.658C127.623 130.633 123.742 130.563 123.742 130.506C123.742 130.448 127.623 130.42 132.411 130.444C137.2 130.469 141.081 130.535 141.081 130.592Z" fill="white"/>
<path d="M126.386 125.34C125.956 125.828 125.473 126.267 124.945 126.648C124.462 127.082 123.935 127.464 123.372 127.788C124.283 126.86 125.294 126.035 126.386 125.328V125.34Z" fill="white"/>
<path d="M127.918 132.31C127.224 132.361 126.526 132.315 125.844 132.174C125.151 132.098 124.471 131.928 123.824 131.67C124.514 131.722 125.2 131.82 125.877 131.961C126.564 132.037 127.245 132.153 127.918 132.31Z" fill="white"/>
<path d="M113.846 124.835L113.44 124.907C113.301 124.932 113.158 124.9 113.042 124.819C112.926 124.738 112.847 124.615 112.823 124.475L109.008 102.905L110.455 102.649L114.267 124.203C114.279 124.272 114.278 124.343 114.263 124.411C114.248 124.479 114.219 124.544 114.179 124.601C114.139 124.658 114.088 124.707 114.029 124.745C113.97 124.783 113.904 124.808 113.835 124.82L113.846 124.835Z" fill="#263238"/>
<path d="M116.268 96.7855C117.109 101.54 114.137 105.993 109.695 106.778C105.254 107.564 100.935 104.4 100.094 99.6461C99.253 94.8917 102.225 90.4388 106.666 89.6532C111.108 88.8676 115.427 92.0311 116.268 96.7855Z" fill="white" stroke="#BABABA"/>
<path d="M105.111 102.824L108.233 98.1446L103.767 94.8736L104.412 93.908L108.879 97.179L112.001 92.5L112.923 93.1763L109.8 97.8554L114.267 101.126L113.621 102.092L109.155 98.821L106.032 103.5L105.111 102.824Z" fill="#EE5B5B"/>
<path d="M85.5283 30.6833C85.9261 27.9839 81.8533 25.7658 78.7935 25.5326C77.3352 25.4234 75.8185 25.6319 74.4344 25.1803C71.4382 24.1879 70.245 20.5804 67.3177 19.4292C65.1329 18.5658 62.6193 19.3349 60.5034 20.3323C58.3875 21.3297 56.2609 22.5851 53.9223 22.729C51.8647 22.8481 49.6268 22.1336 47.8291 23.0764C46.4875 23.776 45.7822 25.225 44.5465 26.0785C43.3109 26.9319 41.7572 27.0709 40.2564 27.1652C38.7556 27.2594 37.1965 27.2594 35.8284 27.845C34.4602 28.4305 33.3306 29.7802 33.617 31.1646L85.5283 30.6833Z" fill="#F5F5F5"/>
<path d="M281.332 99.0166C281.729 96.3172 277.657 94.0991 274.597 93.8659C273.138 93.7567 271.622 93.9651 270.238 93.5136C267.241 92.5211 266.048 88.9137 263.121 87.7624C260.936 86.899 258.422 87.6682 256.307 88.6656C254.191 89.6629 252.064 90.9184 249.726 91.0623C247.668 91.1814 245.43 90.4668 243.632 91.4096C242.291 92.1093 241.585 93.5582 240.35 94.4117C239.114 95.2652 237.56 95.4041 236.06 95.4984C234.559 95.5927 233 95.5927 231.632 96.1782C230.263 96.7638 229.134 98.1135 229.42 99.4979L281.332 99.0166Z" fill="#F5F5F5"/>
</svg>
