<svg width="263" height="237" viewBox="0 0 263 237" fill="none" xmlns="http://www.w3.org/2000/svg">
<path d="M252.612 99.5964C252.612 99.5964 247.01 60.5371 206.957 36.4121C166.903 12.2873 148.357 36.2941 128.22 46.3095C108.083 56.3247 97.1592 42.5391 63.5477 36.0292C29.9362 29.5193 0.806231 94.2353 10.3295 144.783C19.8527 195.33 40.8599 213.328 86.7956 224.816C132.731 236.304 159.901 198.394 192.392 205.286C224.883 212.179 263.536 173.503 252.612 99.5964Z" fill="#FFDFDF"/>
<path d="M89.7861 183.895C89.8634 183.776 89.9527 183.667 90.0526 183.567L90.8234 182.71C91.4712 181.988 92.3609 180.984 93.2834 179.84C94.2059 178.696 95.0464 177.638 95.6327 176.863C95.9115 176.502 96.1411 176.195 96.3297 175.949C96.4071 175.831 96.4979 175.722 96.6003 175.625C96.5444 175.755 96.4728 175.877 96.3871 175.99C96.2354 176.215 96.0181 176.543 95.7352 176.941C95.1735 177.732 94.3699 178.811 93.4228 179.955C92.4757 181.098 91.5696 182.095 90.8972 182.796C90.561 183.144 90.2863 183.427 90.0772 183.616C89.9904 183.719 89.8928 183.812 89.7861 183.895Z" fill="#E0E0E0"/>
<path d="M82.71 194.69C82.8784 194.697 83.0458 194.719 83.2102 194.756L84.5509 194.994C85.6825 195.203 87.2446 195.502 88.9625 195.842C90.6804 196.183 92.2425 196.506 93.37 196.748L94.6984 197.039C94.8634 197.068 95.0254 197.112 95.1822 197.171C95.0151 197.167 94.8489 197.146 94.6861 197.109L93.3454 196.871C92.2138 196.662 90.6517 196.363 88.9297 196.019C87.2077 195.674 85.6497 195.354 84.5263 195.117L83.1938 194.821C83.029 194.792 82.8672 194.748 82.71 194.69Z" fill="#E0E0E0"/>
<path d="M94.9199 197.023C95.0153 196.877 95.1237 196.74 95.2438 196.613L96.1786 195.494C96.9699 194.547 98.0523 193.235 99.2085 191.75C100.365 190.266 101.377 188.905 102.103 187.909L102.964 186.728C103.064 186.583 103.175 186.446 103.296 186.318C103.22 186.48 103.128 186.634 103.022 186.777C102.833 187.068 102.558 187.482 102.202 188.007C101.5 189.02 100.504 190.401 99.3315 191.886C98.1589 193.37 97.0724 194.67 96.2606 195.6C95.8506 196.059 95.5185 196.42 95.2807 196.683C95.1696 196.805 95.0489 196.919 94.9199 197.023Z" fill="#E0E0E0"/>
<path d="M169.629 163.784L166.718 165.539L166.538 165.244L169.183 163.645L168.773 162.96L169.039 162.8L169.629 163.784Z" fill="white"/>
<path d="M168.81 168.372L168.543 168.532L167.313 166.482L167.523 166.351L169.437 166.847C169.59 166.911 169.755 166.939 169.92 166.932C170.085 166.924 170.247 166.88 170.393 166.802C170.729 166.597 170.803 166.236 170.528 165.793C170.445 165.638 170.328 165.504 170.186 165.4C170.044 165.297 169.881 165.226 169.708 165.195L169.761 164.871C169.981 164.917 170.187 165.01 170.367 165.145C170.546 165.28 170.693 165.452 170.798 165.65C171.155 166.24 171.081 166.798 170.598 167.089C170.415 167.19 170.213 167.249 170.005 167.261C169.797 167.274 169.589 167.24 169.396 167.163L167.826 166.753L168.81 168.372Z" fill="white"/>
<path d="M171.159 171.136L170.807 170.553L170.04 171.013L169.859 170.713L170.622 170.254L169.63 168.614L169.847 168.483L172.717 168.86L172.918 169.192L170.142 168.84L170.905 170.102L171.577 169.692L171.754 169.984L171.081 170.394L171.434 170.976L171.159 171.136Z" fill="white"/>
<path d="M194.099 208.942C193.611 209.237 193.025 209.11 192.603 208.405C192.357 208.03 192.265 207.575 192.344 207.134H192.668C192.59 207.516 192.665 207.913 192.877 208.241C193.168 208.72 193.554 208.851 193.915 208.651C194.275 208.45 194.325 208.056 194.017 207.515L193.89 207.306L194.111 207.175L195.608 207.371L194.71 205.883L194.977 205.723L196.104 207.593L195.895 207.72L194.362 207.523C194.706 208.15 194.567 208.659 194.099 208.942Z" fill="white"/>
<path d="M135.059 59.4926C135.059 59.5541 131.184 59.0826 126.428 58.4266C121.672 57.7706 117.818 57.1966 117.818 57.1474C117.818 57.0982 121.689 57.5574 126.428 58.2134C131.168 58.8694 135.063 59.4352 135.059 59.4926Z" fill="#E0E0E0"/>
<path d="M134.591 62.9448C134.591 63.0063 130.721 62.5348 125.981 61.8788C121.241 61.2228 117.371 60.6488 117.371 60.5996C117.371 60.5504 121.241 61.0096 125.981 61.6656C130.721 62.3216 134.599 62.8874 134.591 62.9448Z" fill="#E0E0E0"/>
<path d="M133.013 66.4668C133.013 66.5242 129.143 66.0568 124.403 65.4008C119.663 64.7448 115.793 64.1708 115.793 64.1175C115.793 64.0642 119.659 64.5275 124.403 65.1876C129.147 65.8477 133.021 66.4094 133.013 66.4668Z" fill="#E0E0E0"/>
<path d="M130.139 70.0173C130.139 70.0788 126.269 69.6073 121.508 68.9513C116.748 68.2953 112.898 67.7213 112.898 67.6721C112.898 67.6229 116.769 68.0821 121.529 68.7381C126.289 69.3941 130.147 69.9599 130.139 70.0173Z" fill="#E0E0E0"/>
<path d="M125.559 73.5638C125.559 73.6212 121.688 73.1538 116.949 72.4937C112.209 71.8336 108.339 71.2637 108.339 71.2145C108.339 71.1653 112.209 71.6245 116.949 72.2846C121.688 72.9447 125.567 73.5023 125.559 73.5638Z" fill="#E0E0E0"/>
<path d="M142.779 60.6447C141.357 60.5563 139.948 60.3269 138.572 59.96C139.286 59.9695 139.998 60.0492 140.696 60.1978C141.403 60.277 142.101 60.4267 142.779 60.6447Z" fill="#E0E0E0"/>
<path d="M142.632 63.7238C141.922 63.7148 141.215 63.6365 140.52 63.4901C139.813 63.4109 139.115 63.2612 138.438 63.0432C139.15 63.0481 139.861 63.1278 140.557 63.281C141.262 63.3606 141.956 63.5089 142.632 63.7238Z" fill="#E0E0E0"/>
<path d="M141.586 68C140.871 67.9873 140.16 67.9049 139.462 67.754C138.757 67.6649 138.06 67.5182 137.379 67.3153C137.379 67.2415 138.338 67.3522 139.499 67.5408C140.208 67.6236 140.907 67.7774 141.586 68Z" fill="#E0E0E0"/>
<path d="M140.077 71.5877C139.362 71.5749 138.651 71.4926 137.953 71.3417C137.248 71.2519 136.551 71.1052 135.87 70.903C135.87 70.8292 136.83 70.9399 137.99 71.1285C138.699 71.2107 139.398 71.3645 140.077 71.5877Z" fill="#E0E0E0"/>
<path d="M136.83 75.0112C136.115 74.9987 135.404 74.9163 134.706 74.7652C134 74.6784 133.304 74.5317 132.623 74.3265C132.623 74.2527 133.582 74.3634 134.739 74.5561C135.449 74.6385 136.149 74.791 136.83 75.0112Z" fill="#E0E0E0"/>
<path d="M121.66 77.8933C121.66 77.9507 115.854 77.1799 108.712 76.1672C101.57 75.1545 95.7809 74.2894 95.7891 74.232C95.7973 74.1746 101.595 74.9454 108.741 75.9581C115.887 76.9708 121.66 77.84 121.66 77.8933Z" fill="#E0E0E0"/>
<path d="M131.414 79.8901C130.699 79.8774 129.988 79.795 129.29 79.6441C128.585 79.5544 127.888 79.4077 127.207 79.2054C127.207 79.1316 128.166 79.2423 129.327 79.4309C130.036 79.5125 130.735 79.6664 131.414 79.8901Z" fill="#E0E0E0"/>
<path d="M127.236 82.2107C126.522 82.198 125.81 82.1156 125.112 81.9647C124.407 81.875 123.711 81.7283 123.029 81.526C123.029 81.4522 123.989 81.5629 125.149 81.7515C125.858 81.8331 126.558 81.987 127.236 82.2107Z" fill="#E0E0E0"/>
<path d="M121.611 86.1262C120.897 86.1135 120.185 86.0311 119.487 85.8802C118.782 85.7929 118.085 85.6461 117.404 85.4415C117.404 85.3677 118.364 85.4784 119.524 85.6711C120.233 85.7525 120.932 85.905 121.611 86.1262Z" fill="#E0E0E0"/>
<path d="M106.568 100.07C106.568 100.128 104.206 99.7957 101.32 99.3283C98.4333 98.8609 96.0963 98.4345 96.1045 98.3771C96.1127 98.3197 98.4661 98.6518 101.353 99.1192C104.239 99.5866 106.576 100.009 106.568 100.07Z" fill="#E0E0E0"/>
<path d="M219.818 217.138C219.818 217.199 180.273 217.244 131.504 217.244C82.7343 217.244 43.1816 217.199 43.1816 217.138C43.1816 217.076 82.7179 217.031 131.504 217.031C180.29 217.031 219.818 217.08 219.818 217.138Z" fill="#263238"/>
<path d="M170.054 217.71L116.217 217.463C114.675 217.456 113.15 217.145 111.729 216.548C110.308 215.952 109.018 215.081 107.934 213.985C106.85 212.889 105.992 211.591 105.41 210.163C104.828 208.736 104.533 207.208 104.542 205.667L105.11 70.6788C105.117 69.1382 105.427 67.6141 106.023 66.1934C106.619 64.7727 107.489 63.4833 108.583 62.3989C109.677 61.3144 110.974 60.4561 112.4 59.8729C113.826 59.2898 115.353 58.9932 116.894 59.0001L170.735 59.2514C172.276 59.2599 173.8 59.572 175.22 60.1697C176.64 60.7674 177.928 61.6391 179.011 62.735C180.094 63.8308 180.951 65.1294 181.532 66.5564C182.113 67.9835 182.407 69.511 182.397 71.0517L181.826 206.04C181.81 209.147 180.561 212.122 178.354 214.31C176.147 216.498 173.162 217.721 170.054 217.71Z" fill="#263238"/>
<path d="M170.642 63.9334L160.204 63.8848C159.863 63.8906 159.527 63.9635 159.215 64.0993C158.902 64.2351 158.62 64.4312 158.384 64.6763C158.147 64.9214 157.961 65.2108 157.837 65.5278C157.712 65.8448 157.652 66.1832 157.658 66.5237V68.4168C157.669 69.1039 157.407 69.7673 156.93 70.2619C156.453 70.7565 155.799 71.0419 155.112 71.0558L134.763 70.9585C134.423 70.9495 134.087 70.8737 133.777 70.7352C133.466 70.5967 133.185 70.3983 132.951 70.1513C132.717 69.9044 132.534 69.6137 132.412 69.2959C132.29 68.9781 132.232 68.6395 132.241 68.2993V66.4062C132.258 65.7187 132.001 65.0526 131.528 64.5536C131.055 64.0545 130.403 63.7631 129.716 63.7429H126.043L116.91 63.6983C115.831 63.6935 114.762 63.9013 113.763 64.3098C112.764 64.7183 111.856 65.3195 111.089 66.0792C110.323 66.8388 109.714 67.7419 109.296 68.737C108.879 69.7321 108.662 70.7996 108.657 71.8787L108.102 203.624C108.093 205.801 108.949 207.893 110.483 209.439C112.016 210.985 114.1 211.859 116.278 211.869L170.01 212.12C172.188 212.129 174.282 211.272 175.829 209.738C177.377 208.204 178.252 206.119 178.263 203.94L178.818 72.1949C178.825 71.1153 178.618 70.0451 178.211 69.0454C177.803 68.0458 177.202 67.1363 176.443 66.369C175.683 65.6017 174.78 64.9916 173.785 64.5737C172.789 64.1558 171.721 63.9382 170.642 63.9334Z" fill="#FAFAFA"/>
<path d="M173.098 78.4376C173.102 78.5195 173.081 78.6007 173.038 78.6704C172.995 78.7402 172.932 78.7952 172.857 78.8282C172.782 78.8612 172.698 78.8707 172.618 78.8553C172.537 78.84 172.463 78.8005 172.405 78.7422C172.348 78.6839 172.309 78.6095 172.294 78.5288C172.28 78.448 172.29 78.3648 172.324 78.2901C172.358 78.2153 172.414 78.1526 172.484 78.1102C172.554 78.0678 172.635 78.0476 172.717 78.0525C172.819 78.0535 172.916 78.0946 172.987 78.1667C173.058 78.2388 173.098 78.3361 173.098 78.4376Z" fill="#263238"/>
<path d="M173.094 79.8238C173.094 79.9 173.072 79.9744 173.03 80.0378C172.987 80.1011 172.927 80.1505 172.857 80.1796C172.786 80.2088 172.709 80.2164 172.634 80.2015C172.559 80.1867 172.491 80.15 172.437 80.0961C172.383 80.0423 172.346 79.9737 172.332 79.8989C172.317 79.8242 172.324 79.7468 172.354 79.6765C172.383 79.6061 172.432 79.5459 172.495 79.5036C172.559 79.4613 172.633 79.4387 172.709 79.4387C172.811 79.4387 172.909 79.4793 172.982 79.5515C173.054 79.6237 173.094 79.7217 173.094 79.8238Z" fill="#263238"/>
<path d="M173.074 81.2184C173.074 81.3259 173.031 81.429 172.955 81.505C172.879 81.581 172.776 81.6237 172.668 81.6237C172.587 81.5971 172.517 81.5455 172.467 81.4763C172.417 81.4072 172.39 81.324 172.39 81.2386C172.39 81.1532 172.417 81.0701 172.467 81.0009C172.517 80.9318 172.587 80.8802 172.668 80.8535C172.769 80.853 172.867 80.8901 172.942 80.9576C173.017 81.025 173.064 81.118 173.074 81.2184Z" fill="#263238"/>
<path d="M173.759 107.321H119.971C119.008 107.321 118.228 108.101 118.228 109.064V141.915C118.228 142.878 119.008 143.658 119.971 143.658H173.759C174.722 143.658 175.502 142.878 175.502 141.915V109.064C175.502 108.101 174.722 107.321 173.759 107.321Z" fill="#F5F5F5"/>
<path d="M172.186 104.962H118.397C117.435 104.962 116.654 105.742 116.654 106.705V139.556C116.654 140.519 117.435 141.299 118.397 141.299H172.186C173.148 141.299 173.929 140.519 173.929 139.556V106.705C173.929 105.742 173.148 104.962 172.186 104.962Z" fill="#E0E0E0"/>
<path d="M160.037 89.4838H159.489L159.388 89.7351H159.108L159.631 88.5596H159.903L160.43 89.7351H160.142L160.037 89.4838ZM159.952 89.2771L159.765 88.8271L159.579 89.2771H159.952Z" fill="#263238"/>
<path d="M160.553 88.5597H161.088C161.171 88.55 161.255 88.5579 161.335 88.583C161.414 88.608 161.488 88.6497 161.55 88.7052C161.613 88.7608 161.663 88.8289 161.697 88.9051C161.731 88.9813 161.749 89.0639 161.749 89.1475C161.749 89.2311 161.731 89.3137 161.697 89.3899C161.663 89.4661 161.613 89.5342 161.55 89.5898C161.488 89.6453 161.414 89.687 161.335 89.712C161.255 89.7371 161.171 89.745 161.088 89.7353H160.553V88.5597ZM161.076 89.5123C161.172 89.5123 161.265 89.4739 161.334 89.4055C161.402 89.3371 161.44 89.2443 161.44 89.1475C161.44 89.0507 161.402 88.9579 161.334 88.8895C161.265 88.8211 161.172 88.7827 161.076 88.7827H160.828V89.5123H161.076Z" fill="#263238"/>
<path d="M161.946 88.5597H162.481C162.564 88.55 162.648 88.5579 162.728 88.583C162.808 88.608 162.881 88.6497 162.944 88.7052C163.006 88.7608 163.056 88.8289 163.09 88.9051C163.125 88.9813 163.142 89.0639 163.142 89.1475C163.142 89.2311 163.125 89.3137 163.09 89.3899C163.056 89.4661 163.006 89.5342 162.944 89.5898C162.881 89.6453 162.808 89.687 162.728 89.712C162.648 89.7371 162.564 89.745 162.481 89.7353H161.946V88.5597ZM162.465 89.5123C162.562 89.5123 162.655 89.4739 162.723 89.4055C162.792 89.3371 162.83 89.2443 162.83 89.1475C162.83 89.0507 162.792 88.9579 162.723 88.8895C162.655 88.8211 162.562 88.7827 162.465 88.7827H162.218V89.5123H162.465Z" fill="#263238"/>
<path d="M164.886 89.7312V89.0259L164.537 89.6056H164.415L164.071 89.0421V89.7312H163.815V88.5557H164.038L164.48 89.2853L164.914 88.5557H165.137V89.7312H164.886Z" fill="#263238"/>
<path d="M165.348 89.1473C165.34 89.0185 165.372 88.8905 165.438 88.7799C165.504 88.6692 165.602 88.5809 165.719 88.5265C165.836 88.4721 165.967 88.454 166.094 88.4746C166.221 88.4952 166.34 88.5535 166.434 88.642C166.527 88.7305 166.592 88.8452 166.62 88.9711C166.648 89.097 166.638 89.2284 166.59 89.3483C166.543 89.4682 166.46 89.5711 166.354 89.6437C166.247 89.7163 166.121 89.7552 165.992 89.7554C165.91 89.7598 165.827 89.7473 165.749 89.7188C165.671 89.6903 165.6 89.6462 165.54 89.5894C165.48 89.5325 165.431 89.464 165.398 89.388C165.365 89.3121 165.348 89.2302 165.348 89.1473ZM166.361 89.1473C166.36 89.0747 166.337 89.0042 166.295 88.9446C166.254 88.8851 166.195 88.839 166.128 88.8124C166.06 88.7857 165.986 88.7795 165.915 88.7947C165.844 88.8098 165.779 88.8455 165.729 88.8974C165.678 88.9493 165.644 89.0151 165.63 89.0864C165.616 89.1577 165.624 89.2315 165.652 89.2984C165.68 89.3653 165.728 89.4225 165.788 89.4627C165.849 89.5029 165.92 89.5243 165.992 89.5243C166.042 89.5255 166.091 89.5165 166.137 89.4978C166.182 89.4792 166.224 89.4513 166.259 89.416C166.293 89.3806 166.32 89.3385 166.338 89.2923C166.355 89.2461 166.363 89.1967 166.361 89.1473Z" fill="#263238"/>
<path d="M167.597 89.7312L167.37 89.4029H167.118V89.7312H166.847V88.5557H167.353C167.67 88.5557 167.864 88.7178 167.864 88.961C167.865 89.0397 167.842 89.1168 167.8 89.1831C167.758 89.2493 167.697 89.3017 167.625 89.334L167.888 89.711L167.597 89.7312ZM167.341 88.7746H167.118V89.1799H167.341C167.507 89.1799 167.588 89.1029 167.588 88.9732C167.588 88.8435 167.507 88.7786 167.341 88.7786V88.7746Z" fill="#263238"/>
<path d="M168.996 89.5164V89.7312H168.084V88.5557H168.976V88.7746H168.356V89.0299H168.903V89.2407H168.356V89.5123L168.996 89.5164Z" fill="#263238"/>
<path d="M169.949 89.2488H169.653V89.5366H169.426V89.2488H169.134V89.0461H169.426V88.7583H169.641V89.0461H169.936L169.949 89.2488Z" fill="#263238"/>
<path d="M114.766 80.0955C114.783 79.8057 114.886 79.5275 115.06 79.2955C115.235 79.0635 115.473 78.888 115.747 78.7908C116.02 78.6936 116.317 78.6789 116.598 78.7487C116.88 78.8186 117.135 78.9697 117.332 79.1834L116.926 79.5523C116.846 79.4519 116.743 79.3712 116.626 79.3164C116.51 79.2616 116.382 79.2341 116.253 79.2361C116.025 79.2361 115.807 79.3266 115.646 79.4878C115.484 79.6489 115.394 79.8675 115.394 80.0955C115.394 80.3234 115.484 80.542 115.646 80.7031C115.807 80.8643 116.025 80.9548 116.253 80.9548C116.382 80.9568 116.51 80.9293 116.626 80.8745C116.743 80.8197 116.846 80.7391 116.926 80.6387L117.332 81.0075C117.135 81.2212 116.88 81.3724 116.598 81.4422C116.317 81.512 116.02 81.4974 115.747 81.4001C115.473 81.3029 115.235 81.1274 115.06 80.8954C114.886 80.6634 114.783 80.3852 114.766 80.0955Z" fill="#263238"/>
<path d="M119.517 80.2617V81.4413H118.957V81.1818C118.889 81.2825 118.794 81.3625 118.683 81.4132C118.572 81.4639 118.45 81.4834 118.329 81.4697C117.843 81.4697 117.555 81.2021 117.555 80.8454C117.555 80.4887 117.814 80.2252 118.442 80.2252H118.921C118.921 79.9698 118.767 79.8198 118.442 79.8198C118.229 79.8183 118.02 79.8851 117.847 80.0103L117.632 79.605C117.897 79.4345 118.208 79.347 118.524 79.3536C119.16 79.3415 119.517 79.6374 119.517 80.2617ZM118.921 80.7886V80.5778H118.515C118.236 80.5778 118.147 80.6792 118.147 80.817C118.147 80.9548 118.276 81.0683 118.487 81.0683C118.579 81.0725 118.671 81.0477 118.748 80.9976C118.826 80.9475 118.886 80.8745 118.921 80.7886Z" fill="#263238"/>
<path d="M121.341 79.3414V79.8968H121.207C121.131 79.8901 121.054 79.9005 120.982 79.9274C120.911 79.9544 120.846 79.997 120.793 80.0523C120.74 80.1075 120.7 80.174 120.676 80.2467C120.653 80.3194 120.645 80.3966 120.655 80.4724V81.4493H120.06V79.382H120.631V79.6536C120.715 79.5478 120.824 79.4641 120.947 79.4097C121.071 79.3553 121.206 79.3319 121.341 79.3414Z" fill="#263238"/>
<path d="M123.782 78.5916V81.4291H123.214V81.2183C123.135 81.3095 123.035 81.3811 122.923 81.4275C122.812 81.4739 122.691 81.4939 122.57 81.4859C122.299 81.4692 122.045 81.3498 121.859 81.1521C121.673 80.9543 121.569 80.6932 121.569 80.4218C121.569 80.1504 121.673 79.8893 121.859 79.6915C122.045 79.4938 122.299 79.3744 122.57 79.3577C122.685 79.353 122.8 79.373 122.907 79.4164C123.014 79.4597 123.11 79.5254 123.19 79.609V78.6078L123.782 78.5916ZM123.214 80.4076C123.206 80.3056 123.167 80.2082 123.104 80.1276C123.041 80.0469 122.956 79.9863 122.859 79.9533C122.762 79.9203 122.658 79.9163 122.558 79.9417C122.459 79.9671 122.37 80.0209 122.3 80.0965C122.231 80.172 122.186 80.2661 122.169 80.3672C122.153 80.4683 122.166 80.572 122.207 80.6656C122.249 80.7593 122.317 80.8388 122.403 80.8945C122.489 80.9502 122.589 80.9796 122.691 80.9792C122.765 80.9801 122.837 80.9656 122.904 80.9365C122.971 80.9075 123.032 80.8646 123.081 80.8106C123.13 80.7566 123.168 80.6928 123.191 80.6234C123.214 80.5539 123.222 80.4804 123.214 80.4076Z" fill="#263238"/>
<path d="M124.134 81.251L124.332 80.8173C124.55 80.949 124.8 81.0191 125.054 81.02C125.33 81.02 125.431 80.947 125.431 80.8294C125.431 80.493 124.182 80.8294 124.182 80.0187C124.182 79.6133 124.539 79.3498 125.139 79.3498C125.42 79.3432 125.699 79.4059 125.95 79.5323L125.751 79.9579C125.569 79.8563 125.364 79.8032 125.155 79.8038C124.888 79.8038 124.774 79.889 124.774 79.9984C124.774 80.3511 126.019 79.9984 126.019 80.8092C126.019 81.1943 125.662 81.4659 125.046 81.4659C124.728 81.4766 124.413 81.4025 124.134 81.251Z" fill="#263238"/>
<path d="M170.369 103H116.581C115.618 103 114.838 103.78 114.838 104.743V137.594C114.838 138.557 115.618 139.337 116.581 139.337H170.369C171.332 139.337 172.112 138.557 172.112 137.594V104.743C172.112 103.78 171.332 103 170.369 103Z" fill="#E8867C"/>
<path d="M124.267 111.302C124.267 111.768 123.898 112.035 123.193 112.035H121.803V109.348H123.116C123.789 109.348 124.134 109.628 124.134 110.045C124.136 110.167 124.104 110.288 124.041 110.393C123.978 110.498 123.886 110.582 123.777 110.637C123.922 110.676 124.049 110.763 124.138 110.884C124.227 111.005 124.273 111.152 124.267 111.302ZM122.423 109.814V110.451H123.039C123.343 110.451 123.509 110.341 123.509 110.13C123.509 109.919 123.343 109.814 123.039 109.814H122.423ZM123.639 111.237C123.639 111.01 123.465 110.9 123.145 110.9H122.419V111.565H123.145C123.469 111.565 123.643 111.468 123.643 111.237H123.639Z" fill="white"/>
<path d="M126.509 111.46H125.26L125.021 112.035H124.385L125.601 109.348H126.213L127.429 112.035H126.776L126.509 111.46ZM126.314 110.986L125.889 109.956L125.483 110.986H126.314Z" fill="white"/>
<path d="M130.146 109.348V112.019H129.635L128.293 110.398V112.019H127.673V109.332H128.188L129.521 110.953V109.332L130.146 109.348Z" fill="white"/>
<path d="M131.759 110.978L131.398 111.355V112.019H130.782V109.332H131.398V110.584L132.59 109.332H133.279L132.169 110.548L133.348 112.019H132.619L131.759 110.978Z" fill="white"/>
<path d="M123.765 122.482H123.271V123.13H123.019V122.482H121.625V122.299L122.934 120.678H123.218L121.953 122.271H123.028V121.7H123.271V122.271H123.765V122.482Z" fill="white"/>
<path d="M125.577 122.421C125.577 122.826 125.277 123.151 124.681 123.151C124.355 123.162 124.038 123.049 123.793 122.834L123.919 122.632C124.125 122.824 124.399 122.927 124.681 122.92C125.086 122.92 125.317 122.729 125.317 122.421C125.317 122.113 125.106 121.931 124.648 121.931H124.474V121.748L125.159 120.893H123.894V120.666H125.483V120.848L124.786 121.724C125.313 121.748 125.577 122.028 125.577 122.421Z" fill="white"/>
<path d="M127.575 122.405C127.575 122.81 127.279 123.151 126.679 123.151C126.353 123.162 126.036 123.049 125.791 122.835L125.917 122.632C126.121 122.824 126.394 122.928 126.675 122.92C127.08 122.92 127.315 122.713 127.315 122.413C127.315 122.113 127.117 121.898 126.504 121.898H125.982L126.107 120.662H127.457V120.889H126.33L126.245 121.675H126.561C127.291 121.675 127.575 121.967 127.575 122.405Z" fill="white"/>
<path d="M129.748 122.393C129.747 122.499 129.724 122.604 129.68 122.701C129.636 122.799 129.572 122.885 129.493 122.957C129.414 123.028 129.32 123.082 129.219 123.115C129.118 123.149 129.011 123.161 128.905 123.151C128.248 123.151 127.896 122.697 127.896 121.935C127.896 121.172 128.354 120.658 129.022 120.658C129.225 120.65 129.427 120.696 129.606 120.791L129.505 120.994C129.359 120.912 129.193 120.873 129.026 120.881C128.491 120.881 128.151 121.221 128.151 121.89C128.147 121.957 128.147 122.025 128.151 122.093C128.224 121.959 128.334 121.85 128.468 121.778C128.601 121.706 128.753 121.674 128.905 121.687C129.007 121.674 129.112 121.682 129.211 121.71C129.31 121.739 129.402 121.788 129.482 121.855C129.561 121.921 129.625 122.003 129.671 122.096C129.717 122.188 129.743 122.289 129.748 122.393ZM129.497 122.393C129.497 122.068 129.258 121.862 128.876 121.862C128.799 121.853 128.721 121.86 128.646 121.882C128.571 121.905 128.502 121.943 128.443 121.993C128.384 122.044 128.335 122.106 128.301 122.176C128.267 122.246 128.248 122.323 128.244 122.401C128.244 122.672 128.467 122.928 128.893 122.928C128.968 122.937 129.044 122.93 129.116 122.908C129.188 122.886 129.255 122.848 129.312 122.799C129.369 122.749 129.415 122.688 129.447 122.619C129.479 122.551 129.496 122.476 129.497 122.401V122.393Z" fill="white"/>
<path d="M135.083 123.131L134.491 122.356L133.899 123.131H133.619L134.353 122.178L133.652 121.278H133.935L134.491 122.004L135.05 121.278H135.326L134.624 122.178L135.366 123.131H135.083Z" fill="white"/>
<path d="M136.964 123.131L136.376 122.356L135.78 123.131H135.496L136.23 122.178L135.533 121.278H135.816L136.372 122.004L136.927 121.278H137.203L136.505 122.178L137.247 123.131H136.964Z" fill="white"/>
<path d="M138.849 123.131L138.257 122.356L137.665 123.131H137.401L138.135 122.178L137.401 121.278H137.685L138.24 122.004L138.8 121.278H139.076L138.374 122.178L139.116 123.131H138.849Z" fill="white"/>
<path d="M140.729 123.131L140.141 122.356L139.549 123.131H139.266L139.999 122.178L139.302 121.278H139.582L140.141 122.004L140.697 121.278H140.972L140.275 122.178L141.013 123.131H140.729Z" fill="white"/>
<path d="M147.231 123.131L146.639 122.356L146.047 123.131H145.768L146.501 122.178L145.8 121.278H146.084L146.639 122.004L147.199 121.278H147.474L146.773 122.178L147.515 123.131H147.231Z" fill="white"/>
<path d="M149.113 123.131L148.525 122.356L147.941 123.131H147.657L148.391 122.178L147.694 121.278H147.973L148.533 122.004L149.088 121.278H149.364L148.667 122.178L149.404 123.131H149.113Z" fill="white"/>
<path d="M150.993 123.131L150.405 122.356L149.813 123.131H149.529L150.263 122.178L149.562 121.278H149.845L150.401 122.004L150.96 121.278H151.232L150.535 122.178L151.276 123.131H150.993Z" fill="white"/>
<path d="M152.878 123.131L152.291 122.356L151.695 123.131H151.415L152.149 122.178L151.447 121.278H151.731L152.291 122.004L152.846 121.278H153.122L152.424 122.178L153.162 123.131H152.878Z" fill="white"/>
<path d="M158.715 120.662V123.131H158.48V120.889H157.9V120.662H158.715Z" fill="white"/>
<path d="M160.937 122.421C160.937 122.826 160.637 123.151 160.041 123.151C159.716 123.162 159.398 123.049 159.153 122.834L159.275 122.632C159.483 122.824 159.758 122.928 160.041 122.92C160.446 122.92 160.673 122.729 160.673 122.421C160.673 122.113 160.467 121.931 160.009 121.931H159.834V121.748L160.515 120.893H159.255V120.666H160.84V120.848L160.142 121.724C160.673 121.748 160.937 122.028 160.937 122.421Z" fill="white"/>
<path d="M163.389 122.482H162.895V123.13H162.643V122.482H161.249V122.299L162.558 120.678H162.838L161.577 122.271H162.648V121.7H162.895V122.271H163.389V122.482Z" fill="white"/>
<path d="M165.294 122.903V123.131H163.563V122.964L164.589 121.959C164.869 121.683 164.921 121.517 164.921 121.347C164.921 121.063 164.719 120.885 164.342 120.885C164.216 120.877 164.09 120.898 163.974 120.946C163.857 120.994 163.753 121.067 163.669 121.16L163.486 121.006C163.597 120.887 163.733 120.793 163.885 120.732C164.036 120.671 164.199 120.644 164.362 120.654C164.865 120.654 165.173 120.909 165.173 121.319C165.167 121.47 165.128 121.618 165.058 121.752C164.988 121.886 164.889 122.002 164.767 122.093L163.928 122.903H165.294Z" fill="white"/>
<path d="M156.194 132.081C156.194 131.331 156.6 130.91 157.167 130.91C157.735 130.91 158.14 131.315 158.14 132.081C158.14 132.847 157.735 133.257 157.167 133.257C156.6 133.257 156.194 132.831 156.194 132.081ZM157.609 132.081C157.609 131.566 157.431 131.352 157.167 131.352C156.904 131.352 156.725 131.566 156.725 132.081C156.725 132.596 156.908 132.811 157.167 132.811C157.427 132.811 157.609 132.596 157.609 132.081Z" fill="white"/>
<path d="M160.264 132.499C160.262 132.606 160.237 132.712 160.192 132.809C160.147 132.906 160.083 132.993 160.002 133.065C159.922 133.136 159.828 133.19 159.726 133.223C159.623 133.256 159.516 133.267 159.409 133.257C158.78 133.257 158.391 132.851 158.391 132.13C158.375 131.971 158.394 131.811 158.446 131.66C158.497 131.509 158.581 131.371 158.691 131.255C158.802 131.14 158.935 131.049 159.084 130.99C159.232 130.931 159.391 130.905 159.551 130.914C159.772 130.907 159.99 130.96 160.183 131.068L159.988 131.473C159.861 131.393 159.713 131.354 159.563 131.36C159.476 131.354 159.388 131.367 159.306 131.399C159.225 131.43 159.151 131.479 159.09 131.542C159.029 131.605 158.982 131.68 158.953 131.763C158.925 131.845 158.914 131.933 158.922 132.02C158.998 131.95 159.087 131.896 159.183 131.862C159.28 131.827 159.383 131.812 159.486 131.818C159.582 131.809 159.679 131.821 159.771 131.851C159.862 131.881 159.947 131.929 160.02 131.992C160.093 132.056 160.152 132.134 160.194 132.221C160.236 132.308 160.26 132.402 160.264 132.499ZM159.757 132.527C159.757 132.478 159.747 132.431 159.727 132.386C159.707 132.342 159.677 132.303 159.641 132.271C159.605 132.238 159.562 132.214 159.516 132.2C159.469 132.185 159.421 132.181 159.372 132.187C159.323 132.18 159.273 132.183 159.225 132.197C159.177 132.211 159.132 132.235 159.094 132.267C159.056 132.299 159.025 132.339 159.003 132.383C158.981 132.428 158.969 132.477 158.967 132.527C158.967 132.722 159.113 132.863 159.372 132.863C159.42 132.87 159.469 132.866 159.515 132.852C159.562 132.838 159.605 132.814 159.641 132.782C159.677 132.75 159.707 132.711 159.727 132.667C159.747 132.623 159.757 132.575 159.757 132.527Z" fill="white"/>
<path d="M161.318 130.488H161.772L160.702 133.54H160.252L161.318 130.488Z" fill="white"/>
<path d="M163.45 132.786V133.216H161.723V132.875L162.599 132.065C162.802 131.874 162.838 131.757 162.838 131.659C162.838 131.481 162.713 131.376 162.473 131.376C162.382 131.372 162.292 131.391 162.21 131.431C162.128 131.47 162.057 131.529 162.003 131.603L161.622 131.359C161.727 131.223 161.864 131.114 162.021 131.043C162.178 130.973 162.35 130.942 162.522 130.954C163.029 130.954 163.365 131.213 163.365 131.623C163.362 131.764 163.327 131.902 163.262 132.026C163.196 132.151 163.103 132.258 162.988 132.34L162.465 132.831L163.45 132.786Z" fill="white"/>
<path d="M165.712 132.738H165.343V133.216H164.832V132.738H163.616V132.385L164.686 130.946H165.238L164.245 132.312H164.857V131.882H165.351V132.308H165.72L165.712 132.738Z" fill="white"/>
<g opacity="0.2">
<path d="M156.207 113.106C155.985 112.306 155.49 111.61 154.808 111.138C154.126 110.665 153.3 110.446 152.474 110.519C151.953 110.549 151.441 110.67 150.962 110.876C149.782 111.403 148.959 112.802 149.34 114.034C149.66 115.039 150.637 115.68 151.606 116.101C152.575 116.523 153.807 116.835 154.809 116.365C155.281 116.114 155.672 115.733 155.933 115.266C156.195 114.8 156.317 114.268 156.284 113.734C156.279 113.523 156.253 113.312 156.207 113.106Z" fill="white"/>
</g>
<path d="M30.9897 225.804C30.79 219.621 70.4717 213.321 119.621 211.734C168.771 210.146 208.777 213.872 208.976 220.055C209.176 226.238 169.494 232.538 120.345 234.125C71.195 235.713 31.1895 231.987 30.9897 225.804Z" fill="#263238" stroke="#263238" stroke-miterlimit="10"/>
<path d="M206.73 203.711C206.73 203.711 205.648 206.054 204.874 206.854C204.1 207.653 190.14 211.109 190.14 211.109L144.897 221.014L139.417 220.424L120.258 221.039C120.258 221.039 116.434 211.688 120.607 202.476C124.78 193.263 145.656 189.659 151.557 191.535C157.457 193.412 171.279 199.451 181.209 196.149C191.139 192.848 199.06 186.362 202.372 187.224C205.684 188.085 207.263 193.417 207.263 195.719C207.263 198.02 206.73 203.711 206.73 203.711Z" fill="#263238" stroke="#263238" stroke-miterlimit="10"/>
<path d="M109.477 216.522C109.872 207.012 116.234 199.292 123.683 199.271H131.763L131.619 202.675C134.777 205.808 136.694 210.811 136.464 216.451C136.233 222.09 133.9 227.109 130.476 230.257L130.332 233.707H122.258C114.804 233.722 109.082 226.032 109.477 216.522Z" fill="#263238" stroke="#263238" stroke-miterlimit="10"/>
<path d="M129.143 233.631C121.756 232.813 116.618 224.471 117.667 214.998C118.717 205.526 125.556 198.51 132.943 199.328C140.33 200.147 145.468 208.489 144.419 217.961C143.37 227.434 136.531 234.449 129.143 233.631Z" fill="#878787" stroke="#263238" stroke-miterlimit="10"/>
<path d="M120.607 222.346C120.479 221.921 120.361 221.485 120.263 221.039C120.168 220.588 120.086 220.132 120.017 219.67C119.879 218.626 119.831 217.571 119.874 216.517C119.954 214.306 120.442 212.128 121.314 210.094L121.34 210.043C121.525 209.617 121.73 209.202 121.95 208.802L121.991 208.725C122.212 208.33 122.442 207.946 122.688 207.577L122.729 207.515C124.913 204.301 128.118 202.235 131.619 202.229C134.618 202.229 137.258 203.721 139.176 206.167C139.304 206.326 139.427 206.495 139.545 206.679C139.663 206.849 139.781 207.023 139.893 207.192C140.006 207.366 140.114 207.546 140.216 207.705C140.319 207.884 140.416 208.064 140.509 208.248V208.279C140.601 208.458 140.688 208.638 140.775 208.828V208.869C140.857 209.048 140.934 209.233 141.011 209.417C141.011 209.417 141.011 209.458 141.037 209.484C141.108 209.663 141.175 209.843 141.242 210.027L141.273 210.114C141.334 210.289 141.39 210.468 141.447 210.653C141.447 210.688 141.472 210.724 141.483 210.76C141.534 210.935 141.58 211.114 141.631 211.273C141.641 211.32 141.653 211.366 141.667 211.411C141.708 211.581 141.749 211.755 141.785 211.924C141.785 211.975 141.811 212.032 141.821 212.083C141.857 212.252 141.888 212.421 141.918 212.596L141.949 212.785C141.98 212.944 142 213.113 142.021 213.298L142.052 213.508C142.052 213.667 142.088 213.831 142.103 213.995C142.103 214.072 142.103 214.149 142.103 214.226C142.103 214.385 142.103 214.549 142.134 214.708V214.954C142.134 215.123 142.134 215.297 142.134 215.467C142.134 215.543 142.134 215.615 142.134 215.687C142.134 215.933 142.134 216.2 142.134 216.435C142.134 216.671 142.103 217.035 142.072 217.333C142.072 217.404 142.072 217.476 142.072 217.548C142.047 217.804 142.016 218.061 141.98 218.312V218.43C141.883 219.055 141.754 219.665 141.601 220.265C140.927 223.068 139.498 225.632 137.469 227.678L137.397 227.745C137.161 227.97 136.92 228.181 136.669 228.386L136.618 228.422C134.891 229.871 132.72 230.686 130.466 230.729C128.25 230.716 126.114 229.898 124.457 228.427C122.635 226.796 121.302 224.691 120.607 222.346Z" fill="white" stroke="#263238" stroke-miterlimit="10"/>
<path d="M121.15 216.948C121.215 215.349 121.533 213.771 122.094 212.272L126.533 215.056C126.331 215.664 126.215 216.298 126.19 216.938C126.19 217.035 126.19 217.127 126.19 217.22L121.145 218.04C121.135 217.681 121.135 217.317 121.15 216.948Z" fill="#263238" stroke="#263238" stroke-miterlimit="10"/>
<path d="M129.004 211.847C128.528 212.112 128.103 212.46 127.748 212.872L124.621 208.064C125.649 206.909 126.939 206.017 128.384 205.464L129.004 211.847Z" fill="#263238" stroke="#263238" stroke-miterlimit="10"/>
<path d="M126.826 220.07C127.042 220.509 127.322 220.913 127.656 221.27L125.093 227.017C123.803 225.905 122.801 224.498 122.171 222.915L126.826 220.07Z" fill="#263238" stroke="#263238" stroke-miterlimit="10"/>
<path d="M134.377 213.949L138.904 210.801C139.602 212.453 139.969 214.226 139.985 216.02L134.925 216.164C134.88 215.398 134.694 214.647 134.377 213.949Z" fill="#263238" stroke="#263238" stroke-miterlimit="10"/>
<path d="M132.839 212.032C132.473 211.775 132.063 211.588 131.629 211.478L132.367 205.121C133.983 205.42 135.466 206.214 136.612 207.392L132.839 212.032Z" fill="#263238" stroke="#263238" stroke-miterlimit="10"/>
<path d="M129.855 222.454C130.015 222.475 130.176 222.485 130.337 222.485C130.794 222.483 131.246 222.395 131.67 222.223L134.131 227.724C132.902 228.472 131.494 228.873 130.055 228.883C129.666 228.885 129.276 228.856 128.891 228.796L129.855 222.454Z" fill="#263238" stroke="#263238" stroke-miterlimit="10"/>
<path d="M134.413 219.306L139.422 220.424C138.938 222.176 138.106 223.813 136.976 225.238L133.767 220.496C134.027 220.125 134.243 219.726 134.413 219.306Z" fill="#263238" stroke="#263238" stroke-miterlimit="10"/>
<path d="M185.244 206.91C185.429 198.943 188.412 192.468 191.909 192.453H199.968L199.296 221.306H191.237C187.741 221.321 185.059 214.861 185.244 206.91Z" fill="#263238" stroke="#263238" stroke-miterlimit="10"/>
<path d="M193.303 206.91C193.118 214.877 195.8 221.321 199.296 221.306C202.792 221.29 205.776 214.82 205.961 206.849C206.145 198.877 203.464 192.438 199.968 192.453C196.471 192.468 193.488 198.969 193.303 206.91Z" fill="#878787" stroke="#263238" stroke-miterlimit="10"/>
<path d="M194.733 211.785C194.672 211.427 194.615 211.063 194.569 210.688C194.523 210.314 194.487 209.93 194.456 209.54C194.395 208.689 194.369 207.807 194.39 206.9C194.424 205.086 194.654 203.281 195.077 201.517V201.476C195.164 201.117 195.261 200.768 195.364 200.45V200.384C195.471 200.056 195.579 199.733 195.697 199.425V199.374C196.722 196.677 198.225 194.949 199.87 194.939C201.275 194.939 202.521 196.19 203.413 198.241C203.474 198.379 203.531 198.518 203.587 198.656C203.643 198.8 203.7 198.943 203.751 199.092C203.802 199.24 203.854 199.389 203.9 199.538C203.946 199.686 203.992 199.835 204.038 199.994C204.086 200.144 204.127 200.298 204.161 200.455V200.491C204.202 200.64 204.238 200.794 204.274 200.953C204.272 200.97 204.272 200.987 204.274 201.004C204.31 201.153 204.341 201.306 204.371 201.46C204.374 201.484 204.374 201.508 204.371 201.532C204.402 201.681 204.428 201.835 204.459 201.983V202.075C204.459 202.224 204.505 202.373 204.525 202.522V202.634C204.525 202.778 204.566 202.921 204.582 203.065C204.584 203.111 204.584 203.157 204.582 203.203C204.582 203.342 204.612 203.485 204.623 203.624C204.623 203.68 204.623 203.731 204.623 203.783L204.653 204.198V204.372C204.653 204.511 204.653 204.644 204.653 204.782C204.653 204.921 204.653 204.911 204.653 204.972C204.653 205.11 204.653 205.244 204.653 205.382C204.653 205.521 204.653 205.515 204.653 205.582C204.653 205.726 204.653 205.869 204.653 206.018C204.653 206.079 204.653 206.141 204.653 206.202C204.653 206.408 204.653 206.618 204.653 206.823C204.653 207.028 204.653 207.335 204.653 207.582C204.653 207.638 204.653 207.699 204.653 207.761L204.607 208.397C204.607 208.433 204.607 208.463 204.607 208.499C204.561 209.012 204.5 209.525 204.428 210.037C204.163 212.209 203.497 214.312 202.464 216.24L202.433 216.302C202.321 216.487 202.208 216.666 202.09 216.815V216.845C201.244 218.06 200.25 218.773 199.199 218.778C198.148 218.783 197.179 218.071 196.384 216.851C195.513 215.284 194.953 213.564 194.733 211.785Z" fill="white" stroke="#263238" stroke-miterlimit="10"/>
<path d="M31.6752 211.011C32.0699 201.501 38.4321 193.781 45.8811 193.76H53.9607C61.4149 193.76 67.1362 201.45 66.7415 210.945C66.3467 220.439 59.9846 228.191 52.5304 228.191H44.4559C37.0018 228.216 31.2804 220.501 31.6752 211.011Z" fill="#263238" stroke="#263238" stroke-miterlimit="10"/>
<path d="M182.66 151.66C182.66 151.66 186.248 152.716 186.725 153.767C187.202 154.818 187.474 155.572 187.474 155.572L198.306 171.367C198.306 171.367 202.218 171.07 203.433 174.376C204.648 177.683 204.181 182.2 204.181 182.2C204.181 182.2 207.042 189.269 207.191 194.534C207.293 197.6 207.142 200.67 206.74 203.711C206.74 203.711 207.493 194.083 205.238 191.074C202.982 188.064 198.317 190.325 196.522 195.739C194.728 201.153 192.575 211.232 192.575 211.232L144.897 221.013C144.897 221.013 147.306 208.376 144.143 201.153C140.98 193.929 126.246 194.386 123.534 207.474C120.822 220.562 121.73 222.967 121.73 222.967C121.73 222.967 111.651 225.074 80.9624 224.623C50.2743 224.171 33.4281 220.562 28.9116 219.358C28.9116 219.358 27.8862 213.79 27.5581 210.483C27.3588 208.58 27.6702 206.658 28.4604 204.916C28.4604 204.916 28.7629 198.897 29.5165 196.79C30.2701 194.683 32.5258 191.525 32.5258 191.525C32.5258 191.525 34.7816 186.26 38.5394 182.953C42.2972 179.647 48.4697 176.335 49.977 175.581C51.4842 174.827 53.4323 174.376 56.293 172.423C59.1537 170.47 76.9021 158.13 82.4697 154.823C88.0372 151.517 100.069 149.856 102.464 149.404C104.858 148.953 132.552 147 142.18 147C151.808 147 171.679 147.451 182.66 151.66Z" fill="#E8867C" stroke="#263238" stroke-miterlimit="10"/>
<path opacity="0.15" d="M27.563 210.483C27.3636 208.58 27.6751 206.659 28.4653 204.916C28.4653 204.916 28.5627 202.988 28.7831 200.938C47.6082 206.49 81.2851 206.864 90.6772 206.033C101.469 205.085 120.612 202.476 121.437 199.369C122.262 196.262 129.686 189.213 134.766 187.306C139.119 185.675 189.622 178.683 203.976 176.714C204.24 178.529 204.297 180.367 204.145 182.195C204.145 182.195 207.006 189.264 207.155 194.529C207.257 197.595 207.106 200.665 206.704 203.706C206.704 203.706 207.457 194.078 205.201 191.069C202.946 188.059 198.28 190.32 196.486 195.734C194.692 201.148 192.575 211.232 192.575 211.232L144.897 221.014C144.897 221.014 147.306 208.376 144.143 201.153C140.98 193.929 126.246 194.386 123.534 207.474C120.822 220.562 121.729 222.967 121.729 222.967C121.729 222.967 111.65 225.074 80.9622 224.623C50.274 224.172 33.4279 220.562 28.9113 219.358C28.9164 219.358 27.8654 213.79 27.563 210.483Z" fill="black"/>
<path d="M149.716 156.474C155.771 152.137 160.995 151.476 163.445 151.276C165.778 155.464 169.597 163.39 170.361 171.608C157.545 173.607 143.246 175.884 143.246 175.884C143.246 175.884 139.94 177.083 138.735 175.884C138.34 175.562 138.03 175.148 137.833 174.679C137.53 173.925 142.795 161.442 149.716 156.474Z" fill="white" stroke="#263238" stroke-miterlimit="10"/>
<path d="M167.561 151.291C171.016 151.476 174.453 151.91 177.846 152.588C181.306 153.342 182.511 153.49 183.111 154.095C183.71 154.7 189.58 162.057 191.688 167.307C191.601 167.684 191.391 168.022 191.092 168.267C190.792 168.512 190.419 168.651 190.032 168.66C189.519 168.66 183.223 169.614 175.38 170.829C174.067 166.158 171.432 157.956 167.561 151.291Z" fill="white" stroke="#263238" stroke-miterlimit="10"/>
<path d="M186.674 168.896C186.674 168.896 184.111 159.017 178.933 153.142" stroke="#263238" stroke-miterlimit="10"/>
<path d="M170.222 178.708L174.503 177.95C174.642 177.991 174.772 178.06 174.884 178.152C174.997 178.244 175.09 178.358 175.158 178.486C175.226 178.614 175.268 178.755 175.281 178.9C175.295 179.044 175.279 179.19 175.236 179.329C174.918 180.38 174.349 180.262 174.349 180.262L170.786 180.836C170.552 180.86 170.318 180.796 170.128 180.657C169.939 180.517 169.808 180.313 169.761 180.082C169.576 179.221 169.335 179.113 170.222 178.708Z" stroke="#263238" stroke-miterlimit="10"/>
<path d="M191.862 174.976L195.138 174.361C195.36 174.437 195.543 174.598 195.648 174.808C195.752 175.018 195.77 175.261 195.697 175.484C195.456 176.335 195.02 176.243 195.02 176.243L192.298 176.709C192.113 176.727 191.928 176.673 191.782 176.558C191.636 176.444 191.54 176.278 191.513 176.094C191.365 175.386 191.18 175.31 191.862 174.976Z" stroke="#263238" stroke-miterlimit="10"/>
<path d="M165.686 150.778C165.686 150.778 171.787 162.124 172.863 171.541" stroke="#263238" stroke-miterlimit="10"/>
<path d="M174.247 173.49C174.247 173.49 177.031 178.196 177.139 179.8C177.246 181.405 176.923 200.671 176.39 204.203" stroke="#263238" stroke-miterlimit="10"/>
<path d="M143.958 163C143.958 163 146.101 169.209 146.742 172.526" stroke="#263238" stroke-miterlimit="10"/>
<path d="M144.815 180.231C144.815 180.231 147.173 188.044 147.276 193.929C147.378 199.815 147.491 210.847 147.491 210.847" stroke="#263238" stroke-miterlimit="10"/>
<path d="M192.016 169.419C192.016 169.419 197.045 174.033 197.471 175.519C197.896 177.006 197.368 189.874 197.368 189.874" stroke="#263238" stroke-miterlimit="10"/>
<path d="M191.037 204.418C191.037 204.418 190.289 206.561 188.684 207.095C187.079 207.628 148.117 215.123 148.117 215.123" stroke="#263238" stroke-miterlimit="10"/>
<path d="M78.1943 211.211C78.1943 211.211 48.3623 211.621 37.2785 208.202C37.2785 208.202 38.3705 215.589 40.4263 217.097C42.4821 218.604 57.3955 220.137 64.6446 220.378C72.8472 220.655 77.5125 219.834 77.5125 219.834L78.1943 211.211Z" fill="#263238" stroke="#263238" stroke-miterlimit="10"/>
<path d="M83.5312 192.596L80.5219 198.748C80.5219 198.748 63.6911 199.159 61.7737 199.292C59.8564 199.425 57.8057 200.389 55.6218 199.292C53.4378 198.195 43.9894 196.97 42.8923 196.97C41.7952 196.97 40.4315 197.928 40.4315 197.928C40.4315 197.928 42.8923 191.776 43.851 191.223C44.5692 190.859 45.3787 190.714 46.1785 190.807C46.5835 190.818 66.562 189.315 83.5312 192.596Z" fill="#263238" stroke="#263238" stroke-miterlimit="10"/>
<path d="M115.254 180.308C115.254 180.308 122.432 179.206 125.164 180.169C127.897 181.133 126.543 184.85 121.863 188.29C117.182 191.73 113.327 195.032 108.533 195.585C103.74 196.139 95.4347 197.943 95.0246 196.405C94.6144 194.867 96.1268 189.387 101.633 185.393C107.139 181.4 115.254 180.308 115.254 180.308Z" fill="white" stroke="#263238" stroke-miterlimit="10"/>
<path d="M57.7435 172.459L59.1174 172.874L65.7821 173.064C69.2836 173.166 73.9078 173.295 79.0191 173.428C86.0734 173.617 94.0504 173.812 101.253 173.94C112.265 174.171 121.483 174.289 122.867 174.084C125.649 173.726 128.263 172.552 130.378 170.711C131.971 169.285 133.296 167.585 134.29 165.692C137.555 159.658 145.922 152.229 145.922 152.229C132.71 150.691 101.192 151.265 97.6134 151.404C96.5033 151.46 95.3984 151.594 94.3068 151.804C90.4874 152.48 85.5043 153.982 82.6129 155.946C82.1002 156.295 81.2748 156.843 80.2392 157.535C77.8195 159.15 74.2308 161.529 70.6268 163.918L64.3415 168.076L57.7435 172.459Z" fill="white" stroke="#263238" stroke-miterlimit="10"/>
<path d="M82.6385 155.946C82.1259 156.295 81.3005 156.843 80.2649 157.535L101.212 173.941C112.224 174.171 121.442 174.289 122.826 174.084C125.608 173.726 128.222 172.553 130.337 170.711L94.3324 151.804C90.5131 152.48 85.53 153.983 82.6385 155.946Z" fill="#263238" stroke="#263238" stroke-miterlimit="10"/>
<path d="M64.3676 168.076L65.7415 173.064C69.243 173.166 73.8672 173.295 78.9785 173.428L70.6528 163.918L64.3676 168.076Z" fill="#263238" stroke="#263238" stroke-miterlimit="10"/>
<path d="M87.3916 188.48C86.556 189.331 85.746 190.228 84.977 191.181" stroke="#263238" stroke-miterlimit="10"/>
<path d="M107.688 176.314C107.688 176.314 97.2701 179.39 88.8368 187.08" stroke="#263238" stroke-miterlimit="10"/>
<path d="M40.9648 190.935C39.8643 193.003 39.0666 195.218 38.5963 197.513" stroke="#263238" stroke-miterlimit="10"/>
<path d="M56.8975 176.868C56.8975 176.868 47.6695 180.457 42.1378 188.946" stroke="#263238" stroke-miterlimit="10"/>
<path d="M99.4286 213.887C99.4286 215.487 100.967 216.779 102.869 216.779C104.771 216.779 106.309 215.487 106.309 213.887C106.309 212.288 104.771 210.996 102.869 210.996C100.967 210.996 99.4286 212.298 99.4286 213.887Z" fill="white" stroke="#263238" stroke-miterlimit="10"/>
<path d="M28.168 209.191C28.4603 210.57 29.3882 211.539 30.2443 211.355C31.1005 211.17 31.5567 209.914 31.2697 208.535C30.9826 207.156 30.0495 206.192 29.219 206.372C28.3885 206.551 27.8758 207.817 28.168 209.191Z" fill="white" stroke="#263238" stroke-miterlimit="10"/>
<path d="M146.41 174.361C146.41 174.361 149.265 169.547 151.07 169.234C152.874 168.921 160.549 168.634 162.205 169.69C163.861 170.747 163.405 174.202 162.805 175.104C162.205 176.006 159.795 176.458 157.678 176.309C155.561 176.16 148.501 176.76 148.501 176.76C148.501 176.76 144.292 179.769 142.785 179.467C141.278 179.165 139.325 175.878 140.683 174.048C142.042 172.218 144.149 172.72 146.41 174.361Z" fill="#263238" stroke="#263238" stroke-miterlimit="10"/>
<path d="M146.409 174.376L141.441 175.432" stroke="#263238" stroke-miterlimit="10"/>
<path d="M182.66 151.66C182.66 151.66 186.248 152.716 186.725 153.767C187.202 154.818 187.474 155.572 187.474 155.572L198.306 171.367C198.306 171.367 202.218 171.07 203.433 174.376C204.648 177.683 204.181 182.2 204.181 182.2C204.181 182.2 207.042 189.269 207.191 194.534C207.293 197.6 207.142 200.67 206.74 203.711C206.74 203.711 207.493 194.083 205.238 191.074C202.982 188.064 198.317 190.325 196.522 195.739C194.728 201.153 192.575 211.232 192.575 211.232L144.897 221.013C144.897 221.013 147.306 208.376 144.143 201.153C140.98 193.929 126.246 194.386 123.534 207.474C120.822 220.562 121.73 222.967 121.73 222.967C121.73 222.967 111.651 225.074 80.9624 224.623C50.2743 224.171 33.4281 220.562 28.9116 219.358C28.9116 219.358 27.8862 213.79 27.5581 210.483C27.3588 208.58 27.6702 206.658 28.4604 204.916C28.4604 204.916 28.7629 198.897 29.5165 196.79C30.2701 194.683 32.5258 191.525 32.5258 191.525C32.5258 191.525 34.7816 186.26 38.5394 182.953C42.2972 179.647 48.4697 176.335 49.977 175.581C51.4842 174.827 53.4323 174.376 56.293 172.423C59.1537 170.47 76.9021 158.13 82.4697 154.823C88.0372 151.517 100.069 149.856 102.464 149.404C104.858 148.953 132.552 147 142.18 147C151.808 147 171.679 147.451 182.66 151.66Z" stroke="#263238" stroke-miterlimit="10"/>
<path d="M43.9636 179.067C43.9636 179.067 46.9884 180.17 46.163 181.272C45.3376 182.374 40.7954 185.26 38.7345 188.839C36.6735 192.417 36.2531 194.206 35.2945 194.206C34.3358 194.206 32.2441 192.422 32.5312 191.525C32.8183 190.628 34.3307 182.507 43.9636 179.067Z" fill="white" stroke="#263238" stroke-miterlimit="10"/>
<path d="M195.4 206.659C195.426 205.26 195.57 203.866 195.83 202.491L197.881 204.972C197.779 205.529 197.719 206.093 197.701 206.659C197.701 206.746 197.701 206.828 197.701 206.91L195.389 207.643C195.394 207.3 195.394 206.971 195.4 206.659Z" fill="#263238" stroke="#263238" stroke-miterlimit="10"/>
<path d="M199.009 202.096C198.77 202.367 198.575 202.673 198.429 203.004L196.999 198.713C197.377 197.813 197.97 197.021 198.727 196.406L199.009 202.096Z" fill="#263238" stroke="#263238" stroke-miterlimit="10"/>
<path d="M198.003 209.427C198.094 209.796 198.221 210.155 198.383 210.499L197.204 215.625C196.557 214.488 196.104 213.251 195.866 211.965L198.003 209.427Z" fill="#263238" stroke="#263238" stroke-miterlimit="10"/>
<path d="M201.464 203.967L203.515 201.158C203.844 202.688 204.016 204.248 204.027 205.813L201.71 205.941C201.692 205.277 201.61 204.616 201.464 203.967Z" fill="#263238" stroke="#263238" stroke-miterlimit="10"/>
<path d="M200.777 202.26C200.638 202.046 200.448 201.87 200.223 201.747L200.562 196.057C201.295 196.308 201.961 197.026 202.51 198.082L200.777 202.26Z" fill="#263238" stroke="#263238" stroke-miterlimit="10"/>
<path d="M199.394 211.55C199.465 211.57 199.54 211.581 199.614 211.58C199.838 211.574 200.054 211.49 200.224 211.344L201.362 216.256C201.142 216.551 200.861 216.795 200.538 216.972C200.216 217.149 199.858 217.255 199.491 217.281C199.317 217.277 199.145 217.25 198.978 217.199L199.394 211.55Z" fill="#263238" stroke="#263238" stroke-miterlimit="10"/>
<path d="M201.48 208.745L203.776 209.735C203.577 211.205 203.2 212.646 202.654 214.026L201.182 209.796C201.306 209.453 201.406 209.102 201.48 208.745Z" fill="#263238" stroke="#263238" stroke-miterlimit="10"/>
<path d="M201.688 35C180.969 35 164.5 51.4688 164.5 72.1875C164.5 92.9062 180.969 109.375 201.688 109.375C222.406 109.375 238.875 92.9062 238.875 72.1875C238.875 51.4688 222.406 35 201.688 35ZM216.031 90.7812L201.688 76.4375L187.344 90.7812L183.094 86.5312L197.438 72.1875L183.094 57.8438L187.344 53.5938L201.688 67.9375L216.031 53.5938L220.281 57.8438L205.938 72.1875L220.281 86.5312L216.031 90.7812Z" fill="#E8867C"/>
</svg>
