<svg width="206" height="205" viewBox="0 0 206 205" fill="none" xmlns="http://www.w3.org/2000/svg">
<path d="M44.0089 112.803C44.0089 112.803 40.2861 113.787 43.4185 121.823C46.5509 129.859 48.8715 133.918 48.8715 133.918C48.8715 133.918 49.384 135.763 47.8629 135.886C46.3418 136.009 43.1028 135.156 42.2541 136.919C41.4054 138.682 42.5698 140.671 45.2061 142.52C47.8424 144.369 53.4635 148.637 53.9719 149.023C54.4803 149.408 54.919 150.285 53.894 150.535C52.869 150.786 45.3947 150.814 45.6202 154.361C45.8457 157.907 54.0334 161.856 54.919 162.307C55.8046 162.758 55.985 163.168 55.862 163.664C55.739 164.16 53.2216 163.938 51.0937 164.033C48.9658 164.127 46.5181 164.611 46.8215 166.644C47.1249 168.678 51.7415 173.36 63.8365 175.783L69.5191 176.542L73.1066 172.032C80.1914 161.925 80.3062 155.357 79.1213 153.676C77.9364 151.995 75.8413 153.332 74.2218 154.73C72.6023 156.128 70.9418 158.01 70.5318 157.756C70.1218 157.501 69.9414 157.054 70.2735 156.116C70.6056 155.177 73.8118 146.686 71.5281 143.951C69.2444 141.216 63.8119 146.366 62.8976 146.886C61.9833 147.407 61.7004 146.476 61.7988 145.845C61.8972 145.214 63.0288 138.248 63.6602 135.091C64.2916 131.934 63.8283 129.716 61.93 128.998C60.1014 128.309 58.3466 131.163 57.1576 132.122C55.9686 133.082 55.0707 131.393 55.0707 131.393C55.0707 131.393 53.9514 126.854 50.6755 118.875C47.3996 110.897 43.9474 112.815 43.9474 112.815" fill="#EBEBEB"/>
<path d="M69.6798 177.911C67.2977 172.044 63.2305 161.54 59.7004 152.54C56.1703 143.541 52.9641 135.402 50.6107 129.523C49.4299 126.592 48.4787 124.193 47.8145 122.553L47.056 120.659L46.8633 120.167C46.8396 120.111 46.819 120.053 46.8018 119.995C46.8018 119.995 46.8305 120.048 46.8797 120.159C46.9289 120.269 46.9986 120.437 47.0888 120.647L47.8801 122.528C48.5607 124.168 49.5201 126.534 50.7255 129.47C53.1076 135.337 56.3343 143.471 59.8685 152.471C63.4027 161.47 67.4412 171.979 69.7987 177.858" fill="#E0E0E0"/>
<path d="M46.7354 138.297C46.869 138.333 46.9983 138.384 47.1208 138.449C47.3668 138.555 47.7153 138.719 48.1417 138.924C48.9986 139.334 50.1671 139.945 51.4463 140.638L54.7263 142.418L55.7184 142.947C55.8448 143.004 55.9644 143.076 56.0752 143.16C55.9415 143.121 55.8112 143.072 55.6857 143.012C55.4438 142.906 55.0953 142.737 54.6689 142.528C53.8161 142.118 52.6558 141.483 51.3889 140.794L48.1089 139.039L47.1167 138.51C46.9804 138.457 46.8521 138.385 46.7354 138.297Z" fill="#E0E0E0"/>
<path d="M56.4857 142.832C56.4406 142.811 57.5804 140.347 59.0318 137.329C60.4832 134.312 61.6927 131.881 61.7378 131.901C61.7829 131.922 60.6431 134.39 59.1917 137.407C57.7403 140.425 56.5308 142.856 56.4857 142.832Z" fill="#E0E0E0"/>
<path d="M61.2871 156.895C61.3644 156.776 61.4537 156.667 61.5536 156.567L62.3244 155.71C62.9722 154.988 63.8619 153.984 64.7844 152.84C65.7069 151.696 66.5474 150.638 67.1337 149.863C67.4125 149.502 67.6421 149.195 67.8307 148.949C67.9081 148.831 67.9989 148.722 68.1013 148.625C68.0454 148.755 67.9738 148.877 67.8881 148.99C67.7364 149.215 67.5191 149.543 67.2362 149.941C66.6745 150.732 65.8709 151.811 64.9238 152.955C63.9767 154.098 63.0706 155.095 62.3982 155.796C62.062 156.144 61.7873 156.427 61.5782 156.616C61.4913 156.719 61.3938 156.812 61.2871 156.895Z" fill="#E0E0E0"/>
<path d="M51.5654 154.734C51.7035 154.731 51.8413 154.746 51.9754 154.779L53.0209 154.968C53.9024 155.136 55.1201 155.378 56.4608 155.661C57.8015 155.943 59.011 156.206 59.8884 156.403L60.9216 156.649C61.0515 156.672 61.1782 156.71 61.2988 156.763C61.1608 156.766 61.023 156.751 60.8888 156.718L59.8433 156.526C58.9577 156.358 57.7441 156.116 56.4034 155.837C55.0627 155.558 53.8491 155.292 52.9758 155.091L51.9385 154.849C51.8098 154.826 51.6845 154.788 51.5654 154.734Z" fill="#E0E0E0"/>
<path d="M54.21 167.69C54.3784 167.696 54.5458 167.718 54.7102 167.756L56.0509 167.993C57.1825 168.202 58.7446 168.502 60.4625 168.842C62.1804 169.182 63.7425 169.506 64.87 169.748L66.1984 170.039C66.3634 170.068 66.5254 170.111 66.6822 170.17C66.5151 170.167 66.3489 170.146 66.1861 170.109L64.8454 169.871C63.7138 169.662 62.1517 169.363 60.4297 169.018C58.7077 168.674 57.1497 168.354 56.0263 168.116L54.6938 167.821C54.529 167.791 54.3672 167.747 54.21 167.69Z" fill="#E0E0E0"/>
<path d="M66.4199 170.023C66.5153 169.877 66.6237 169.739 66.7438 169.613L67.6786 168.493C68.4699 167.546 69.5523 166.234 70.7085 164.75C71.8647 163.266 72.8774 161.905 73.6031 160.908L74.4641 159.728C74.5639 159.582 74.6749 159.445 74.7962 159.318C74.7201 159.479 74.6281 159.633 74.5215 159.777C74.3329 160.068 74.0582 160.482 73.7015 161.007C73.0004 162.02 72.0041 163.401 70.8315 164.885C69.6589 166.37 68.5724 167.669 67.7606 168.6C67.3506 169.059 67.0185 169.42 66.7807 169.682C66.6696 169.805 66.5489 169.919 66.4199 170.023Z" fill="#E0E0E0"/>
<path d="M157.48 120.534L128.691 137.928C127.23 138.811 126.761 140.711 127.644 142.173L156.112 189.291C156.995 190.752 158.895 191.221 160.357 190.338L189.146 172.944C190.608 172.061 191.076 170.161 190.194 168.699L161.725 121.581C160.842 120.12 158.942 119.651 157.48 120.534Z" fill="#EBEBEB"/>
<path d="M179.198 168.416C178.483 168.849 177.655 169.059 176.82 169.022C175.984 168.984 175.179 168.699 174.505 168.204C173.832 167.708 173.32 167.024 173.036 166.238C172.751 165.452 172.706 164.599 172.906 163.787C173.106 162.975 173.543 162.241 174.161 161.677C174.778 161.113 175.549 160.745 176.376 160.62C177.203 160.494 178.048 160.617 178.805 160.972C179.562 161.327 180.197 161.898 180.629 162.614C180.916 163.089 181.107 163.616 181.191 164.164C181.274 164.713 181.249 165.273 181.116 165.812C180.983 166.35 180.745 166.858 180.416 167.305C180.087 167.751 179.673 168.129 179.198 168.416Z" fill="white"/>
<path d="M179.67 173.59C179.31 173.591 178.952 173.547 178.604 173.459C177.518 173.187 176.577 172.512 175.972 171.57C175.367 170.629 175.144 169.492 175.348 168.392C175.553 167.291 176.169 166.311 177.072 165.649C177.975 164.988 179.096 164.696 180.207 164.832C181.317 164.969 182.334 165.524 183.049 166.385C183.765 167.245 184.125 168.346 184.057 169.463C183.988 170.58 183.496 171.629 182.681 172.396C181.866 173.163 180.789 173.59 179.67 173.59ZM179.67 165.136C178.958 165.137 178.259 165.327 177.644 165.687C177.03 166.047 176.522 166.564 176.173 167.184C175.823 167.804 175.645 168.506 175.656 169.218C175.666 169.93 175.866 170.627 176.234 171.236C176.785 172.14 177.669 172.79 178.696 173.047C179.722 173.304 180.808 173.147 181.72 172.61C182.4 172.198 182.944 171.594 183.281 170.873C183.619 170.153 183.735 169.349 183.615 168.562C183.495 167.776 183.145 167.043 182.608 166.455C182.072 165.868 181.373 165.453 180.6 165.263C180.287 165.18 179.965 165.138 179.641 165.136H179.67Z" fill="white"/>
<path d="M141.13 136.784L138.219 138.539L138.039 138.244L140.684 136.645L140.274 135.96L140.54 135.8L141.13 136.784Z" fill="white"/>
<path d="M140.31 141.372L140.043 141.532L138.813 139.482L139.023 139.351L140.937 139.847C141.09 139.91 141.255 139.939 141.42 139.931C141.585 139.924 141.747 139.879 141.893 139.802C142.229 139.597 142.303 139.236 142.028 138.793C141.945 138.638 141.828 138.504 141.686 138.4C141.544 138.296 141.381 138.226 141.208 138.195L141.261 137.871C141.481 137.916 141.687 138.01 141.867 138.145C142.046 138.279 142.193 138.452 142.298 138.65C142.655 139.24 142.581 139.798 142.098 140.089C141.915 140.189 141.713 140.248 141.505 140.261C141.297 140.274 141.089 140.24 140.896 140.163L139.326 139.753L140.31 141.372Z" fill="white"/>
<path d="M142.659 144.135L142.307 143.553L141.54 144.012L141.359 143.713L142.122 143.254L141.13 141.614L141.347 141.483L144.217 141.86L144.418 142.192L141.642 141.839L142.405 143.102L143.077 142.692L143.254 142.983L142.581 143.393L142.934 143.975L142.659 144.135Z" fill="white"/>
<path d="M145.353 148.592L145.001 148.01L144.238 148.473L144.058 148.174L144.82 147.711L143.828 146.071L144.045 145.939L146.915 146.317L147.116 146.649L144.341 146.296L145.103 147.559L145.78 147.149L145.952 147.44L145.28 147.85L145.64 148.42L145.353 148.592Z" fill="white"/>
<path d="M146.981 151.081C146.489 151.38 145.89 151.265 145.464 150.556C145.22 150.182 145.128 149.729 145.205 149.289H145.529C145.451 149.668 145.525 150.063 145.734 150.388C146.034 150.88 146.431 150.999 146.784 150.798C147.137 150.597 147.251 150.199 146.784 149.457L146.411 148.838L147.961 148.108L148.92 149.699L148.654 149.859L147.834 148.531L146.85 148.99L147.075 149.363C147.641 150.228 147.497 150.769 146.981 151.081Z" fill="white"/>
<path d="M148.732 153.947C148.606 154.021 148.466 154.069 148.32 154.087C148.175 154.104 148.027 154.092 147.887 154.049C147.746 154.007 147.616 153.936 147.505 153.84C147.394 153.745 147.303 153.628 147.24 153.496C146.772 152.721 147.055 151.979 147.973 151.421C148.962 150.827 149.802 151.056 150.278 151.831C150.434 152.065 150.525 152.337 150.54 152.618L150.224 152.643C150.22 152.412 150.149 152.186 150.019 151.995C149.642 151.368 148.994 151.208 148.207 151.683C148.128 151.731 148.051 151.783 147.978 151.839C148.189 151.825 148.399 151.874 148.583 151.979C148.767 152.084 148.915 152.241 149.011 152.43C149.101 152.544 149.167 152.677 149.202 152.818C149.237 152.96 149.242 153.108 149.215 153.251C149.189 153.395 149.132 153.531 149.049 153.651C148.965 153.771 148.857 153.872 148.732 153.947ZM148.543 153.66C148.635 153.604 148.713 153.53 148.773 153.441C148.833 153.353 148.873 153.252 148.891 153.147C148.909 153.042 148.904 152.934 148.877 152.831C148.849 152.727 148.8 152.631 148.732 152.549C148.694 152.443 148.633 152.348 148.554 152.269C148.474 152.19 148.378 152.13 148.272 152.094C148.166 152.058 148.054 152.045 147.943 152.058C147.831 152.071 147.725 152.109 147.63 152.169C147.535 152.229 147.456 152.309 147.396 152.404C147.337 152.499 147.3 152.606 147.288 152.718C147.275 152.829 147.288 152.941 147.325 153.047C147.362 153.153 147.423 153.248 147.502 153.328C147.545 153.421 147.607 153.504 147.684 153.572C147.761 153.64 147.852 153.691 147.95 153.722C148.048 153.754 148.151 153.764 148.253 153.753C148.355 153.743 148.454 153.711 148.543 153.66Z" fill="white"/>
<path d="M151.101 157.948C150.617 158.243 150.031 158.116 149.605 157.411C149.359 157.036 149.267 156.581 149.346 156.14H149.67C149.592 156.522 149.667 156.92 149.879 157.247C150.17 157.731 150.556 157.858 150.917 157.657C151.277 157.456 151.347 157.063 151.019 156.521L150.896 156.316L151.113 156.181L152.61 156.378L151.712 154.89L151.979 154.73L153.11 156.599L152.897 156.726L151.364 156.53C151.708 157.157 151.569 157.669 151.101 157.948Z" fill="white"/>
<path d="M152.897 160.847C152.771 160.922 152.63 160.969 152.484 160.987C152.339 161.004 152.191 160.991 152.051 160.948C151.91 160.905 151.78 160.834 151.669 160.738C151.558 160.642 151.468 160.524 151.405 160.392C150.937 159.621 151.22 158.875 152.138 158.321C153.127 157.723 153.971 157.952 154.447 158.731C154.601 158.965 154.69 159.235 154.705 159.515L154.393 159.539C154.387 159.308 154.316 159.084 154.188 158.891C153.807 158.264 153.163 158.104 152.372 158.584C152.307 158.621 152.225 158.678 152.143 158.736C152.354 158.724 152.564 158.773 152.748 158.878C152.932 158.982 153.082 159.138 153.18 159.326C153.27 159.441 153.335 159.574 153.37 159.716C153.405 159.859 153.41 160.007 153.383 160.151C153.356 160.295 153.299 160.431 153.215 160.551C153.131 160.671 153.023 160.772 152.897 160.847ZM152.712 160.556C152.803 160.5 152.881 160.425 152.941 160.337C153.001 160.248 153.04 160.148 153.058 160.042C153.075 159.937 153.07 159.829 153.042 159.726C153.015 159.623 152.965 159.527 152.897 159.445C152.86 159.337 152.8 159.239 152.72 159.159C152.64 159.078 152.543 159.017 152.435 158.979C152.328 158.941 152.214 158.929 152.101 158.942C151.988 158.955 151.88 158.993 151.784 159.054C151.688 159.115 151.607 159.197 151.548 159.294C151.488 159.39 151.451 159.5 151.44 159.613C151.429 159.726 151.444 159.84 151.483 159.946C151.522 160.053 151.585 160.149 151.667 160.228C151.711 160.321 151.774 160.404 151.851 160.471C151.929 160.539 152.02 160.59 152.118 160.621C152.216 160.651 152.32 160.662 152.422 160.65C152.524 160.639 152.623 160.607 152.712 160.556Z" fill="white"/>
<path d="M156.554 162.29L156.345 162.417L152.909 162.827L152.717 162.503L156.083 162.093L155.177 160.597L154.636 160.925L154.455 160.63L155.275 160.142L156.554 162.29Z" fill="white"/>
<path d="M159.068 166.46L158.859 166.587L155.423 166.997L155.23 166.673L158.597 166.263L157.69 164.767L157.145 165.099L156.969 164.804L157.789 164.312L159.068 166.46Z" fill="white"/>
<path d="M158.698 170.58C158.186 170.892 157.599 170.646 157.181 169.953C156.763 169.26 156.824 168.637 157.337 168.313C157.502 168.212 157.697 168.169 157.889 168.193C158.081 168.217 158.26 168.306 158.395 168.444C158.355 168.283 158.369 168.114 158.434 167.962C158.499 167.809 158.612 167.682 158.756 167.6C159.231 167.313 159.768 167.538 160.141 168.153C160.514 168.768 160.465 169.359 159.994 169.646C159.852 169.733 159.686 169.773 159.52 169.759C159.354 169.745 159.196 169.678 159.071 169.568C159.134 169.754 159.131 169.956 159.063 170.14C158.995 170.324 158.866 170.479 158.698 170.58ZM158.518 170.269C158.874 170.052 158.928 169.609 158.604 169.096C158.28 168.584 157.882 168.412 157.526 168.629C157.169 168.846 157.116 169.285 157.435 169.801C157.755 170.318 158.157 170.486 158.518 170.269ZM158.838 168.953C159.112 169.404 159.481 169.551 159.797 169.363C160.113 169.174 160.15 168.756 159.887 168.317C159.625 167.879 159.252 167.723 158.928 167.907C158.604 168.092 158.567 168.51 158.838 168.953Z" fill="white"/>
<path d="M161.076 173.02C160.088 173.619 159.244 173.389 158.768 172.61C158.615 172.375 158.526 172.103 158.51 171.823L158.821 171.798C158.828 172.029 158.899 172.254 159.026 172.446C159.408 173.073 160.051 173.233 160.843 172.758C160.908 172.717 160.99 172.663 161.072 172.602C160.861 172.614 160.65 172.565 160.466 172.46C160.282 172.356 160.132 172.2 160.035 172.011C159.947 171.897 159.883 171.765 159.85 171.625C159.816 171.484 159.812 171.338 159.839 171.196C159.866 171.054 159.922 170.919 160.005 170.8C160.087 170.681 160.194 170.581 160.318 170.507C160.444 170.431 160.584 170.383 160.73 170.365C160.875 170.347 161.023 170.36 161.164 170.402C161.304 170.445 161.434 170.516 161.546 170.612C161.657 170.707 161.747 170.825 161.81 170.958C162.278 171.704 161.995 172.446 161.076 173.02ZM161.404 172.262C161.493 172.199 161.569 172.119 161.626 172.026C161.682 171.934 161.719 171.83 161.734 171.722C161.749 171.615 161.742 171.505 161.713 171.4C161.684 171.295 161.633 171.198 161.564 171.114C161.524 171.012 161.462 170.921 161.382 170.846C161.302 170.772 161.207 170.716 161.103 170.682C160.999 170.649 160.889 170.638 160.781 170.652C160.672 170.666 160.568 170.704 160.476 170.762C160.384 170.821 160.306 170.899 160.248 170.991C160.189 171.084 160.152 171.188 160.139 171.296C160.125 171.404 160.135 171.514 160.169 171.618C160.203 171.722 160.259 171.817 160.334 171.897C160.381 171.991 160.446 172.074 160.525 172.143C160.604 172.211 160.697 172.263 160.796 172.295C160.896 172.327 161.001 172.339 161.106 172.33C161.21 172.32 161.312 172.29 161.404 172.241V172.262Z" fill="white"/>
<path d="M164.287 175.07L161.38 176.829L161.199 176.53L163.84 174.931L163.43 174.246L163.696 174.086L164.287 175.07Z" fill="white"/>
<path d="M163.455 179.674L163.188 179.838L161.958 177.788L162.171 177.661L164.086 178.153C164.239 178.216 164.403 178.245 164.569 178.237C164.734 178.229 164.895 178.185 165.041 178.108C165.377 177.907 165.451 177.542 165.172 177.099C165.091 176.944 164.974 176.809 164.832 176.705C164.69 176.601 164.526 176.531 164.352 176.501L164.406 176.181C164.626 176.226 164.834 176.319 165.014 176.453C165.194 176.588 165.342 176.761 165.447 176.96C165.804 177.55 165.73 178.104 165.242 178.399C165.06 178.499 164.859 178.557 164.651 178.569C164.444 178.581 164.237 178.547 164.045 178.469L162.475 178.059L163.455 179.674Z" fill="white"/>
<path d="M165.599 181.942C165.111 182.237 164.525 182.11 164.103 181.405C163.857 181.03 163.765 180.575 163.844 180.134H164.168C164.09 180.516 164.165 180.913 164.377 181.241C164.668 181.72 165.054 181.851 165.415 181.651C165.775 181.45 165.825 181.056 165.517 180.515L165.39 180.306L165.611 180.175L167.108 180.371L166.21 178.883L166.477 178.723L167.604 180.593L167.395 180.72L165.862 180.523C166.206 181.15 166.067 181.659 165.599 181.942Z" fill="white"/>
<path d="M150.187 161.599L148.918 162.366L163.077 185.782L164.346 185.015L150.187 161.599Z" fill="white"/>
<path d="M153.422 174.26L152.159 175.023L159.381 186.976L160.644 186.212L153.422 174.26Z" fill="white"/>
<path d="M154.727 137.091L150.924 130.795C150.343 129.834 149.093 129.526 148.132 130.106L144.306 132.417C143.345 132.998 143.037 134.248 143.618 135.21L147.421 141.505C148.002 142.466 149.252 142.775 150.213 142.194L154.038 139.883C155 139.302 155.308 138.052 154.727 137.091Z" fill="#E0E0E0"/>
<path d="M144.586 132.241L145.053 131.958L148.1 136.993C148.183 137.132 148.293 137.252 148.423 137.348C148.553 137.444 148.701 137.513 148.858 137.552C149.014 137.591 149.177 137.599 149.337 137.574C149.497 137.55 149.65 137.495 149.789 137.411C149.927 137.328 150.048 137.218 150.144 137.088C150.24 136.958 150.309 136.81 150.348 136.653C150.387 136.497 150.394 136.334 150.37 136.174C150.346 136.014 150.291 135.861 150.207 135.722L147.165 130.687L147.632 130.405L150.674 135.439C150.918 135.843 150.991 136.326 150.878 136.784C150.765 137.241 150.475 137.635 150.072 137.879C149.668 138.122 149.185 138.196 148.727 138.083C148.27 137.97 147.876 137.68 147.632 137.276L144.586 132.241Z" fill="#EBEBEB"/>
<path d="M151.212 137.45L150.739 137.736L152.839 141.209L153.312 140.923L151.212 137.45Z" fill="#EBEBEB"/>
<path d="M171.781 151.725L156.587 126.578L154.429 127.882L169.622 153.029L171.781 151.725Z" fill="white"/>
<path d="M86.3131 13.78C86.0015 18.208 86.3131 26.4572 84.7018 30.59C83.0905 34.7228 80.938 38.9868 76.9118 40.84C71.9426 43.1196 66.1042 42.152 60.8029 43.4886C52.4963 45.5796 46.4857 53.2015 43.9232 61.3769C41.3607 69.5523 41.6436 78.3099 41.9511 86.8707L84.3451 92.7501C84.3451 92.7501 84.5665 75.5301 88.2647 70.8192C91.9629 66.1083 109.531 61.8812 115.325 49.0031C120.548 37.4124 122.122 19.0321 122.122 19.0321L86.3131 13.78Z" fill="#F5F5F5"/>
<path d="M96.6696 25.4199L96.1202 24.4072C96.0437 24.413 95.967 24.413 95.8906 24.4072L95.1116 24.3129L94.9968 25.2313L94.6934 25.1944L95.0501 22.2957L96.1325 22.431C96.8705 22.5212 97.2682 22.9517 97.1944 23.5708C97.1769 23.7749 97.0908 23.9671 96.9501 24.1161C96.8094 24.265 96.6223 24.3618 96.4195 24.3908L97.0017 25.4691L96.6696 25.4199ZM96.8869 23.5175C96.9443 23.0542 96.6696 22.7508 96.0915 22.6975L95.3207 22.6032L95.1444 24.0546L95.9111 24.1489C96.4933 24.1899 96.85 23.9767 96.8869 23.5216V23.5175Z" fill="#E0E0E0"/>
<path d="M99.7615 25.5388L99.7287 25.8012L97.6787 25.5511L98.0354 22.6565L100.02 22.8984L99.987 23.1649L98.3142 22.9599L98.1871 23.9931L99.6836 24.1776L99.6508 24.4359L98.1543 24.2514L98.019 25.3256L99.7615 25.5388Z" fill="#E0E0E0"/>
<path d="M100.352 24.4113C100.374 24.2128 100.436 24.0208 100.534 23.8471C100.633 23.6733 100.766 23.5216 100.925 23.4011C101.084 23.2805 101.267 23.1938 101.461 23.1461C101.655 23.0985 101.856 23.0909 102.053 23.1239C102.25 23.1409 102.441 23.199 102.614 23.2943C102.787 23.3896 102.938 23.5201 103.058 23.6774L102.841 23.8496C102.743 23.7209 102.62 23.6142 102.479 23.5364C102.337 23.4587 102.181 23.4117 102.021 23.3986C101.86 23.3721 101.695 23.3782 101.537 23.4168C101.379 23.4553 101.23 23.5254 101.1 23.6229C100.969 23.7203 100.86 23.8431 100.778 23.9839C100.696 24.1247 100.643 24.2806 100.623 24.4422C100.603 24.6038 100.616 24.7678 100.66 24.9244C100.705 25.081 100.781 25.2269 100.884 25.3535C100.986 25.48 101.113 25.5845 101.257 25.6608C101.401 25.737 101.559 25.7834 101.721 25.7971C101.88 25.8228 102.043 25.8145 102.198 25.7728C102.354 25.7311 102.498 25.657 102.623 25.5552L102.791 25.7766C102.636 25.9 102.456 25.9897 102.264 26.0398C102.072 26.0899 101.872 26.0994 101.676 26.0677C101.479 26.0501 101.287 25.9927 101.112 25.899C100.938 25.8052 100.784 25.6771 100.66 25.5223C100.536 25.3675 100.445 25.1893 100.392 24.9984C100.339 24.8074 100.326 24.6077 100.352 24.4113Z" fill="#E0E0E0"/>
<path d="M105.485 26.2398L105.452 26.5063L103.41 26.2398L103.767 23.3452L105.751 23.5912L105.718 23.8536L104.037 23.6486L103.91 24.6777L105.407 24.8622L105.378 25.1246L103.882 24.9401L103.746 26.0143L105.485 26.2398Z" fill="#E0E0E0"/>
<path d="M106.53 23.7021L106.833 23.7431L106.476 26.65L106.169 26.609L106.53 23.7021Z" fill="#E0E0E0"/>
<path d="M109.921 25.1289C109.843 25.748 109.351 26.0637 108.617 25.9735L107.838 25.8751L107.727 26.7894L107.42 26.7525L107.777 23.8579L108.859 23.9932C109.597 24.0834 109.999 24.5098 109.921 25.1289ZM109.613 25.092C109.671 24.6287 109.4 24.3294 108.818 24.272L108.051 24.1777L107.871 25.625L108.642 25.7193C109.22 25.7767 109.56 25.5471 109.613 25.092Z" fill="#E0E0E0"/>
<path d="M111.139 24.5426L110.122 24.4155L110.155 24.1531L112.496 24.4401L112.463 24.7066L111.446 24.6L111.122 27.2322L110.815 27.1912L111.139 24.5426Z" fill="#E0E0E0"/>
<path d="M106.559 32.4924C106.559 32.5539 102.684 32.0824 97.9284 31.4264C93.1724 30.7704 89.3184 30.1964 89.3184 30.1472C89.3184 30.098 93.1888 30.5572 97.9284 31.2132C102.668 31.8692 106.563 32.435 106.559 32.4924Z" fill="#E0E0E0"/>
<path d="M106.091 35.9445C106.091 36.006 102.221 35.5345 97.4811 34.8785C92.7415 34.2225 88.8711 33.6485 88.8711 33.5993C88.8711 33.5501 92.7415 34.0093 97.4811 34.6653C102.221 35.3213 106.099 35.8871 106.091 35.9445Z" fill="#E0E0E0"/>
<path d="M104.513 39.4665C104.513 39.5239 100.643 39.0565 95.903 38.4005C91.1634 37.7445 87.293 37.1705 87.293 37.1172C87.293 37.0639 91.1593 37.5272 95.903 38.1873C100.647 38.8474 104.521 39.4091 104.513 39.4665Z" fill="#E0E0E0"/>
<path d="M101.639 43.017C101.639 43.0785 97.7685 42.607 93.0084 41.951C88.2483 41.295 84.3984 40.721 84.3984 40.6718C84.3984 40.6226 88.2688 41.0818 93.0289 41.7378C97.789 42.3938 101.647 42.9596 101.639 43.017Z" fill="#E0E0E0"/>
<path d="M97.0589 46.5636C97.0589 46.621 93.1885 46.1536 88.4489 45.4935C83.7093 44.8334 79.8389 44.2635 79.8389 44.2143C79.8389 44.1651 83.7093 44.6243 88.4489 45.2844C93.1885 45.9445 97.0671 46.5021 97.0589 46.5636Z" fill="#E0E0E0"/>
<path d="M114.279 33.6444C112.857 33.556 111.448 33.3267 110.072 32.9597C110.786 32.9693 111.498 33.0489 112.196 33.1975C112.903 33.2767 113.601 33.4264 114.279 33.6444Z" fill="#E0E0E0"/>
<path d="M114.132 36.7236C113.422 36.7146 112.715 36.6363 112.02 36.4899C111.313 36.4107 110.615 36.2609 109.938 36.043C110.65 36.0479 111.361 36.1276 112.057 36.2808C112.762 36.3604 113.456 36.5087 114.132 36.7236Z" fill="#E0E0E0"/>
<path d="M113.086 41C112.372 40.9873 111.661 40.9049 110.963 40.754C110.258 40.6649 109.561 40.5182 108.88 40.3153C108.88 40.2415 109.839 40.3522 111 40.5408C111.709 40.6236 112.408 40.7774 113.086 41Z" fill="#E0E0E0"/>
<path d="M111.578 44.5874C110.863 44.5747 110.152 44.4923 109.454 44.3414C108.749 44.2517 108.052 44.105 107.371 43.9027C107.371 43.8289 108.33 43.9396 109.491 44.1282C110.2 44.2104 110.899 44.3643 111.578 44.5874Z" fill="#E0E0E0"/>
<path d="M108.33 48.011C107.615 47.9984 106.904 47.916 106.206 47.765C105.5 47.6782 104.804 47.5314 104.123 47.3263C104.123 47.2525 105.082 47.3632 106.239 47.5559C106.949 47.6383 107.649 47.7907 108.33 48.011Z" fill="#E0E0E0"/>
<path d="M93.1601 50.8933C93.1601 50.9507 87.3545 50.1799 80.2123 49.1672C73.0701 48.1545 67.2809 47.2894 67.2891 47.232C67.2973 47.1746 73.0947 47.9454 80.241 48.9581C87.3873 49.9708 93.1601 50.84 93.1601 50.8933Z" fill="#E0E0E0"/>
<path d="M90.1507 54.5299C90.0546 54.5272 89.9588 54.519 89.8637 54.5053L89.0437 54.3987L86.0507 53.96L76.1861 52.443C72.3362 51.8362 68.8553 51.2704 66.3461 50.8481L63.3654 50.3356C63.0128 50.27 62.7422 50.2208 62.5454 50.1798C62.45 50.1658 62.3564 50.1411 62.2666 50.106C62.363 50.1093 62.459 50.1203 62.5536 50.1388L63.3736 50.2536L66.3666 50.7005L76.2312 52.2298L86.0712 53.8124L89.0519 54.3167L89.8719 54.4643C89.9672 54.4744 90.0609 54.4964 90.1507 54.5299Z" fill="#E0E0E0"/>
<path d="M84.7388 57.8345C84.3811 57.8428 84.0235 57.8112 83.6728 57.7402C82.9799 57.65 81.9754 57.5106 80.7331 57.3302C78.2526 56.9735 74.8291 56.4528 71.053 55.8624C67.2769 55.272 63.8534 54.7185 61.3811 54.3085L58.4537 53.8165L57.6624 53.6689C57.5686 53.6575 57.4765 53.6355 57.3877 53.6033C57.4813 53.6005 57.5749 53.6087 57.6665 53.6279L58.466 53.7304L61.4057 54.1404L71.0858 55.6287L80.7577 57.1621L84.7388 57.8345Z" fill="#E0E0E0"/>
<path d="M102.914 52.8899C102.199 52.8772 101.488 52.7948 100.79 52.6439C100.085 52.5542 99.3883 52.4075 98.707 52.2052C98.707 52.1314 99.6664 52.2421 100.827 52.4307C101.536 52.5123 102.235 52.6662 102.914 52.8899Z" fill="#E0E0E0"/>
<path d="M98.7359 55.2105C98.0217 55.1977 97.3103 55.1154 96.6121 54.9645C95.9071 54.8747 95.2106 54.728 94.5293 54.5258C94.5293 54.452 95.4887 54.5627 96.649 54.7513C97.3585 54.8328 98.0577 54.9867 98.7359 55.2105Z" fill="#E0E0E0"/>
<path d="M93.1109 59.126C92.3967 59.1132 91.6853 59.0308 90.9871 58.88C90.2817 58.7926 89.585 58.6459 88.9043 58.4412C88.9043 58.3674 89.8637 58.4782 91.024 58.6709C91.7331 58.7523 92.4323 58.9048 93.1109 59.126Z" fill="#E0E0E0"/>
<path d="M82.3609 65.3087C82.3609 65.3702 75.1818 64.3124 66.3709 62.9553C57.56 61.5982 50.3809 60.4461 50.3809 60.3887C50.3809 60.3313 57.5559 61.385 66.3709 62.7462C75.1859 64.1074 82.3691 65.2513 82.3609 65.3087Z" fill="#E0E0E0"/>
<path d="M78.0677 73.0701C78.0677 73.1275 75.7061 72.7954 72.8197 72.328C69.9333 71.8606 67.5963 71.4342 67.6045 71.3768C67.6127 71.3194 69.9661 71.6515 72.8525 72.1189C75.7389 72.5863 78.0759 73.0086 78.0677 73.0701Z" fill="#E0E0E0"/>
<path d="M191.318 190.138C191.318 190.199 151.773 190.244 103.004 190.244C54.2343 190.244 14.6816 190.199 14.6816 190.138C14.6816 190.076 54.2179 190.031 103.004 190.031C151.79 190.031 191.318 190.08 191.318 190.138Z" fill="#263238"/>
<path d="M173.205 43.1659L132.186 48.96C130.664 49.175 129.604 50.5835 129.819 52.1059L135.274 90.7258C135.489 92.2482 136.898 93.308 138.42 93.093L179.439 87.2989C180.962 87.0839 182.022 85.6754 181.807 84.153L176.351 45.5331C176.136 44.0107 174.728 42.9509 173.205 43.1659Z" fill="#00C977"/>
<path d="M169.5 63L175.273 60.2803L175.5 61.3098C175.5 61.3098 173.243 66.2588 170.613 67.2803L169.5 63Z" fill="#455A64"/>
<path d="M151.673 74.297C151.673 74.297 161.034 67.7549 161.597 67.5568C162.16 67.3587 166.186 67.3496 167.18 67.4563C168.174 67.5629 171.068 67.2704 171.068 67.2704L168.098 59.0615L174.409 57.4496L174.076 56.3283C174.076 56.3283 168.997 53.2812 166.064 54.1587C163.13 55.0363 161.753 58.8635 161.144 59.8111C160.535 60.7587 159.211 64.1563 152.942 68.1479L149.238 70.613L151.673 74.297Z" fill="#455A64"/>
<path d="M161.771 61.0786C161.782 61.1107 161.794 61.1423 161.808 61.1731L161.918 61.429L162.337 62.398L163.867 65.89L163.928 65.8077C163.569 65.7832 163.21 65.7832 162.851 65.8077C162.46 65.8127 162.074 65.8924 161.713 66.0423C161.013 66.4354 160.33 66.9107 159.599 67.3983C158.146 68.3825 156.577 69.4764 154.94 70.6312C154.747 70.8002 154.511 70.913 154.258 70.9573C154.076 70.9833 153.89 70.9648 153.716 70.9031C153.543 70.8415 153.387 70.7387 153.263 70.6036C153.138 70.4686 153.049 70.3053 153.002 70.128C152.955 69.9507 152.953 69.7647 152.994 69.5861C153.045 69.3509 153.17 69.1376 153.349 68.9767C153.533 68.8304 153.75 68.6872 153.946 68.547L155.117 67.7152L159.165 64.8265C159.44 64.625 159.683 64.3837 159.887 64.1105C160.086 63.8575 160.257 63.6107 160.413 63.3761C160.719 62.9099 160.979 62.4955 161.178 62.1573C161.377 61.819 161.53 61.5479 161.627 61.365L161.738 61.1578C161.75 61.133 161.761 61.1076 161.771 61.0816C161.752 61.1013 161.735 61.1239 161.722 61.1487L161.6 61.3498L161.126 62.1268C160.918 62.462 160.658 62.8703 160.34 63.3456C160.18 63.5742 160.006 63.8179 159.807 64.0647C159.608 64.3298 159.369 64.5622 159.097 64.7534L155.032 67.6146L153.857 68.4404C153.655 68.5866 153.456 68.7146 153.245 68.8792C153.035 69.0614 152.89 69.3064 152.831 69.5777C152.772 69.849 152.803 70.132 152.919 70.3843C153.035 70.6366 153.23 70.8448 153.474 70.9777C153.719 71.1107 154 71.1612 154.276 71.1218C154.555 71.0746 154.816 70.9512 155.029 70.7653C156.665 69.6135 158.232 68.5165 159.679 67.5262C160.404 67.0387 161.095 66.5542 161.771 66.1703C162.115 66.0254 162.484 65.9468 162.857 65.9387C163.209 65.9173 163.561 65.9173 163.913 65.9387H164.014L163.974 65.8473C163.295 64.3786 162.75 63.1811 162.356 62.3401C162.169 61.9409 162.025 61.6271 161.918 61.4016L161.805 61.1609C161.783 61.103 161.771 61.0756 161.771 61.0786Z" fill="#263238"/>
<path d="M137.468 81.7745C137.675 82.0845 137.943 82.3494 138.256 82.5531C138.569 82.7567 138.92 82.8948 139.288 82.9589C139.656 83.0231 140.033 83.0119 140.397 82.9262C140.76 82.8404 141.103 82.6818 141.403 82.4601L153.894 72.746L151.676 68.9858L138.184 77.99C137.59 78.4006 137.181 79.0278 137.047 79.736C136.913 80.4442 137.065 81.1765 137.468 81.7745Z" fill="#455A64"/>
<path d="M164.898 60.5515L166.024 64.0496L168.083 64.0587L166.804 60.5637L164.898 60.5515Z" fill="#263238"/>
<path d="M168.214 63.2817C168.214 63.1934 167.535 63.1202 166.7 63.1141C165.864 63.108 165.17 63.1781 165.17 63.2665C165.17 63.3549 165.846 63.428 166.684 63.4341C167.522 63.4402 168.214 63.3701 168.214 63.2817Z" fill="#263238"/>
<path d="M167.822 62.1665C167.822 62.0781 167.143 62.0019 166.293 61.9989C165.442 61.9958 164.763 62.0629 164.763 62.1512C164.763 62.2396 165.442 62.3127 166.293 62.3158C167.143 62.3188 167.822 62.2518 167.822 62.1665Z" fill="#263238"/>
<path d="M167.578 61.1001C167.578 61.0117 166.902 60.9386 166.064 60.9325C165.226 60.9264 164.534 60.9965 164.534 61.0849C164.534 61.1732 165.213 61.2463 166.049 61.2494C166.884 61.2524 167.578 61.1885 167.578 61.1001Z" fill="#263238"/>
<path d="M176.894 103.017L145.375 95.0709C143.884 94.6951 142.371 95.599 141.995 97.0898L134.529 126.704C134.153 128.195 135.057 129.708 136.548 130.084L168.067 138.03C169.557 138.406 171.071 137.502 171.447 136.011L178.913 106.397C179.289 104.906 178.385 103.393 176.894 103.017Z" fill="#455A64"/>
<path d="M161.564 112.402C161.564 112.306 161.538 112.212 161.489 112.13C161.441 112.048 161.371 111.98 161.288 111.933L159.194 110.723C159.117 110.677 159.029 110.651 158.94 110.647C158.85 110.643 158.76 110.661 158.679 110.699L157.543 111.229C157.065 111.452 156.536 111.542 156.011 111.49L155.942 111.397L155.493 110.721C155.452 110.66 155.399 110.609 155.336 110.572L153.242 109.362C153.168 109.319 153.084 109.297 152.998 109.297C152.912 109.297 152.828 109.319 152.754 109.362L151.126 110.3C150.857 110.456 150.629 110.674 150.463 110.938C150.297 111.201 150.198 111.5 150.173 111.81C150.095 112.802 150 114.537 150 117.073C150 119.861 150.147 122.485 150.244 123.983C150.242 124.122 150.275 124.26 150.339 124.383C150.404 124.506 150.498 124.612 150.613 124.689C150.836 124.821 152.502 125.779 152.71 125.911C152.844 125.976 152.993 126.004 153.141 125.993C153.29 125.981 153.433 125.93 153.555 125.845L159.908 122.18C160.242 121.965 160.527 121.682 160.746 121.351C160.966 121.019 161.113 120.646 161.181 120.255C161.274 119.363 161.388 118.029 161.472 116.345C161.579 114.454 161.579 113.164 161.564 112.402Z" fill="#455A64"/>
<path d="M152.726 125.901C152.516 125.779 150.85 124.821 150.627 124.68C150.512 124.601 150.417 124.496 150.353 124.372C150.288 124.248 150.255 124.111 150.256 123.971C150.153 122.476 150.012 119.851 150.012 117.064C150.012 114.525 150.107 112.795 150.185 111.801C150.206 111.545 150.276 111.296 150.393 111.068L152.487 112.277C152.369 112.505 152.299 112.754 152.279 113.01C152.201 114.002 152.106 115.732 152.106 118.271C152.106 121.061 152.252 123.683 152.35 125.18C152.346 125.323 152.378 125.464 152.444 125.59C152.51 125.716 152.607 125.823 152.726 125.901Z" fill="#263238"/>
<path d="M159.519 110.09L158.542 109.523C158.141 109.279 157.586 109.325 156.971 109.68C156.292 110.106 155.737 110.702 155.36 111.41L156.338 111.976C156.492 112.074 156.656 112.156 156.826 112.221C157.089 111.731 157.475 111.319 157.948 111.026C158.099 110.935 158.264 110.871 158.437 110.835C158.493 111.002 158.521 111.177 158.52 111.353V111.366L159.497 111.932L160.164 111.622C160.164 111.595 160.164 111.564 160.164 111.534C160.171 110.823 159.92 110.322 159.519 110.09Z" fill="#455A64"/>
<path d="M159.502 110.73V111.93L158.524 111.363V111.349C158.526 111.172 158.498 110.997 158.441 110.831L158.456 110.586L159.502 110.73Z" fill="#263238"/>
<path d="M159.52 110.09C159.116 109.858 158.562 109.892 157.949 110.249C157.269 110.673 156.712 111.269 156.336 111.977C156.49 112.074 156.654 112.156 156.825 112.221C157.087 111.731 157.474 111.319 157.946 111.026C158.374 110.782 158.762 110.755 159.043 110.919C159.324 111.082 159.5 111.429 159.5 111.925V111.937L160.167 111.627C160.167 111.6 160.167 111.568 160.167 111.539C160.172 110.823 159.92 110.322 159.52 110.09Z" fill="#37474F"/>
<path d="M153.228 111.512C152.958 111.667 152.731 111.886 152.565 112.149C152.398 112.412 152.299 112.712 152.275 113.022C152.197 114.014 152.102 115.747 152.102 118.285C152.102 121.073 152.251 123.697 152.346 125.193C152.395 125.904 152.945 126.189 153.568 125.835L159.92 122.17C160.254 121.955 160.54 121.673 160.759 121.341C160.978 121.01 161.126 120.636 161.193 120.245C161.286 119.353 161.401 118.019 161.484 116.335C161.572 114.466 161.574 113.176 161.557 112.414C161.556 112.321 161.531 112.231 161.485 112.151C161.439 112.071 161.374 112.003 161.296 111.954C161.217 111.906 161.128 111.878 161.036 111.873C160.944 111.867 160.852 111.886 160.768 111.925L159.632 112.455C158.993 112.753 158.268 112.811 157.59 112.62C156.912 112.428 156.324 112 155.935 111.412L155.486 110.735C155.419 110.634 155.316 110.562 155.198 110.534C155.079 110.506 154.955 110.525 154.85 110.586L153.228 111.512Z" fill="#37474F"/>
<path d="M153.797 109.167C153.777 109.15 153.75 109.135 153.726 109.118C153.695 109.092 153.662 109.069 153.628 109.047C153.429 108.939 153.211 108.87 152.986 108.844C152.888 108.831 152.789 108.823 152.69 108.822C152.363 108.816 152.04 108.893 151.752 109.047C151.644 109.094 151.552 109.17 151.484 109.265C151.415 109.361 151.374 109.472 151.363 109.589V110.322C151.374 110.439 151.415 110.551 151.484 110.646C151.552 110.742 151.644 110.817 151.752 110.865C152.043 111.012 152.364 111.088 152.69 111.088C153.016 111.088 153.337 111.012 153.628 110.865C153.736 110.817 153.828 110.742 153.896 110.646C153.965 110.551 154.006 110.439 154.017 110.322V109.589C154.013 109.507 153.992 109.427 153.954 109.354C153.916 109.281 153.862 109.217 153.797 109.167Z" fill="#263238"/>
<path d="M154.139 108.837C154.126 108.71 154.08 108.588 154.005 108.485C153.931 108.381 153.83 108.298 153.714 108.245C153.396 108.084 153.045 108 152.689 108C152.333 108 151.981 108.084 151.664 108.245C151.547 108.298 151.447 108.38 151.372 108.484C151.298 108.588 151.253 108.71 151.241 108.837V109.885C151.253 110.012 151.298 110.134 151.372 110.238C151.447 110.342 151.547 110.424 151.664 110.476C151.982 110.637 152.333 110.72 152.689 110.72C153.045 110.72 153.396 110.637 153.714 110.476C153.83 110.423 153.931 110.341 154.005 110.237C154.08 110.133 154.126 110.012 154.139 109.885V108.837Z" fill="#E0E0E0"/>
<path d="M151.664 108.245C151.541 108.288 151.434 108.368 151.358 108.474C151.283 108.58 151.242 108.707 151.242 108.837C151.242 108.967 151.283 109.094 151.358 109.2C151.434 109.306 151.541 109.386 151.664 109.428C151.981 109.589 152.332 109.674 152.689 109.674C153.045 109.674 153.396 109.589 153.714 109.428C153.838 109.387 153.946 109.307 154.022 109.201C154.099 109.095 154.14 108.968 154.14 108.837C154.14 108.706 154.099 108.578 154.022 108.472C153.946 108.366 153.838 108.287 153.714 108.245C153.396 108.084 153.045 108 152.689 108C152.332 108 151.981 108.084 151.664 108.245Z" fill="#FAFAFA"/>
<path d="M155.206 116.985L158.586 115.031C158.83 114.887 159.03 115.004 159.03 115.287V119.197C159.022 119.352 158.977 119.502 158.9 119.637C158.823 119.772 158.715 119.886 158.586 119.971L155.206 121.926C154.962 122.068 154.762 121.953 154.762 121.667V117.758C154.769 117.603 154.814 117.452 154.891 117.318C154.968 117.184 155.076 117.07 155.206 116.985Z" fill="#00C977"/>
<path d="M157.714 118.434C157.714 119.138 157.342 119.925 156.883 120.188C156.424 120.452 156.055 120.096 156.055 119.389C156.055 118.268 156.883 116.865 156.883 116.865C157.138 117.04 157.347 117.274 157.492 117.547C157.636 117.821 157.712 118.125 157.714 118.434Z" fill="#37474F"/>
<path d="M157.286 118.256C157.254 118.359 157.234 118.466 157.225 118.573C157.181 118.868 157.094 119.155 156.966 119.424C156.93 119.494 156.899 119.567 156.873 119.641C156.848 119.708 156.848 119.782 156.873 119.849C156.878 119.857 156.885 119.864 156.893 119.869C156.901 119.875 156.91 119.879 156.919 119.881C156.958 119.878 156.996 119.867 157.03 119.849C157.064 119.83 157.094 119.804 157.117 119.773C157.306 119.564 157.441 119.312 157.513 119.04C157.591 118.776 157.611 118.497 157.572 118.224C157.552 118.112 157.508 117.98 157.408 118.065C157.35 118.116 157.308 118.182 157.286 118.256Z" fill="#455A64"/>
<path d="M131.974 190.691L80.3841 190.453C77.405 190.439 74.5534 189.243 72.4561 187.127C70.3587 185.011 69.1873 182.149 69.1993 179.17L69.7446 49.8313C69.7587 46.8504 70.9561 43.9972 73.0736 41.8989C75.191 39.8007 78.0551 38.6294 81.036 38.6424L132.626 38.8802C134.102 38.8867 135.561 39.1837 136.922 39.7542C138.282 40.3247 139.517 41.1576 140.556 42.2054C141.594 43.2531 142.416 44.4952 142.975 45.8606C143.533 47.2261 143.818 48.6882 143.811 50.1634L143.266 179.498C143.259 180.974 142.962 182.435 142.391 183.796C141.82 185.158 140.987 186.394 139.938 187.433C138.89 188.472 137.647 189.295 136.28 189.854C134.914 190.413 133.451 190.697 131.974 190.691Z" fill="#263238"/>
<path d="M132.109 42.5088L122.105 42.4596C121.447 42.4726 120.82 42.7461 120.363 43.2203C119.906 43.6945 119.655 44.3307 119.666 44.9893V46.8015C119.672 47.1278 119.614 47.4521 119.494 47.7559C119.375 48.0596 119.197 48.3368 118.97 48.5717C118.744 48.8067 118.473 48.9946 118.174 49.125C117.875 49.2553 117.553 49.3254 117.226 49.3312L97.7309 49.241C97.0722 49.2228 96.4477 48.9441 95.9942 48.466C95.5407 47.9879 95.2954 47.3496 95.3119 46.6908V44.8745C95.3284 44.2158 95.0831 43.5774 94.6296 43.0994C94.1761 42.6213 93.5516 42.3426 92.8929 42.3243H89.3751L80.6216 42.2874C79.5878 42.2826 78.5632 42.4814 77.6063 42.8725C76.6494 43.2636 75.7788 43.8394 75.0444 44.567C74.31 45.2945 73.7261 46.1596 73.326 47.1129C72.9259 48.0661 72.7175 49.0888 72.7127 50.1225L72.1797 176.366C72.1775 177.4 72.3792 178.424 72.773 179.38C73.1669 180.336 73.7453 181.206 74.4752 181.938C75.2051 182.671 76.0722 183.252 77.0269 183.65C77.9816 184.047 79.0053 184.252 80.0394 184.254L131.527 184.492C132.561 184.497 133.585 184.298 134.542 183.907C135.499 183.516 136.369 182.94 137.103 182.212C137.837 181.484 138.421 180.619 138.82 179.666C139.22 178.713 139.428 177.69 139.432 176.657L139.961 50.43C139.968 49.3937 139.77 48.3662 139.379 47.4065C138.988 46.4469 138.411 45.574 137.681 44.8379C136.952 44.1019 136.084 43.5172 135.128 43.1175C134.171 42.7178 133.146 42.511 132.109 42.5088Z" fill="#FAFAFA"/>
<path d="M79.4004 55.928C79.3445 55.9264 79.2915 55.9028 79.2528 55.8624L78.4697 55.0424C78.4505 55.0239 78.4355 55.0016 78.4256 54.9768C78.4157 54.9521 78.4112 54.9255 78.4123 54.8989C78.4124 54.8721 78.418 54.8456 78.4285 54.821C78.4391 54.7963 78.4545 54.774 78.4738 54.7554L79.261 54.0051C79.2797 53.986 79.302 53.9709 79.3266 53.9605C79.3513 53.9502 79.3777 53.9448 79.4045 53.9448C79.4312 53.9448 79.4577 53.9502 79.4823 53.9605C79.5069 53.9709 79.5293 53.986 79.548 54.0051C79.5672 54.0242 79.5824 54.0469 79.5928 54.0718C79.6033 54.0968 79.6086 54.1236 79.6086 54.1507C79.6086 54.1777 79.6033 54.2045 79.5928 54.2295C79.5824 54.2545 79.5672 54.2772 79.548 54.2962L78.9084 54.903L79.5521 55.5754C79.5713 55.5945 79.5865 55.6172 79.5969 55.6421C79.6074 55.6671 79.6127 55.6939 79.6127 55.721C79.6127 55.748 79.6074 55.7748 79.5969 55.7998C79.5865 55.8248 79.5713 55.8475 79.5521 55.8665C79.5321 55.8863 79.5084 55.9019 79.4824 55.9124C79.4563 55.923 79.4285 55.9283 79.4004 55.928Z" fill="#263238"/>
<path d="M128.018 162.614H85.452C81.8018 162.614 78.8428 165.573 78.8428 169.223V170.408C78.8428 174.059 81.8018 177.018 85.452 177.018H128.018C131.668 177.018 134.627 174.059 134.627 170.408V169.223C134.627 165.573 131.668 162.614 128.018 162.614Z" fill="#00C977"/>
<path d="M100.101 168.145H101.396C101.612 168.134 101.828 168.167 102.031 168.242C102.234 168.317 102.419 168.433 102.576 168.582C102.733 168.731 102.857 168.91 102.943 169.109C103.028 169.308 103.072 169.522 103.072 169.738C103.072 169.954 103.028 170.168 102.943 170.367C102.857 170.566 102.733 170.745 102.576 170.894C102.419 171.043 102.234 171.159 102.031 171.234C101.828 171.309 101.612 171.342 101.396 171.331H100.101V168.145ZM101.38 171.04C101.557 171.05 101.734 171.023 101.901 170.962C102.067 170.902 102.22 170.807 102.349 170.685C102.477 170.564 102.58 170.417 102.65 170.254C102.72 170.091 102.757 169.915 102.757 169.738C102.757 169.561 102.72 169.385 102.65 169.222C102.58 169.059 102.477 168.912 102.349 168.791C102.22 168.669 102.067 168.574 101.901 168.514C101.734 168.453 101.557 168.426 101.38 168.436H100.437V171.04H101.38Z" fill="#FAFAFA"/>
<path d="M103.574 169.74C103.563 169.407 103.652 169.079 103.829 168.797C104.007 168.515 104.264 168.292 104.568 168.157C104.872 168.023 105.21 167.981 105.538 168.04C105.866 168.098 106.169 168.252 106.408 168.483C106.648 168.715 106.813 169.012 106.882 169.338C106.951 169.663 106.922 170.002 106.798 170.311C106.674 170.62 106.46 170.885 106.185 171.071C105.909 171.258 105.584 171.359 105.251 171.36C105.033 171.37 104.815 171.336 104.61 171.259C104.406 171.182 104.219 171.064 104.062 170.913C103.905 170.761 103.781 170.579 103.697 170.377C103.613 170.175 103.571 169.958 103.574 169.74ZM106.583 169.74C106.588 169.474 106.512 169.212 106.367 168.989C106.222 168.765 106.013 168.59 105.768 168.486C105.523 168.382 105.253 168.353 104.991 168.403C104.729 168.453 104.489 168.58 104.299 168.767C104.11 168.955 103.981 169.194 103.929 169.455C103.876 169.717 103.903 169.987 104.005 170.233C104.107 170.479 104.28 170.69 104.502 170.837C104.724 170.984 104.985 171.062 105.251 171.06C105.427 171.066 105.602 171.037 105.765 170.973C105.929 170.909 106.078 170.812 106.203 170.688C106.327 170.564 106.426 170.417 106.491 170.253C106.557 170.09 106.588 169.916 106.583 169.74Z" fill="#FAFAFA"/>
<path d="M110.33 168.145V171.331H110.055L108.005 168.748V171.331H107.665V168.145H107.944L109.994 170.728V168.145H110.33Z" fill="#FAFAFA"/>
<path d="M113.619 171.04V171.331H111.368V168.145H113.549V168.436H111.704V169.568H113.344V169.855H111.704V171.04H113.619Z" fill="#FAFAFA"/>
<path d="M107.108 99.5233C113.036 99.5233 117.842 94.7176 117.842 88.7895C117.842 82.8613 113.036 78.0557 107.108 78.0557C101.18 78.0557 96.374 82.8613 96.374 88.7895C96.374 94.7176 101.18 99.5233 107.108 99.5233Z" fill="#00C977"/>
<path d="M112.393 84.2591C112.528 84.3698 110.523 87.0676 107.916 90.282L106.333 92.2008L106.116 92.4632L105.886 92.2254C103.836 90.1221 102.454 88.5641 102.553 88.4657C102.651 88.3673 104.213 89.7572 106.312 91.7949L105.87 91.84L107.419 89.9007C110.027 86.6658 112.253 84.1484 112.393 84.2591Z" fill="white"/>
<path d="M122.356 84.46C122.036 83.3325 120.572 83.4432 120.572 83.4432L120.609 84.2263C121.458 84.0787 121.983 85.0709 121.983 85.0709L122.356 84.46Z" fill="#00C977"/>
<path d="M91.261 86.8298C90.9453 85.7023 89.4775 85.8088 89.4775 85.8088L89.5185 86.5961C90.3672 86.4485 90.892 87.4407 90.892 87.4407L91.261 86.8298Z" fill="#E0E0E0"/>
<path d="M108.387 71.2292C110.088 71.7458 111.146 69.786 111.146 69.786L110.113 69.1956C109.605 70.3969 107.907 70.2575 107.907 70.2575L108.387 71.2292Z" fill="#E0E0E0"/>
<path d="M98.953 73.3408C98.1617 73.4269 98.0674 74.4191 98.0674 74.4191L98.5963 74.4806C98.5963 73.8984 99.322 73.6606 99.322 73.6606L98.953 73.3408Z" fill="#00C977"/>
<path d="M131.564 80.606C131.679 79.8188 130.744 79.4785 130.744 79.4785L130.552 79.9746C131.118 80.1181 131.171 80.8807 131.171 80.8807L131.564 80.606Z" fill="#E0E0E0"/>
<path d="M103.569 62.98C103.684 62.1928 102.749 61.8525 102.749 61.8525L102.557 62.3527C103.122 62.4962 103.176 63.2547 103.176 63.2547L103.569 62.98Z" fill="#00C977"/>
<path d="M84.0211 75.6777C83.8817 76.9077 85.5135 77.2111 85.5135 77.2111L85.8087 76.3911C84.8288 76.3009 84.6894 75.1611 84.6894 75.1611L84.0211 75.6777Z" fill="#00C977"/>
<path d="M120.412 71.2047C121.208 71.2498 121.462 70.2863 121.462 70.2863L120.949 70.1387C120.855 70.7127 120.101 70.8316 120.101 70.8316L120.412 71.2047Z" fill="#00C977"/>
<path d="M124.754 74.4435C124.541 74.5033 124.319 74.5241 124.098 74.505C123.878 74.5246 123.655 74.5038 123.442 74.4435C123.875 74.3561 124.321 74.3561 124.754 74.4435Z" fill="#E0E0E0"/>
<path d="M125.451 72.6602C125.533 73.0992 125.533 73.5496 125.451 73.9886C125.364 73.5501 125.364 73.0986 125.451 72.6602Z" fill="#E0E0E0"/>
<path d="M126.189 74.3985C126.403 74.3387 126.625 74.3178 126.845 74.337C127.066 74.3174 127.288 74.3382 127.501 74.3985C127.068 74.4859 126.622 74.4859 126.189 74.3985Z" fill="#E0E0E0"/>
<path d="M125.496 76.1863C125.409 75.7464 125.409 75.2936 125.496 74.8538C125.578 75.2941 125.578 75.7459 125.496 76.1863Z" fill="#E0E0E0"/>
<path d="M126.554 75.4398C126.529 75.4603 126.402 75.3537 126.271 75.202C126.14 75.0503 126.062 74.9027 126.087 74.8822C126.111 74.8617 126.242 74.9642 126.369 75.12C126.497 75.2758 126.583 75.3947 126.554 75.4398Z" fill="#E0E0E0"/>
<path d="M126.493 73.3899C126.517 73.4186 126.431 73.5457 126.296 73.681C126.161 73.8163 126.034 73.9065 126.009 73.8819C125.984 73.8573 126.071 73.7261 126.206 73.5908C126.341 73.4555 126.468 73.3899 126.493 73.3899Z" fill="#E0E0E0"/>
<path d="M124.992 73.9106C124.967 73.9393 124.844 73.8737 124.717 73.7671C124.59 73.6605 124.508 73.5539 124.529 73.5293C124.549 73.5047 124.672 73.5662 124.799 73.6687C124.926 73.7712 125.012 73.886 124.992 73.9106Z" fill="#E0E0E0"/>
<path d="M124.931 74.8043C124.959 74.8248 124.882 74.9519 124.759 75.0872C124.636 75.2225 124.517 75.3086 124.492 75.284C124.467 75.2594 124.541 75.1323 124.664 75.0011C124.787 74.8699 124.906 74.7797 124.931 74.8043Z" fill="#E0E0E0"/>
<path d="M89.0347 70.7864C88.6017 70.8739 88.1556 70.8739 87.7227 70.7864C87.9358 70.7266 88.1581 70.7058 88.3787 70.7249C88.5992 70.7053 88.8215 70.7262 89.0347 70.7864Z" fill="#00C977"/>
<path d="M89.7316 69.0029C89.8191 69.4428 89.8191 69.8956 89.7316 70.3354C89.6441 69.8956 89.6441 69.4428 89.7316 69.0029Z" fill="#00C977"/>
<path d="M90.4746 70.7455C90.9076 70.6581 91.3536 70.6581 91.7866 70.7455C91.3536 70.833 90.9076 70.833 90.4746 70.7455Z" fill="#00C977"/>
<path d="M89.7775 72.5288C89.69 72.0904 89.69 71.6389 89.7775 71.2004C89.865 71.6389 89.865 72.0904 89.7775 72.5288Z" fill="#00C977"/>
<path d="M90.8391 71.75C90.8104 71.7746 90.6833 71.668 90.5562 71.5122C90.4291 71.3564 90.343 71.217 90.3717 71.1924C90.4004 71.1678 90.5234 71.2785 90.6546 71.4302C90.7858 71.5819 90.8637 71.75 90.8391 71.75Z" fill="#00C977"/>
<path d="M90.778 69.7408C90.8026 69.7654 90.7124 69.8966 90.5812 70.0319C90.45 70.1672 90.3188 70.2533 90.2942 70.2287C90.2696 70.2041 90.3557 70.077 90.491 69.9417C90.6263 69.8064 90.7534 69.6998 90.778 69.7408Z" fill="#00C977"/>
<path d="M89.273 70.2576C89.2525 70.2822 89.1295 70.2207 89.0024 70.1141C88.8753 70.0075 88.7892 69.9009 88.8138 69.8722C88.8384 69.8435 88.9573 69.9091 89.0844 70.0157C89.2115 70.1223 89.2976 70.2289 89.273 70.2576Z" fill="#00C977"/>
<path d="M89.2152 71.1472C89.2398 71.1718 89.1619 71.2989 89.043 71.4342C88.9241 71.5695 88.8011 71.6556 88.7724 71.631C88.7437 71.6064 88.8257 71.4793 88.9446 71.3481C89.0635 71.2169 89.1865 71.1226 89.2152 71.1472Z" fill="#00C977"/>
<path d="M134.414 53.7304C133.452 53.8357 132.483 53.8713 131.516 53.837C130.55 53.8715 129.582 53.8358 128.621 53.7304C129.582 53.6224 130.55 53.5868 131.516 53.6237C132.483 53.5869 133.452 53.6225 134.414 53.7304Z" fill="#263238"/>
<path d="M134.414 54.9399C133.452 55.0478 132.483 55.0834 131.516 55.0465C130.55 55.0835 129.582 55.0478 128.621 54.9399C129.582 54.8344 130.55 54.7988 131.516 54.8333C132.483 54.7989 133.452 54.8346 134.414 54.9399Z" fill="#263238"/>
<path d="M134.414 56.1413C133.452 56.2492 132.483 56.2848 131.516 56.2479C130.55 56.2849 129.582 56.2493 128.621 56.1413C129.582 56.0358 130.55 56.0002 131.516 56.0347C132.483 56.0004 133.452 56.036 134.414 56.1413Z" fill="#263238"/>
<path d="M173.705 163.102C174.322 163.397 174.874 163.813 175.327 164.326C175.78 164.839 176.125 165.438 176.341 166.087C176.766 167.391 176.885 168.776 176.689 170.134C176.394 172.758 174.902 175.406 173.299 177.514C171.089 175.587 170.58 172.22 170.429 170.498C170.191 167.776 171.413 162.708 173.709 163.118" fill="#00C977"/>
<path d="M175.865 181.835C175.715 181.085 175.765 180.308 176.011 179.584C176.257 178.859 176.691 178.213 177.268 177.71C177.851 177.217 178.528 176.846 179.257 176.618C179.987 176.39 180.754 176.309 181.515 176.382C182.22 176.435 182.979 176.64 183.381 177.202C183.553 177.484 183.647 177.808 183.652 178.139C183.657 178.47 183.573 178.796 183.409 179.084C183.075 179.655 182.596 180.128 182.019 180.453C180.105 181.654 178.03 182.466 175.869 181.818" fill="#00C977"/>
<path d="M173.032 189.879C173.043 189.698 173.069 189.518 173.11 189.342C173.18 188.961 173.27 188.473 173.377 187.882C173.625 186.26 174.133 184.689 174.881 183.229C175.661 181.77 176.814 180.545 178.223 179.678C178.651 179.425 179.108 179.223 179.584 179.076C179.752 179.018 179.887 178.998 179.994 178.973C180.101 178.948 180.133 178.948 180.133 178.973C179.041 179.327 178.031 179.895 177.16 180.644C176.29 181.393 175.578 182.308 175.066 183.335C174.328 184.781 173.81 186.329 173.528 187.927C173.393 188.538 173.282 189.034 173.2 189.371C173.159 189.545 173.103 189.715 173.032 189.879Z" fill="#263238"/>
<path d="M173.111 167.042C173.13 167.12 173.139 167.2 173.139 167.28C173.139 167.452 173.164 167.69 173.18 167.956C173.209 168.543 173.246 169.391 173.279 170.445C173.344 172.548 173.398 175.455 173.385 178.645C173.373 181.835 173.295 184.762 173.205 186.865C173.164 187.919 173.123 188.768 173.086 189.354C173.066 189.633 173.053 189.854 173.041 190.031C173.07 189.797 173 190.182 173 190.031C173 189.879 173 189.621 173 189.35C173 188.739 173.033 187.895 173.057 186.861C173.111 184.758 173.168 181.855 173.184 178.661C173.201 175.467 173.164 172.548 173.131 170.461C173.131 169.428 173.103 168.579 173.09 167.969C173.09 167.69 173.09 167.468 173.09 167.292C173.091 167.208 173.098 167.125 173.111 167.042Z" fill="#263238"/>
<path d="M172.044 183.43C171.776 181.84 171.134 180.337 170.17 179.044C169.206 177.751 167.949 176.707 166.501 175.997C165.763 175.644 164.8 175.41 164.193 175.96C163.586 176.509 163.717 177.497 164.016 178.264C164.666 179.848 165.77 181.204 167.189 182.162C168.608 183.12 170.279 183.637 171.991 183.647" fill="#00C977"/>
<path d="M166.858 178.485C167.022 178.537 167.18 178.606 167.329 178.69C167.512 178.773 167.688 178.867 167.858 178.973C168.09 179.097 168.314 179.234 168.531 179.383C168.8 179.562 169.059 179.757 169.306 179.965C169.593 180.198 169.867 180.447 170.126 180.711C170.72 181.319 171.244 181.991 171.688 182.716C172.117 183.449 172.461 184.229 172.713 185.041C172.821 185.395 172.909 185.755 172.975 186.119C173.038 186.435 173.081 186.754 173.106 187.075C173.147 187.37 173.131 187.636 173.143 187.87C173.157 188.071 173.157 188.272 173.143 188.473C173.14 188.644 173.121 188.814 173.086 188.981C173.041 188.981 173.114 188.251 172.987 187.091C172.953 186.774 172.903 186.459 172.836 186.148C172.774 185.812 172.668 185.459 172.561 185.09C172.305 184.296 171.961 183.533 171.536 182.815C171.102 182.102 170.592 181.438 170.015 180.834C169.763 180.57 169.498 180.32 169.219 180.084C168.965 179.855 168.703 179.674 168.469 179.494C167.506 178.825 166.837 178.522 166.858 178.485Z" fill="#263238"/>
<path d="M15.4897 190.804C15.29 184.621 54.9717 178.321 104.121 176.734C153.271 175.146 193.277 178.872 193.476 185.055C193.676 191.238 153.994 197.538 104.845 199.125C55.695 200.713 15.6895 196.987 15.4897 190.804Z" fill="#263238" stroke="#263238" stroke-miterlimit="10"/>
<path d="M191.23 168.711C191.23 168.711 190.148 171.054 189.374 171.854C188.6 172.653 174.64 176.109 174.64 176.109L129.397 186.014L123.917 185.424L104.758 186.039C104.758 186.039 100.934 176.688 105.107 167.476C109.28 158.263 130.156 154.659 136.057 156.535C141.957 158.412 155.779 164.451 165.709 161.149C175.639 157.848 183.56 151.362 186.872 152.224C190.184 153.085 191.763 158.417 191.763 160.719C191.763 163.02 191.23 168.711 191.23 168.711Z" fill="#263238" stroke="#263238" stroke-miterlimit="10"/>
<path d="M93.977 181.522C94.3718 172.012 100.734 164.292 108.183 164.271H116.263L116.119 167.675C119.277 170.808 121.194 175.811 120.964 181.451C120.733 187.09 118.4 192.109 114.976 195.257L114.832 198.707H106.758C99.3036 198.722 93.5823 191.032 93.977 181.522Z" fill="#263238" stroke="#263238" stroke-miterlimit="10"/>
<path d="M113.643 198.631C106.256 197.813 101.118 189.471 102.167 179.998C103.217 170.526 110.056 163.51 117.443 164.328C124.83 165.147 129.968 173.489 128.919 182.961C127.87 192.434 121.031 199.449 113.643 198.631Z" fill="#878787" stroke="#263238" stroke-miterlimit="10"/>
<path d="M105.107 187.346C104.979 186.921 104.861 186.485 104.763 186.039C104.668 185.588 104.586 185.132 104.517 184.67C104.379 183.626 104.331 182.571 104.374 181.517C104.454 179.306 104.942 177.128 105.814 175.094L105.84 175.043C106.025 174.617 106.23 174.202 106.45 173.802L106.491 173.725C106.712 173.33 106.942 172.946 107.188 172.577L107.229 172.515C109.413 169.301 112.618 167.235 116.119 167.229C119.118 167.229 121.758 168.721 123.676 171.167C123.804 171.326 123.927 171.495 124.045 171.679C124.163 171.849 124.281 172.023 124.393 172.192C124.506 172.366 124.614 172.546 124.716 172.705C124.819 172.884 124.916 173.064 125.009 173.248V173.279C125.101 173.458 125.188 173.638 125.275 173.828V173.869C125.357 174.048 125.434 174.233 125.511 174.417C125.511 174.417 125.511 174.458 125.537 174.484C125.608 174.663 125.675 174.843 125.742 175.027L125.773 175.114C125.834 175.289 125.89 175.468 125.947 175.653C125.947 175.688 125.972 175.724 125.983 175.76C126.034 175.935 126.08 176.114 126.131 176.273C126.141 176.32 126.153 176.366 126.167 176.411C126.208 176.581 126.249 176.755 126.285 176.924C126.285 176.975 126.311 177.032 126.321 177.083C126.357 177.252 126.388 177.421 126.418 177.596L126.449 177.785C126.48 177.944 126.5 178.113 126.521 178.298L126.552 178.508C126.552 178.667 126.588 178.831 126.603 178.995C126.603 179.072 126.603 179.149 126.603 179.226C126.603 179.385 126.603 179.549 126.634 179.708V179.954C126.634 180.123 126.634 180.297 126.634 180.467C126.634 180.543 126.634 180.615 126.634 180.687C126.634 180.933 126.634 181.2 126.634 181.435C126.634 181.671 126.603 182.035 126.572 182.333C126.572 182.404 126.572 182.476 126.572 182.548C126.547 182.804 126.516 183.061 126.48 183.312V183.43C126.383 184.055 126.254 184.665 126.101 185.265C125.427 188.068 123.998 190.632 121.969 192.678L121.897 192.745C121.661 192.97 121.42 193.181 121.169 193.386L121.118 193.422C119.391 194.871 117.22 195.686 114.966 195.729C112.75 195.716 110.614 194.898 108.957 193.427C107.135 191.796 105.802 189.691 105.107 187.346Z" fill="white" stroke="#263238" stroke-miterlimit="10"/>
<path d="M105.65 181.948C105.715 180.349 106.033 178.771 106.594 177.272L111.033 180.056C110.831 180.664 110.715 181.298 110.69 181.938C110.69 182.035 110.69 182.127 110.69 182.22L105.645 183.04C105.635 182.681 105.635 182.317 105.65 181.948Z" fill="#263238" stroke="#263238" stroke-miterlimit="10"/>
<path d="M113.504 176.847C113.028 177.112 112.603 177.46 112.248 177.872L109.121 173.064C110.149 171.909 111.439 171.017 112.884 170.464L113.504 176.847Z" fill="#263238" stroke="#263238" stroke-miterlimit="10"/>
<path d="M111.326 185.07C111.542 185.509 111.822 185.913 112.156 186.27L109.593 192.017C108.303 190.905 107.301 189.498 106.671 187.915L111.326 185.07Z" fill="#263238" stroke="#263238" stroke-miterlimit="10"/>
<path d="M118.877 178.949L123.404 175.801C124.102 177.453 124.469 179.226 124.485 181.02L119.425 181.164C119.38 180.398 119.194 179.647 118.877 178.949Z" fill="#263238" stroke="#263238" stroke-miterlimit="10"/>
<path d="M117.339 177.032C116.973 176.775 116.563 176.588 116.129 176.478L116.867 170.121C118.483 170.42 119.966 171.214 121.112 172.392L117.339 177.032Z" fill="#263238" stroke="#263238" stroke-miterlimit="10"/>
<path d="M114.355 187.454C114.515 187.475 114.676 187.485 114.837 187.485C115.294 187.483 115.746 187.395 116.17 187.223L118.631 192.724C117.402 193.472 115.994 193.873 114.555 193.883C114.166 193.885 113.776 193.856 113.391 193.796L114.355 187.454Z" fill="#263238" stroke="#263238" stroke-miterlimit="10"/>
<path d="M118.913 184.306L123.922 185.424C123.438 187.176 122.606 188.813 121.476 190.238L118.267 185.496C118.527 185.125 118.743 184.726 118.913 184.306Z" fill="#263238" stroke="#263238" stroke-miterlimit="10"/>
<path d="M169.744 171.91C169.929 163.943 172.912 157.468 176.409 157.453H184.468L183.796 186.306H175.737C172.241 186.321 169.559 179.861 169.744 171.91Z" fill="#263238" stroke="#263238" stroke-miterlimit="10"/>
<path d="M177.803 171.91C177.618 179.877 180.3 186.321 183.796 186.306C187.292 186.29 190.276 179.82 190.461 171.849C190.645 163.877 187.964 157.438 184.468 157.453C180.971 157.468 177.988 163.969 177.803 171.91Z" fill="#878787" stroke="#263238" stroke-miterlimit="10"/>
<path d="M179.233 176.785C179.172 176.427 179.115 176.063 179.069 175.688C179.023 175.314 178.987 174.93 178.956 174.54C178.895 173.689 178.869 172.807 178.89 171.9C178.924 170.086 179.154 168.281 179.577 166.517V166.476C179.664 166.117 179.761 165.768 179.864 165.45V165.384C179.971 165.056 180.079 164.733 180.197 164.425V164.374C181.222 161.677 182.725 159.949 184.37 159.939C185.775 159.939 187.021 161.19 187.913 163.241C187.974 163.379 188.031 163.518 188.087 163.656C188.143 163.8 188.2 163.943 188.251 164.092C188.302 164.24 188.354 164.389 188.4 164.538C188.446 164.686 188.492 164.835 188.538 164.994C188.586 165.144 188.627 165.298 188.661 165.455V165.491C188.702 165.64 188.738 165.794 188.774 165.953C188.772 165.97 188.772 165.987 188.774 166.004C188.81 166.153 188.841 166.306 188.871 166.46C188.874 166.484 188.874 166.508 188.871 166.532C188.902 166.681 188.928 166.835 188.959 166.983V167.075C188.959 167.224 189.005 167.373 189.025 167.522V167.634C189.025 167.778 189.066 167.921 189.082 168.065C189.084 168.111 189.084 168.157 189.082 168.203C189.082 168.342 189.112 168.485 189.123 168.624C189.123 168.68 189.123 168.731 189.123 168.783L189.153 169.198V169.372C189.153 169.511 189.153 169.644 189.153 169.782C189.153 169.921 189.153 169.911 189.153 169.972C189.153 170.11 189.153 170.244 189.153 170.382C189.153 170.521 189.153 170.515 189.153 170.582C189.153 170.726 189.153 170.869 189.153 171.018C189.153 171.079 189.153 171.141 189.153 171.202C189.153 171.408 189.153 171.618 189.153 171.823C189.153 172.028 189.153 172.335 189.153 172.582C189.153 172.638 189.153 172.699 189.153 172.761L189.107 173.397C189.107 173.433 189.107 173.463 189.107 173.499C189.061 174.012 189 174.525 188.928 175.037C188.663 177.209 187.997 179.312 186.964 181.24L186.933 181.302C186.821 181.487 186.708 181.666 186.59 181.815V181.845C185.744 183.06 184.75 183.773 183.699 183.778C182.648 183.783 181.679 183.071 180.884 181.851C180.013 180.284 179.453 178.564 179.233 176.785Z" fill="white" stroke="#263238" stroke-miterlimit="10"/>
<path d="M16.1752 176.011C16.5699 166.501 22.9321 158.781 30.3811 158.76H38.4607C45.9149 158.76 51.6362 166.45 51.2415 175.945C50.8467 185.439 44.4846 193.191 37.0304 193.191H28.9559C21.5018 193.216 15.7804 185.501 16.1752 176.011Z" fill="#263238" stroke="#263238" stroke-miterlimit="10"/>
<path d="M167.16 116.66C167.16 116.66 170.748 117.716 171.225 118.767C171.702 119.818 171.974 120.572 171.974 120.572L182.806 136.367C182.806 136.367 186.718 136.07 187.933 139.376C189.148 142.683 188.681 147.2 188.681 147.2C188.681 147.2 191.542 154.269 191.691 159.534C191.793 162.6 191.642 165.67 191.24 168.711C191.24 168.711 191.993 159.083 189.738 156.074C187.482 153.064 182.817 155.325 181.022 160.739C179.228 166.153 177.075 176.232 177.075 176.232L129.397 186.013C129.397 186.013 131.806 173.376 128.643 166.153C125.48 158.929 110.746 159.386 108.034 172.474C105.322 185.562 106.23 187.967 106.23 187.967C106.23 187.967 96.1506 190.074 65.4624 189.623C34.7743 189.171 17.9281 185.562 13.4116 184.358C13.4116 184.358 12.3862 178.79 12.0581 175.483C11.8588 173.58 12.1702 171.658 12.9604 169.916C12.9604 169.916 13.2629 163.897 14.0165 161.79C14.7701 159.683 17.0258 156.525 17.0258 156.525C17.0258 156.525 19.2816 151.26 23.0394 147.953C26.7972 144.647 32.9697 141.335 34.477 140.581C35.9842 139.827 37.9323 139.376 40.793 137.423C43.6537 135.47 61.4021 123.13 66.9697 119.823C72.5372 116.517 84.5695 114.856 86.9636 114.404C89.3578 113.953 117.052 112 126.68 112C136.308 112 156.179 112.451 167.16 116.66Z" fill="#00C977" stroke="#263238" stroke-miterlimit="10"/>
<path opacity="0.15" d="M12.063 175.483C11.8636 173.58 12.1751 171.659 12.9653 169.916C12.9653 169.916 13.0627 167.988 13.2831 165.938C32.1082 171.49 65.7851 171.864 75.1772 171.033C85.9688 170.085 105.112 167.476 105.937 164.369C106.762 161.262 114.186 154.213 119.266 152.306C123.619 150.675 174.122 143.683 188.476 141.714C188.74 143.529 188.797 145.367 188.645 147.195C188.645 147.195 191.506 154.264 191.655 159.529C191.757 162.595 191.606 165.665 191.204 168.706C191.204 168.706 191.957 159.078 189.701 156.069C187.446 153.059 182.78 155.32 180.986 160.734C179.192 166.148 177.075 176.232 177.075 176.232L129.397 186.014C129.397 186.014 131.806 173.376 128.643 166.153C125.48 158.929 110.746 159.386 108.034 172.474C105.322 185.562 106.229 187.967 106.229 187.967C106.229 187.967 96.1503 190.074 65.4622 189.623C34.774 189.172 17.9279 185.562 13.4113 184.358C13.4164 184.358 12.3654 178.79 12.063 175.483Z" fill="black"/>
<path d="M134.216 121.474C140.271 117.137 145.495 116.476 147.945 116.276C150.278 120.464 154.097 128.39 154.861 136.608C142.045 138.607 127.746 140.884 127.746 140.884C127.746 140.884 124.44 142.083 123.235 140.884C122.84 140.562 122.53 140.148 122.333 139.679C122.03 138.925 127.295 126.442 134.216 121.474Z" fill="white" stroke="#263238" stroke-miterlimit="10"/>
<path d="M152.061 116.291C155.516 116.476 158.953 116.91 162.346 117.588C165.806 118.342 167.011 118.49 167.611 119.095C168.21 119.7 174.08 127.057 176.188 132.307C176.101 132.684 175.891 133.022 175.592 133.267C175.292 133.512 174.919 133.651 174.532 133.66C174.019 133.66 167.723 134.614 159.88 135.829C158.567 131.158 155.932 122.956 152.061 116.291Z" fill="white" stroke="#263238" stroke-miterlimit="10"/>
<path d="M171.174 133.896C171.174 133.896 168.611 124.017 163.433 118.142" stroke="#263238" stroke-miterlimit="10"/>
<path d="M154.722 143.708L159.003 142.95C159.142 142.991 159.272 143.06 159.384 143.152C159.497 143.244 159.59 143.358 159.658 143.486C159.726 143.614 159.768 143.755 159.781 143.9C159.795 144.044 159.779 144.19 159.736 144.329C159.418 145.38 158.849 145.262 158.849 145.262L155.286 145.836C155.052 145.86 154.818 145.796 154.628 145.657C154.439 145.517 154.308 145.313 154.261 145.082C154.076 144.221 153.835 144.113 154.722 143.708Z" stroke="#263238" stroke-miterlimit="10"/>
<path d="M176.362 139.976L179.638 139.361C179.86 139.437 180.043 139.598 180.148 139.808C180.252 140.018 180.27 140.261 180.197 140.484C179.956 141.335 179.52 141.243 179.52 141.243L176.798 141.709C176.613 141.727 176.428 141.673 176.282 141.558C176.136 141.444 176.04 141.278 176.013 141.094C175.865 140.386 175.68 140.31 176.362 139.976Z" stroke="#263238" stroke-miterlimit="10"/>
<path d="M150.186 115.778C150.186 115.778 156.287 127.124 157.363 136.541" stroke="#263238" stroke-miterlimit="10"/>
<path d="M158.747 138.49C158.747 138.49 161.531 143.196 161.639 144.8C161.746 146.405 161.423 165.671 160.89 169.203" stroke="#263238" stroke-miterlimit="10"/>
<path d="M128.458 128C128.458 128 130.601 134.209 131.242 137.526" stroke="#263238" stroke-miterlimit="10"/>
<path d="M129.315 145.231C129.315 145.231 131.673 153.044 131.776 158.929C131.878 164.815 131.991 175.847 131.991 175.847" stroke="#263238" stroke-miterlimit="10"/>
<path d="M176.516 134.419C176.516 134.419 181.545 139.033 181.971 140.519C182.396 142.006 181.868 154.874 181.868 154.874" stroke="#263238" stroke-miterlimit="10"/>
<path d="M175.537 169.418C175.537 169.418 174.789 171.561 173.184 172.095C171.579 172.628 132.617 180.123 132.617 180.123" stroke="#263238" stroke-miterlimit="10"/>
<path d="M62.6943 176.211C62.6943 176.211 32.8623 176.621 21.7785 173.202C21.7785 173.202 22.8705 180.589 24.9263 182.097C26.9821 183.604 41.8955 185.137 49.1446 185.378C57.3472 185.655 62.0125 184.834 62.0125 184.834L62.6943 176.211Z" fill="#263238" stroke="#263238" stroke-miterlimit="10"/>
<path d="M68.0312 157.596L65.0219 163.748C65.0219 163.748 48.1911 164.159 46.2737 164.292C44.3564 164.425 42.3057 165.389 40.1218 164.292C37.9378 163.195 28.4894 161.97 27.3923 161.97C26.2952 161.97 24.9315 162.928 24.9315 162.928C24.9315 162.928 27.3923 156.776 28.351 156.223C29.0692 155.859 29.8787 155.714 30.6785 155.807C31.0835 155.818 51.062 154.315 68.0312 157.596Z" fill="#263238" stroke="#263238" stroke-miterlimit="10"/>
<path d="M99.7543 145.308C99.7543 145.308 106.932 144.206 109.664 145.169C112.397 146.133 111.043 149.85 106.363 153.29C101.682 156.73 97.8267 160.032 93.0333 160.585C88.2399 161.139 79.9347 162.943 79.5246 161.405C79.1144 159.867 80.6268 154.387 86.1328 150.393C91.6388 146.4 99.7543 145.308 99.7543 145.308Z" fill="white" stroke="#263238" stroke-miterlimit="10"/>
<path d="M42.2435 137.459L43.6174 137.874L50.2821 138.064C53.7836 138.166 58.4078 138.295 63.5191 138.428C70.5734 138.617 78.5504 138.812 85.7534 138.94C96.7654 139.171 105.983 139.289 107.367 139.084C110.149 138.726 112.763 137.552 114.878 135.711C116.471 134.285 117.796 132.585 118.79 130.692C122.055 124.658 130.422 117.229 130.422 117.229C117.21 115.691 85.6918 116.265 82.1134 116.404C81.0033 116.46 79.8984 116.594 78.8068 116.804C74.9874 117.48 70.0043 118.982 67.1129 120.946C66.6002 121.295 65.7748 121.843 64.7392 122.535C62.3195 124.15 58.7308 126.529 55.1268 128.918L48.8415 133.076L42.2435 137.459Z" fill="white" stroke="#263238" stroke-miterlimit="10"/>
<path d="M67.1385 120.946C66.6259 121.295 65.8005 121.843 64.7649 122.535L85.7124 138.941C96.7245 139.171 105.942 139.289 107.326 139.084C110.108 138.726 112.722 137.553 114.837 135.711L78.8324 116.804C75.0131 117.48 70.03 118.983 67.1385 120.946Z" fill="#263238" stroke="#263238" stroke-miterlimit="10"/>
<path d="M48.8676 133.076L50.2415 138.064C53.743 138.166 58.3672 138.295 63.4785 138.428L55.1528 128.918L48.8676 133.076Z" fill="#263238" stroke="#263238" stroke-miterlimit="10"/>
<path d="M71.8916 153.48C71.056 154.331 70.246 155.228 69.477 156.181" stroke="#263238" stroke-miterlimit="10"/>
<path d="M92.1875 141.314C92.1875 141.314 81.7701 144.39 73.3368 152.08" stroke="#263238" stroke-miterlimit="10"/>
<path d="M25.4648 155.935C24.3643 158.003 23.5666 160.218 23.0963 162.513" stroke="#263238" stroke-miterlimit="10"/>
<path d="M41.3975 141.868C41.3975 141.868 32.1695 145.457 26.6378 153.946" stroke="#263238" stroke-miterlimit="10"/>
<path d="M83.9286 178.887C83.9286 180.487 85.4666 181.779 87.3686 181.779C89.2706 181.779 90.8086 180.487 90.8086 178.887C90.8086 177.288 89.2706 175.996 87.3686 175.996C85.4666 175.996 83.9286 177.298 83.9286 178.887Z" fill="white" stroke="#263238" stroke-miterlimit="10"/>
<path d="M12.668 174.191C12.9603 175.57 13.8882 176.539 14.7443 176.355C15.6005 176.17 16.0567 174.914 15.7697 173.535C15.4826 172.156 14.5495 171.192 13.719 171.372C12.8885 171.551 12.3758 172.817 12.668 174.191Z" fill="white" stroke="#263238" stroke-miterlimit="10"/>
<path d="M130.91 139.361C130.91 139.361 133.765 134.547 135.57 134.234C137.374 133.921 145.049 133.634 146.705 134.69C148.361 135.747 147.905 139.202 147.305 140.104C146.705 141.006 144.295 141.458 142.178 141.309C140.061 141.16 133.001 141.76 133.001 141.76C133.001 141.76 128.792 144.769 127.285 144.467C125.778 144.165 123.825 140.878 125.183 139.048C126.542 137.218 128.649 137.72 130.91 139.361Z" fill="#263238" stroke="#263238" stroke-miterlimit="10"/>
<path d="M130.909 139.376L125.941 140.432" stroke="#263238" stroke-miterlimit="10"/>
<path d="M167.16 116.66C167.16 116.66 170.748 117.716 171.225 118.767C171.702 119.818 171.974 120.572 171.974 120.572L182.806 136.367C182.806 136.367 186.718 136.07 187.933 139.376C189.148 142.683 188.681 147.2 188.681 147.2C188.681 147.2 191.542 154.269 191.691 159.534C191.793 162.6 191.642 165.67 191.24 168.711C191.24 168.711 191.993 159.083 189.738 156.074C187.482 153.064 182.817 155.325 181.022 160.739C179.228 166.153 177.075 176.232 177.075 176.232L129.397 186.013C129.397 186.013 131.806 173.376 128.643 166.153C125.48 158.929 110.746 159.386 108.034 172.474C105.322 185.562 106.23 187.967 106.23 187.967C106.23 187.967 96.1506 190.074 65.4624 189.623C34.7743 189.171 17.9281 185.562 13.4116 184.358C13.4116 184.358 12.3862 178.79 12.0581 175.483C11.8588 173.58 12.1702 171.658 12.9604 169.916C12.9604 169.916 13.2629 163.897 14.0165 161.79C14.7701 159.683 17.0258 156.525 17.0258 156.525C17.0258 156.525 19.2816 151.26 23.0394 147.953C26.7972 144.647 32.9697 141.335 34.477 140.581C35.9842 139.827 37.9323 139.376 40.793 137.423C43.6537 135.47 61.4021 123.13 66.9697 119.823C72.5372 116.517 84.5695 114.856 86.9636 114.404C89.3578 113.953 117.052 112 126.68 112C136.308 112 156.179 112.451 167.16 116.66Z" stroke="#263238" stroke-miterlimit="10"/>
<path d="M28.4636 144.067C28.4636 144.067 31.4884 145.17 30.663 146.272C29.8376 147.374 25.2954 150.26 23.2345 153.839C21.1735 157.417 20.7531 159.206 19.7945 159.206C18.8358 159.206 16.7441 157.422 17.0312 156.525C17.3183 155.628 18.8307 147.507 28.4636 144.067Z" fill="white" stroke="#263238" stroke-miterlimit="10"/>
<path d="M179.9 171.659C179.926 170.26 180.07 168.866 180.33 167.491L182.381 169.972C182.279 170.529 182.219 171.093 182.201 171.659C182.201 171.746 182.201 171.828 182.201 171.91L179.889 172.643C179.894 172.3 179.894 171.971 179.9 171.659Z" fill="#263238" stroke="#263238" stroke-miterlimit="10"/>
<path d="M183.509 167.096C183.27 167.367 183.075 167.673 182.929 168.004L181.499 163.713C181.877 162.813 182.47 162.021 183.227 161.406L183.509 167.096Z" fill="#263238" stroke="#263238" stroke-miterlimit="10"/>
<path d="M182.503 174.427C182.594 174.796 182.721 175.155 182.883 175.499L181.704 180.625C181.057 179.488 180.604 178.251 180.366 176.965L182.503 174.427Z" fill="#263238" stroke="#263238" stroke-miterlimit="10"/>
<path d="M185.964 168.967L188.015 166.158C188.344 167.688 188.516 169.248 188.527 170.813L186.21 170.941C186.192 170.277 186.11 169.616 185.964 168.967Z" fill="#263238" stroke="#263238" stroke-miterlimit="10"/>
<path d="M185.277 167.26C185.138 167.046 184.948 166.87 184.723 166.747L185.062 161.057C185.795 161.308 186.461 162.026 187.01 163.082L185.277 167.26Z" fill="#263238" stroke="#263238" stroke-miterlimit="10"/>
<path d="M183.894 176.55C183.965 176.57 184.04 176.581 184.114 176.58C184.338 176.574 184.554 176.49 184.724 176.344L185.862 181.256C185.642 181.551 185.361 181.795 185.038 181.972C184.716 182.149 184.358 182.255 183.991 182.281C183.817 182.277 183.645 182.25 183.478 182.199L183.894 176.55Z" fill="#263238" stroke="#263238" stroke-miterlimit="10"/>
<path d="M185.98 173.745L188.276 174.735C188.077 176.205 187.7 177.646 187.154 179.026L185.682 174.796C185.806 174.453 185.906 174.102 185.98 173.745Z" fill="#263238" stroke="#263238" stroke-miterlimit="10"/>
</svg>
