<svg width="10" height="9" viewBox="0 0 10 9" fill="none" xmlns="http://www.w3.org/2000/svg">
<path fill-rule="evenodd" clip-rule="evenodd" d="M6.5685 0.166664C6.8006 0.166672 7.02812 0.231303 7.22556 0.353318C7.42301 0.475332 7.58259 0.649911 7.68641 0.857498L8.26391 2.01208C8.36558 1.97041 8.46558 1.92541 8.56391 1.87708C8.66282 1.82768 8.77729 1.8196 8.88216 1.85461C8.98702 1.88961 9.07368 1.96484 9.12308 2.06375C9.17248 2.16265 9.18056 2.27713 9.14555 2.38199C9.11055 2.48686 9.03532 2.57352 8.93641 2.62291C8.83626 2.66749 8.73555 2.71082 8.63433 2.75291L9.03475 3.55416C9.12166 3.7279 9.16688 3.91949 9.16683 4.11375V5.16666C9.16683 5.34253 9.12971 5.51642 9.05791 5.67696C8.98611 5.8375 8.88125 5.98109 8.75016 6.09833V6.625C8.75016 6.79076 8.68431 6.94973 8.5671 7.06694C8.44989 7.18415 8.29092 7.25 8.12516 7.25C7.9594 7.25 7.80043 7.18415 7.68322 7.06694C7.56601 6.94973 7.50016 6.79076 7.50016 6.625V6.41666H2.50016V6.625C2.50016 6.79076 2.43431 6.94973 2.3171 7.06694C2.19989 7.18415 2.04092 7.25 1.87516 7.25C1.7094 7.25 1.55043 7.18415 1.43322 7.06694C1.31601 6.94973 1.25016 6.79076 1.25016 6.625V6.09833C0.994329 5.86916 0.833496 5.53666 0.833496 5.16666V4.11333C0.833574 3.91936 0.878794 3.72806 0.965579 3.55458L1.36266 2.75958C1.26211 2.71736 1.1628 2.67194 1.06475 2.62333C0.966343 2.57329 0.891542 2.48659 0.856468 2.38191C0.821394 2.27724 0.828857 2.16297 0.877246 2.06375C0.901687 2.01476 0.935543 1.97107 0.976878 1.93517C1.01821 1.89927 1.06622 1.87187 1.11815 1.85454C1.17008 1.8372 1.22491 1.83027 1.27952 1.83414C1.33413 1.83801 1.38745 1.8526 1.43641 1.87708C1.53502 1.92569 1.63502 1.97069 1.73641 2.01208L2.31391 0.857914C2.41768 0.65025 2.57723 0.475586 2.77468 0.353495C2.97213 0.231404 3.19968 0.166711 3.43183 0.166664H6.5685ZM3.12516 3.91666C2.9594 3.91666 2.80043 3.98251 2.68322 4.09972C2.56601 4.21693 2.50016 4.3759 2.50016 4.54166C2.50016 4.70742 2.56601 4.8664 2.68322 4.98361C2.80043 5.10082 2.9594 5.16666 3.12516 5.16666C3.29092 5.16666 3.44989 5.10082 3.5671 4.98361C3.68431 4.8664 3.75016 4.70742 3.75016 4.54166C3.75016 4.3759 3.68431 4.21693 3.5671 4.09972C3.44989 3.98251 3.29092 3.91666 3.12516 3.91666ZM6.87516 3.91666C6.7094 3.91666 6.55043 3.98251 6.43322 4.09972C6.31601 4.21693 6.25016 4.3759 6.25016 4.54166C6.25016 4.70742 6.31601 4.8664 6.43322 4.98361C6.55043 5.10082 6.7094 5.16666 6.87516 5.16666C7.04092 5.16666 7.19989 5.10082 7.3171 4.98361C7.43431 4.8664 7.50016 4.70742 7.50016 4.54166C7.50016 4.3759 7.43431 4.21693 7.3171 4.09972C7.19989 3.98251 7.04092 3.91666 6.87516 3.91666ZM6.5685 0.999997H3.43183C3.36325 0.999987 3.29573 1.0169 3.23525 1.04925C3.17478 1.08159 3.12322 1.12837 3.08516 1.18541L3.05933 1.23041L2.53016 2.28791C3.17516 2.48125 4.04433 2.66666 5.00016 2.66666C5.89266 2.66666 6.70891 2.505 7.33766 2.32625L7.46975 2.28791L6.941 1.23041C6.91033 1.16909 6.86501 1.11628 6.80904 1.07666C6.75307 1.03705 6.6882 1.01186 6.62016 1.00333L6.56891 0.999997H6.5685Z" fill="#00C977"/>
</svg>
