<svg width="16" height="17" viewBox="0 0 16 17" fill="none" xmlns="http://www.w3.org/2000/svg">
<path d="M10.3333 8.45679H8V5.12345M2 8.45679C2 9.24472 2.15519 10.0249 2.45672 10.7529C2.75825 11.4808 3.20021 12.1423 3.75736 12.6994C4.31451 13.2566 4.97595 13.6985 5.7039 14.0001C6.43185 14.3016 7.21207 14.4568 8 14.4568C8.78793 14.4568 9.56815 14.3016 10.2961 14.0001C11.0241 13.6985 11.6855 13.2566 12.2426 12.6994C12.7998 12.1423 13.2417 11.4808 13.5433 10.7529C13.8448 10.0249 14 9.24472 14 8.45679C14 7.66886 13.8448 6.88864 13.5433 6.16069C13.2417 5.43273 12.7998 4.7713 12.2426 4.21415C11.6855 3.65699 11.0241 3.21504 10.2961 2.91351C9.56815 2.61198 8.78793 2.45679 8 2.45679C7.21207 2.45679 6.43185 2.61198 5.7039 2.91351C4.97595 3.21504 4.31451 3.65699 3.75736 4.21415C3.20021 4.7713 2.75825 5.43273 2.45672 6.16069C2.15519 6.88864 2 7.66886 2 8.45679Z" stroke="#52535C" stroke-width="1.5" stroke-linecap="round" stroke-linejoin="round"/>
</svg>
