<svg width="36" height="36" viewBox="0 0 36 36" fill="none" xmlns="http://www.w3.org/2000/svg">
<mask id="mask0_1754_2578" style="mask-type:luminance" maskUnits="userSpaceOnUse" x="2" y="1" width="32" height="33">
<rect width="32" height="32" rx="16" transform="matrix(-1 0 0 1 34 1.875)" fill="white"/>
</mask>
<g mask="url(#mask0_1754_2578)">
<rect width="16" height="26.6667" rx="2" transform="matrix(-1 0 0 1 17.2383 12.5417)" fill="#BFCFE3" fill-opacity="0.2"/>
<path fill-rule="evenodd" clip-rule="evenodd" d="M15.3332 11.3989C17.0163 11.3989 18.3808 12.7634 18.3808 14.4465V14.8275H18.6427C18.9189 14.8275 19.1427 15.0514 19.1427 15.3275V21.1846C19.1427 21.4608 18.9189 21.6846 18.6427 21.6846H18.3808V38.8275C18.3808 40.5107 17.0163 41.8751 15.3332 41.8751H1.61891C-0.0642453 41.8751 -1.42871 40.5107 -1.42871 38.8275V14.4465C-1.42871 12.7634 -0.0642453 11.3989 1.61891 11.3989H15.3332ZM15.0475 12.5418H1.90462C0.694856 12.5418 -0.285854 13.5382 -0.285854 14.7673V38.5067C-0.285854 39.7358 0.694856 40.7323 1.90462 40.7323H15.0475C16.2572 40.7323 17.238 39.7358 17.238 38.5067V14.7673C17.238 13.5382 16.2572 12.5418 15.0475 12.5418Z" fill="#007AFF"/>
</g>
<rect x="0.75" y="-0.75" width="33.5" height="33.5" rx="16.75" transform="matrix(-1 0 0 1 35.5 1.875)" stroke="#007AFF" stroke-width="1.5"/>
<path d="M20.667 17.4965C20.667 17.2838 20.758 17.0606 20.8997 16.9205L24.1827 13.5526C24.3446 13.3865 24.5318 13.3035 24.7189 13.3035C25.1641 13.3035 25.4676 13.62 25.4676 14.0404C25.4676 14.2791 25.3664 14.4607 25.2248 14.6008L24.0765 15.784L23.0294 16.7752L24.122 16.7129H29.0156C29.4912 16.7129 29.8098 17.0295 29.8098 17.4965C29.8098 17.9636 29.4912 18.275 29.0156 18.275H24.122L23.0294 18.2179L24.0765 19.2039L25.2248 20.3819C25.3664 20.5272 25.4676 20.7088 25.4676 20.9423C25.4676 21.3627 25.1641 21.6844 24.7189 21.6844C24.5318 21.6844 24.3446 21.6014 24.1878 21.4405L20.8997 18.0674C20.758 17.9273 20.667 17.7041 20.667 17.4965Z" fill="#007AFF"/>
</svg>
