<svg width="26" height="25" viewBox="0 0 26 25" fill="none" xmlns="http://www.w3.org/2000/svg">
<path d="M8.68855 8.05816L8.94877 8.02043L9.06516 7.78464L12.3937 1.04131L12.3938 1.04102C12.4488 0.929374 12.534 0.835361 12.6397 0.76962C12.7454 0.703879 12.8673 0.669037 12.9918 0.669037C13.1163 0.669037 13.2382 0.703879 13.3439 0.769619C13.4496 0.835361 13.5348 0.929375 13.5898 1.04102L13.5899 1.04125L16.9172 7.78458L17.0336 8.02038L17.2938 8.05815L24.7372 9.13848L24.7373 9.1385C24.8539 9.1554 24.964 9.2029 25.0563 9.27618C25.1486 9.34946 25.2198 9.44589 25.2627 9.55566L25.7284 9.37369L25.2627 9.55566C25.3056 9.66542 25.3186 9.7846 25.3005 9.90104C25.283 10.0132 25.2371 10.1189 25.1674 10.2083L25.0976 10.2844L19.7131 15.5245L19.5245 15.7081L19.569 15.9674L20.8418 23.3816L20.8419 23.3818C20.8619 23.4983 20.8506 23.6181 20.8091 23.7289C20.7676 23.8396 20.6973 23.9373 20.6056 24.012C20.5139 24.0866 20.4039 24.1355 20.2871 24.1536C20.1742 24.1711 20.0587 24.1593 19.9518 24.1194L19.8618 24.078L13.2319 20.5843L12.9991 20.4616L12.7661 20.5841L6.10912 24.0841L6.10893 24.0842C6.00437 24.1392 5.88707 24.1655 5.76903 24.1603C5.65099 24.1551 5.53645 24.1186 5.43715 24.0546C5.33785 23.9905 5.25735 23.9012 5.2039 23.7959L4.758 24.0221L5.2039 23.7959C5.15234 23.6943 5.12773 23.5812 5.13231 23.4675L5.14398 23.3686L6.41344 15.9674L6.45792 15.7081L6.26939 15.5245L0.877058 10.2757L0.876595 10.2753C0.791939 10.1931 0.730614 10.0899 0.69888 9.97624C0.667147 9.8626 0.666142 9.74257 0.69597 9.62841C0.725798 9.51426 0.785388 9.41006 0.868656 9.32646C0.948949 9.24586 1.04848 9.18719 1.15774 9.15596L1.25928 9.13529L8.68855 8.05816Z" fill="#D8D8D8" stroke="#C2C2C2"/>
</svg>
