<svg width="46" height="36" viewBox="0 0 46 36" fill="none" xmlns="http://www.w3.org/2000/svg">
<path d="M45.3201 10.7565C45.3201 10.7565 45.1297 11.5609 44.1564 11.6239C43.183 11.6869 41.5647 11.695 41.5647 11.695L40.224 11.0742L39.7212 9.2334L41.2215 9.91583L45.3201 10.7565Z" fill="#263238"/>
<path d="M45.3206 10.7565C45.3206 10.7565 46.0446 9.56592 44.6757 8.8084C43.3068 8.05089 41.104 8.63679 41.104 8.63679L41.2998 10.8611L45.3206 10.7565Z" fill="#CDCDCD"/>
<path d="M41.428 21.6296H40.8514C39.3883 21.6296 38.2021 22.8158 38.2021 24.2789V32.8074C38.2021 34.2705 39.3883 35.4567 40.8514 35.4567H41.428C42.8911 35.4567 44.0773 34.2705 44.0773 32.8074V24.2789C44.0773 22.8158 42.8911 21.6296 41.428 21.6296Z" fill="#263238"/>
<path d="M5.34789 21.6296H4.77137C3.3082 21.6296 2.12207 22.8158 2.12207 24.2789V32.8074C2.12207 34.2705 3.3082 35.4567 4.77137 35.4567H5.34789C6.81105 35.4567 7.99718 34.2705 7.99718 32.8074V24.2789C7.99718 22.8158 6.81105 21.6296 5.34789 21.6296Z" fill="#263238"/>
<path d="M3.84339 30.2936C3.84339 30.2936 1.83229 26.4363 1.76659 21.8671C1.7009 17.2978 2.30288 15.4583 3.36877 14.5681C4.43466 13.6778 5.62389 11.719 5.62389 11.719C5.62389 11.719 6.84262 6.88028 8.53195 3.76709C10.0738 0.926064 12.9229 1.21969 12.9229 1.21969C12.9229 1.21969 25.444 0.0974886 33.278 1.19287C33.278 1.19287 35.4137 1.04137 36.9569 3.41582C38.5001 5.79026 40.2203 9.94253 40.6359 12.0797C40.6359 12.0797 42.4754 13.8602 43.0104 14.6901C43.5453 15.52 44.4932 17.0042 44.3752 18.4294C44.2573 19.8546 44.3149 27.8642 42.3641 30.5349L3.84339 30.2936Z" fill="#CDCDCD"/>
<path d="M7.37598 9.52693C7.37598 9.52693 8.53303 3.96287 10.1004 3.04446C11.6677 2.12605 22.9326 2.16628 22.9326 2.16628L33.8515 2.47599C33.8515 2.47599 35.7701 2.53096 36.3922 3.55796C37.0143 4.58497 38.8243 9.44917 38.6071 9.80044L21.797 9.98948C21.797 9.98948 9.96092 10.2053 9.47557 10.0967C8.99023 9.98814 7.47921 10.1276 7.37598 9.52693Z" fill="#263238"/>
<path d="M9.31362 9.52704C9.31362 9.52704 8.28929 9.37688 8.42203 8.25334C8.52526 7.38186 9.56702 4.94574 10.0309 3.9013C10.0968 3.75188 10.2002 3.62202 10.331 3.5243C10.4619 3.42658 10.6157 3.36432 10.7777 3.34356C12.1935 3.16122 15.776 2.56191 22.1512 2.61822C30.2761 2.68928 35.2408 2.8381 35.6926 3.42266C36.052 3.8879 37.445 7.6071 37.6072 8.15278C37.7949 8.78427 36.9368 9.48682 35.7195 9.52033C34.5021 9.55385 9.31362 9.52704 9.31362 9.52704Z" fill="#455A64"/>
<g opacity="0.4">
<path d="M33.9633 21.8751C33.0341 20.1482 30.4948 20.4003 30.4948 20.4003C30.4948 20.4003 17.4065 20.356 16.0269 20.4003C14.6473 20.4445 14.2906 20.4512 13.4446 21.3388C12.5986 22.2264 10.0137 27.5156 10.0137 27.5156H36.634C36.634 27.5156 35.0158 23.8326 33.9633 21.8751Z" fill="black"/>
</g>
<path d="M13.0825 15.1836L13.7623 16.7509C13.7623 16.7509 14.0505 17.3596 15.2371 17.4561C16.1649 17.5299 31.275 17.5259 31.275 17.5259C31.275 17.5259 32.2805 17.6144 32.6747 16.9145C32.9718 16.3539 33.2346 15.7759 33.4617 15.1836H13.0825Z" fill="#263238"/>
<path d="M3.80714 17.1945C3.80641 16.5007 3.84401 15.8074 3.91976 15.1177C3.96266 14.8254 4.52175 13.777 6.1655 13.6C6.59319 13.5531 6.95921 13.5316 7.26624 13.5236C7.79776 13.5068 8.32664 13.6049 8.81674 13.8113C9.30683 14.0177 9.74658 14.3275 10.1059 14.7195C10.3482 14.9852 10.5448 15.2892 10.6878 15.6192C11.275 17.0055 11.5687 18.7028 11.5687 18.7028L3.80714 17.1945Z" fill="#EAEAEA"/>
<g opacity="0.3">
<path d="M3.93098 17.1946H3.80763C3.80763 17.1946 3.38664 18.4643 4.37208 19.0086C5.02234 19.3679 7.20775 19.7219 8.6182 19.9203C9.00749 19.9752 9.4039 19.9495 9.78284 19.8447C10.1618 19.74 10.5151 19.5586 10.821 19.3116L11.5692 18.7083L3.93098 17.1946Z" fill="black"/>
</g>
<path d="M10.6196 2.7345C10.6196 2.7345 10.991 1.11891 11.5139 0.578591C12.0368 0.0382736 12.6522 0.0530219 12.9981 0.239384C13.3065 0.405636 13.7529 1.14706 13.7529 1.14706L12.8935 1.21008C12.8419 1.12481 12.7643 1.05828 12.6722 1.02017C12.58 0.982066 12.4782 0.974384 12.3814 0.998243C12.0703 1.08673 11.8558 1.65923 11.8558 1.65923L11.4844 2.59774L10.6196 2.7345Z" fill="#E0E0E0"/>
<path d="M34.6523 2.614C34.6523 2.614 34.281 1.00512 33.7581 0.458094C33.2352 -0.0889269 32.6198 -0.0674749 32.2739 0.118888C31.9655 0.285139 31.519 1.02657 31.519 1.02657L32.3785 1.09092C32.4299 1.00541 32.5074 0.9386 32.5995 0.900248C32.6917 0.861895 32.7937 0.85401 32.8906 0.877744C33.2017 0.966232 33.4162 1.53873 33.4162 1.53873L33.7876 2.47725L34.6523 2.614Z" fill="#E0E0E0"/>
<path d="M32.6113 14.4687C32.6113 14.4888 28.2137 14.5036 22.789 14.5036C17.3644 14.5036 12.9668 14.4888 12.9668 14.4687C12.9668 14.4486 17.3631 14.4338 22.789 14.4338C28.215 14.4338 32.6113 14.4499 32.6113 14.4687Z" fill="#263238"/>
<g opacity="0.3">
<path d="M3.71749 22.4126C3.71749 22.4126 3.63168 25.5352 5.36928 25.6907L6.54913 25.802C6.81711 25.8273 7.08687 25.7781 7.32865 25.6598C7.57044 25.5415 7.77485 25.3587 7.91936 25.1316L8.99195 23.4476L3.71749 22.4126Z" fill="black"/>
</g>
<g opacity="0.3">
<path d="M2.7373 27.5182L43.5386 27.4927C43.3067 28.6202 42.9353 29.6499 42.3574 30.5308L3.84341 30.2935C3.40636 29.3971 3.03664 28.4694 2.7373 27.5182Z" fill="black"/>
</g>
<path d="M0.679199 10.7565C0.679199 10.7565 0.868246 11.5609 1.84296 11.6239C2.81768 11.6869 4.43461 11.695 4.43461 11.695L5.78339 11.1185L6.34114 9.2334L4.77918 9.91583L0.679199 10.7565Z" fill="#263238"/>
<path d="M0.679282 10.7565C0.679282 10.7565 -0.0447142 9.56592 1.32284 8.8084C2.69039 8.05089 4.89054 8.63679 4.89054 8.63679L4.69614 10.8611L0.679282 10.7565Z" fill="#CDCDCD"/>
<path d="M28.549 22.2317H17.8499C17.1295 22.2317 16.5454 22.8157 16.5454 23.5362V23.8205C16.5454 24.5409 17.1295 25.125 17.8499 25.125H28.549C29.2695 25.125 29.8536 24.5409 29.8536 23.8205V23.5362C29.8536 22.8157 29.2695 22.2317 28.549 22.2317Z" fill="#EAEAEA"/>
<path d="M7.53834 9.55908C7.54639 9.57249 7.29969 9.7012 6.95914 9.98544C6.86568 10.0626 6.77618 10.1445 6.69099 10.2308C6.59446 10.3206 6.50598 10.4279 6.40944 10.5365C6.20971 10.783 6.03374 11.0479 5.88387 11.3275C5.73863 11.6102 5.62185 11.9066 5.53528 12.2124C5.49855 12.3449 5.46857 12.4791 5.44545 12.6146C5.42222 12.7329 5.40566 12.8524 5.39585 12.9726C5.35696 13.415 5.39584 13.6912 5.37707 13.6912C5.36114 13.6285 5.35215 13.5642 5.35026 13.4995C5.34204 13.4238 5.33846 13.3477 5.33953 13.2716C5.33597 13.171 5.33821 13.0703 5.34623 12.9699C5.35311 12.8477 5.36698 12.7259 5.3878 12.6052C5.40936 12.4662 5.438 12.3284 5.47361 12.1923C5.55795 11.8812 5.67433 11.5797 5.82086 11.2927C5.97177 11.007 6.15147 10.7374 6.35715 10.4882C6.44828 10.3809 6.54495 10.2784 6.64675 10.1812C6.73391 10.0953 6.82614 10.0147 6.92294 9.93985C7.00098 9.8756 7.08244 9.81563 7.16696 9.76019C7.22867 9.71589 7.29316 9.67558 7.36003 9.63953C7.41689 9.60734 7.47658 9.58041 7.53834 9.55908Z" fill="#263238"/>
<path d="M34.2765 18.7082C34.2765 18.7283 29.2138 18.7538 22.9714 18.7659C16.7289 18.7779 11.6636 18.7726 11.6636 18.7525C11.6636 18.7323 16.7249 18.7082 22.9714 18.6961C29.2179 18.6841 34.2765 18.6894 34.2765 18.7082Z" fill="#263238"/>
<path d="M25.0042 3.63299C25.0136 3.64908 23.1902 4.74446 20.9324 6.07716C18.6746 7.40985 16.8365 8.47842 16.8257 8.46099C16.815 8.44356 18.6384 7.35086 20.8976 6.01682C23.1567 4.68279 24.9935 3.6169 25.0042 3.63299Z" fill="#E0E0E0"/>
<path d="M21.2113 4.01902C21.222 4.03511 19.8706 4.91732 18.196 5.98991C16.5214 7.0625 15.1525 7.91789 15.1431 7.9018C15.1337 7.88571 16.4839 7.0035 18.1584 5.93091C19.833 4.85832 21.2019 4.00293 21.2113 4.01902Z" fill="#E0E0E0"/>
<path d="M27.0047 3.81811C27.0154 3.8342 25.8101 4.65607 24.3138 5.65224C22.8175 6.64841 21.5948 7.44481 21.5841 7.42872C21.5733 7.41263 22.7773 6.5921 24.2749 5.59459C25.7725 4.59708 26.9939 3.80202 27.0047 3.81811Z" fill="#E0E0E0"/>
<path d="M43.5386 27.4929C43.5386 27.5116 34.4042 27.5331 23.1393 27.5398C11.8744 27.5465 2.7373 27.5398 2.7373 27.5183C2.7373 27.4969 11.8691 27.4781 23.1393 27.4701C34.4096 27.462 43.5386 27.4741 43.5386 27.4929Z" fill="#263238"/>
<path d="M40.4817 14.4714C40.4951 14.3979 40.5135 14.3253 40.5367 14.2542C40.5927 14.0585 40.6374 13.8598 40.6707 13.6589C40.7186 13.3621 40.733 13.0607 40.7136 12.7606C40.6973 12.3937 40.6123 12.033 40.4629 11.6974C40.3022 11.3662 40.1014 11.0559 39.865 10.7737C39.676 10.5404 39.462 10.3286 39.2268 10.1422C39.0683 10.0108 38.8863 9.91071 38.6905 9.84722C38.6388 9.82962 38.5852 9.81792 38.5309 9.81236C38.5117 9.81089 38.4928 9.80683 38.4746 9.80029C38.4746 9.80029 38.4934 9.80029 38.5323 9.80029C38.5885 9.80055 38.6445 9.80867 38.6985 9.82443C38.8976 9.88011 39.0835 9.97491 39.2455 10.1033C39.489 10.2877 39.7104 10.4996 39.9052 10.7348C40.1482 11.0203 40.3536 11.3357 40.5166 11.6733C40.6025 11.8465 40.6647 12.0305 40.7016 12.2203C40.7375 12.3972 40.7604 12.5764 40.77 12.7566C40.7875 13.0612 40.7686 13.3669 40.7136 13.667C40.6769 13.8687 40.6263 14.0676 40.5621 14.2623C40.5393 14.3306 40.5192 14.3829 40.5058 14.4191C40.4924 14.4553 40.4844 14.4728 40.4817 14.4714Z" fill="#263238"/>
<path d="M42.0424 17.1946C42.0432 16.5008 42.0051 15.8074 41.9285 15.1178C41.8869 14.8256 41.3278 13.7771 39.6827 13.6001C39.2564 13.5532 38.8903 13.5317 38.5833 13.5237C38.0513 13.5063 37.5219 13.6042 37.0312 13.8106C36.5406 14.017 36.1005 14.3271 35.7409 14.7196C35.4982 14.9853 35.3012 15.2893 35.1577 15.6193C34.5705 17.0056 34.2769 18.703 34.2769 18.703L42.0424 17.1946Z" fill="#EAEAEA"/>
<g opacity="0.3">
<path d="M41.9153 17.1946H42.0427C42.0427 17.1946 42.4623 18.4643 41.4769 19.0086C40.8266 19.3679 38.6412 19.7219 37.2307 19.9203C36.8415 19.9751 36.4451 19.9493 36.0661 19.8446C35.6872 19.7399 35.3338 19.5585 35.0279 19.3116L34.2798 18.7083L41.9153 17.1946Z" fill="black"/>
</g>
<g opacity="0.3">
<path d="M42.1285 22.4126C42.1285 22.4126 42.2156 25.5352 40.478 25.6907L39.2968 25.802C39.0289 25.827 38.7592 25.7776 38.5175 25.6594C38.2758 25.5411 38.0713 25.3585 37.9266 25.1316L36.854 23.4476L42.1285 22.4126Z" fill="black"/>
</g>
</svg>
