<svg width="24" height="24" viewBox="0 0 24 24" fill="none" xmlns="http://www.w3.org/2000/svg">
<path d="M4.12499 20.4471H19.875C21.9741 20.4471 23.0293 19.413 23.0293 17.3439V6.66643C23.0293 4.59729 21.9741 3.55243 19.875 3.55243H4.12499C2.02585 3.55243 0.970703 4.59729 0.970703 6.66643V17.3439C0.970703 19.413 2.02542 20.4471 4.12499 20.4471ZM2.58813 6.75729C2.58813 5.71243 3.15085 5.17029 4.15499 5.17029H19.8548C20.8491 5.17029 21.4118 5.71243 21.4118 6.75729V7.60072H2.58813V6.75729ZM4.15499 18.831C3.15042 18.831 2.58813 18.2983 2.58813 17.2539V9.88072H21.4118V17.2534C21.4118 18.2979 20.8491 18.8306 19.8548 18.8306L4.15499 18.831ZM5.30999 15.8571H7.77127C8.36399 15.8571 8.7557 15.4654 8.7557 14.8929V13.0346C8.7557 12.4723 8.36399 12.0703 7.77127 12.0703H5.30999C4.71727 12.0703 4.32556 12.4723 4.32556 13.0346V14.8929C4.32556 15.4654 4.71727 15.8571 5.30999 15.8571Z" fill="#52535C"/>
</svg>
