<svg width="24" height="24" viewBox="0 0 24 24" fill="none" xmlns="http://www.w3.org/2000/svg">
<g clip-path="url(#clip0_2022_1257)">
<path d="M10 11.3333H12V12.6667H10V11.3333Z" fill="#52535C"/>
<path d="M17.6335 9.44667C16.4511 7.51187 14.8382 5.87608 12.9202 4.66667C12.0341 4.1051 11.024 3.76896 9.97816 3.68762C8.93229 3.60627 7.8824 3.78219 6.92016 4.2C6.0785 4.59701 5.34612 5.19292 4.78628 5.93628C4.22644 6.67964 3.85596 7.5481 3.70683 8.46667C3.6535 8.78 3.6135 9.08 3.5735 9.37334C2.94933 9.47451 2.38141 9.79418 1.97112 10.2753C1.56082 10.7564 1.33483 11.3677 1.3335 12V16.0867C1.3335 16.4403 1.47397 16.7794 1.72402 17.0295C1.97407 17.2795 2.31321 17.42 2.66683 17.42V12C2.66683 11.6464 2.80731 11.3072 3.05735 11.0572C3.3074 10.8071 3.64654 10.6667 4.00016 10.6667H16.4868C17.7717 10.6684 19.0034 11.1796 19.912 12.0882C20.8205 12.9967 21.3317 14.2285 21.3335 15.5133V16H20.0002C19.7186 15.3134 19.1941 14.7545 18.5268 14.43C17.8594 14.1054 17.0959 14.038 16.382 14.2404C15.6681 14.4429 15.0537 14.9012 14.6561 15.5277C14.2585 16.1543 14.1055 16.9053 14.2263 17.6375C14.3471 18.3697 14.7332 19.0318 15.3111 19.4974C15.8889 19.963 16.6179 20.1996 17.359 20.162C18.1002 20.1244 18.8015 19.8152 19.3292 19.2935C19.8569 18.7717 20.1741 18.074 20.2202 17.3333H21.3335C21.6871 17.3333 22.0263 17.1929 22.2763 16.9428C22.5264 16.6928 22.6668 16.3536 22.6668 16V15.5133C22.6641 14.0746 22.1601 12.6818 21.2415 11.5746C20.3228 10.4673 19.047 9.71488 17.6335 9.44667ZM7.3335 9.33334H4.62016C4.62016 9.12667 4.68016 8.91334 4.72016 8.66667C4.83534 7.93431 5.13593 7.24358 5.59334 6.66015C6.05075 6.07671 6.64979 5.61997 7.3335 5.33334V9.33334ZM8.66683 9.33334V5.05334C9.91146 4.89171 11.1737 5.16489 12.2402 5.82667C13.696 6.73345 14.9525 7.92645 15.9335 9.33334H8.66683ZM17.2002 18.92C16.8705 18.92 16.5483 18.8223 16.2742 18.6391C16.0001 18.456 15.7865 18.1957 15.6604 17.8911C15.5342 17.5866 15.5012 17.2515 15.5655 16.9282C15.6298 16.6049 15.7886 16.3079 16.0217 16.0748C16.2547 15.8417 16.5517 15.683 16.875 15.6187C17.1983 15.5544 17.5334 15.5874 17.838 15.7135C18.1425 15.8397 18.4028 16.0533 18.5859 16.3274C18.7691 16.6015 18.8668 16.9237 18.8668 17.2533C18.8668 17.6954 18.6912 18.1193 18.3787 18.4318C18.0661 18.7444 17.6422 18.92 17.2002 18.92Z" fill="#52535C"/>
<path d="M9.44651 16C9.16495 15.3134 8.64045 14.7545 7.9731 14.43C7.30575 14.1054 6.54226 14.038 5.82834 14.2404C5.11442 14.4429 4.50003 14.9012 4.10242 15.5277C3.70481 16.1543 3.55181 16.9053 3.67262 17.6375C3.79343 18.3697 4.17959 19.0318 4.75741 19.4974C5.33523 19.963 6.06427 20.1996 6.80539 20.162C7.54652 20.1244 8.24786 19.8152 8.77557 19.2935C9.30329 18.7717 9.62044 18.074 9.66651 17.3333H13.1998V17.1667C13.1867 16.7733 13.2316 16.3802 13.3332 16H9.44651ZM6.66651 18.92C6.33687 18.92 6.01464 18.8223 5.74056 18.6391C5.46648 18.456 5.25285 18.1957 5.12671 17.8911C5.00056 17.5866 4.96756 17.2515 5.03187 16.9282C5.09617 16.6049 5.25491 16.3079 5.488 16.0748C5.72108 15.8417 6.01806 15.683 6.34136 15.6187C6.66466 15.5544 6.99977 15.5874 7.30431 15.7135C7.60886 15.8397 7.86915 16.0533 8.05229 16.3274C8.23543 16.6015 8.33317 16.9237 8.33317 17.2533C8.33317 17.6954 8.15758 18.1193 7.84502 18.4318C7.53246 18.7444 7.10854 18.92 6.66651 18.92Z" fill="#52535C"/>
</g>
<defs>
<clipPath id="clip0_2022_1257">
<rect width="24" height="24" fill="white"/>
</clipPath>
</defs>
</svg>
