<svg width="18" height="18" viewBox="0 0 18 18" fill="none" xmlns="http://www.w3.org/2000/svg">
<path d="M5.349 15.5527C4.18193 14.9024 3.20978 13.952 2.5331 12.8C1.85641 11.6479 1.49975 10.3361 1.5 9C1.5 4.85775 4.85775 1.5 9 1.5C13.1423 1.5 16.5 4.85775 16.5 9C16.5002 10.3361 16.1436 11.6479 15.4669 12.8C14.7902 13.952 13.8181 14.9024 12.651 15.5527L11.979 14.2095C13.1272 13.5526 14.0262 12.5347 14.5361 11.3141C15.0459 10.0934 15.1381 8.73852 14.7982 7.46007C14.4584 6.18163 13.7056 5.05133 12.6569 4.245C11.6082 3.43866 10.3225 3.00149 8.99963 3.00149C7.67678 3.00149 6.39102 3.43866 5.34234 4.245C4.29366 5.05133 3.54085 6.18163 3.201 7.46007C2.86116 8.73852 2.95334 10.0934 3.4632 11.3141C3.97306 12.5347 4.87202 13.5526 6.02025 14.2095L5.349 15.5527ZM6.693 12.8647C5.84726 12.3599 5.19053 11.5914 4.82357 10.6774C4.45661 9.76328 4.3997 8.75405 4.66157 7.80451C4.92344 6.85498 5.48962 6.01759 6.27324 5.42082C7.05686 4.82406 8.01464 4.50088 8.99963 4.50088C9.98461 4.50088 10.9424 4.82406 11.726 5.42082C12.5096 6.01759 13.0758 6.85498 13.3377 7.80451C13.5995 8.75405 13.5426 9.76328 13.1757 10.6774C12.8087 11.5914 12.152 12.3599 11.3062 12.8647L10.6327 11.517C11.1756 11.1648 11.59 10.6466 11.8142 10.0396C12.0384 9.43255 12.0603 8.76933 11.8767 8.14885C11.693 7.52837 11.3137 6.9839 10.7953 6.59668C10.2768 6.20945 9.64708 6.00023 9 6.00023C8.35292 6.00023 7.72318 6.20945 7.20475 6.59668C6.68632 6.9839 6.30698 7.52837 6.12334 8.14885C5.93971 8.76933 5.96161 9.43255 6.18579 10.0396C6.40997 10.6466 6.8244 11.1648 7.36725 11.517L6.693 12.8647ZM9 12L11.25 16.5H6.75L9 12Z" fill="#00C977"/>
</svg>
