<svg width="16" height="16" viewBox="0 0 16 16" fill="none" xmlns="http://www.w3.org/2000/svg">
<path d="M8 14.6663C8 14.6663 13 10.6663 13 6.33301C13 3.57167 10.7613 1.33301 8 1.33301C5.23867 1.33301 3 3.57167 3 6.33301C3 10.6663 8 14.6663 8 14.6663Z" stroke="#52535C" stroke-linejoin="round"/>
<path d="M8 8.33301C8.26264 8.33301 8.52272 8.28128 8.76537 8.18077C9.00802 8.08026 9.2285 7.93294 9.41421 7.74722C9.59993 7.5615 9.74725 7.34103 9.84776 7.09837C9.94827 6.85572 10 6.59565 10 6.33301C10 6.07036 9.94827 5.81029 9.84776 5.56764C9.74725 5.32499 9.59993 5.10451 9.41421 4.91879C9.2285 4.73308 9.00802 4.58576 8.76537 4.48525C8.52272 4.38474 8.26264 4.33301 8 4.33301C7.46957 4.33301 6.96086 4.54372 6.58579 4.91879C6.21071 5.29387 6 5.80257 6 6.33301C6 6.86344 6.21071 7.37215 6.58579 7.74722C6.96086 8.12229 7.46957 8.33301 8 8.33301Z" stroke="#52535C" stroke-linejoin="round"/>
</svg>
