<svg width="15" height="19" viewBox="0 0 15 19" fill="none" xmlns="http://www.w3.org/2000/svg">
<path d="M7.50122 18.375C8.58886 18.375 9.47874 17.5442 9.47874 16.5288H5.5237C5.5237 17.5442 6.40369 18.375 7.50122 18.375ZM13.4338 12.8365V8.22115C13.4338 5.38731 11.8122 3.015 8.98436 2.38731V1.75962C8.98436 0.993462 8.32189 0.375 7.50122 0.375C6.68055 0.375 6.01808 0.993462 6.01808 1.75962V2.38731C3.18033 3.015 1.56865 5.37808 1.56865 8.22115V12.8365L0.293145 14.0273C-0.329775 14.6088 0.10528 15.6058 0.985278 15.6058H14.0073C14.8873 15.6058 15.3322 14.6088 14.7093 14.0273L13.4338 12.8365Z" fill="white"/>
</svg>
